<svg viewBox="0 0 16 16" fill="none" xmlns="http://www.w3.org/2000/svg">
<path d="M8 16C12.4183 16 16 12.4183 16 8C16 3.58172 12.4183 0 8 0C3.58172 0 0 3.58172 0 8C0 12.4183 3.58172 16 8 16Z" fill="#999999"/>
<path d="M8.81273 7.89447L10.9267 5.77147C10.95 5.74959 10.9686 5.72318 10.9812 5.69385C10.9939 5.66453 11.0005 5.63292 11.0005 5.60097C11.0005 5.56902 10.9939 5.53742 10.9812 5.50809C10.9686 5.47877 10.95 5.45235 10.9267 5.43047L10.6027 5.09047C10.5807 5.0673 10.5542 5.04884 10.5248 5.03623C10.4954 5.02362 10.4637 5.01712 10.4317 5.01712C10.3997 5.01712 10.3681 5.02362 10.3387 5.03623C10.3093 5.04884 10.2828 5.0673 10.2607 5.09047L8.13273 7.21347C8.11799 7.22884 8.10029 7.24106 8.0807 7.24942C8.06111 7.25777 8.04003 7.26207 8.01873 7.26207C7.99744 7.26207 7.97636 7.25777 7.95677 7.24942C7.93718 7.24106 7.91948 7.22884 7.90473 7.21347L5.77273 5.07347C5.75069 5.0503 5.72416 5.03184 5.69477 5.01923C5.66537 5.00662 5.63372 5.00012 5.60173 5.00012C5.56975 5.00012 5.53809 5.00662 5.5087 5.01923C5.4793 5.03184 5.45278 5.0503 5.43073 5.07347L5.08973 5.41347C5.06645 5.43535 5.0479 5.46177 5.03522 5.49109C5.02254 5.52042 5.016 5.55202 5.016 5.58397C5.016 5.61592 5.02254 5.64753 5.03522 5.67685C5.0479 5.70618 5.06645 5.73259 5.08973 5.75447L7.21773 7.87747C7.23307 7.89213 7.24528 7.90975 7.25362 7.92925C7.26196 7.94876 7.26626 7.96976 7.26626 7.99097C7.26626 8.01219 7.26196 8.03318 7.25362 8.05269C7.24528 8.0722 7.23307 8.08981 7.21773 8.10447L5.07373 10.2455C5.05045 10.2674 5.0319 10.2938 5.01922 10.3231C5.00654 10.3524 5 10.384 5 10.416C5 10.4479 5.00654 10.4795 5.01922 10.5089C5.0319 10.5382 5.05045 10.5646 5.07373 10.5865L5.41573 10.9275C5.43778 10.9506 5.4643 10.9691 5.4937 10.9817C5.52309 10.9943 5.55475 11.0008 5.58673 11.0008C5.61872 11.0008 5.65037 10.9943 5.67977 10.9817C5.70916 10.9691 5.73569 10.9506 5.75773 10.9275L7.88773 8.80247C7.90248 8.78711 7.92018 8.77488 7.93977 8.76653C7.95936 8.75818 7.98044 8.75387 8.00173 8.75387C8.02303 8.75387 8.04411 8.75818 8.0637 8.76653C8.08329 8.77488 8.10099 8.78711 8.11573 8.80247L10.2437 10.9255C10.2658 10.9486 10.2923 10.9671 10.3217 10.9797C10.3511 10.9923 10.3827 10.9988 10.4147 10.9988C10.4467 10.9988 10.4784 10.9923 10.5078 10.9797C10.5372 10.9671 10.5637 10.9486 10.5857 10.9255L10.9277 10.5845C10.951 10.5626 10.9696 10.5362 10.9822 10.5069C10.9949 10.4775 11.0015 10.4459 11.0015 10.414C11.0015 10.382 10.9949 10.3504 10.9822 10.3211C10.9696 10.2918 10.951 10.2654 10.9277 10.2435L8.81273 8.12147C8.79739 8.10681 8.78519 8.0892 8.77685 8.06969C8.76851 8.05018 8.76421 8.02919 8.76421 8.00797C8.76421 7.98676 8.76851 7.96576 8.77685 7.94625C8.78519 7.92675 8.79739 7.90913 8.81273 7.89447Z" fill="white"/>
</svg>
