<svg viewBox="0 0 11 15" xmlns="http://www.w3.org/2000/svg">
<path d="M0.184625 8.61535C-0.0615292 8.8615 -0.0615292 9.19996 0.184625 9.44612L4.80001 13.9692C5.04616 14.2153 5.41539 14.2153 5.66155 13.9692L10.2769 9.44612C10.5231 9.19996 10.5231 8.8615 10.2769 8.61535L9.41539 7.78458C9.16924 7.53842 8.80001 7.53842 8.55386 7.78458L7.1077 9.19996C6.86155 9.44612 6.43078 9.2615 6.43078 8.92304L6.43078 0.615347C6.43078 0.307654 6.15386 -3.8147e-05 5.81539 -3.8147e-05H4.58463C4.24616 -3.8147e-05 3.96924 0.338424 3.96924 0.615347L3.96924 8.92304C3.96924 9.29227 3.53847 9.44612 3.29232 9.19996L1.84616 7.78458C1.60001 7.53842 1.23078 7.53842 0.984626 7.78458L0.184625 8.61535Z" />
</svg>
