<svg viewBox="0 0 13 14" xmlns="http://www.w3.org/2000/svg">
<path d="M12.5564 5.25024H0.443575C0.326775 5.25289 0.215505 5.29988 0.132893 5.38143C0.050282 5.46299 0.00268609 5.57284 0 5.68815V12.8332C0.000760571 13.1424 0.125527 13.4388 0.347012 13.6574C0.568498 13.8761 0.868678 13.9992 1.18191 14H11.8171C12.1304 13.9992 12.4305 13.8761 12.652 13.6574C12.8735 13.4388 12.9983 13.1424 12.999 12.8332V5.6872C12.9961 5.57222 12.9486 5.46274 12.8662 5.38141C12.7838 5.30008 12.6729 5.25312 12.5564 5.25024ZM4.43191 11.6664C4.43429 11.7053 4.42827 11.7443 4.41425 11.7808C4.40023 11.8173 4.37853 11.8504 4.35058 11.878C4.32263 11.9056 4.28907 11.927 4.25211 11.9409C4.21515 11.9547 4.17564 11.9606 4.13619 11.9583H2.95524C2.91579 11.9606 2.87628 11.9547 2.83932 11.9409C2.80236 11.927 2.7688 11.9056 2.74085 11.878C2.7129 11.8504 2.6912 11.8173 2.67718 11.7808C2.66316 11.7443 2.65715 11.7053 2.65953 11.6664V10.4995C2.65715 10.4606 2.66316 10.4216 2.67718 10.3851C2.6912 10.3486 2.7129 10.3155 2.74085 10.2879C2.7688 10.2603 2.80236 10.2389 2.83932 10.225C2.87628 10.2112 2.91579 10.2052 2.95524 10.2076H4.13619C4.17564 10.2052 4.21515 10.2112 4.25211 10.225C4.28907 10.2389 4.32263 10.2603 4.35058 10.2879C4.37853 10.3155 4.40023 10.3486 4.41425 10.3851C4.42827 10.4216 4.43429 10.4606 4.43191 10.4995V11.6664ZM4.43191 8.74976C4.43429 8.78871 4.42827 8.82772 4.41425 8.86421C4.40023 8.90069 4.37853 8.93383 4.35058 8.96142C4.32263 8.98901 4.28907 9.01044 4.25211 9.02428C4.21515 9.03812 4.17564 9.04406 4.13619 9.04171H2.95524C2.91579 9.04406 2.87628 9.03812 2.83932 9.02428C2.80236 9.01044 2.7688 8.98901 2.74085 8.96142C2.7129 8.93383 2.6912 8.90069 2.67718 8.86421C2.66316 8.82772 2.65715 8.78871 2.65953 8.74976V7.58294C2.65715 7.54399 2.66316 7.50498 2.67718 7.46849C2.6912 7.43201 2.7129 7.39888 2.74085 7.37128C2.7688 7.34369 2.80236 7.32227 2.83932 7.30843C2.87628 7.29459 2.91579 7.28864 2.95524 7.291H4.13619C4.17564 7.28864 4.21515 7.29459 4.25211 7.30843C4.28907 7.32227 4.32263 7.34369 4.35058 7.37128C4.37853 7.39888 4.40023 7.43201 4.41425 7.46849C4.42827 7.50498 4.43429 7.54399 4.43191 7.58294V8.74976ZM7.38619 11.6664C7.38857 11.7053 7.38255 11.7443 7.36853 11.7808C7.35451 11.8173 7.33281 11.8504 7.30486 11.878C7.27691 11.9056 7.24335 11.927 7.20639 11.9409C7.16944 11.9547 7.12993 11.9606 7.09047 11.9583H5.90953C5.87007 11.9606 5.83056 11.9547 5.7936 11.9409C5.75665 11.927 5.72309 11.9056 5.69514 11.878C5.66719 11.8504 5.64549 11.8173 5.63147 11.7808C5.61745 11.7443 5.61143 11.7053 5.61381 11.6664V10.4995C5.61143 10.4606 5.61745 10.4216 5.63147 10.3851C5.64549 10.3486 5.66719 10.3155 5.69514 10.2879C5.72309 10.2603 5.75665 10.2389 5.7936 10.225C5.83056 10.2112 5.87007 10.2052 5.90953 10.2076H7.09047C7.12993 10.2052 7.16944 10.2112 7.20639 10.225C7.24335 10.2389 7.27691 10.2603 7.30486 10.2879C7.33281 10.3155 7.35451 10.3486 7.36853 10.3851C7.38255 10.4216 7.38857 10.4606 7.38619 10.4995V11.6664ZM7.38619 8.74976C7.38857 8.78871 7.38255 8.82772 7.36853 8.86421C7.35451 8.90069 7.33281 8.93383 7.30486 8.96142C7.27691 8.98901 7.24335 9.01044 7.20639 9.02428C7.16944 9.03812 7.12993 9.04406 7.09047 9.04171H5.90953C5.87007 9.04406 5.83056 9.03812 5.7936 9.02428C5.75665 9.01044 5.72309 8.98901 5.69514 8.96142C5.66719 8.93383 5.64549 8.90069 5.63147 8.86421C5.61745 8.82772 5.61143 8.78871 5.61381 8.74976V7.58294C5.61143 7.54399 5.61745 7.50498 5.63147 7.46849C5.64549 7.43201 5.66719 7.39888 5.69514 7.37128C5.72309 7.34369 5.75665 7.32227 5.7936 7.30843C5.83056 7.29459 5.87007 7.28864 5.90953 7.291H7.09047C7.12993 7.28864 7.16944 7.29459 7.20639 7.30843C7.24335 7.32227 7.27691 7.34369 7.30486 7.37128C7.33281 7.39888 7.35451 7.43201 7.36853 7.46849C7.38255 7.50498 7.38857 7.54399 7.38619 7.58294V8.74976ZM10.3405 11.6664C10.3429 11.7053 10.3368 11.7443 10.3228 11.7808C10.3088 11.8173 10.2871 11.8504 10.2591 11.878C10.2312 11.9056 10.1976 11.927 10.1607 11.9409C10.1237 11.9547 10.0842 11.9606 10.0448 11.9583H8.86381C8.82436 11.9606 8.78485 11.9547 8.74789 11.9409C8.71093 11.927 8.67737 11.9056 8.64942 11.878C8.62147 11.8504 8.59977 11.8173 8.58575 11.7808C8.57173 11.7443 8.56571 11.7053 8.5681 11.6664V10.4995C8.56571 10.4606 8.57173 10.4216 8.58575 10.3851C8.59977 10.3486 8.62147 10.3155 8.64942 10.2879C8.67737 10.2603 8.71093 10.2389 8.74789 10.225C8.78485 10.2112 8.82436 10.2052 8.86381 10.2076H10.0457C10.0852 10.2052 10.1247 10.2112 10.1616 10.225C10.1986 10.2389 10.2322 10.2603 10.2601 10.2879C10.2881 10.3155 10.3098 10.3486 10.3238 10.3851C10.3378 10.4216 10.3438 10.4606 10.3414 10.4995L10.3405 11.6664ZM10.3405 8.74976C10.3429 8.78871 10.3368 8.82772 10.3228 8.86421C10.3088 8.90069 10.2871 8.93383 10.2591 8.96142C10.2312 8.98901 10.1976 9.01044 10.1607 9.02428C10.1237 9.03812 10.0842 9.04406 10.0448 9.04171H8.86381C8.82436 9.04406 8.78485 9.03812 8.74789 9.02428C8.71093 9.01044 8.67737 8.98901 8.64942 8.96142C8.62147 8.93383 8.59977 8.90069 8.58575 8.86421C8.57173 8.82772 8.56571 8.78871 8.5681 8.74976V7.58294C8.56571 7.54399 8.57173 7.50498 8.58575 7.46849C8.59977 7.43201 8.62147 7.39888 8.64942 7.37128C8.67737 7.34369 8.71093 7.32227 8.74789 7.30843C8.78485 7.29459 8.82436 7.28864 8.86381 7.291H10.0457C10.0851 7.28878 10.1245 7.29483 10.1613 7.30873C10.1982 7.32263 10.2316 7.34408 10.2595 7.37166C10.2873 7.39923 10.3089 7.43232 10.3229 7.46873C10.3368 7.50515 10.3428 7.54407 10.3405 7.58294V8.74976ZM11.8171 1.45877H10.3405V0.874881C10.3405 0.642848 10.2471 0.420319 10.0809 0.256247C9.91472 0.0921748 9.68931 0 9.45428 0C9.21925 0 8.99385 0.0921748 8.82765 0.256247C8.66146 0.420319 8.5681 0.642848 8.5681 0.874881V1.45782H4.43191V0.874881C4.43191 0.642848 4.33854 0.420319 4.17235 0.256247C4.00615 0.0921748 3.78075 0 3.54572 0C3.31068 0 3.08528 0.0921748 2.91909 0.256247C2.75289 0.420319 2.65953 0.642848 2.65953 0.874881V1.45782H1.18287C0.869473 1.45857 0.569147 1.58188 0.347634 1.80074C0.126121 2.0196 0.00146713 2.3162 0.00096012 2.62559V3.3545C0.00364621 3.46981 0.0512421 3.57966 0.133853 3.66122C0.216465 3.74278 0.327736 3.78977 0.444535 3.79242H12.5564C12.6732 3.78977 12.7845 3.74278 12.8671 3.66122C12.9497 3.57966 12.9973 3.46981 13 3.3545V2.62559C12.9992 2.3162 12.8743 2.01971 12.6526 1.80102C12.431 1.58233 12.1305 1.45927 11.8171 1.45877Z" />
</svg>
