<svg viewBox="0 0 12 9" xmlns="http://www.w3.org/2000/svg">
<path d="M4.24752 8.37989L0.113715 4.22166C0.0414615 4.14812 0.000976562 4.04914 0.000976562 3.94604C0.000976563 3.84295 0.0414615 3.74397 0.113715 3.67043L0.664943 3.1192C0.738485 3.04695 0.83746 3.00646 0.940557 3.00646C1.04365 3.00646 1.14263 3.04695 1.21617 3.1192L4.32243 6.2507C4.37314 6.29899 4.44049 6.32592 4.51051 6.32592C4.58054 6.32592 4.64788 6.29899 4.6986 6.2507L10.7865 0.112281C10.8601 0.0400272 10.9591 -0.000457764 11.0621 -0.000457764C11.1652 -0.000457764 11.2642 0.0400272 11.3378 0.112281L11.889 0.663509C11.9612 0.737051 12.0017 0.836026 12.0017 0.939123C12.0017 1.04222 11.9612 1.14119 11.889 1.21474L4.79875 8.37989C4.76555 8.42102 4.72356 8.4542 4.67587 8.477C4.62818 8.49979 4.57599 8.51162 4.52313 8.51162C4.47027 8.51162 4.41808 8.49979 4.37039 8.477C4.3227 8.4542 4.28072 8.42102 4.24752 8.37989Z" />
</svg>
