<svg viewBox="0 0 12 12" xmlns="http://www.w3.org/2000/svg">
<path d="M6 0C2.7 0 0 2.7 0 6C0 9.3 2.7 12 6 12C9.3 12 12 9.3 12 6C12 2.7 9.3 0 6 0ZM6 10.5C3.525 10.5 1.5 8.475 1.5 6C1.5 3.525 3.525 1.5 6 1.5C8.475 1.5 10.5 3.525 10.5 6C10.5 8.475 8.475 10.5 6 10.5ZM6.85 6.05C6.775 5.975 6.75 5.875 6.75 5.775V3.375C6.75 3.175 6.575 3 6.375 3H5.625C5.425 3 5.25 3.175 5.25 3.375V6.4C5.25 6.5 5.3 6.6 5.35 6.675L7.2 8.525C7.35 8.675 7.575 8.675 7.725 8.525L8.25 8C8.4 7.85 8.4 7.625 8.25 7.475L6.85 6.05Z"/>
</svg>
