<svg viewBox="0 0 12 12" xmlns="http://www.w3.org/2000/svg">
<path fill-rule="evenodd" clip-rule="evenodd" d="M2.75895 5.25C4.28268 5.25 5.5179 4.07475 5.5179 2.625C5.5179 1.17525 4.28268 0 2.75895 0C1.23522 0 0 1.17525 0 2.625C0 4.07475 1.23522 5.25 2.75895 5.25ZM2.79291 3.75C3.46456 3.75 4.00904 3.24632 4.00904 2.625C4.00904 2.00368 3.46456 1.5 2.79291 1.5C2.12126 1.5 1.57678 2.00368 1.57678 2.625C1.57678 3.24632 2.12126 3.75 2.79291 3.75ZM10.616 0.530332C10.9326 0.237438 11.4459 0.237438 11.7625 0.530332C12.0791 0.823226 12.0791 1.2981 11.7625 1.591L1.44337 11.137C1.12675 11.4299 0.61341 11.4299 0.296793 11.137C-0.0198251 10.8441 -0.019825 10.3692 0.296793 10.0763L10.616 0.530332ZM11.8241 9.375C11.8241 10.8247 10.5888 12 9.0651 12C7.54138 12 6.30615 10.8247 6.30615 9.375C6.30615 7.92525 7.54138 6.75 9.0651 6.75C10.5888 6.75 11.8241 7.92525 11.8241 9.375ZM10.3153 9.375C10.3153 9.99632 9.77077 10.5 9.09912 10.5C8.42747 10.5 7.883 9.99632 7.883 9.375C7.883 8.75368 8.42747 8.25 9.09912 8.25C9.77077 8.25 10.3153 8.75368 10.3153 9.375Z" />
</svg>
