<svg viewBox="0 0 12 12" xmlns="http://www.w3.org/2000/svg">
<path d="M6.72419 5.1336L6.71401 1.1382C6.71518 1.09569 6.70767 1.05339 6.69194 1.01388C6.67621 0.974376 6.65259 0.938491 6.62252 0.908422C6.59245 0.878353 6.55657 0.854732 6.51706 0.839002C6.47755 0.823273 6.43525 0.815765 6.39274 0.816938L5.76663 0.801667C5.72411 0.800756 5.68186 0.808459 5.6424 0.82431C5.60294 0.840161 5.5671 0.863833 5.53703 0.893901C5.50696 0.923968 5.48329 0.95981 5.46744 0.999267C5.45159 1.03872 5.44389 1.08098 5.4448 1.12349L5.43801 5.13586C5.43867 5.16419 5.43357 5.19236 5.42303 5.21866C5.41249 5.24497 5.39672 5.26886 5.37669 5.2889C5.35665 5.30894 5.33276 5.3247 5.30645 5.33524C5.28015 5.34578 5.25198 5.35088 5.22365 5.35022L1.19771 5.34004C1.15519 5.33913 1.11294 5.34684 1.07348 5.36269C1.03402 5.37854 0.998181 5.40221 0.968113 5.43228C0.938046 5.46234 0.914374 5.49819 0.898523 5.53764C0.882672 5.5771 0.874969 5.61936 0.87588 5.66187L0.875314 6.30496C0.874141 6.34746 0.881649 6.38977 0.897379 6.42927C0.913108 6.46878 0.936729 6.50467 0.966798 6.53473C0.996867 6.5648 1.03275 6.58842 1.07226 6.60415C1.11177 6.61988 1.15407 6.62739 1.19657 6.62622L5.20725 6.62113C5.23551 6.62044 5.26362 6.6255 5.28987 6.636C5.31612 6.6465 5.33997 6.66222 5.35996 6.68221C5.37995 6.7022 5.39567 6.72605 5.40617 6.7523C5.41667 6.77855 5.42173 6.80666 5.42104 6.83492L5.41199 10.8733C5.41082 10.9158 5.41833 10.9581 5.43406 10.9976C5.44979 11.0371 5.47341 11.073 5.50348 11.1031C5.53355 11.1332 5.56943 11.1568 5.60894 11.1725C5.64845 11.1882 5.69075 11.1957 5.73325 11.1946L6.37634 11.194C6.41885 11.1949 6.46111 11.1872 6.50057 11.1714C6.54003 11.1555 6.57587 11.1318 6.60593 11.1018C6.636 11.0717 6.65967 11.0359 6.67552 10.9964C6.69138 10.9569 6.69908 10.9147 6.69817 10.8722L6.70665 6.86377C6.706 6.83544 6.71109 6.80727 6.72163 6.78097C6.73217 6.75466 6.74794 6.73077 6.76798 6.71073C6.78801 6.69069 6.81191 6.67493 6.83821 6.66439C6.86452 6.65385 6.89268 6.64875 6.92101 6.64941L10.9306 6.64432C10.9731 6.64523 11.0153 6.63752 11.0548 6.62167C11.0942 6.60582 11.1301 6.58215 11.1601 6.55208C11.1902 6.52202 11.2139 6.48617 11.2297 6.44672C11.2456 6.40726 11.2533 6.365 11.2524 6.32249L11.2529 5.6794C11.2541 5.6369 11.2466 5.59459 11.2309 5.55509C11.2152 5.51558 11.1915 5.4797 11.1615 5.44963C11.1314 5.41956 11.0955 5.39594 11.056 5.38021C11.0165 5.36448 10.9742 5.35697 10.9317 5.35814L6.93798 5.3474C6.90972 5.34809 6.88161 5.34303 6.85536 5.33253C6.82911 5.32203 6.80526 5.3063 6.78527 5.28631C6.76528 5.26632 6.74956 5.24247 6.73906 5.21622C6.72856 5.18997 6.7235 5.16186 6.72419 5.1336Z" />
</svg>
