<svg xmlns="http://www.w3.org/2000/svg" viewBox="0 0 14.743 14.8">
  <defs>
    <style>
      .cls-1 {
        fill: #074b69;
      }
    </style>
  </defs>
  <g id="icons_utility_sort-copy" data-name="icons/utility/sort-copy" transform="translate(-0.615 -0.615)">
    <path id="Mask" class="cls-1" d="M8.446,4.938a.446.446,0,0,0,0-.646L4.938.754a.446.446,0,0,0-.646,0L.754,4.292a.446.446,0,0,0,0,.646l.646.646a.446.446,0,0,0,.646,0L3.154,4.477a.308.308,0,0,1,.523.215v6.523a.473.473,0,0,0,.462.462h.923a.5.5,0,0,0,.462-.462V4.692a.308.308,0,0,1,.523-.215L7.154,5.585a.446.446,0,0,0,.646,0l.646-.646Zm6.769,6.154-.646-.615a.446.446,0,0,0-.646,0l-1.108,1.108a.308.308,0,0,1-.523-.215V4.785a.473.473,0,0,0-.462-.462h-.923a.5.5,0,0,0-.462.462v6.523a.308.308,0,0,1-.523.215L8.815,10.415a.446.446,0,0,0-.646,0l-.646.677a.446.446,0,0,0,0,.646l3.538,3.538a.446.446,0,0,0,.646,0l3.538-3.538a.474.474,0,0,0-.031-.646Z"/>
  </g>
</svg>
