<svg viewBox="0 0 44 44" fill="none" xmlns="http://www.w3.org/2000/svg">
<path d="M22 44C34.1503 44 44 34.1503 44 22C44 9.84974 34.1503 0 22 0C9.84974 0 0 9.84974 0 22C0 34.1503 9.84974 44 22 44Z" fill="#0090B9"/>
<path d="M19.9502 7V19.3158L8.37608 15.1032C10.1005 10.3804 14.6379 7 19.9502 7Z" fill="white"/>
<path d="M22.3082 22.6833V10.3676C29.0989 10.3667 34.624 15.8919 34.624 22.6833C34.624 24.1633 34.3617 25.5809 33.8815 26.896C32.1571 31.6188 27.6206 35 22.3082 35C15.5167 35 9.99157 29.4749 9.99157 22.6833C9.99157 21.2051 10.2539 19.7858 10.7341 18.4707L22.3082 22.6833Z" fill="white"/>
</svg>
