<svg width="14" height="16" fill="none" xmlns="http://www.w3.org/2000/svg"><path d="M13.246 6.062H.754a.486.486 0 00-.492.492v7.23c0 .8.646 1.447 1.446 1.447h10.585c.8 0 1.446-.646 1.446-1.446v-7.23a.486.486 0 00-.493-.493zM4.6 12.8a.486.486 0 01-.492.493h-.954a.486.486 0 01-.492-.493v-.954c0-.277.215-.492.492-.492h.954c.277 0 .492.216.492.493v.953zm3.354 0a.486.486 0 01-.492.493h-.954a.486.486 0 01-.492-.493v-.954c0-.277.215-.492.492-.492h.954c.277 0 .492.216.492.493v.953zm0-3.354a.486.486 0 01-.492.493h-.954a.486.486 0 01-.492-.493v-.953c0-.277.215-.493.492-.493h.954c.277 0 .492.216.492.493v.953zm3.385 0a.486.486 0 01-.493.493h-.954a.486.486 0 01-.492-.493v-.953c0-.277.216-.493.492-.493h.954c.277 0 .493.216.493.493v.953zm.954-7.23h-1.2v-.493a.959.959 0 00-.954-.953.959.959 0 00-.954.953v.493H4.846v-.493A.959.959 0 003.892.77a.959.959 0 00-.953.953v.493H1.708c-.8 0-1.446.646-1.446 1.446v.492c0 .277.215.492.492.492h12.523a.486.486 0 00.492-.492v-.492c-.03-.8-.677-1.446-1.476-1.446z" fill="#706E6B"/></svg>