<svg xmlns="http://www.w3.org/2000/svg" viewBox="0 0 14.77 14.77"><path d="M7.385 0a7.385 7.385 0 107.385 7.385A7.367 7.367 0 007.385 0zm1.508 7.631l2.4 2.4a.3.3 0 010 .431l-.862.862a.3.3 0 01-.431 0l-2.4-2.4a.3.3 0 00-.431 0l-2.4 2.4a.3.3 0 01-.431 0l-.862-.862a.3.3 0 010-.431l2.4-2.4a.3.3 0 000-.431L3.447 4.77a.3.3 0 010-.431l.862-.862a.3.3 0 01.431 0l2.43 2.431a.3.3 0 00.431 0l2.4-2.4a.3.3 0 01.431 0l.862.862a.3.3 0 010 .431l-2.4 2.4a.37.37 0 000 .431z" fill="#074b69" data-name="icons/utility/clear"/></svg>