<svg width="18" height="18" fill="none" xmlns="http://www.w3.org/2000/svg"><rect width="18" height="18" rx="2"/><path d="M15.563 10.458h-.876a.449.449 0 00-.437.438v2.916a.449.449 0 01-.438.438H4.188a.449.449 0 01-.438-.438v-2.916a.449.449 0 00-.438-.438h-.874a.449.449 0 00-.438.438v3.937A1.17 1.17 0 003.167 16h11.666A1.17 1.17 0 0016 14.833v-3.937a.449.449 0 00-.438-.438zm-6.855 1.925a.423.423 0 00.613 0l3.937-3.937a.423.423 0 000-.613l-.612-.612a.423.423 0 00-.613 0L10.4 8.854c-.175.175-.496.059-.496-.204V2.437C9.875 2.204 9.642 2 9.438 2h-.876a.449.449 0 00-.437.438V8.62c0 .262-.32.379-.496.204L5.996 7.192a.423.423 0 00-.613 0l-.612.641a.423.423 0 000 .613l3.937 3.937z" fill="#fff"/></svg>