<svg width="16" height="15" fill="none" xmlns="http://www.w3.org/2000/svg"><path fill-rule="evenodd" clip-rule="evenodd" d="M2.9 9.777l2.74 2.738a.297.297 0 00.43 0l6.83-6.861a.297.297 0 000-.43l-2.707-2.709a.297.297 0 00-.43 0L2.9 9.377c-.123.123-.123.308 0 .4zm8.185-8.523a.297.297 0 000 .43l2.708 2.708a.297.297 0 00.43 0l.77-.769c.492-.461.492-1.2 0-1.692L13.547.485a1.226 1.226 0 00-1.754 0l-.708.769zM.624 14.33a.447.447 0 00.523.523l3.354-.8a.595.595 0 00.277-.154l.061-.062c.062-.061.093-.276-.03-.4l-2.77-2.769c-.123-.123-.338-.092-.4-.03l-.061.061c-.093.092-.123.185-.154.277l-.8 3.354z" fill="#2782ED"/></svg>