<svg width="31" height="30" fill="none" xmlns="http://www.w3.org/2000/svg"><path d="M22.515 7.615h-4.769c-.307 0-.4.277-.154.523L19.1 9.646l-2.77 2.77c-.153.153-.153.4 0 .584l1.14 1.138c.153.154.4.154.584 0l2.8-2.8 1.508 1.508c.246.246.523.154.523-.154V7.954c0-.185-.185-.339-.37-.339zM8.577 22.385h4.738c.308 0 .4-.339.154-.585l-1.508-1.538 2.77-2.8a.428.428 0 000-.585l-1.139-1.139c-.154-.153-.4-.153-.584 0l-2.77 2.77L8.7 17c-.277-.246-.585-.154-.585.154v4.738c0 .216.247.493.462.493z" fill="#fff"/></svg>