<svg width="18" height="18" fill="none" xmlns="http://www.w3.org/2000/svg"><path fill-rule="evenodd" clip-rule="evenodd" d="M6.1 12.678c.209.208.52.173.728 0l3.461-3.462c.243-.242.658-.277.97 0 .311.277.277.762 0 1.039L7 14.443a2.445 2.445 0 01-3.427 0l-.035-.034a2.445 2.445 0 010-3.427L11.05 3.47a2.445 2.445 0 013.427 0l.034.035a2.445 2.445 0 010 3.427l-.034.034a.477.477 0 00-.07.623c.208.381.381.797.485 1.212.07.277.381.346.589.173.277-.277.519-.554.519-.554a4.534 4.534 0 000-6.404h-.07a4.534 4.534 0 00-6.403 0L2.016 9.493a4.534 4.534 0 000 6.404l.07.07a4.492 4.492 0 006.369 0l4.292-4.258c1.108-1.108 1.073-2.908-.07-4.016-1.107-1.073-2.907-1.004-3.98.104L5.305 11.19a.543.543 0 000 .762l.796.727z" fill="#666"/></svg>