<svg width="14" height="17" fill="none" xmlns="http://www.w3.org/2000/svg"><path d="M13.5 3.424H9.333V2.106c0-.349-.141-.684-.391-.93A1.345 1.345 0 008 .789H6c-.353 0-.692.14-.942.387a1.31 1.31 0 00-.391.93v1.318H.5a.515.515 0 00-.35.148.503.503 0 00-.15.346v.988c.003.13.057.254.15.346A.515.515 0 00.5 5.4h13a.516.516 0 00.35-.148.503.503 0 00.15-.346v-.989a.503.503 0 00-.15-.346.516.516 0 00-.35-.147zM6 2.436a.308.308 0 01.203-.31.319.319 0 01.13-.02h1.333a.319.319 0 01.314.2.308.308 0 01.02.13v.988H6v-.988zm6.166 4.28H1.833a.516.516 0 00-.35.149.503.503 0 00-.15.346v7.739a1.614 1.614 0 00.483 1.168 1.653 1.653 0 001.182.478H11a1.669 1.669 0 001.182-.478 1.629 1.629 0 00.484-1.168V7.21a.503.503 0 00-.15-.345.515.515 0 00-.35-.148zM6 13.962a.308.308 0 01-.203.31.32.32 0 01-.13.02H5a.32.32 0 01-.242-.091.31.31 0 01-.091-.24V9.35a.308.308 0 01.203-.31.319.319 0 01.13-.02h.667a.319.319 0 01.313.201.308.308 0 01.02.13v4.61zm3.333 0a.308.308 0 01-.202.31.32.32 0 01-.131.02h-.667a.32.32 0 01-.242-.091.31.31 0 01-.092-.24V9.35a.308.308 0 01.203-.31.319.319 0 01.13-.02H9a.319.319 0 01.313.201.308.308 0 01.02.13l.001 4.61z" fill="#2782ED"/></svg>