<svg width="16" height="16" fill="none" xmlns="http://www.w3.org/2000/svg"><path d="M14.546 0H1.455C.655 0 0 .655 0 1.455v13.09C0 15.346.655 16 1.455 16h13.09c.8 0 1.455-.655 1.455-1.454V1.455C16 .655 15.345 0 14.546 0zM2.909 3.636c0-.218.146-.363.364-.363h3.636c.218 0 .364.145.364.363v3.637c0 .218-.146.363-.364.363H3.273c-.218 0-.364-.145-.364-.363V3.636zm8.727 9.455c0 .218-.145.364-.363.364h-8c-.218 0-.364-.146-.364-.364v-.727c0-.219.146-.364.364-.364h8c.218 0 .363.146.363.364v.727zm1.455-2.91c0 .219-.146.365-.364.365H3.273c-.218 0-.364-.146-.364-.364v-.727c0-.219.146-.364.364-.364h9.454c.218 0 .364.145.364.364v.727zm0-2.908c0 .218-.146.363-.364.363H9.091c-.218 0-.364-.145-.364-.363v-.728c0-.218.146-.363.364-.363h3.636c.218 0 .364.145.364.363v.728zm0-2.91c0 .219-.146.364-.364.364H9.091c-.218 0-.364-.145-.364-.363v-.728c0-.218.146-.363.364-.363h3.636c.218 0 .364.145.364.363v.728z" fill="#fff"/></svg>