<svg width="24" height="24" fill="none" xmlns="http://www.w3.org/2000/svg"><path d="M8 16.69a.994.994 0 00.707-.293l2.829-2.828a.988.988 0 00.28-.641 1.03 1.03 0 00-.052-.4v-.016a.947.947 0 00-.225-.36L8.707 9.33a1 1 0 10-1.414 1.414l1.122 1.122H3a1 1 0 000 2h5.415l-1.122 1.121a1 1 0 00-.205.309.98.98 0 00-.054.226.954.954 0 00-.02.1c-.01.23.057.456.191.642a.895.895 0 00.088.133.993.993 0 00.707.293z" fill="#fff"/><path d="M20.844 16.943c-.29-1.691-2.021-2.557-3.423-3.176-.62-.288-1.485-.618-1.732-1.361a1.358 1.358 0 01.124-1.2c.373-.345.704-.733.989-1.154.083-.124.124-.207.207-.33a4.739 4.739 0 00.453-4.207A3.643 3.643 0 0014.039 3h-.247a3.642 3.642 0 00-3.423 2.515 4.723 4.723 0 00.456 4.215c.053.119.123.23.206.33.297.412.628.797.99 1.154l.007.021.217.217a2 2 0 010 2.828l-2.83 2.824a1.988 1.988 0 01-2.471.279 2.224 2.224 0 002.188 2.364h9.732a2.246 2.246 0 001.98-2.804z" fill="#fff"/></svg>