<svg width="12" height="16" fill="none" xmlns="http://www.w3.org/2000/svg"><path d="M6 5.6V0H1.215a1.15 1.15 0 00-.848.352A1.31 1.31 0 000 1.24v13.52c.007.336.139.655.367.888.228.232.533.359.848.352h9.57c.315.007.62-.12.848-.352A1.31 1.31 0 0012 14.76V6.4H6.75a.727.727 0 01-.53-.234A.828.828 0 016 5.6zm-3.75-.8h1.5c.199 0 .39.084.53.234.141.15.22.354.22.566a.828.828 0 01-.22.566.727.727 0 01-.53.234h-1.5a.727.727 0 01-.53-.234.828.828 0 01-.22-.566c0-.212.079-.416.22-.566a.727.727 0 01.53-.234zm7.5 8h-7.5a.727.727 0 01-.53-.235A.828.828 0 011.5 12c0-.212.079-.416.22-.566a.727.727 0 01.53-.234h7.5c.199 0 .39.084.53.234.141.15.22.354.22.566a.828.828 0 01-.22.566.727.727 0 01-.53.234zm.75-4a.828.828 0 01-.22.566.727.727 0 01-.53.234h-7.5a.727.727 0 01-.53-.234.828.828 0 01-.22-.566c0-.212.079-.416.22-.566A.727.727 0 012.25 8h7.5c.199 0 .39.084.53.234.141.15.22.354.22.566z" fill="#DDD"/><path d="M7.5 0v4.8H12L7.5 0z" fill="#DDD"/></svg>