<svg width="24" height="24" fill="none" xmlns="http://www.w3.org/2000/svg"><path fill-rule="evenodd" clip-rule="evenodd" d="M14.287 9.545H4.546a.559.559 0 00-.546.546V19a1.458 1.458 0 001.455 1.454h6.144a7.002 7.002 0 012.687-10.908zm-4.854 8.142a.343.343 0 00.022-.143V16.09a.344.344 0 00-.364-.364H7.637a.342.342 0 00-.364.364v1.454a.344.344 0 00.364.364h1.454a.344.344 0 00.342-.221zm0-3.636a.344.344 0 00.022-.143v-1.454a.344.344 0 00-.364-.365H7.637a.345.345 0 00-.364.364v1.455a.344.344 0 00.364.364h1.454a.345.345 0 00.342-.221zm7.294-9.232h1.817A1.458 1.458 0 0120 6.273v.909a.559.559 0 01-.546.546H4.547a.559.559 0 01-.546-.546v-.909a1.458 1.458 0 011.455-1.456h1.817v-.726a1.09 1.09 0 012.182 0v.726h5.09v-.726a1.09 1.09 0 012.182 0v.728z" fill="#fff" fill-opacity=".8"/><path fill-rule="evenodd" clip-rule="evenodd" d="M17 22a6 6 0 100-12 6 6 0 000 12zm.745-2.152v-.831h.003a1.873 1.873 0 001.569-1.753c0-1.17-1.14-1.724-2.154-2.062-.831-.308-.923-.492-.923-.677 0-.123.185-.308.585-.308.417.052.817.199 1.169.43a.57.57 0 00.215.063.58.58 0 00.4-.215l.43-.431a.342.342 0 00.093-.308.523.523 0 00-.185-.308 4.701 4.701 0 00-1.2-.492v-.708a.28.28 0 00-.308-.246h-.985c-.123 0-.185.092-.185.246v.74c-1.231.246-1.662 1.015-1.662 1.692 0 1.138 1.015 1.63 1.846 1.938.923.308 1.015.554 1.015.708 0 .184-.277.369-.615.369a2.452 2.452 0 01-1.231-.431h-.031a.58.58 0 00-.246-.062.4.4 0 00-.37.185l-.307.492c-.154.216-.093.369.092.554.452.311.966.521 1.508.615v.8c0 .154.03.246.185.246h.984a.28.28 0 00.308-.246z" fill="#fff" fill-opacity=".8"/></svg>