<svg width="19" height="18" fill="none" xmlns="http://www.w3.org/2000/svg"><path fill-rule="evenodd" clip-rule="evenodd" d="M1.455 0h13.09C15.346 0 16 .655 16 1.455v4.219A6.973 6.973 0 0013 5c-1.441 0-2.78.435-3.893 1.182H3.273c-.218 0-.364.145-.364.363v.728c0 .218.146.363.364.363h4.253a7.001 7.001 0 00-.895 1.455H3.273c-.218 0-.364.145-.364.364v.727c0 .218.146.364.364.364H6.15C6.052 11.014 6 11.5 6 12H3.273c-.218 0-.364.146-.364.364v.727c0 .218.146.364.364.364H6.15c.197.93.578 1.791 1.104 2.545h-5.8A1.46 1.46 0 010 14.546V1.455C0 .655.655 0 1.455 0zm11.272 4.727c.218 0 .364-.145.364-.363v-.728c0-.218-.146-.363-.364-.363H3.273c-.218 0-.364.145-.364.363v.728c0 .218.146.363.364.363h9.454z" fill="#fff" fill-opacity=".8"/><path fill-rule="evenodd" clip-rule="evenodd" d="M13 18a6 6 0 100-12 6 6 0 000 12zm3.55-7l-3.7 3.7c-.1.1-.2.2-.3.2-.1 0-.2 0-.3-.1l-2.1-2.2c-.2-.2-.2-.5 0-.6l.3-.3c.1-.1.2-.1.3-.1.1 0 .2 0 .3.1l1.5 1.5 3.1-3.1c.1-.1.2-.1.3-.1.1 0 .2 0 .3.1l.3.3c.2.1.2.4 0 .6z" fill="#fff" fill-opacity=".8"/></svg>