<svg width="16" height="18" fill="none" xmlns="http://www.w3.org/2000/svg"><path d="M15.454 6.545H.546A.559.559 0 000 7.091V16a1.458 1.458 0 001.455 1.454h13.09A1.458 1.458 0 0015.998 16V7.09a.559.559 0 00-.545-.545zm-10 8a.343.343 0 01-.363.363H3.637a.344.344 0 01-.364-.364V13.09a.344.344 0 01.364-.363h1.454a.342.342 0 01.364.363v1.455zm0-3.637a.344.344 0 01-.363.364H3.637a.345.345 0 01-.364-.364V9.453a.344.344 0 01.364-.363h1.454a.344.344 0 01.364.363v1.455zm3.637 3.636a.343.343 0 01-.364.364H7.273a.344.344 0 01-.364-.364V13.09a.344.344 0 01.364-.363h1.454a.342.342 0 01.364.363v1.455zm0-3.636a.344.344 0 01-.364.364H7.273a.345.345 0 01-.364-.364V9.453a.344.344 0 01.364-.363h1.454a.344.344 0 01.364.363v1.455zm3.636 3.636a.342.342 0 01-.222.342.344.344 0 01-.142.022h-1.454a.344.344 0 01-.364-.364V13.09a.344.344 0 01.364-.363h1.455a.342.342 0 01.342.22.346.346 0 01.022.143l-.001 1.455zm0-3.636a.342.342 0 01-.364.364h-1.454a.345.345 0 01-.364-.364V9.453a.344.344 0 01.364-.363h1.455a.344.344 0 01.363.363v1.455zm1.817-9.09h-1.817v-.727a1.09 1.09 0 00-2.182 0v.726h-5.09v-.726a1.09 1.09 0 00-2.182 0v.726H1.456A1.458 1.458 0 000 3.273v.909a.559.559 0 00.546.546h14.907A.559.559 0 0016 4.182v-.909a1.458 1.458 0 00-1.456-1.454z" fill="#fff" fill-opacity=".8"/></svg>