<svg width="24" height="24" viewBox="0 0 24 20" fill="none" xmlns="http://www.w3.org/2000/svg"><path fill-rule="evenodd" clip-rule="evenodd" d="M19.477 4.4l-1.108 1.108a.297.297 0 01-.43 0l-1.416-1.416a.297.297 0 00-.43 0L14.984 5.2a.297.297 0 01-.431 0l-1.108-1.108a.297.297 0 00-.43 0L11.907 5.2a.297.297 0 01-.431 0l-1.108-1.108a.297.297 0 00-.43 0L8.83 5.2a.297.297 0 01-.431 0L7.292 4.092a.297.297 0 00-.43 0L5.754 5.2a.297.297 0 01-.43 0l-.8-.8C4.337 4.215 4 4.338 4 4.615v14.77c0 .276.338.4.523.215l1.108-1.108a.297.297 0 01.43 0l1.416 1.416a.297.297 0 00.43 0L9.016 18.8a.297.297 0 01.431 0l1.108 1.108a.297.297 0 00.43 0l1.108-1.108a.297.297 0 01.431 0l1.108 1.108a.297.297 0 00.43 0L15.17 18.8a.297.297 0 01.431 0l1.108 1.108a.297.297 0 00.43 0l1.108-1.108a.297.297 0 01.43 0l.8.8c.186.185.524.061.524-.215V4.615c0-.277-.338-.4-.523-.215zm-6.913 11.448v-.831h.003a1.873 1.873 0 001.57-1.753c0-1.17-1.14-1.724-2.155-2.062-.83-.308-.923-.492-.923-.677 0-.123.185-.308.585-.308a2.75 2.75 0 011.17.43.57.57 0 00.214.063.581.581 0 00.4-.215l.431-.431a.342.342 0 00.092-.308.523.523 0 00-.185-.308 4.701 4.701 0 00-1.2-.492v-.708a.28.28 0 00-.308-.246h-.985c-.123 0-.185.092-.185.246v.74c-1.23.246-1.662 1.015-1.662 1.692 0 1.138 1.015 1.63 1.846 1.938.923.308 1.015.554 1.015.708 0 .184-.277.369-.615.369a2.453 2.453 0 01-1.23-.431h-.032a.58.58 0 00-.246-.062.4.4 0 00-.369.185l-.308.492c-.154.216-.093.369.092.554a3.8 3.8 0 001.508.615v.8c0 .154.031.246.185.246h.984a.28.28 0 00.308-.246z" fill="#fff" fill-opacity=".8"/></svg>