<svg width="26" height="26" fill="none" xmlns="http://www.w3.org/2000/svg"><path fill-rule="evenodd" clip-rule="evenodd" d="M7.87 5.43L5.124 1.337a.746.746 0 00-1.247 0L1.13 5.43c-.35.5.05 1.148.6 1.148h.848v4.093c0 .4.35.749.748.749h1.831A7.93 7.93 0 005 13c0 4.393 3.607 8 8 8 2.729 0 5.154-1.391 6.6-3.498v1.854h-.849a.722.722 0 00-.599 1.148l2.746 4.093c.3.45.948.45 1.247 0l2.746-4.093a.757.757 0 00-.65-1.148h-.848v-4.093c0-.4-.349-.748-.748-.748h-1.79c.095-.491.145-.998.145-1.515 0-4.393-3.607-8-8-8-2.746 0-5.185 1.41-6.628 3.539V6.578h.849A.757.757 0 007.87 5.43zM13 19.492c-3.607 0-6.492-2.951-6.492-6.492 0-3.607 2.951-6.492 6.492-6.492S19.492 9.46 19.492 13A6.465 6.465 0 0113 19.492zm0-12c-3.016 0-5.508 2.492-5.508 5.508S9.984 18.508 13 18.508s5.508-2.492 5.508-5.508S16.016 7.492 13 7.492zm.585 6.164h1.382v.492h-1.44v.491h1.44v.492h-1.44v1.113H12.44v-1.113h-1.408v-.492h1.408v-.491h-1.408v-.492h1.36l-2.016-3.279h1.243l1.4 2.495h.017l1.384-2.495h1.202l-2.038 3.279z" fill="#666"/></svg>