<svg width="16" height="16" fill="none" xmlns="http://www.w3.org/2000/svg"><path d="M0 2a2 2 0 012-2h12a2 2 0 012 2v12a2 2 0 01-2 2H2a2 2 0 01-2-2V2z" fill="#06D"/><path fill-rule="evenodd" clip-rule="evenodd" d="M12.121 5.757c-.758 0-1.378-.62-1.378-1.378 0-.759.62-1.379 1.378-1.379.759 0 1.379.62 1.379 1.378 0 .759-.62 1.379-1.379 1.379zm.896 6.203H3.024a.523.523 0 01-.448-.792l3.033-5.273c.138-.241.448-.241.586 0L8.02 9.03c.138.207.448.241.586.034l1.482-2.136a.354.354 0 01.586 0l2.723 4.342c.206.31 0 .69-.38.69z" fill="#fff"/></svg>