<svg width="14" height="16" fill="none" xmlns="http://www.w3.org/2000/svg"><path d="M11.918 7.068H3.922V5.622c0-1.63 1.23-3.075 2.86-3.167A3.078 3.078 0 019.95 4.669a.33.33 0 00.308.246h1.26a.324.324 0 00.308-.369C11.334 2.209 9.243.486 6.751.609 4.137.732 2.138 2.977 2.076 5.561v1.507c-.676 0-1.23.554-1.23 1.23v5.844c0 .677.554 1.23 1.23 1.23h9.842c.677 0 1.23-.553 1.23-1.23V8.298c0-.676-.553-1.23-1.23-1.23zm-3.506 6.059c.062.185-.092.4-.307.4H5.859c-.215 0-.369-.185-.307-.4l.554-1.845a1.419 1.419 0 01-.616-1.477 1.514 1.514 0 011.2-1.168c.984-.185 1.845.522 1.845 1.445 0 .492-.246.954-.646 1.2l.523 1.845z" fill="#2782ED"/></svg>