<svg width="16" height="16" fill="none" xmlns="http://www.w3.org/2000/svg"><path d="M0 2a2 2 0 012-2h12a2 2 0 012 2v12a2 2 0 01-2 2H2a2 2 0 01-2-2V2z" fill="red"/><path d="M4.252 10.5c.045 0 .075-.03.075-.075v-1.77c0-.03.015-.045.045-.045h.248c.907 0 1.5-.45 1.5-1.605 0-1.162-.57-1.605-1.5-1.605h-1.2c-.045 0-.075.03-.075.075v4.95c0 .045.03.075.075.075h.832zm.338-2.752h-.218c-.03 0-.045-.015-.045-.045V6.308c0-.03.015-.045.045-.045h.218c.382 0 .547.165.547.742 0 .578-.165.743-.547.743zm2.08 2.677c0 .045.03.075.075.075h1.29c.705 0 1.118-.27 1.305-.847.09-.285.135-.63.135-1.703 0-1.072-.045-1.417-.135-1.702-.187-.578-.6-.848-1.305-.848h-1.29c-.045 0-.075.03-.075.075v4.95zm.983-.855V6.33c0-.03.015-.045.045-.045h.24c.247 0 .382.09.457.315.06.158.083.375.083 1.35 0 .975-.023 1.193-.083 1.35-.075.225-.21.315-.457.315h-.24c-.03 0-.045-.015-.045-.045zm2.437.855c0 .045.03.075.076.075h.832c.045 0 .075-.03.075-.075V8.468c0-.03.015-.045.045-.045h1.103c.045 0 .075-.03.075-.075v-.743c0-.045-.03-.075-.075-.075h-1.103c-.03 0-.045-.015-.045-.045V6.33c0-.03.015-.045.045-.045h1.275c.045 0 .075-.03.075-.075v-.735c0-.045-.03-.075-.075-.075h-2.227c-.045 0-.075.03-.075.075v4.95z" fill="#fff"/></svg>