<svg width="20" height="20" fill="none" xmlns="http://www.w3.org/2000/svg"><path d="M10 20c5.523 0 10-4.477 10-10S15.523 0 10 0 0 4.477 0 10s4.477 10 10 10z" fill="#fff"/><path d="M10 19.5a9.5 9.5 0 100-19 9.5 9.5 0 000 19z" stroke="#355073" stroke-miterlimit="10"/><path d="M10 8.5V5H6.81a.793.793 0 00-.81.775v8.45a.793.793 0 00.81.775h6.38a.793.793 0 00.81-.775V9h-3.5a.5.5 0 01-.5-.5zM7.5 8h1a.5.5 0 010 1h-1a.5.5 0 010-1zm5 5h-5a.5.5 0 010-1h5a.5.5 0 110 1zm.5-2.5a.5.5 0 01-.5.5h-5a.5.5 0 010-1h5a.5.5 0 01.5.5z" fill="#355073"/><path d="M11 5v3h3l-3-3z" fill="#355073"/></svg>