<svg width="52" height="52" fill="none" xmlns="http://www.w3.org/2000/svg"><path fill-rule="evenodd" clip-rule="evenodd" d="M38.916 3.858l3-2.834c.5-.473 1.417-.158 1.417.55v27.538a11.138 11.138 0 00-10.27 5.554H9.903a1.238 1.238 0 000 2.477h22.103a11.15 11.15 0 00-.436 3.095 11.14 11.14 0 005.837 9.801l-1.825 1.725a.838.838 0 01-1.167 0l-3-2.835a.838.838 0 00-1.166 0l-3 2.835a.838.838 0 01-1.167 0l-3-2.835a.839.839 0 00-1.166 0l-3 2.835a.838.838 0 01-1.167 0l-3-2.835a.838.838 0 00-1.167 0l-3 2.835a.838.838 0 01-1.166 0l-3.834-3.622a.838.838 0 00-1.166 0l-3 2.834c-.5.473-1.417.158-1.417-.55V1.574C0 .866.917.55 1.417 1.024L3.583 3.07a.838.838 0 001.167 0l3-2.835a.838.838 0 011.167 0l3 2.835a.838.838 0 001.166 0l3-2.835a.838.838 0 011.167 0l3 2.835a.838.838 0 001.166 0l3-2.835a.838.838 0 011.167 0l3 2.835a.838.838 0 001.167 0l3-2.835a.838.838 0 011.166 0l3.834 3.622a.838.838 0 001.166 0zM8.666 25.072c0-.684.555-1.238 1.238-1.238h23.524a1.238 1.238 0 110 2.476H9.904a1.238 1.238 0 01-1.238-1.238zM9.905 13a1.238 1.238 0 100 2.476h23.523a1.238 1.238 0 000-2.476H9.905z" fill="#CCC"/><path fill-rule="evenodd" clip-rule="evenodd" d="M42.714 49.524a9.286 9.286 0 100-18.571 9.286 9.286 0 000 18.57zm.625-13.8l.009 3.71a.196.196 0 00.122.184.18.18 0 00.076.014l3.709.01a.292.292 0 01.298.298v.598a.292.292 0 01-.3.298l-3.722.005a.195.195 0 00-.2.2l-.007 3.721a.292.292 0 01-.3.299h-.596a.29.29 0 01-.298-.298l.008-3.75a.196.196 0 00-.122-.184.196.196 0 00-.077-.014l-3.724.005a.29.29 0 01-.298-.299v-.597a.292.292 0 01.3-.299l3.738.01a.195.195 0 00.199-.2l.006-3.725a.292.292 0 01.299-.299l.581.014a.29.29 0 01.299.299z" fill="#CCC"/></svg>