<svg width="120" height="120" fill="none" xmlns="http://www.w3.org/2000/svg"><circle cx="60" cy="60" r="60" fill="#0090B9"/><path fill-rule="evenodd" clip-rule="evenodd" d="M79.903 34.452l3.462-3.27c.577-.546 1.635-.183 1.635.635v31.774A12.852 12.852 0 0073.15 70H46.427a1.429 1.429 0 000 2.857H71.93a12.865 12.865 0 00-.502 3.572c0 4.884 2.723 9.132 6.734 11.308l-2.106 1.99a.967.967 0 01-1.346 0l-3.461-3.27a.967.967 0 00-1.346 0l-3.462 3.27a.967.967 0 01-1.346 0l-3.462-3.27a.967.967 0 00-1.346 0l-3.461 3.27a.967.967 0 01-1.346 0l-3.462-3.27a.967.967 0 00-1.346 0l-3.462 3.27a.967.967 0 01-1.346 0l-4.423-4.179a.967.967 0 00-1.346 0l-3.461 3.27c-.577.546-1.635.183-1.635-.635V31.817c0-.818 1.058-1.181 1.635-.636l2.5 2.362a.967.967 0 001.346 0l3.461-3.27a.967.967 0 011.346 0l3.462 3.27a.967.967 0 001.346 0l3.462-3.27a.967.967 0 011.346 0l3.461 3.27a.967.967 0 001.346 0l3.462-3.27a.967.967 0 011.346 0l3.461 3.27a.967.967 0 001.347 0l3.461-3.27a.967.967 0 011.346 0l4.423 4.179a.967.967 0 001.346 0zM45 58.929c0-.79.64-1.429 1.428-1.429h27.143a1.429 1.429 0 110 2.858H46.428A1.43 1.43 0 0145 58.928zM46.428 45a1.429 1.429 0 100 2.857h27.143a1.429 1.429 0 000-2.857H46.428z" fill="#fff"/><path fill-rule="evenodd" clip-rule="evenodd" d="M84.286 87.143C90.203 87.143 95 82.346 95 76.43c0-5.918-4.797-10.715-10.714-10.715-5.918 0-10.715 4.797-10.715 10.715 0 5.917 4.797 10.714 10.715 10.714zm.72-15.924l.011 4.281a.225.225 0 00.23.23l4.278.01a.335.335 0 01.344.345v.69a.337.337 0 01-.345.344l-4.296.005a.224.224 0 00-.23.23l-.009 4.295a.339.339 0 01-.345.345h-.689a.335.335 0 01-.344-.344l.01-4.327a.224.224 0 00-.23-.229l-4.296.006a.335.335 0 01-.344-.345v-.689a.339.339 0 01.345-.344l4.313.01a.225.225 0 00.23-.23l.007-4.298a.338.338 0 01.345-.345l.671.016a.335.335 0 01.344.344z" fill="#fff"/></svg>