<svg width="16" height="16" fill="none" xmlns="http://www.w3.org/2000/svg"><path d="M8.002.617C3.94.617.617 3.94.617 8.002c0 4.061 3.323 7.384 7.385 7.384 4.061 0 7.384-3.323 7.384-7.384 0-4.062-3.323-7.385-7.384-7.385zm0 12.923c-3.046 0-5.539-2.492-5.539-5.538 0-3.046 2.493-5.539 5.539-5.539s5.538 2.493 5.538 5.539-2.492 5.538-5.538 5.538zm1.046-5.477a.463.463 0 01-.123-.338V4.77a.473.473 0 00-.462-.462H7.54a.473.473 0 00-.461.462v3.723c0 .123.061.246.123.339l2.277 2.277a.446.446 0 00.646 0l.646-.647a.446.446 0 000-.646L9.048 8.063z" fill="#666"/></svg>