<svg width="16" height="16" fill="none" xmlns="http://www.w3.org/2000/svg"><path d="M15.421 0h-1.086a.556.556 0 00-.543.543v2.533c0 .326-.181.47-.434.253a1.716 1.716 0 00-.363-.362A7.615 7.615 0 006.045.905a7.102 7.102 0 00-2.534 1.049 7.662 7.662 0 00-3.51 6.335 7.596 7.596 0 007.6 7.673 7.67 7.67 0 004.96-1.809.539.539 0 00.036-.796l-.76-.76a.551.551 0 00-.724-.037 5.487 5.487 0 01-4.85 1.086 5.06 5.06 0 01-1.375-.579 5.485 5.485 0 01-2.462-6.045c.123-.485.318-.948.578-1.375a5.34 5.34 0 014.67-2.752 5.424 5.424 0 013.838 1.593c.173.142.32.314.434.507.108.29-.145.434-.47.434H8.942a.556.556 0 00-.544.543v1.123a.495.495 0 00.507.507h6.624a.479.479 0 00.47-.47V.541A.619.619 0 0015.422 0z" fill="#2782ED"/></svg>