<svg width="16" height="16" fill="none" xmlns="http://www.w3.org/2000/svg"><path d="M6.688 5.582L7.995 1.38l1.29 4.205.002.008.003.009c.2.599.765.813 1.178.813h4.329l-3.54 2.612-.013.008-.011.01a1.274 1.274 0 00-.41 1.389l.005.014.005.013 1.625 4.316-3.666-2.742c-.46-.36-1.05-.311-1.472-.03l-.016.01-.015.012-3.726 2.766 1.578-4.34.004-.01.003-.01a1.275 1.275 0 00-.41-1.388l-.011-.01-.012-.008-3.54-2.612h4.328c.173 0 .427-.022.672-.164a1.12 1.12 0 00.513-.67z" stroke="#D9D9D9" stroke-width="1.5"/></svg>