<svg width="14" height="14" fill="none" xmlns="http://www.w3.org/2000/svg"><path d="M12.712 2.334H9.067V1.167A1.17 1.17 0 007.9 0H6.15a1.17 1.17 0 00-1.167 1.167v1.167H1.338a.448.448 0 00-.438.438v.874a.448.448 0 00.438.438h11.374a.448.448 0 00.438-.438v-.875a.449.449 0 00-.438-.437zM6.15 1.459a.276.276 0 01.292-.292h1.166a.276.276 0 01.292.292v.875H6.15v-.875zm5.396 3.791H2.504a.448.448 0 00-.438.438v6.854A1.444 1.444 0 003.524 14h7a1.445 1.445 0 001.458-1.458V5.687a.448.448 0 00-.436-.437zM6.15 11.666a.275.275 0 01-.292.292h-.583a.276.276 0 01-.292-.292V7.583a.276.276 0 01.292-.292h.583a.276.276 0 01.292.292v4.083zm2.917 0a.275.275 0 01-.292.292H8.19a.276.276 0 01-.292-.292V7.583a.276.276 0 01.292-.292h.583a.276.276 0 01.292.292v4.083z" fill="#fff"/></svg>