<svg width="37" height="36" fill="none" xmlns="http://www.w3.org/2000/svg"><path fill-rule="evenodd" clip-rule="evenodd" d="M34.077 21.496H32c-.554 0-1.038.554-1.038 1.039v6.923c0 .553-.485 1.038-1.039 1.038H7.077a1.065 1.065 0 01-1.039-1.038v-6.923c0-.485-.484-1.039-1.038-1.039H2.923c-.554 0-1.038.554-1.038 1.039v9.346a2.777 2.777 0 002.769 2.769h27.692a2.777 2.777 0 002.77-2.77v-9.345c0-.485-.485-1.039-1.04-1.039zm-14.885-19.8a1.004 1.004 0 00-1.454 0l-9.346 9.346a1.004 1.004 0 000 1.454l1.454 1.454a1.004 1.004 0 001.454 0l3.877-3.877c.415-.415 1.246-.138 1.246.485v14.677c0 .553.416 1.038.97 1.038h2.076c.554 0 1.108-.554 1.108-1.038V10.627c0-.623.692-.9 1.177-.485l3.877 3.877a1.004 1.004 0 001.454 0l1.453-1.454a1.004 1.004 0 000-1.454l-9.346-9.415z" fill="#2782ED"/></svg>