<svg width="16" height="16" fill="none" xmlns="http://www.w3.org/2000/svg"><path d="M5.538 11.846c0 .246.216.462.462.462h.8c-.03-.216-.03-.4-.03-.616 0-.43.06-.83.153-1.23H6a.473.473 0 00-.462.461v.923zM8.77 4.308H6a.473.473 0 00-.46.461v.923c0 .246.215.462.46.462h2.77a.473.473 0 00.462-.462V4.77a.473.473 0 00-.462-.461zM1.077 3.077h12.615a.473.473 0 00.462-.462V1.077a.473.473 0 00-.462-.462H1.077a.473.473 0 00-.462.462v1.538c0 .247.216.462.462.462zm12.615 3.077a.473.473 0 00.462-.462V4.77a.473.473 0 00-.462-.461h-2.77a.473.473 0 00-.46.461v.923c0 .246.215.462.46.462h2.77zM5.538 8.769c0 .246.216.462.462.462h1.415c.4-.708.985-1.293 1.662-1.723a.395.395 0 00-.308-.123H6a.473.473 0 00-.46.461v.923zM3.846 4.308h-2.77a.473.473 0 00-.46.461v.923c0 .246.215.462.46.462h2.77a.473.473 0 00.462-.462V4.77a.473.473 0 00-.462-.461zm3.262 9.23H6a.473.473 0 00-.462.462v.923c0 .246.216.462.462.462h2.43c-.584-.493-1.015-1.139-1.322-1.846zm-3.262-3.077h-2.77a.473.473 0 00-.46.462v.923c0 .246.215.462.46.462h2.77a.473.473 0 00.462-.462v-.923a.473.473 0 00-.462-.462zm0 3.078h-2.77a.473.473 0 00-.46.461v.923c0 .246.215.462.46.462h2.77a.473.473 0 00.462-.462V14a.473.473 0 00-.462-.461zm0-6.154h-2.77a.473.473 0 00-.46.461v.923c0 .246.215.462.46.462h2.77a.473.473 0 00.462-.462v-.923a.473.473 0 00-.462-.461zm7.815.646a3.703 3.703 0 00-3.692 3.692 3.703 3.703 0 003.692 3.692 3.703 3.703 0 003.693-3.692 3.703 3.703 0 00-3.693-3.692zm2.431 2.615l-2.954 2.985a.149.149 0 01-.215 0L9.2 11.908a.149.149 0 010-.216l.646-.646a.149.149 0 01.215 0l.893.893c.03.03.123.03.153 0l2.124-2.154a.149.149 0 01.215 0l.646.646c.092.061.092.154 0 .215z" fill="#2782ED"/></svg>