<svg width="14" height="14" fill="none" xmlns="http://www.w3.org/2000/svg"><path d="M8.487 4.99H6.743V3.249a.274.274 0 00-.291-.29H5.29a.275.275 0 00-.291.29V4.99H3.255a.275.275 0 00-.291.29v1.161a.274.274 0 00.29.29H5v1.741a.274.274 0 00.29.29h1.164a.275.275 0 00.29-.29V6.731h1.744a.276.276 0 00.29-.29V5.28a.274.274 0 00-.29-.291zm5.407 7.603L10.55 9.285a5.825 5.825 0 00-.903-7.878 5.849 5.849 0 00-7.937.301 5.827 5.827 0 003.467 9.919A5.85 5.85 0 009.3 10.533l3.343 3.336a.422.422 0 00.61 0l.61-.609a.524.524 0 00.03-.667zM5.87 9.923a4.075 4.075 0 01-3.76-2.508 4.056 4.056 0 01.882-4.427A4.072 4.072 0 019.94 5.86a4.07 4.07 0 01-1.196 2.87A4.085 4.085 0 015.87 9.923z" fill="#fff"/></svg>