<svg width="24" height="24" viewBox="0 0 24 24" fill="none" xmlns="http://www.w3.org/2000/svg">
<path fill-rule="evenodd" clip-rule="evenodd" d="M13.7189 15.6465H7.87509C7.77636 15.6442 7.68233 15.604 7.6125 15.5342C7.54267 15.4645 7.50241 15.3705 7.50007 15.2719V12.7745C7.49373 12.6772 7.45218 12.5855 7.38318 12.5166C7.31417 12.4477 7.22243 12.4062 7.12505 12.3998H6.37502C6.27764 12.4062 6.1859 12.4477 6.1169 12.5166C6.04789 12.5855 6.00635 12.6772 6 12.7745V16.1457C6.00076 16.4104 6.10634 16.664 6.29369 16.8511C6.48103 17.0383 6.73491 17.1438 6.99986 17.1445H14.0077C13.8408 16.673 13.7407 16.1699 13.7189 15.6465ZM12.1316 5.17381C12.1767 5.19313 12.2174 5.22141 12.2513 5.25692L15.6247 8.65396C15.6602 8.68777 15.6885 8.72845 15.7079 8.77352C15.7272 8.81859 15.7372 8.86711 15.7372 8.91615C15.7372 8.96519 15.7272 9.01371 15.7079 9.05878C15.6885 9.10385 15.6602 9.14453 15.6247 9.17834L15.0998 9.70273C15.0659 9.73824 15.0252 9.76652 14.9801 9.78584C14.935 9.80516 14.8864 9.81512 14.8373 9.81512C14.7882 9.81512 14.7397 9.80516 14.6946 9.78584C14.6494 9.76652 14.6087 9.73824 14.5749 9.70273L13.177 8.30685C13.1427 8.27159 13.0986 8.24736 13.0505 8.23725C13.0023 8.22713 12.9522 8.2316 12.9066 8.25008C12.861 8.26855 12.8219 8.3002 12.7944 8.34097C12.7668 8.38175 12.7521 8.42979 12.752 8.47897V13.7452C12.7398 13.8449 12.6928 13.9371 12.6192 14.0056C12.5457 14.0741 12.4504 14.1145 12.35 14.1198H11.6C11.5039 14.1164 11.4131 14.075 11.3476 14.0048C11.282 13.9346 11.247 13.8412 11.2503 13.7452V8.45086C11.2458 8.40085 11.2274 8.3531 11.1971 8.31304C11.1668 8.27297 11.1259 8.24222 11.0789 8.22428C11.032 8.20634 10.981 8.20193 10.9317 8.21156C10.8823 8.22119 10.8367 8.24447 10.8 8.27874L9.39986 9.67748C9.36601 9.713 9.32529 9.74128 9.28018 9.7606C9.23506 9.77992 9.18649 9.78988 9.1374 9.78988C9.08832 9.78988 9.03974 9.77992 8.99462 9.7606C8.94951 9.74128 8.90879 9.713 8.87495 9.67748L8.35004 9.1531C8.31449 9.11929 8.28618 9.07861 8.26684 9.03354C8.2475 8.98847 8.23753 8.93994 8.23753 8.89091C8.23753 8.84187 8.2475 8.79334 8.26684 8.74827C8.28618 8.7032 8.31449 8.66253 8.35004 8.62871L11.7263 5.25692C11.7602 5.22141 11.8009 5.19313 11.846 5.17381C11.8911 5.15449 11.9397 5.14453 11.9888 5.14453C12.0379 5.14453 12.0865 5.15449 12.1316 5.17381Z" fill="#2782ED"/>
<path d="M22.9818 15.8545C22.9818 15.708 22.8545 15.5797 22.7091 15.5797H22.0727C21.9273 15.5797 21.8182 15.6897 21.8182 15.8362C21.8182 15.8728 21.8182 15.9278 21.8 15.9644C21.7455 16.2026 21.6545 16.4224 21.5273 16.6422C21.0182 17.5399 20.1273 18.0345 19.1818 18.0345C18.4545 18.0345 17.7636 17.7414 17.2545 17.2284C17.1636 17.1552 17.0909 17.0636 17.0364 16.972C16.9818 16.8254 17.1091 16.7522 17.2727 16.7522H18.5455C18.6909 16.7522 18.8182 16.6239 18.8182 16.4774V15.9095C18.8182 15.7629 18.7091 15.653 18.5636 15.653H15.2364C15.1091 15.653 15 15.7629 15 15.8912V19.2252C15.0182 19.3718 15.1455 19.5 15.2909 19.5H15.8364C15.9818 19.5 16.1091 19.3718 16.1091 19.2252V17.9429C16.1091 17.778 16.2 17.7047 16.3273 17.8147C16.3818 17.8879 16.4364 17.9429 16.5091 17.9978C17.4182 18.9138 18.6909 19.2985 20 19.042C20.4545 18.9504 20.8909 18.7672 21.2727 18.5108C22.2182 17.8879 22.8182 16.9353 22.9818 15.8912V15.8545ZM15.0182 14.6455C15.0182 14.792 15.1455 14.9203 15.2909 14.9203H15.9273C16.0727 14.9203 16.1818 14.8103 16.1818 14.6638C16.1818 14.6272 16.1818 14.5722 16.2 14.5356C16.2545 14.2974 16.3455 14.0776 16.4727 13.8578C16.9818 12.9601 17.8727 12.4655 18.8182 12.4655C19.5455 12.4655 20.2364 12.7586 20.7455 13.2716C20.8364 13.3448 20.9091 13.4364 20.9636 13.528C21.0182 13.6746 20.8909 13.7478 20.7273 13.7478H19.4545C19.3091 13.7478 19.1818 13.8761 19.1818 14.0226V14.5905C19.1818 14.7371 19.2909 14.847 19.4364 14.847H22.7636C22.8909 14.847 23 14.7371 23 14.6088V11.2748C22.9818 11.1282 22.8545 11 22.7091 11H22.1636C22.0182 11 21.8909 11.1282 21.8909 11.2748V12.5571C21.8909 12.722 21.8 12.7953 21.6727 12.6853C21.6182 12.6121 21.5636 12.5571 21.4909 12.5022C20.5818 11.5862 19.3091 11.2015 18 11.458C17.5455 11.5496 17.1091 11.7328 16.7273 11.9892C15.7818 12.6121 15.1818 13.5647 15.0182 14.6088V14.6455Z" fill="#00A1DE"/>
</svg>
