<svg width="24" height="24" viewBox="0 0 24 24" fill="none" xmlns="http://www.w3.org/2000/svg">
<path fill-rule="evenodd" clip-rule="evenodd" d="M17.8575 7.51841C17.9027 7.47322 17.9385 7.41957 17.9629 7.36053C17.9874 7.30149 18 7.2382 18 7.17429C18 7.11038 17.9874 7.0471 17.9629 6.98806C17.9385 6.92901 17.9027 6.87537 17.8575 6.83018L17.1698 6.14255C17.1247 6.09736 17.071 6.06151 17.012 6.03705C16.9529 6.01259 16.8896 6 16.8257 6C16.7618 6 16.6985 6.01259 16.6395 6.03705C16.5804 6.06151 16.5268 6.09736 16.4816 6.14255L12.2292 10.3949C12.1684 10.4556 12.0859 10.4897 12 10.4897C11.9141 10.4897 11.8316 10.4556 11.7708 10.3949L7.51841 6.14255C7.47322 6.09736 7.41958 6.06151 7.36053 6.03705C7.30149 6.01259 7.23821 6 7.17431 6C7.1104 6 7.04709 6.01259 6.98804 6.03705C6.929 6.06151 6.87535 6.09736 6.83016 6.14255L6.14254 6.83018C6.09734 6.87537 6.06152 6.92901 6.03706 6.98806C6.0126 7.0471 6 7.11038 6 7.17429C6 7.2382 6.0126 7.30149 6.03706 7.36053C6.06152 7.41957 6.09734 7.47322 6.14254 7.51841L10.3949 11.7708C10.4556 11.8316 10.4897 11.9141 10.4897 12C10.4897 12.0859 10.4556 12.1684 10.3949 12.2292L6.14254 16.4816C6.09734 16.5268 6.06152 16.5804 6.03706 16.6395C6.0126 16.6985 6 16.7618 6 16.8257C6 16.8896 6.0126 16.9529 6.03706 17.0119C6.06152 17.071 6.09734 17.1246 6.14254 17.1698L6.83016 17.8574C6.87535 17.9026 6.929 17.9385 6.98804 17.963C7.04709 17.9874 7.1104 18 7.17431 18C7.23821 18 7.30149 17.9874 7.36053 17.963C7.41958 17.9385 7.47322 17.9026 7.51841 17.8574L11.7708 13.6051C11.8316 13.5444 11.9141 13.5103 12 13.5103C12.0859 13.5103 12.1684 13.5444 12.2292 13.6051L16.4816 17.8574C16.5268 17.9026 16.5804 17.9385 16.6395 17.963C16.6985 17.9874 16.7618 18 16.8257 18C16.8896 18 16.9529 17.9874 17.012 17.963C17.071 17.9385 17.1247 17.9026 17.1698 17.8574L17.8575 17.1698C17.9027 17.1246 17.9385 17.071 17.9629 17.0119C17.9874 16.9529 18 16.8896 18 16.8257C18 16.7618 17.9874 16.6985 17.9629 16.6395C17.9385 16.5804 17.9027 16.5268 17.8575 16.4816L13.6051 12.2292C13.5444 12.1684 13.5103 12.0859 13.5103 12C13.5103 11.9141 13.5444 11.8316 13.6051 11.7708L17.8575 7.51841Z" fill="#C23934"/>
</svg>
