<svg width="32" height="32" fill="none" xmlns="http://www.w3.org/2000/svg"><path d="M16 32c8.837 0 16-7.163 16-16S24.837 0 16 0 0 7.163 0 16s7.163 16 16 16z" fill="#008EB6"/><path d="M15.79 23.102H7.635a.727.727 0 01-.727-.727v-11.53a.727.727 0 01.727-.728H9.28v1.195a1.09 1.09 0 001.09 1.09h1.29a1.091 1.091 0 001.092-1.09v-1.195h5.043v1.195a1.09 1.09 0 001.091 1.09h1.291a1.09 1.09 0 001.09-1.09v-1.195h1.643a.727.727 0 01.727.727v4.78a5.867 5.867 0 00-.702-.268v-2.002a.364.364 0 00-.364-.363H7.975a.364.364 0 00-.363.363v8.7a.364.364 0 00.363.363h7.594c.06.232.133.461.22.685zm3.095-11.645h1.291a.145.145 0 00.146-.145V7.589a.145.145 0 00-.146-.145h-1.29a.145.145 0 00-.146.145v3.723a.145.145 0 00.145.145zm-2.998 5.519v1.454h.072a5.88 5.88 0 01.994-1.454h-1.066zm0-1.076h2.181v-1.455h-2.181V15.9zm3.41-.459a5.828 5.828 0 011.94-.336c.08 0 .16.008.242.012v-.672h-2.181v.996zm-8.928-3.984h1.29a.145.145 0 00.146-.145V7.589a.145.145 0 00-.145-.145h-1.29a.146.146 0 00-.146.145v3.723a.146.146 0 00.146.145zm-1.303 9.505h2.182v-1.454H9.066v1.454zm2.182-6.517H9.066V15.9h2.182v-1.455zm0 2.531H9.066v1.454h2.182v-1.454zm3.41-2.53h-2.182V15.9h2.182v-1.455zm0 2.53h-2.182v1.454h2.182v-1.454zm-2.182 3.986h2.182v-1.454h-2.182v1.454zm13.673 0a4.911 4.911 0 11-9.82-.001 4.911 4.911 0 019.819.001h.001zm-1.798 0a.515.515 0 00-.515-.515h-2.083v-2.68a.516.516 0 00-1.03 0v3.195a.515.515 0 00.514.515h2.6a.515.515 0 00.513-.512l.001-.003z" fill="#fff"/></svg>