<svg xmlns="http://www.w3.org/2000/svg" width="10" height="10" viewBox="0 0 10 10"><defs><style>.a{fill:#006dcc;}</style></defs><path class="a" d="M4.493,3.411,6.985.909a.276.276,0,0,0,0-.4L6.6.106a.278.278,0,0,0-.4,0l-2.509,2.5a.186.186,0,0,1-.268,0L.91.086a.278.278,0,0,0-.4,0l-.4.4a.276.276,0,0,0,0,.4l2.509,2.5a.185.185,0,0,1,0,.268L.086,6.182a.276.276,0,0,0,0,.4l.4.4a.278.278,0,0,0,.4,0L3.4,4.481a.186.186,0,0,1,.268,0l2.509,2.5a.278.278,0,0,0,.4,0l.4-.4a.276.276,0,0,0,0-.4l-2.491-2.5a.185.185,0,0,1,0-.268Z" transform="translate(0 5) rotate(-45)"/></svg>