<svg width="15" height="16" viewBox="0 0 15 16" fill="none" xmlns="http://www.w3.org/2000/svg">
<path d="M2.28493 10.259L5.02293 12.964C5.0509 12.9925 5.08439 13.0152 5.12141 13.0307C5.15843 13.0462 5.19823 13.0541 5.23843 13.0541C5.27864 13.0541 5.31843 13.0462 5.35545 13.0307C5.39247 13.0152 5.42596 12.9925 5.45393 12.964L12.2849 6.18579C12.3138 6.15815 12.3368 6.12507 12.3525 6.0885C12.3681 6.05192 12.3762 6.01261 12.3762 5.97289C12.3762 5.93317 12.3681 5.89386 12.3525 5.85728C12.3368 5.82071 12.3138 5.78762 12.2849 5.75999L9.57793 3.08468C9.54996 3.05615 9.51647 3.03347 9.47945 3.01797C9.44243 3.00248 9.40264 2.99449 9.36243 2.99449C9.32223 2.99449 9.28243 3.00248 9.24541 3.01797C9.20839 3.03347 9.1749 3.05615 9.14693 3.08468L2.28493 9.86384C2.25587 9.88814 2.23251 9.9184 2.21649 9.95253C2.20048 9.98665 2.19218 10.0238 2.19218 10.0614C2.19218 10.099 2.20048 10.1362 2.21649 10.1703C2.23251 10.2045 2.25587 10.2347 2.28493 10.259ZM10.4699 1.83891C10.4411 1.86654 10.4181 1.89963 10.4024 1.9362C10.3867 1.97277 10.3786 2.01209 10.3786 2.0518C10.3786 2.09152 10.3867 2.13084 10.4024 2.16741C10.4181 2.20398 10.4411 2.23707 10.4699 2.2647L13.1779 4.94001C13.2059 4.96854 13.2394 4.99123 13.2764 5.00672C13.3134 5.02222 13.3532 5.0302 13.3934 5.0302C13.4336 5.0302 13.4734 5.02222 13.5105 5.00672C13.5475 4.99123 13.581 4.96854 13.6089 4.94001L14.3779 4.18029C14.4944 4.07358 14.5873 3.94427 14.6508 3.80045C14.7143 3.65664 14.7471 3.50142 14.7471 3.34451C14.7471 3.1876 14.7143 3.03238 14.6508 2.88857C14.5873 2.74475 14.4944 2.61544 14.3779 2.50872L12.9319 1.07919C12.8177 0.963704 12.6813 0.871938 12.5307 0.809284C12.3801 0.746631 12.2183 0.714355 12.0549 0.714355C11.8915 0.714355 11.7297 0.746631 11.5791 0.809284C11.4285 0.871938 11.2921 0.963704 11.1779 1.07919L10.4699 1.83891ZM0.00893153 14.758C-0.00476971 14.8288 -0.000726651 14.9018 0.0207079 14.9707C0.0421424 15.0396 0.0803169 15.1023 0.1319 15.1532C0.183483 15.2042 0.246906 15.2419 0.316636 15.2631C0.386365 15.2843 0.46028 15.2883 0.531931 15.2747L3.88593 14.4844C3.9904 14.4591 4.08607 14.4066 4.16293 14.3322L4.22493 14.271C4.26476 14.211 4.28333 14.1397 4.27772 14.0682C4.27211 13.9967 4.24264 13.929 4.19393 13.8758L1.42393 11.1402C1.37009 11.0921 1.30161 11.063 1.22922 11.0575C1.15684 11.0519 1.08463 11.0703 1.02393 11.1096L0.961932 11.1709C0.887797 11.2476 0.83478 11.3418 0.807931 11.4445L0.00793155 14.758H0.00893153Z" fill="#2782ED"/>
</svg>
