<svg width="24" height="24" viewBox="0 0 24 24" fill="none" xmlns="http://www.w3.org/2000/svg">
<path d="M12 0C9.62665 0 7.30655 0.703777 5.33317 2.02235C3.35978 3.34093 1.82172 5.21509 0.913466 7.40781C0.00521636 9.60052 -0.232446 12.0133 0.230576 14.3411C0.693597 16.6689 1.83652 18.8071 3.51475 20.4853C5.19298 22.1635 7.33117 23.3064 9.65893 23.7694C11.9867 24.2324 14.3995 23.9948 16.5922 23.0865C18.7849 22.1783 20.659 20.6402 21.9776 18.6668C23.2962 16.6934 24 14.3734 24 12C24 8.8174 22.7356 5.76515 20.4852 3.51471C18.2348 1.26427 15.1826 0 12 0ZM10.746 6.13499C10.7618 5.81106 10.9016 5.50562 11.1364 5.28195C11.3713 5.05828 11.6831 4.93355 12.0074 4.93355C12.3318 4.93355 12.6437 5.05828 12.8786 5.28195C13.1134 5.50562 13.2531 5.81106 13.2689 6.13499V6.33147C13.0559 8.92647 12.9315 11.502 12.819 14.5215C12.8172 14.6218 12.7957 14.7207 12.7557 14.8126C12.7157 14.9046 12.658 14.9878 12.5859 15.0574C12.5137 15.1271 12.4285 15.1819 12.3352 15.2186C12.2419 15.2553 12.1422 15.2733 12.042 15.2715C12.0225 15.2715 12.003 15.2715 11.9835 15.2715C11.8876 15.2806 11.7908 15.2706 11.6988 15.2421C11.6068 15.2137 11.5213 15.1673 11.4473 15.1057C11.3733 15.0441 11.3122 14.9684 11.2675 14.8831C11.2228 14.7978 11.1954 14.7044 11.1869 14.6085C11.1854 14.581 11.1854 14.5535 11.1869 14.526C11.0804 11.5065 10.956 8.931 10.737 6.336L10.746 6.13499ZM13.341 17.736C13.3462 18.0843 13.2129 18.4203 12.9705 18.6703C12.728 18.9204 12.3962 19.0639 12.048 19.0695H11.991C11.8191 19.0729 11.6482 19.0423 11.4882 18.9796C11.3281 18.9169 11.1819 18.8232 11.058 18.7039C10.9342 18.5847 10.8351 18.4422 10.7664 18.2846C10.6976 18.127 10.6606 17.9574 10.6575 17.7855V17.7375C10.6691 17.3894 10.8156 17.0594 11.0659 16.8173C11.3163 16.5752 11.6509 16.4398 11.9992 16.4398C12.3475 16.4398 12.6821 16.5752 12.9325 16.8173C13.1828 17.0594 13.3294 17.3879 13.341 17.736Z" fill="white"/>
</svg>
