<svg viewBox="0 0 12 12" xmlns="http://www.w3.org/2000/svg">
<path fill-rule="evenodd" clip-rule="evenodd" d="M11.8575 1.51841C11.9027 1.47322 11.9385 1.41957 11.9629 1.36053C11.9874 1.30149 12 1.2382 12 1.17429C12 1.11038 11.9874 1.0471 11.9629 0.988058C11.9385 0.929014 11.9027 0.875367 11.8575 0.830179L11.1698 0.14255C11.1247 0.0973563 11.071 0.0615066 11.012 0.0370477C10.9529 0.0125889 10.8896 0 10.8257 0C10.7618 0 10.6985 0.0125889 10.6395 0.0370477C10.5804 0.0615066 10.5268 0.0973563 10.4816 0.14255L6.22922 4.39493C6.16837 4.45561 6.08593 4.48968 6 4.48968C5.91407 4.48968 5.83163 4.45561 5.77078 4.39493L1.51841 0.14255C1.47322 0.0973563 1.41958 0.0615066 1.36053 0.0370477C1.30149 0.0125889 1.23821 0 1.17431 0C1.1104 0 1.04709 0.0125889 0.988043 0.0370477C0.928999 0.0615066 0.87535 0.0973563 0.830162 0.14255L0.142535 0.830179C0.0973419 0.875367 0.061521 0.929014 0.0370621 0.988058C0.0126033 1.0471 0 1.11038 0 1.17429C0 1.2382 0.0126033 1.30149 0.0370621 1.36053C0.061521 1.41957 0.0973419 1.47322 0.142535 1.51841L4.39494 5.77079C4.45562 5.83164 4.48968 5.91407 4.48968 6C4.48968 6.08593 4.45562 6.16836 4.39494 6.22921L0.142535 10.4816C0.0973419 10.5268 0.061521 10.5804 0.0370621 10.6395C0.0126033 10.6985 0 10.7618 0 10.8257C0 10.8896 0.0126033 10.9529 0.0370621 11.0119C0.061521 11.071 0.0973419 11.1246 0.142535 11.1698L0.830162 11.8575C0.87535 11.9026 0.928999 11.9385 0.988043 11.963C1.04709 11.9874 1.1104 12 1.17431 12C1.23821 12 1.30149 11.9874 1.36053 11.963C1.41958 11.9385 1.47322 11.9026 1.51841 11.8575L5.77078 7.60507C5.83163 7.54439 5.91407 7.51032 6 7.51032C6.08593 7.51032 6.16837 7.54439 6.22922 7.60507L10.4816 11.8575C10.5268 11.9026 10.5804 11.9385 10.6395 11.963C10.6985 11.9874 10.7618 12 10.8257 12C10.8896 12 10.9529 11.9874 11.012 11.963C11.071 11.9385 11.1247 11.9026 11.1698 11.8575L11.8575 11.1698C11.9027 11.1246 11.9385 11.071 11.9629 11.0119C11.9874 10.9529 12 10.8896 12 10.8257C12 10.7618 11.9874 10.6985 11.9629 10.6395C11.9385 10.5804 11.9027 10.5268 11.8575 10.4816L7.60506 6.22921C7.54438 6.16836 7.51032 6.08593 7.51032 6C7.51032 5.91407 7.54438 5.83164 7.60506 5.77079L11.8575 1.51841Z" />
</svg>
