<svg width="12" height="12" viewBox="0 0 12 12" fill="none" xmlns="http://www.w3.org/2000/svg">
<path d="M11.781 10.7364L8.934 7.92177C9.61019 7.06985 9.98038 6.015 9.985 4.92696C9.96643 3.61388 9.43227 2.36086 8.49801 1.43887C7.56376 0.516879 6.30449 0 4.9925 0C3.68051 0 2.42124 0.516879 1.48699 1.43887C0.55273 2.36086 0.0185668 3.61388 0 4.92696C0.0109142 5.83653 0.26968 6.72586 0.748395 7.49905C1.22711 8.27224 1.90761 8.89997 2.71652 9.31454C3.52543 9.7291 4.43205 9.91478 5.33863 9.85156C6.24521 9.78833 7.11735 9.47859 7.861 8.95574L10.721 11.7834C10.8623 11.9222 11.0525 12 11.2505 12C11.4485 12 11.6387 11.9222 11.78 11.7834C11.8495 11.7152 11.9048 11.6338 11.9426 11.5439C11.9803 11.4541 11.9998 11.3576 11.9999 11.2601C12 11.1626 11.9807 11.0661 11.9431 10.9762C11.9055 10.8863 11.8504 10.8048 11.781 10.7364ZM4.993 8.38321C4.0723 8.3872 3.18758 8.02562 2.5328 7.37773C1.87802 6.72984 1.50661 5.84852 1.5 4.92696C1.54787 4.03152 1.93697 3.18854 2.58715 2.57164C3.23734 1.95473 4.09912 1.61087 4.995 1.61087C5.89088 1.61087 6.75266 1.95473 7.40285 2.57164C8.05303 3.18854 8.44213 4.03152 8.49 4.92696C8.48339 5.84921 8.11143 6.73115 7.45579 7.37915C6.80014 8.02716 5.91439 8.38827 4.993 8.38321Z" fill="#AFADAB"/>
</svg>
