<svg xmlns="http://www.w3.org/2000/svg" width="16" height="16"><g transform="translate(-62 -524)"><circle cx="8" cy="8" r="8" transform="translate(62 524)" fill="#afadab"/><path d="M70.813 531.894l2.114-2.123a.234.234 0 000-.341l-.324-.34a.236.236 0 00-.342 0l-2.128 2.123a.158.158 0 01-.228 0l-2.132-2.14a.236.236 0 00-.342 0l-.341.34a.234.234 0 000 .341l2.128 2.123a.157.157 0 010 .227l-2.144 2.141a.234.234 0 000 .341l.342.341a.236.236 0 00.342 0l2.13-2.125a.158.158 0 01.228 0l2.128 2.123a.236.236 0 00.342 0l.342-.341a.234.234 0 000-.341l-2.115-2.122a.157.157 0 010-.227z" fill="#fff"/></g></svg>