<svg width="15" height="16" fill="none" xmlns="http://www.w3.org/2000/svg"><path d="M2.285 10.259l2.738 2.705a.3.3 0 00.43 0l6.832-6.778a.297.297 0 00.067-.329.296.296 0 00-.067-.097L9.578 3.085a.3.3 0 00-.333-.067.3.3 0 00-.098.067L2.285 9.864a.26.26 0 00-.069.306c.017.034.04.065.069.089zm8.185-8.42a.298.298 0 00-.091.213.293.293 0 00.09.213l2.709 2.675a.3.3 0 00.43 0l.77-.76a1.14 1.14 0 00.37-.835 1.129 1.129 0 00-.37-.836l-1.446-1.43a1.227 1.227 0 00-.877-.365 1.239 1.239 0 00-.877.365l-.708.76zM.009 14.758a.436.436 0 00.123.395.448.448 0 00.4.122l3.354-.79a.602.602 0 00.277-.153l.062-.061a.321.321 0 00-.031-.395l-2.77-2.736a.33.33 0 00-.4-.03l-.062.06a.619.619 0 00-.154.274l-.8 3.314z" fill="#999"/></svg>