<svg width="14" height="14" fill="none" xmlns="http://www.w3.org/2000/svg"><path d="M6.96 13.962A6.98 6.98 0 117.002 0a6.98 6.98 0 01-.04 13.962zM5.796 5.801a.317.317 0 00-.292.323v.582a.268.268 0 00.292.264.315.315 0 01.29.323v1.16a.267.267 0 01-.29.263.317.317 0 00-.292.323v.583a.267.267 0 00.292.262h2.333a.27.27 0 00.292-.262v-.586a.323.323 0 00-.292-.323.269.269 0 01-.292-.263V6.122a.323.323 0 00-.292-.323l-1.75.002zM6.96 3.498a.875.875 0 10.876.875.856.856 0 00-.876-.875z" fill="#2782ec"/></svg>