<svg width="24" height="24" viewBox="0 0 44 44" fill="none" xmlns="http://www.w3.org/2000/svg"><path d="M22 44c12.15 0 22-9.85 22-22S34.15 0 22 0 0 9.85 0 22s9.85 22 22 22z" fill="#0090B9"/><path d="M31.795 23.199h-1.306a.7.7 0 00-.653.653v4.353a.668.668 0 01-.653.653H14.818a.67.67 0 01-.653-.653v-4.353a.7.7 0 00-.653-.653h-1.306a.7.7 0 00-.653.653v5.876a1.746 1.746 0 001.74 1.741h17.414a1.746 1.746 0 001.74-1.741v-5.876a.7.7 0 00-.652-.653zm-9.357-12.45a.63.63 0 00-.914 0l-5.88 5.877a.629.629 0 000 .914l.915.914a.633.633 0 00.914 0l2.438-2.438a.468.468 0 01.784.3v9.228a.632.632 0 00.609.653h1.306a.745.745 0 00.7-.653v-9.179a.431.431 0 01.74-.3l2.434 2.433a.633.633 0 00.914 0l.914-.914a.63.63 0 000-.914l-5.874-5.921z" fill="#fff"/></svg>