<svg width="8" height="13" viewBox="0 0 8 13" fill="none" xmlns="http://www.w3.org/2000/svg">
<path d="M6.19912 12.6275L0.620687 7.10803C0.543339 7.029 0.5 6.92263 0.5 6.81184C0.5 6.70105 0.543339 6.59469 0.620687 6.51565L6.19912 0.996154C6.27785 0.918507 6.3838 0.875 6.49417 0.875C6.60454 0.875 6.71049 0.918507 6.78922 0.996154L7.37931 1.58853C7.45666 1.66756 7.5 1.77392 7.5 1.88472C7.5 1.99551 7.45666 2.10187 7.37931 2.1809L2.95404 6.51565C2.87669 6.59469 2.83336 6.70105 2.83336 6.81184C2.83336 6.92263 2.87669 7.029 2.95404 7.10803L7.32527 11.4428C7.40262 11.5218 7.44596 11.6282 7.44596 11.739C7.44596 11.8498 7.40262 11.9561 7.32527 12.0352L6.73518 12.6275C6.66089 12.6925 6.56569 12.7283 6.46715 12.7283C6.36861 12.7283 6.27341 12.6925 6.19912 12.6275Z" fill="#2782ED"/>
</svg>
