<svg width="8" height="14" viewBox="0 0 8 14" fill="none" xmlns="http://www.w3.org/2000/svg">
<path opacity="0.99" d="M6.51328 13.4315L0.137928 7.12346C0.0495308 7.03314 0 6.91158 0 6.78496C0 6.65834 0.0495308 6.53678 0.137928 6.44646L6.51328 0.138462C6.60326 0.0497222 6.72435 0 6.85048 0C6.97661 0 7.0977 0.0497222 7.18768 0.138462L7.86207 0.815462C7.95047 0.905784 8 1.02734 8 1.15396C8 1.28058 7.95047 1.40214 7.86207 1.49246L2.80462 6.44646C2.71622 6.53678 2.66669 6.65834 2.66669 6.78496C2.66669 6.91158 2.71622 7.03314 2.80462 7.12346L7.80031 12.0775C7.88871 12.1678 7.93824 12.2893 7.93824 12.416C7.93824 12.5426 7.88871 12.6641 7.80031 12.7545L7.12592 13.4315C7.04102 13.5057 6.93221 13.5467 6.8196 13.5467C6.70699 13.5467 6.59818 13.5057 6.51328 13.4315Z" fill="#D9D9D9"/>
</svg>
