<svg width="14" height="14" viewBox="0 0 14 14" fill="none" xmlns="http://www.w3.org/2000/svg">
<path d="M6.96067 13.962C5.34641 13.9573 3.78368 13.3933 2.53848 12.366C1.29327 11.3387 0.442556 9.91166 0.131144 8.32773C-0.180268 6.74379 0.0668694 5.10089 0.830488 3.67866C1.59411 2.25644 2.82701 1.14281 4.31933 0.527335C5.81165 -0.0881413 7.47115 -0.167422 9.01534 0.302989C10.5595 0.7734 11.893 1.76443 12.7887 3.10738C13.6844 4.45033 14.0871 6.06219 13.9281 7.6686C13.7691 9.27501 13.0583 10.7767 11.9167 11.918C10.6008 13.2291 8.81825 13.9643 6.96067 13.962V13.962ZM5.79467 5.80097C5.71395 5.80734 5.63873 5.84435 5.58444 5.90441C5.53014 5.96447 5.50088 6.04303 5.50267 6.12397V6.70597C5.50307 6.74294 5.51112 6.77943 5.5263 6.81314C5.54149 6.84685 5.56349 6.87705 5.59092 6.90185C5.61834 6.92664 5.6506 6.94549 5.68567 6.95722C5.72073 6.96894 5.75784 6.97329 5.79467 6.96997C5.87538 6.97611 5.95064 7.01308 6.00482 7.07322C6.059 7.13336 6.08795 7.21206 6.08567 7.29297V8.45297C6.08526 8.48981 6.07724 8.52617 6.0621 8.55976C6.04697 8.59335 6.02504 8.62344 5.99771 8.64814C5.97038 8.67284 5.93823 8.69162 5.90328 8.7033C5.86834 8.71497 5.83136 8.71929 5.79467 8.71597C5.71395 8.72234 5.63873 8.75935 5.58444 8.81941C5.53014 8.87947 5.50088 8.95803 5.50267 9.03897V9.62197C5.50319 9.65882 5.51134 9.69516 5.5266 9.7287C5.54186 9.76225 5.5639 9.79227 5.59133 9.81688C5.61875 9.84149 5.65098 9.86015 5.68598 9.8717C5.72097 9.88325 5.75798 9.88743 5.79467 9.88397H8.12767C8.16429 9.88712 8.20118 9.88274 8.23605 9.87108C8.27091 9.85942 8.30302 9.84073 8.33038 9.81618C8.35774 9.79163 8.37979 9.76173 8.39514 9.72832C8.4105 9.69492 8.41884 9.65873 8.41967 9.62197V9.03597C8.42004 8.95542 8.39029 8.87763 8.33627 8.81787C8.28225 8.75812 8.20785 8.7207 8.12767 8.71297C8.09095 8.71613 8.05399 8.71171 8.01905 8.69999C7.98412 8.68827 7.95197 8.6695 7.92459 8.64484C7.89721 8.62018 7.87519 8.59016 7.8599 8.55664C7.8446 8.52312 7.83635 8.48681 7.83567 8.44997V6.12197C7.83604 6.04142 7.80629 5.96363 7.75227 5.90387C7.69825 5.84412 7.62385 5.8067 7.54367 5.79897L5.79467 5.80097ZM6.96067 3.49797C6.78765 3.49817 6.61858 3.54966 6.47481 3.64592C6.33105 3.74219 6.21906 3.87891 6.15298 4.03882C6.08691 4.19872 6.06973 4.37462 6.1036 4.54429C6.13748 4.71396 6.22089 4.86977 6.3433 4.99204C6.46571 5.11431 6.62162 5.19755 6.79133 5.23123C6.96103 5.26491 7.13692 5.24753 7.29674 5.18127C7.45657 5.11501 7.59317 5.00286 7.68927 4.85899C7.78537 4.71512 7.83667 4.54599 7.83667 4.37297C7.83927 4.25727 7.81838 4.14224 7.77526 4.03484C7.73215 3.92744 7.6677 3.82989 7.58582 3.7481C7.50394 3.66632 7.40632 3.60198 7.29887 3.55899C7.19142 3.516 7.07637 3.49524 6.96067 3.49797V3.49797Z" style="fill:#2782EC"/>
</svg>
