<svg width="24" height="24" viewBox="0 0 44 44" fill="none" xmlns="http://www.w3.org/2000/svg">
<path d="M22 44C34.1503 44 44 34.1503 44 22C44 9.84974 34.1503 0 22 0C9.84974 0 0 9.84974 0 22C0 34.1503 9.84974 44 22 44Z" fill="#0090B9"/>
<path d="M31.7947 23.199H30.4887C30.3192 23.2101 30.1594 23.2824 30.0393 23.4025C29.9191 23.5227 29.8468 23.6824 29.8357 23.852V28.205C29.8317 28.3769 29.7616 28.5407 29.64 28.6622C29.5184 28.7838 29.3546 28.8539 29.1827 28.858H14.8177C14.6458 28.8539 14.4821 28.7838 14.3605 28.6622C14.2389 28.5407 14.1688 28.3769 14.1647 28.205V23.852C14.1537 23.6824 14.0813 23.5227 13.9612 23.4025C13.841 23.2824 13.6813 23.2101 13.5117 23.199H12.2057C12.0362 23.2101 11.8764 23.2824 11.7563 23.4025C11.6361 23.5227 11.5638 23.6824 11.5527 23.852V29.728C11.5541 30.1893 11.7379 30.6314 12.0641 30.9576C12.3903 31.2838 12.8324 31.4677 13.2937 31.469H30.7067C31.1681 31.4677 31.6101 31.2838 31.9364 30.9576C32.2626 30.6314 32.4464 30.1893 32.4477 29.728V23.852C32.4367 23.6824 32.3643 23.5227 32.2442 23.4025C32.124 23.2824 31.9643 23.2101 31.7947 23.199V23.199ZM22.4377 10.749C22.3788 10.6871 22.3079 10.6378 22.2293 10.6041C22.1508 10.5705 22.0662 10.5531 21.9807 10.5531C21.8953 10.5531 21.8107 10.5705 21.7321 10.6041C21.6536 10.6378 21.5827 10.6871 21.5237 10.749L15.6447 16.626C15.5828 16.6849 15.5335 16.7558 15.4999 16.8344C15.4662 16.913 15.4488 16.9975 15.4488 17.083C15.4488 17.1685 15.4662 17.2531 15.4999 17.3316C15.5335 17.4102 15.5828 17.4811 15.6447 17.54L16.5587 18.454C16.6177 18.5159 16.6886 18.5652 16.7671 18.5989C16.8457 18.6325 16.9303 18.6499 17.0157 18.6499C17.1012 18.6499 17.1858 18.6325 17.2643 18.5989C17.3429 18.5652 17.4138 18.5159 17.4727 18.454L19.9107 16.016C19.9747 15.9563 20.0541 15.9157 20.14 15.8989C20.2259 15.8821 20.3147 15.8898 20.3965 15.9211C20.4782 15.9523 20.5495 16.006 20.6022 16.0758C20.655 16.1456 20.687 16.2288 20.6947 16.316V25.544C20.6891 25.7113 20.75 25.874 20.8642 25.9965C20.9784 26.1189 21.1364 26.191 21.3037 26.197H22.6097C22.7845 26.1877 22.9505 26.1172 23.0785 25.9978C23.2065 25.8784 23.2884 25.7177 23.3097 25.544V16.365C23.3098 16.2793 23.3355 16.1955 23.3834 16.1245C23.4313 16.0534 23.4994 15.9982 23.5788 15.966C23.6582 15.9338 23.7455 15.9261 23.8294 15.9437C23.9133 15.9613 23.99 16.0035 24.0497 16.065L26.4837 18.498C26.5427 18.5599 26.6136 18.6092 26.6921 18.6429C26.7707 18.6765 26.8553 18.6939 26.9407 18.6939C27.0262 18.6939 27.1108 18.6765 27.1893 18.6429C27.2679 18.6092 27.3388 18.5599 27.3977 18.498L28.3117 17.584C28.3736 17.5251 28.4229 17.4542 28.4566 17.3756C28.4903 17.2971 28.5076 17.2125 28.5076 17.127C28.5076 17.0415 28.4903 16.957 28.4566 16.8784C28.4229 16.7998 28.3736 16.7289 28.3117 16.67L22.4377 10.749Z" fill="white"/>
</svg>
