<svg width="16" height="16" viewBox="0 0 16 16" fill="none" xmlns="http://www.w3.org/2000/svg">
<path d="M9.45454 9.09091H15.4545C15.7455 9.09091 16 8.83636 16 8.54545V7.45455C16 7.16364 15.7455 6.90909 15.4545 6.90909H9.45454C9.23636 6.90909 9.09091 6.76364 9.09091 6.54545V0.545455C9.09091 0.254545 8.83636 0 8.54545 0H7.45454C7.16363 0 6.90909 0.254545 6.90909 0.545455V6.54545C6.90909 6.76364 6.76363 6.90909 6.54545 6.90909H0.545454C0.254545 6.90909 0 7.16364 0 7.45455V8.54545C0 8.83636 0.254545 9.09091 0.545454 9.09091H6.54545C6.76363 9.09091 6.90909 9.23636 6.90909 9.45455V15.4545C6.90909 15.7455 7.16363 16 7.45454 16H8.54545C8.83636 16 9.09091 15.7455 9.09091 15.4545V9.45455C9.09091 9.23636 9.23636 9.09091 9.45454 9.09091Z" fill="#2782ED"/>
</svg>
