<svg width="14" height="12" viewBox="0 0 14 12" fill="none" xmlns="http://www.w3.org/2000/svg">
<path d="M13.7689 0.922476C13.7689 0.676322 13.5535 0.460938 13.3074 0.460938H0.692007C0.445853 0.460938 0.230469 0.676322 0.230469 0.922476V1.84555C0.230469 2.09171 0.445853 2.30709 0.692007 2.30709H13.3074C13.5535 2.30709 13.7689 2.09171 13.7689 1.84555V0.922476ZM13.7689 10.1532C13.7689 9.90709 13.5535 9.69171 13.3074 9.69171H0.692007C0.445853 9.69171 0.230469 9.90709 0.230469 10.1532V11.0763C0.230469 11.3225 0.445853 11.5379 0.692007 11.5379H13.3074C13.5535 11.5379 13.7689 11.3225 13.7689 11.0763V10.1532ZM9.61508 6.92248C9.86124 6.92248 10.0766 6.70709 10.0766 6.46094V5.53786C10.0766 5.29171 9.86124 5.07632 9.61508 5.07632H4.38432C4.13816 5.07632 3.92278 5.29171 3.92278 5.53786V6.46094C3.92278 6.70709 4.13816 6.92248 4.38432 6.92248H9.61508Z" fill="#666666"/>
</svg>
