<svg width="14" height="12" fill="none" xmlns="http://www.w3.org/2000/svg"><path fill-rule="evenodd" clip-rule="evenodd" d="M14 1.5a.55.55 0 01-.13.35.423.423 0 01-.307.15H.438a.423.423 0 01-.307-.15A.55.55 0 010 1.5v-1A.55.55 0 01.132.15.423.423 0 01.438 0h13.125a.423.423 0 01.307.15.55.55 0 01.13.35v1zm0 5a.55.55 0 01-.13.35.423.423 0 01-.307.15H.438a.423.423 0 01-.307-.15A.55.55 0 010 6.5v-1a.55.55 0 01.132-.35A.423.423 0 01.438 5h13.125a.423.423 0 01.307.15.55.55 0 01.13.35v1zm-.13 5.35a.55.55 0 00.13-.35v-1a.55.55 0 00-.13-.35.423.423 0 00-.307-.15H.438a.423.423 0 00-.306.15.55.55 0 00-.132.35v1a.55.55 0 00.131.35.423.423 0 00.307.15h13.125a.423.423 0 00.307-.15z" fill="#fff"/><path fill-rule="evenodd" clip-rule="evenodd" d="M14 1.5a.55.55 0 01-.13.35.423.423 0 01-.307.15H.438a.423.423 0 01-.307-.15A.55.55 0 010 1.5v-1A.55.55 0 01.132.15.423.423 0 01.438 0h13.125a.423.423 0 01.307.15.55.55 0 01.13.35v1zm0 5a.55.55 0 01-.13.35.423.423 0 01-.307.15H.438a.423.423 0 01-.307-.15A.55.55 0 010 6.5v-1a.55.55 0 01.132-.35A.423.423 0 01.438 5h13.125a.423.423 0 01.307.15.55.55 0 01.13.35v1zm-.13 5.35a.55.55 0 00.13-.35v-1a.55.55 0 00-.13-.35.423.423 0 00-.307-.15H.438a.423.423 0 00-.306.15.55.55 0 00-.132.35v1a.55.55 0 00.131.35.423.423 0 00.307.15h13.125a.423.423 0 00.307-.15z" fill="#666"/></svg>