<svg width="67" height="68" fill="none" xmlns="http://www.w3.org/2000/svg"><path fill-rule="evenodd" clip-rule="evenodd" d="M33.5.77A33.151 33.151 0 00.269 34a33.151 33.151 0 0033.23 33.23A33.151 33.151 0 0066.732 34 33.151 33.151 0 0033.5.77zM33.438 52c-2.354 0-4.154-1.8-4.154-4.154s1.8-4.154 4.154-4.154c2.353 0 4.154 1.8 4.154 4.154S35.792 52 33.438 52zm4.154-12.462c0 .831-.554 1.385-1.385 1.385h-5.539c-.83 0-1.384-.554-1.384-1.385v-18c0-.83.554-1.384 1.384-1.384h5.539c.83 0 1.385.554 1.385 1.384v18z" fill="#C23934"/></svg>