<svg width="14" height="12" fill="none" xmlns="http://www.w3.org/2000/svg"><path d="M13.769.922a.473.473 0 00-.462-.461H.692A.473.473 0 00.23.922v.924c0 .246.216.461.462.461h12.615a.473.473 0 00.462-.461V.922zm0 9.231a.473.473 0 00-.462-.461H.692a.473.473 0 00-.462.461v.923c0 .246.216.462.462.462h12.615a.473.473 0 00.462-.462v-.923zM8.23 6.923h1.385a.473.473 0 00.462-.462v-.923a.473.473 0 00-.462-.462H8.23c-.184 0-.307-.123-.307-.307V3.384a.473.473 0 00-.462-.462h-.923a.473.473 0 00-.461.462v1.385c0 .184-.123.307-.308.307H4.384a.473.473 0 00-.461.462v.923c0 .246.215.461.461.461H5.77c.185 0 .308.124.308.308v1.385c0 .246.215.461.461.461h.923a.473.473 0 00.462-.461V7.23c0-.184.123-.308.307-.308z" fill="#666"/></svg>