<svg width="73" height="72" fill="none" xmlns="http://www.w3.org/2000/svg"><path fill-rule="evenodd" clip-rule="evenodd" d="M36.5 2.77A33.151 33.151 0 003.27 36 33.151 33.151 0 0036.5 69.23 33.151 33.151 0 0069.73 36 33.151 33.151 0 0036.5 2.77zm18.554 24.922L33.869 49.154c-.83.83-2.215.83-3.046 0l-11.63-11.77a2.173 2.173 0 010-3.045l3.045-3.047a2.176 2.176 0 013.047 0l6.092 6.231c.554.554 1.523.554 2.077 0l15.508-16.061a2.172 2.172 0 013.046 0l3.046 3.046c.97.83.97 2.215 0 3.184z" fill="#04844B"/></svg>