<svg width="67" height="68" viewBox="0 0 67 68" fill="none" xmlns="http://www.w3.org/2000/svg">
  <path fill-rule="evenodd" clip-rule="evenodd" d="M33.4998 0.769287C15.0844 0.769287 0.269043 15.5847 0.269043 34.0001C0.269043 52.4154 15.0844 67.2308 33.4998 67.2308C51.9152 67.2308 66.7306 52.4154 66.7306 34.0001C66.7306 15.5847 51.9152 0.769287 33.4998 0.769287ZM33.4376 52.0001C31.0838 52.0001 29.2838 50.2001 29.2838 47.8462C29.2838 45.4924 31.0838 43.6924 33.4376 43.6924C35.7915 43.6924 37.5915 45.4924 37.5915 47.8462C37.5915 50.2001 35.7915 52.0001 33.4376 52.0001ZM37.5915 39.5385C37.5915 40.3693 37.0376 40.9231 36.2068 40.9231H30.6684C29.8376 40.9231 29.2838 40.3693 29.2838 39.5385V21.5385C29.2838 20.7078 29.8376 20.1539 30.6684 20.1539H36.2068C37.0376 20.1539 37.5915 20.7078 37.5915 21.5385V39.5385Z" fill="#C23934"/>
</svg>
