<svg width="8" height="14" viewBox="0 0 8 14" xmlns="http://www.w3.org/2000/svg">
<path d="M1.49246 0.115322L7.86146 6.42332C7.9502 6.51364 7.99992 6.6352 7.99992 6.76182C7.99992 6.88844 7.9502 7.01 7.86146 7.10032L1.49246 13.4073C1.40214 13.4961 1.28058 13.5458 1.15396 13.5458C1.02734 13.5458 0.905784 13.4961 0.815462 13.4073L0.138462 12.7303C0.0497223 12.64 0 12.5184 0 12.3918C0 12.2652 0.0497223 12.1436 0.138462 12.0533L5.15446 7.10032C5.2432 7.01 5.29292 6.88844 5.29292 6.76182C5.29292 6.6352 5.2432 6.51364 5.15446 6.42332L0.169462 1.46932C0.0807223 1.379 0.031 1.25744 0.031 1.13082C0.031 1.0042 0.0807223 0.882644 0.169462 0.792322L0.846462 0.115322C0.937587 0.0407459 1.05171 0 1.16946 0C1.28721 0 1.40134 0.0407459 1.49246 0.115322Z" fill="#2782ED"/>
</svg>
