<svg width="32" height="32" viewBox="0 0 44 44" fill="none" xmlns="http://www.w3.org/2000/svg"><path d="M22 44c12.15 0 22-9.85 22-22S34.15 0 22 0 0 9.85 0 22s9.85 22 22 22z" fill="#0090B9"/><path d="M12.394 22.122l-1.414 1.414a1 1 0 000 1.414l7.07 7.071a1 1 0 001.415 0l1.414-1.414a1 1 0 000-1.414l-7.071-7.071a1 1 0 00-1.414 0z" fill="#fff"/><path d="M35.02 15.05l-1.414-1.414a1 1 0 00-1.414 0L16.636 29.192a1 1 0 000 1.415l1.414 1.414a1 1 0 001.414 0l15.557-15.556a1 1 0 000-1.415z" fill="#fff"/></svg>