<svg width="14" height="12" viewBox="0 0 14 12" fill="none" xmlns="http://www.w3.org/2000/svg">
<path fill-rule="evenodd" clip-rule="evenodd" d="M14.0009 1.49946C13.9983 1.63126 13.9513 1.75682 13.8697 1.85004C13.7882 1.94326 13.6783 1.99697 13.563 2L0.437946 2C0.322629 1.99697 0.212771 1.94326 0.131208 1.85004C0.0496454 1.75682 0.00265364 1.63126 2.43121e-06 1.49946L2.28819e-06 0.499458C0.00289362 0.367848 0.0499912 0.242559 0.131529 0.149569C0.213067 0.0565782 0.322789 0.00302029 0.437946 0L13.563 0C13.6783 0.00303125 13.7882 0.0567398 13.8697 0.149961C13.9513 0.243181 13.9983 0.368742 14.0009 0.500542L14.0009 1.49946ZM14.0009 6.49946C13.9983 6.63126 13.9513 6.75682 13.8697 6.85004C13.7882 6.94326 13.6783 6.99697 13.563 7L0.437946 7C0.322629 6.99697 0.212771 6.94326 0.131208 6.85004C0.0496454 6.75682 0.00265364 6.63126 3.14632e-06 6.49946L3.0033e-06 5.49946C0.00289362 5.36785 0.0499912 5.24256 0.131529 5.14957C0.213067 5.05658 0.322789 5.00302 0.437946 5L13.563 5C13.6783 5.00303 13.7882 5.05674 13.8697 5.14996C13.9513 5.24318 13.9983 5.36874 14.0009 5.50054L14.0009 6.49946ZM13.8697 11.85C13.9513 11.7568 13.9983 11.6313 14.0009 11.4995L14.0009 10.5005C13.9983 10.3687 13.9513 10.2432 13.8697 10.15C13.7882 10.0567 13.6783 10.003 13.563 10L0.437946 10C0.322789 10.003 0.213067 10.0566 0.131529 10.1496C0.0499912 10.2426 0.00289362 10.3678 1.64467e-06 10.4995L1.64467e-06 11.4995C0.00265364 11.6313 0.0496454 11.7568 0.131208 11.85C0.212771 11.9433 0.322629 11.997 0.437946 12L13.563 12C13.6783 11.997 13.7882 11.9433 13.8697 11.85Z" fill="white"/>
<path fill-rule="evenodd" clip-rule="evenodd" d="M14.0009 1.49946C13.9983 1.63126 13.9513 1.75682 13.8697 1.85004C13.7882 1.94326 13.6783 1.99697 13.563 2L0.437946 2C0.322629 1.99697 0.212771 1.94326 0.131208 1.85004C0.0496454 1.75682 0.00265364 1.63126 2.43121e-06 1.49946L2.28819e-06 0.499458C0.00289362 0.367848 0.0499912 0.242559 0.131529 0.149569C0.213067 0.0565782 0.322789 0.00302029 0.437946 0L13.563 0C13.6783 0.00303125 13.7882 0.0567398 13.8697 0.149961C13.9513 0.243181 13.9983 0.368742 14.0009 0.500542L14.0009 1.49946ZM14.0009 6.49946C13.9983 6.63126 13.9513 6.75682 13.8697 6.85004C13.7882 6.94326 13.6783 6.99697 13.563 7L0.437946 7C0.322629 6.99697 0.212771 6.94326 0.131208 6.85004C0.0496454 6.75682 0.00265364 6.63126 3.14632e-06 6.49946L3.0033e-06 5.49946C0.00289362 5.36785 0.0499912 5.24256 0.131529 5.14957C0.213067 5.05658 0.322789 5.00302 0.437946 5L13.563 5C13.6783 5.00303 13.7882 5.05674 13.8697 5.14996C13.9513 5.24318 13.9983 5.36874 14.0009 5.50054L14.0009 6.49946ZM13.8697 11.85C13.9513 11.7568 13.9983 11.6313 14.0009 11.4995L14.0009 10.5005C13.9983 10.3687 13.9513 10.2432 13.8697 10.15C13.7882 10.0567 13.6783 10.003 13.563 10L0.437946 10C0.322789 10.003 0.213067 10.0566 0.131529 10.1496C0.0499912 10.2426 0.00289362 10.3678 1.64467e-06 10.4995L1.64467e-06 11.4995C0.00265364 11.6313 0.0496454 11.7568 0.131208 11.85C0.212771 11.9433 0.322629 11.997 0.437946 12L13.563 12C13.6783 11.997 13.7882 11.9433 13.8697 11.85Z" fill="#666666"/>
</svg>
