<svg width="73" height="72" viewBox="0 0 73 72" fill="none" xmlns="http://www.w3.org/2000/svg">
  <path fill-rule="evenodd" clip-rule="evenodd" d="M36.5001 2.76929C18.0847 2.76929 3.26929 17.5847 3.26929 36.0001C3.26929 54.4154 18.0847 69.2308 36.5001 69.2308C54.9154 69.2308 69.7308 54.4154 69.7308 36.0001C69.7308 17.5847 54.9154 2.76929 36.5001 2.76929ZM55.0539 27.6924L33.8693 49.1539C33.0385 49.9847 31.6539 49.9847 30.8231 49.1539L19.1924 37.3847C18.3616 36.5539 18.3616 35.1693 19.1924 34.3385L22.2385 31.2924C23.0693 30.4616 24.4539 30.4616 25.2847 31.2924L31.377 37.5231C31.9308 38.077 32.9001 38.077 33.4539 37.5231L48.9616 21.4616C49.7924 20.6308 51.177 20.6308 52.0077 21.4616L55.0539 24.5077C56.0231 25.3385 56.0231 26.7231 55.0539 27.6924Z" fill="#04844B"/>
</svg>

