<svg xmlns="http://www.w3.org/2000/svg" viewBox="0 0 14.708 14.789">
  <defs>
    <style>
      .cls-1 {
        fill: #074b69;
      }
    </style>
  </defs>
  <g id="icons_utility_announcement-copy" data-name="icons/utility/announcement-copy" transform="translate(-0.615 -0.615)">
    <path id="Mask" class="cls-1" d="M6.985,13.988l-.4-.308a1.462,1.462,0,0,1-.431-1.231v-.892a.473.473,0,0,0-.462-.462H3.846a.473.473,0,0,0-.462.462v2.369A1.327,1.327,0,0,0,4.646,15.4H6.154c.892,0,.954-.615.954-.615s.154-.554-.123-.8Zm6.862-8.431V1.342A.806.806,0,0,0,12.431.881L9.692,3.465a2.334,2.334,0,0,1-1.538.523H3.477A2.991,2.991,0,0,0,.615,7v.062a2.786,2.786,0,0,0,2.862,2.8H8.154a2.443,2.443,0,0,1,1.569.615l2.708,2.646c.492.492,1.415.308,1.415-.431V8.511a1.4,1.4,0,0,0,1.477-1.477,1.4,1.4,0,0,0-1.477-1.477Z"/>
  </g>
</svg>
