<svg xmlns="http://www.w3.org/2000/svg" viewBox="0 0 14.8 13.57">
  <defs>
    <style>
      .cls-1 {
        fill: #074b69;
      }
    </style>
  </defs>
  <g id="icons_utility_answer" data-name="icons/utility/answer" transform="translate(-0.615 -0.23)">
    <path id="Mask" class="cls-1" d="M8,.231C3.908.231.615,3.246.615,7a6.586,6.586,0,0,0,.923,3.323.615.615,0,0,1,.062.4L.923,12.846a.5.5,0,0,0,.646.615l2.154-.738a.432.432,0,0,1,.431.062A7.828,7.828,0,0,0,8.031,13.8c4.092,0,7.385-3.015,7.385-6.769A7.169,7.169,0,0,0,8,.231Zm3.538,5.262L7.785,9.185a.675.675,0,0,1-.523.215.721.721,0,0,1-.523-.215L4.923,7.4a.32.32,0,0,1,0-.492l.523-.492a.354.354,0,0,1,.523,0L7.262,7.708l3.231-3.2a.354.354,0,0,1,.523,0L11.538,5A.374.374,0,0,1,11.538,5.492Z"/>
  </g>
</svg>
