<svg xmlns="http://www.w3.org/2000/svg" viewBox="0 0 14.77 14.775">
  <defs>
    <style>
      .cls-1 {
        fill: #074b69;
      }
    </style>
  </defs>
  <g id="icons_utility_approval-copy" data-name="icons/utility/approval-copy" transform="translate(-0.615 -0.615)">
    <path id="Mask" class="cls-1" d="M13.908,8.99H11.2A1.5,1.5,0,0,1,9.723,7.513c.123-2.185,1.138-2.308,1.231-3.723A2.923,2.923,0,0,0,8.677.682,2.99,2.99,0,0,0,5.046,3.575c0,1.631,1.108,1.631,1.231,3.938A1.5,1.5,0,0,1,4.8,8.99H2.092A1.477,1.477,0,0,0,.615,10.467v.985a.486.486,0,0,0,.492.492H14.892a.486.486,0,0,0,.492-.492v-.985A1.477,1.477,0,0,0,13.908,8.99Zm.031,4.431H2.062a.453.453,0,0,0-.462.462v.031A1.5,1.5,0,0,0,3.077,15.39h9.877A1.471,1.471,0,0,0,14.4,13.913v-.031a.473.473,0,0,0-.462-.462Z"/>
  </g>
</svg>
