<svg width="20" height="20" viewBox="0 0 20 20" fill="none" xmlns="http://www.w3.org/2000/svg">
<path fill-rule="evenodd" clip-rule="evenodd" d="M14.4921 1.06329C15.0203 1.32933 15.1279 2.0137 14.7577 2.47495L14.4215 2.89379C14.1079 3.28461 13.5559 3.37583 13.0997 3.1685C12.1549 2.73914 11.1054 2.5 10 2.5C5.85786 2.5 2.5 5.85786 2.5 10L2.50026 10.0637C2.49934 10.1069 2.50008 10.15 2.50244 10.1932C2.6049 14.246 5.92244 17.5 10 17.5C14.1421 17.5 17.5 14.1421 17.5 10C17.5 9.36556 17.4212 8.74952 17.2729 8.16113C17.1889 7.8276 17.2507 7.46949 17.4693 7.20393L17.9408 6.63112C18.3984 6.07531 19.2709 6.17567 19.4968 6.8592C19.8233 7.84692 20 8.90283 20 10C20 15.5228 15.5228 20 10 20C4.47715 20 0 15.5228 0 10C0 4.47715 4.47715 0 10 0C11.6154 0 13.1414 0.383056 14.4921 1.06329ZM9.99132 14.715L19.3002 3.40611C19.5772 3.12915 19.5772 2.57523 19.231 2.3675L18.1231 1.25965C17.8462 0.913449 17.3615 0.913449 17.0153 1.25965L8.88347 11.3914L5.97536 8.48334C5.69839 8.13713 5.21371 8.13713 4.86751 8.48334L3.75965 9.59119C3.41345 9.86815 3.41345 10.3528 3.75965 10.699L7.77562 14.715C8.05258 15.0612 8.53726 15.1997 8.88347 15.1997C9.29891 15.1997 9.64512 15.0612 9.99132 14.715Z" fill="#0e7aa7"/>
</svg>
