<svg xmlns="http://www.w3.org/2000/svg" viewBox="0 0 13.539 13.539">
  <defs>
    <style>
      .cls-1 {
        fill: #074b69;
      }
    </style>
  </defs>
  <g id="icons_utility_apps-copy" data-name="icons/utility/apps-copy" transform="translate(-0.23 -0.23)">
    <path id="Mask" class="cls-1" d="M3,.231H1.154a.907.907,0,0,0-.923.923V3a.907.907,0,0,0,.923.923H3A.907.907,0,0,0,3.923,3V1.154A.907.907,0,0,0,3,.231Zm0,9.846H1.154A.907.907,0,0,0,.231,11v1.846a.907.907,0,0,0,.923.923H3a.907.907,0,0,0,.923-.923V11A.907.907,0,0,0,3,10.077ZM3,5.154H1.154a.907.907,0,0,0-.923.923V7.923a.907.907,0,0,0,.923.923H3a.907.907,0,0,0,.923-.923V6.077A.907.907,0,0,0,3,5.154ZM7.923.231H6.077a.907.907,0,0,0-.923.923V3a.907.907,0,0,0,.923.923H7.923A.907.907,0,0,0,8.846,3V1.154A.907.907,0,0,0,7.923.231Zm0,9.846H6.077A.907.907,0,0,0,5.154,11v1.846a.907.907,0,0,0,.923.923H7.923a.907.907,0,0,0,.923-.923V11A.907.907,0,0,0,7.923,10.077Zm0-4.923H6.077a.907.907,0,0,0-.923.923V7.923a.907.907,0,0,0,.923.923H7.923a.907.907,0,0,0,.923-.923V6.077A.907.907,0,0,0,7.923,5.154ZM12.846.231H11a.907.907,0,0,0-.923.923V3A.907.907,0,0,0,11,3.923h1.846A.907.907,0,0,0,13.769,3V1.154A.907.907,0,0,0,12.846.231Zm0,9.846H11a.907.907,0,0,0-.923.923v1.846a.907.907,0,0,0,.923.923h1.846a.907.907,0,0,0,.923-.923V11A.907.907,0,0,0,12.846,10.077Zm0-4.923H11a.907.907,0,0,0-.923.923V7.923A.907.907,0,0,0,11,8.846h1.846a.907.907,0,0,0,.923-.923V6.077A.907.907,0,0,0,12.846,5.154Z"/>
  </g>
</svg>
