<svg xmlns="http://www.w3.org/2000/svg" viewBox="0 0 10.461 14.154">
  <defs>
    <style>
      .cls-1 {
        fill: #074b69;
      }
    </style>
  </defs>
  <g id="icons_utility_arrowup" data-name="icons/utility/arrowup" transform="translate(-0.077 -0.23)">
    <path id="Mask" class="cls-1" d="M10.354,5.769a.56.56,0,0,0,0-.831L5.738.415a.6.6,0,0,0-.862,0L.262,4.938a.56.56,0,0,0,0,.831l.862.831a.6.6,0,0,0,.862,0L3.431,5.185a.4.4,0,0,1,.677.277v8.308a.638.638,0,0,0,.615.615H5.954a.661.661,0,0,0,.615-.615V5.462a.393.393,0,0,1,.677-.277L8.692,6.6a.6.6,0,0,0,.862,0Z"/>
  </g>
</svg>
