<svg xmlns="http://www.w3.org/2000/svg" viewBox="0 0 10.492 14.154">
  <defs>
    <style>
      .cls-1 {
        fill: #074b69;
      }
    </style>
  </defs>
  <g id="icons_utility_arrowdown" data-name="icons/utility/arrowdown" transform="translate(-0.077 -0.23)">
    <path id="Mask" class="cls-1" d="M.262,8.846a.56.56,0,0,0,0,.831L4.877,14.2a.6.6,0,0,0,.862,0l4.646-4.523a.56.56,0,0,0,0-.831l-.862-.831a.6.6,0,0,0-.862,0L7.215,9.431a.393.393,0,0,1-.677-.277V.846A.638.638,0,0,0,5.923.231H4.692a.661.661,0,0,0-.615.615V9.154a.393.393,0,0,1-.677.277L1.954,8.015a.6.6,0,0,0-.862,0l-.831.831Z"/>
  </g>
</svg>
