<svg xmlns="http://www.w3.org/2000/svg" viewBox="0 0 14.77 14.77">
  <defs>
    <style>
      .cls-1 {
        fill: #074b69;
      }
    </style>
  </defs>
  <g id="icons_utility_ban" data-name="icons/utility/ban" transform="translate(-0.615 -0.615)">
    <path id="Mask" class="cls-1" d="M8,.615A7.385,7.385,0,1,0,15.385,8,7.406,7.406,0,0,0,8,.615ZM2.462,8A5.555,5.555,0,0,1,8,2.462a5.43,5.43,0,0,1,3.2,1.015L3.477,11.2A5.43,5.43,0,0,1,2.462,8ZM8,13.538a5.43,5.43,0,0,1-3.2-1.015L12.523,4.8A5.43,5.43,0,0,1,13.538,8,5.555,5.555,0,0,1,8,13.538Z"/>
  </g>
</svg>
