<svg xmlns="http://www.w3.org/2000/svg" viewBox="0 0 10.99 14.777">
  <defs>
    <style>
      .cls-1 {
        fill: #074b69;
      }
    </style>
  </defs>
  <g id="icons_utility_capslock" data-name="icons/utility/capslock" transform="translate(-0.462 -0.615)">
    <path id="Mask" class="cls-1" d="M11.372,6.5,6.326.777a.5.5,0,0,0-.738,0L.541,6.5a.36.36,0,0,0,.277.585H3.187v3.846a.473.473,0,0,0,.462.462H8.264a.473.473,0,0,0,.462-.462V7.085H11.1a.36.36,0,0,0,.277-.585ZM8.264,13.238H3.649a.473.473,0,0,0-.462.462v1.231a.473.473,0,0,0,.462.462H8.264a.473.473,0,0,0,.462-.462V13.7A.473.473,0,0,0,8.264,13.238Z"/>
  </g>
</svg>
