<svg xmlns="http://www.w3.org/2000/svg" viewBox="0 0 14.77 14.785">
  <defs>
    <style>
      .cls-1 {
        fill: #074b69;
      }
    </style>
  </defs>
  <g id="icons_utility_cases" data-name="icons/utility/cases" transform="translate(-0.615 -0.615)">
    <path id="Mask" class="cls-1" d="M2.769,1.077A.473.473,0,0,0,2.308.615H1.077a.473.473,0,0,0-.462.462v9.538a.473.473,0,0,0,.462.462H2.308a.473.473,0,0,0,.462-.462Zm12.615,0a.473.473,0,0,0-.462-.462H13.692a.473.473,0,0,0-.462.462v9.538a.473.473,0,0,0,.462.462h1.231a.473.473,0,0,0,.462-.462ZM11.538.615h-.923a.5.5,0,0,0-.462.492V4.923a.3.3,0,0,0,.185.277,5.744,5.744,0,0,1,1.385,1.015A.165.165,0,0,0,12,6.123V1.108a.5.5,0,0,0-.462-.492ZM7.415,4.677A3.724,3.724,0,0,1,8,4.646a3.724,3.724,0,0,1,.585.031.3.3,0,0,0,.338-.308V1.108A.5.5,0,0,0,8.462.615H7.538a.5.5,0,0,0-.462.492V4.369A.3.3,0,0,0,7.415,4.677ZM4.277,6.215A4.6,4.6,0,0,1,5.692,5.2a.323.323,0,0,0,.154-.277V1.108A.5.5,0,0,0,5.385.615H4.462A.5.5,0,0,0,4,1.108V6.123c0,.123.154.185.277.092ZM8,5.877a3.988,3.988,0,0,0-3.508,5.908L2.308,13.969a.446.446,0,0,0,0,.646l.646.646a.446.446,0,0,0,.646,0l2.123-2.123A3.943,3.943,0,0,0,8,13.877a4,4,0,0,0,0-8Zm0,6.154a2.154,2.154,0,1,1,2.154-2.154A2.141,2.141,0,0,1,8,12.031Z"/>
  </g>
</svg>
