<svg xmlns="http://www.w3.org/2000/svg" viewBox="0 0 13.601 14.77">
  <defs>
    <style>
      .cls-1 {
        fill: #074b69;
      }
    </style>
  </defs>
  <g id="icons_utility_change_owner-copy" data-name="icons/utility/change_owner-copy" transform="translate(-0.23 -0.615)">
    <path id="Mask" class="cls-1" d="M7.462,11.569c-.923-.369-1.077-.708-1.077-1.077a1.413,1.413,0,0,1,.554-.985,2.511,2.511,0,0,0,.8-1.969A2.437,2.437,0,0,0,5.185,4.923,2.437,2.437,0,0,0,2.631,7.538a2.511,2.511,0,0,0,.8,1.969,1.413,1.413,0,0,1,.554.985c0,.369-.154.708-1.077,1.077C1.554,12.123.262,12.738.231,13.908a1.536,1.536,0,0,0,1.446,1.477H8.754a1.432,1.432,0,0,0,1.385-1.446c-.031-1.169-1.323-1.815-2.677-2.369Zm5.292-5.723A4.176,4.176,0,0,0,8.6,1.692V.615L6.508,2.308a.244.244,0,0,0,.031.338L8.6,4.308V3.231a2.613,2.613,0,0,1,2.615,2.615H10.138l1.692,2.092a.241.241,0,0,0,.338,0l1.662-2.092Z"/>
  </g>
</svg>
