<svg xmlns="http://www.w3.org/2000/svg" viewBox="0 0 14.77 14.77">
  <defs>
    <style>
      .cls-1 {
        fill: #074b69;
      }
    </style>
  </defs>
  <g id="icons_utility_clock" data-name="icons/utility/clock" transform="translate(-0.615 -0.615)">
    <path id="Mask" class="cls-1" d="M8,.615A7.385,7.385,0,1,0,15.385,8,7.406,7.406,0,0,0,8,.615ZM8,13.538A5.538,5.538,0,1,1,13.538,8,5.555,5.555,0,0,1,8,13.538ZM9.046,8.062a.463.463,0,0,1-.123-.338V4.769a.473.473,0,0,0-.462-.462H7.538a.473.473,0,0,0-.462.462V8.492a.645.645,0,0,0,.123.338l2.277,2.277a.446.446,0,0,0,.646,0l.646-.646a.446.446,0,0,0,0-.646Z"/>
  </g>
</svg>
