<svg xmlns="http://www.w3.org/2000/svg" viewBox="0 0 13.539 13.539">
  <defs>
    <style>
      .cls-1 {
        fill: #074b69;
      }
    </style>
  </defs>
  <g id="icons_utility_company" data-name="icons/utility/company" transform="translate(-0.23 -0.23)">
    <path id="Mask" class="cls-1" d="M5.462.231H1.154a.907.907,0,0,0-.923.923V13.462a.331.331,0,0,0,.308.308H1.769a.291.291,0,0,0,.308-.308V11.615a.291.291,0,0,1,.308-.308H4.231a.291.291,0,0,1,.308.308v1.846a.291.291,0,0,0,.308.308h.923a.617.617,0,0,0,.615-.615v-12A.907.907,0,0,0,5.462.231ZM2.692,9.923a.145.145,0,0,1-.154.154H1.615a.145.145,0,0,1-.154-.154V8.385a.145.145,0,0,1,.154-.154h.923a.145.145,0,0,1,.154.154Zm0-3.077A.145.145,0,0,1,2.538,7H1.615a.145.145,0,0,1-.154-.154V5.308a.145.145,0,0,1,.154-.154h.923a.145.145,0,0,1,.154.154Zm0-3.077a.145.145,0,0,1-.154.154H1.615a.145.145,0,0,1-.154-.154V2.231a.145.145,0,0,1,.154-.154h.923a.145.145,0,0,1,.154.154ZM5.154,9.923A.145.145,0,0,1,5,10.077H4.077a.145.145,0,0,1-.154-.154V8.385a.145.145,0,0,1,.154-.154H5a.145.145,0,0,1,.154.154Zm0-3.077A.145.145,0,0,1,5,7H4.077a.145.145,0,0,1-.154-.154V5.308a.145.145,0,0,1,.154-.154H5a.145.145,0,0,1,.154.154Zm0-3.077A.145.145,0,0,1,5,3.923H4.077a.145.145,0,0,1-.154-.154V2.231a.145.145,0,0,1,.154-.154H5a.145.145,0,0,1,.154.154Zm7.692-.462H8.538a.907.907,0,0,0-.923.923v9.231a.331.331,0,0,0,.308.308H9.154a.291.291,0,0,0,.308-.308V11.615a.291.291,0,0,1,.308-.308h1.846a.291.291,0,0,1,.308.308v1.846a.291.291,0,0,0,.308.308h.923a.617.617,0,0,0,.615-.615V4.231A.907.907,0,0,0,12.846,3.308ZM10.077,9.923a.145.145,0,0,1-.154.154H9a.145.145,0,0,1-.154-.154V8.385A.145.145,0,0,1,9,8.231h.923a.145.145,0,0,1,.154.154Zm0-3.077A.145.145,0,0,1,9.923,7H9a.145.145,0,0,1-.154-.154V5.308A.145.145,0,0,1,9,5.154h.923a.145.145,0,0,1,.154.154Zm2.462,3.077a.145.145,0,0,1-.154.154h-.923a.145.145,0,0,1-.154-.154V8.385a.145.145,0,0,1,.154-.154h.923a.145.145,0,0,1,.154.154Zm0-3.077A.145.145,0,0,1,12.385,7h-.923a.145.145,0,0,1-.154-.154V5.308a.145.145,0,0,1,.154-.154h.923a.145.145,0,0,1,.154.154Z"/>
  </g>
</svg>
