<svg xmlns="http://www.w3.org/2000/svg" viewBox="0 0 13.539 14.77">
  <defs>
    <style>
      .cls-1 {
        fill: #074b69;
      }
    </style>
  </defs>
  <g id="icons_utility_copy" data-name="icons/utility/copy" transform="translate(-0.23 -0.615)">
    <path id="Mask" class="cls-1" d="M12.538.615h-8A1.234,1.234,0,0,0,3.308,1.846v.615h7.385a1.234,1.234,0,0,1,1.231,1.231v8.615h.615a1.234,1.234,0,0,0,1.231-1.231V1.846A1.234,1.234,0,0,0,12.538.615ZM10.692,4.923A1.234,1.234,0,0,0,9.462,3.692h-8A1.234,1.234,0,0,0,.231,4.923v9.231a1.234,1.234,0,0,0,1.231,1.231h8a1.234,1.234,0,0,0,1.231-1.231ZM5.154,7.077a.291.291,0,0,1-.308.308H2.385a.291.291,0,0,1-.308-.308V6.462a.291.291,0,0,1,.308-.308H4.846a.291.291,0,0,1,.308.308ZM7.615,12a.291.291,0,0,1-.308.308H2.385A.291.291,0,0,1,2.077,12v-.615a.291.291,0,0,1,.308-.308H7.308a.291.291,0,0,1,.308.308ZM8.846,9.538a.291.291,0,0,1-.308.308H2.385a.291.291,0,0,1-.308-.308V8.923a.291.291,0,0,1,.308-.308H8.538a.291.291,0,0,1,.308.308Z"/>
  </g>
</svg>
