<svg xmlns="http://www.w3.org/2000/svg" viewBox="0 0 11.938 14.707">
  <defs>
    <style>
      .cls-1 {
        fill: #074b69;
      }
    </style>
  </defs>
  <g id="icons_utility_database" data-name="icons/utility/database" transform="translate(-0.462 -0.615)">
    <path id="Mask" class="cls-1" d="M12.4,2.738C12.4,1.569,9.723.615,6.431.615S.462,1.569.462,2.738v.738C.462,4.646,3.138,5.6,6.431,5.6S12.4,4.646,12.4,3.477ZM.462,5.2c0,.923,2.677,1.662,5.969,1.662S12.4,6.123,12.4,5.2V6.708c0,1.169-2.677,2.123-5.969,2.123S.462,7.877.462,6.708Zm0,3.231c0,.923,2.677,1.662,5.969,1.662S12.4,9.354,12.4,8.431V9.938c0,1.169-2.677,2.123-5.969,2.123S.462,11.138.462,9.969Zm0,3.262c0,.923,2.677,1.662,5.969,1.662s5.969-.738,5.969-1.662V13.2c0,1.169-2.677,2.123-5.969,2.123S.462,14.369.462,13.2Z"/>
  </g>
</svg>
