<svg xmlns="http://www.w3.org/2000/svg" viewBox="0 0 14.77 14.77">
  <defs>
    <style>
      .cls-1 {
        fill: #074b69;
      }
    </style>
  </defs>
  <g id="icons_utility_download-copy" data-name="icons/utility/download-copy" transform="translate(-0.615 -0.615)">
    <path id="Mask" class="cls-1" d="M14.923,9.538H14a.473.473,0,0,0-.462.462v3.077a.473.473,0,0,1-.462.462H2.923a.473.473,0,0,1-.462-.462V10A.473.473,0,0,0,2,9.538H1.077A.473.473,0,0,0,.615,10v4.154a1.234,1.234,0,0,0,1.231,1.231H14.154a1.234,1.234,0,0,0,1.231-1.231V10A.473.473,0,0,0,14.923,9.538ZM7.692,11.569a.446.446,0,0,0,.646,0l4.154-4.154a.446.446,0,0,0,0-.646l-.646-.646a.446.446,0,0,0-.646,0L9.477,7.846a.308.308,0,0,1-.523-.215V1.077A.553.553,0,0,0,8.462.615H7.538a.473.473,0,0,0-.462.462V7.6a.308.308,0,0,1-.523.215L4.831,6.092a.446.446,0,0,0-.646,0l-.646.677a.446.446,0,0,0,0,.646l4.154,4.154Z"/>
  </g>
</svg>
