<svg xmlns="http://www.w3.org/2000/svg" viewBox="0 0 14.831 14.83">
  <defs>
    <style>
      .cls-1 {
        fill: #074b69;
      }
    </style>
  </defs>
  <g id="icons_utility_emoji" data-name="icons/utility/emoji" transform="translate(-0.615 -0.615)">
    <path id="Mask" class="cls-1" d="M15.446,8.031A7.415,7.415,0,1,1,8.031.615,7.419,7.419,0,0,1,15.446,8.031ZM5.662,4.892A1.323,1.323,0,1,0,6.985,6.215,1.313,1.313,0,0,0,5.662,4.892Zm4.769,0a1.323,1.323,0,1,0,1.323,1.323A1.313,1.313,0,0,0,10.431,4.892Zm-.062,5.138a3.478,3.478,0,0,1-2.338.862,3.654,3.654,0,0,1-2.308-.831l-.277-.246a.5.5,0,0,0-.338-.092.584.584,0,0,0-.585.585.607.607,0,0,0,.185.431l.215.185a4.709,4.709,0,0,0,6.246-.031l.154-.154a.607.607,0,0,0,.185-.431.584.584,0,0,0-.585-.585.66.66,0,0,0-.369.123l-.185.185Z"/>
  </g>
</svg>
