<svg xmlns="http://www.w3.org/2000/svg" viewBox="0 0 14.823 14.764">
  <defs>
    <style>
      .cls-1 {
        fill: #074b69;
      }
    </style>
  </defs>
  <g id="icons_utility_end_call" data-name="icons/utility/end_call" transform="translate(-0.615 -0.615)">
    <path id="Mask" class="cls-1" d="M14.985,1.714l-.646-.646a.513.513,0,0,0-.738.092L6.369,8.391,4.831,6.667a.512.512,0,0,1-.062-.646l1.169-1.6a1.2,1.2,0,0,0-.031-1.477L4.4,1.067A1.223,1.223,0,0,0,2.585.975l-1.6,1.6A1.3,1.3,0,0,0,.615,3.5a12.62,12.62,0,0,0,3.077,7.569L1.231,13.529a.575.575,0,0,0-.092.738l.646.646a.513.513,0,0,0,.738-.092L14.892,2.452A.513.513,0,0,0,14.985,1.714Zm0,9.938-1.877-1.508a1.2,1.2,0,0,0-1.477-.031l-1.6,1.169a.48.48,0,0,1-.646-.062l-.738-.677L6.031,13.16a12.909,12.909,0,0,0,6.462,2.215,1.185,1.185,0,0,0,.923-.369l1.6-1.6a1.1,1.1,0,0,0-.031-1.754Z"/>
  </g>
</svg>
