<svg xmlns="http://www.w3.org/2000/svg" viewBox="0 0 14.77 14.77">
  <defs>
    <style>
      .cls-1 {
        fill: #074b69;
      }
    </style>
  </defs>
  <g id="icons_utility_expand" data-name="icons/utility/expand" transform="translate(-0.615 -0.615)">
    <path id="Mask" class="cls-1" d="M15.015.615H10.246c-.308,0-.4.277-.154.523L11.6,2.646,8.831,5.415a.428.428,0,0,0,0,.585L9.969,7.138a.428.428,0,0,0,.585,0l2.8-2.8,1.508,1.508c.246.246.523.154.523-.154V.954a.369.369,0,0,0-.369-.338ZM1.077,15.385H5.815c.308,0,.4-.338.154-.585L4.462,13.262l2.769-2.8a.428.428,0,0,0,0-.585L6.092,8.738a.428.428,0,0,0-.585,0L2.738,11.508,1.2,10c-.277-.246-.585-.154-.585.154v4.738a.556.556,0,0,0,.462.492Zm14.308-.369V10.246c0-.308-.277-.4-.523-.154L13.354,11.6,10.585,8.831a.428.428,0,0,0-.585,0L8.862,9.969a.428.428,0,0,0,0,.585l2.8,2.8-1.508,1.508c-.246.246-.154.523.154.523h4.738A.369.369,0,0,0,15.385,15.015ZM.615,1.077V5.815c0,.308.338.4.585.154L2.738,4.462l2.8,2.769a.428.428,0,0,0,.585,0L7.262,6.092a.428.428,0,0,0,0-.585L4.492,2.738,6,1.2c.246-.277.154-.585-.154-.585H1.108a.556.556,0,0,0-.492.462Z"/>
  </g>
</svg>
