<svg xmlns="http://www.w3.org/2000/svg" viewBox="0 0 12.924 14.77">
  <defs>
    <style>
      .cls-1 {
        fill: #074b69;
      }
    </style>
  </defs>
  <g id="icons_utility_file-copy" data-name="icons/utility/file-copy" transform="translate(-0.846 -0.615)">
    <path id="Mask" class="cls-1" d="M2.292,11.108V3.477A1.438,1.438,0,0,0,.846,4.892v9.046a1.444,1.444,0,0,0,1.446,1.446H9.462a1.438,1.438,0,0,0,1.446-1.415H5.154c-1.569,0-2.862,0-2.862-2.862ZM13.277,4.892h-2.4A1.438,1.438,0,0,1,9.431,3.477v-2.4A.435.435,0,0,0,8.969.615H5.154A1.438,1.438,0,0,0,3.708,2.031v9.046a1.419,1.419,0,0,0,1.446,1.415h7.169a1.438,1.438,0,0,0,1.446-1.415V5.385a.486.486,0,0,0-.492-.492Zm.4-2L11.462.708a.279.279,0,0,0-.215-.092.341.341,0,0,0-.338.338V2.523a.959.959,0,0,0,.954.954h1.569a.341.341,0,0,0,.338-.338A.409.409,0,0,0,13.677,2.892Z"/>
  </g>
</svg>
