<svg xmlns="http://www.w3.org/2000/svg" viewBox="0 0 14.772 14.75">
  <defs>
    <style>
      .cls-1 {
        fill: #074b69;
      }
    </style>
  </defs>
  <g id="icons_utility_flow-copy" data-name="icons/utility/flow-copy" transform="translate(-0.615 -0.615)">
    <path id="Mask" class="cls-1" d="M15.356,3.255c-.646-1.262-2.277-3.6-5.292-2.215C8.186,1.9,7.14,2.394,7.14,2.394L4.433,3.563C3.663,3.932,2,3.409,1.048,3.071a.331.331,0,0,0-.4.462c.646,1.262,2.277,3.6,5.292,2.215,1.877-.862,5.631-2.492,5.631-2.492.769-.369,2.431.154,3.385.492A.354.354,0,0,0,15.356,3.255ZM8.863,7.194c-.338.185-1.692.8-1.692.8l-1.354.585c-.677.369-2.123-.123-2.985-.462-.246-.123-.462.185-.338.431.554,1.231,2,3.446,4.646,2.092,1.662-.831,3.046-1.385,3.046-1.385.677-.369,2.123.123,2.985.462.246.092.462-.185.338-.462-.554-1.2-2-3.415-4.646-2.062ZM7.879,12.64c-.277.154-.738.431-.738.431-.523.338-1.6-.092-2.246-.4-.185-.092-.338.185-.246.431.4,1.108,1.477,3.108,3.477,1.877a3.841,3.841,0,0,1,.738-.431,3.2,3.2,0,0,1,2.246.4c.185.092.338-.185.246-.431-.4-1.108-1.415-3.015-3.477-1.877Z"/>
  </g>
</svg>
