<svg xmlns="http://www.w3.org/2000/svg" viewBox="0 0 14.77 12.309">
  <defs>
    <style>
      .cls-1 {
        fill: #074b69;
      }
    </style>
  </defs>
  <g id="icons_utility_identity" data-name="icons/utility/identity" transform="translate(-0.615 -0.846)">
    <path id="Mask" class="cls-1" d="M14.154,1.462H10.738s.031.215.031.308A2.141,2.141,0,0,1,8.615,3.923H6.769A2.141,2.141,0,0,1,4.615,1.769c0-.092,0-.308.031-.308h-2.8A1.234,1.234,0,0,0,.615,2.692v9.231a1.234,1.234,0,0,0,1.231,1.231H14.154a1.234,1.234,0,0,0,1.231-1.231V2.692A1.234,1.234,0,0,0,14.154,1.462ZM6.677,10.692H3.169a.75.75,0,0,1-.708-.769c0-.615.646-.954,1.323-1.231.462-.185.523-.369.523-.585a.8.8,0,0,0-.277-.523A1.346,1.346,0,0,1,3.6,6.569a1.3,1.3,0,1,1,2.585,0,1.346,1.346,0,0,1-.431,1.015.8.8,0,0,0-.277.523c0,.185.062.369.523.585.677.277,1.323.615,1.323,1.231A.665.665,0,0,1,6.677,10.692Zm6.862-1.231a.291.291,0,0,1-.308.308H8.923a.291.291,0,0,1-.308-.308V8.846a.291.291,0,0,1,.308-.308h4.308a.291.291,0,0,1,.308.308ZM14.154,7a.291.291,0,0,1-.308.308H8.923A.291.291,0,0,1,8.615,7V6.385a.291.291,0,0,1,.308-.308h4.923a.291.291,0,0,1,.308.308ZM6.769,2.692H8.615a.907.907,0,0,0,.923-.923A.907.907,0,0,0,8.615.846H6.769a.907.907,0,0,0-.923.923A.907.907,0,0,0,6.769,2.692Z"/>
  </g>
</svg>
