<svg xmlns="http://www.w3.org/2000/svg" viewBox="0 0 14.77 12.309">
  <defs>
    <style>
      .cls-1 {
        fill: #074b69;
      }
    </style>
  </defs>
  <g id="icons_utility_image" data-name="icons/utility/image" transform="translate(-0.615 -0.846)">
    <path id="Mask" class="cls-1" d="M15.385,2.077A1.234,1.234,0,0,0,14.154.846H1.846A1.234,1.234,0,0,0,.615,2.077v9.846a1.234,1.234,0,0,0,1.231,1.231H14.154a1.234,1.234,0,0,0,1.231-1.231Zm-3.2,8.615H3.262a.466.466,0,0,1-.4-.708L5.569,5.277a.292.292,0,0,1,.523,0l1.631,2.8a.317.317,0,0,0,.523.031L9.569,6.2a.316.316,0,0,1,.523,0l2.431,3.877A.389.389,0,0,1,12.185,10.692Zm-.8-5.538a1.231,1.231,0,1,1,1.231-1.231A1.234,1.234,0,0,1,11.385,5.154Z"/>
  </g>
</svg>
