<svg xmlns="http://www.w3.org/2000/svg" viewBox="0 0 14.77 14.77">
  <defs>
    <style>
      .cls-1 {
        fill: #074b69;
      }
    </style>
  </defs>
  <g id="icons_utility_info_alt" data-name="icons/utility/info_alt" transform="translate(-0.615 -0.615)">
    <path id="Mask" class="cls-1" d="M8,.615A7.385,7.385,0,1,0,15.385,8,7.367,7.367,0,0,0,8,.615ZM8,13.538A5.538,5.538,0,1,1,13.538,8,5.515,5.515,0,0,1,8,13.538Zm0-9.2a.923.923,0,1,1-.923.923A.907.907,0,0,1,8,4.338ZM9.538,10.8a.284.284,0,0,1-.308.277H6.769a.283.283,0,0,1-.308-.277v-.615a.335.335,0,0,1,.308-.338.283.283,0,0,0,.308-.277V8.338A.335.335,0,0,0,6.769,8a.283.283,0,0,1-.308-.277V7.108a.335.335,0,0,1,.308-.338H8.615a.337.337,0,0,1,.308.338V9.569a.284.284,0,0,0,.308.277.337.337,0,0,1,.308.338Z"/>
  </g>
</svg>
