<svg xmlns="http://www.w3.org/2000/svg" viewBox="0 0 14.77 14.77">
  <defs>
    <style>
      .cls-1 {
        fill: #074b69;
      }
    </style>
  </defs>
  <g id="icons_utility_insert_template" data-name="icons/utility/insert_template" transform="translate(-0.615 -0.615)">
    <path id="Mask" class="cls-1" d="M14.923,11.692H13.538V10.308a.473.473,0,0,0-.462-.462h-.923a.473.473,0,0,0-.462.462v1.385H10.308a.473.473,0,0,0-.462.462v.923a.473.473,0,0,0,.462.462h1.385v1.385a.473.473,0,0,0,.462.462h.923a.473.473,0,0,0,.462-.462V13.538h1.385a.473.473,0,0,0,.462-.462v-.923A.473.473,0,0,0,14.923,11.692ZM10.462,9.077a.473.473,0,0,1,.462-.462h.769V1.846A1.234,1.234,0,0,0,10.462.615H1.846A1.234,1.234,0,0,0,.615,1.846v8.615a1.234,1.234,0,0,0,1.231,1.231H8.615v-.769a.473.473,0,0,1,.462-.462h1.385ZM4.923,3.385a.291.291,0,0,1-.308.308H2.769a.291.291,0,0,1-.308-.308V2.769a.291.291,0,0,1,.308-.308H4.615a.291.291,0,0,1,.308.308ZM8.615,8.308a.291.291,0,0,1-.308.308H2.769a.291.291,0,0,1-.308-.308V7.692a.291.291,0,0,1,.308-.308H8.308a.291.291,0,0,1,.308.308ZM9.846,5.846a.291.291,0,0,1-.308.308H2.769a.291.291,0,0,1-.308-.308V5.231a.291.291,0,0,1,.308-.308H9.538a.291.291,0,0,1,.308.308Z"/>
  </g>
</svg>
