<svg xmlns="http://www.w3.org/2000/svg" viewBox="0 0 9.238 11.385">
  <defs>
    <style>
      .cls-1 {
        fill: #074b69;
      }
    </style>
  </defs>
  <g id="icons_utility_jump_to_bottom" data-name="icons/utility/jump_to_bottom" transform="translate(-0.692 -0.461)">
    <path id="Mask" class="cls-1" d="M9.815,7.523,5.662,11.708a.483.483,0,0,1-.677,0L.831,7.523a.483.483,0,0,1,0-.677l.677-.677a.483.483,0,0,1,.677,0l2.8,2.892a.483.483,0,0,0,.677,0L8.462,6.2a.483.483,0,0,1,.677,0l.677.677A.51.51,0,0,1,9.815,7.523Zm0-5.569L5.662,6.2a.483.483,0,0,1-.677,0L.831,1.954a.483.483,0,0,1,0-.677L1.508.6a.483.483,0,0,1,.677,0l2.8,2.892a.483.483,0,0,0,.677,0L8.462.631a.483.483,0,0,1,.677,0l.677.677a.51.51,0,0,1,0,.646Z"/>
  </g>
</svg>
