<svg xmlns="http://www.w3.org/2000/svg" viewBox="0 0 14.77 14.77">
  <defs>
    <style>
      .cls-1 {
        fill: #074b69;
      }
    </style>
  </defs>
  <g id="icons_utility_layers" data-name="icons/utility/layers" transform="translate(-0.615 -0.615)">
    <path id="Mask" class="cls-1" d="M11.077,6.154A1.234,1.234,0,0,0,9.846,4.923h-8A1.234,1.234,0,0,0,.615,6.154v8a1.234,1.234,0,0,0,1.231,1.231h8a1.234,1.234,0,0,0,1.231-1.231ZM13.231.615h-8A2.141,2.141,0,0,0,3.077,2.769v.923h8a1.234,1.234,0,0,1,1.231,1.231v8h.923a2.141,2.141,0,0,0,2.154-2.154v-8A2.141,2.141,0,0,0,13.231.615Z"/>
  </g>
</svg>
