<svg xmlns="http://www.w3.org/2000/svg" viewBox="0 0 14.77 14.77">
  <defs>
    <style>
      .cls-1 {
        fill: #074b69;
      }
    </style>
  </defs>
  <g id="icons_utility_layout" data-name="icons/utility/layout" transform="translate(-0.615 -0.615)">
    <path id="Mask" class="cls-1" d="M14.769,15.385H1.231a.617.617,0,0,1-.615-.615V1.231A.617.617,0,0,1,1.231.615H14.769a.617.617,0,0,1,.615.615V14.769A.617.617,0,0,1,14.769,15.385ZM1.846,14.154H14.154V1.846H1.846ZM12,6.154H4a.291.291,0,0,1-.308-.308V4A.291.291,0,0,1,4,3.692h8A.291.291,0,0,1,12.308,4V5.846A.291.291,0,0,1,12,6.154ZM5.846,12.308H4A.291.291,0,0,1,3.692,12V8.308A.291.291,0,0,1,4,8H5.846a.291.291,0,0,1,.308.308V12A.291.291,0,0,1,5.846,12.308Zm6.154,0H8.308A.291.291,0,0,1,8,12V8.308A.291.291,0,0,1,8.308,8H12a.291.291,0,0,1,.308.308V12A.291.291,0,0,1,12,12.308Z"/>
  </g>
</svg>
