<svg xmlns="http://www.w3.org/2000/svg" viewBox="0 0 11.984 14.785">
  <defs>
    <style>
      .cls-1 {
        fill: #074b69;
      }
    </style>
  </defs>
  <g id="icons_utility_level_up" data-name="icons/utility/level_up" transform="translate(-0.462 -0.615)">
    <path id="Mask" class="cls-1" d="M.923,13.554a.5.5,0,0,0-.462.462v.923a.5.5,0,0,0,.462.462H8.277a.527.527,0,0,0,.492-.462V4.723a.3.3,0,0,1,.523-.215l1.723,1.723a.446.446,0,0,0,.646,0l.646-.646a.446.446,0,0,0,0-.646L8.154.754a.446.446,0,0,0-.646,0L3.354,4.908a.446.446,0,0,0,0,.646L4,6.2a.446.446,0,0,0,.646,0L6.369,4.477a.33.33,0,0,1,.554.215v8.4a.449.449,0,0,1-.492.462Z"/>
  </g>
</svg>
