<svg xmlns="http://www.w3.org/2000/svg" viewBox="0 0 14.769 14.723">
  <defs>
    <style>
      .cls-1 {
        fill: #074b69;
      }
    </style>
  </defs>
  <g id="icons_utility_link-copy" data-name="icons/utility/link-copy" transform="translate(-0.615 -0.615)">
    <path id="Mask" class="cls-1" d="M8.372,12.772l-.646-.092A4.752,4.752,0,0,1,7.08,12.5a.4.4,0,0,0-.369.092l-.154.154a2.42,2.42,0,0,1-3.262.185A2.356,2.356,0,0,1,3.172,9.48L5.51,7.141a2.614,2.614,0,0,1,1.046-.615,2.42,2.42,0,0,1,1.477.092,2.561,2.561,0,0,1,.8.523,1.975,1.975,0,0,1,.308.4A.333.333,0,0,0,9.7,7.6l.862-.862a.369.369,0,0,0,.031-.462,3.293,3.293,0,0,0-.431-.492A3.437,3.437,0,0,0,9.418,5.2a3.93,3.93,0,0,0-1.446-.554A4.4,4.4,0,0,0,5.11,5.08a4.265,4.265,0,0,0-.954.708L1.91,8.034a4.277,4.277,0,0,0-.185,5.938,4.211,4.211,0,0,0,6.092.123l.769-.769c.215-.154.062-.523-.215-.554ZM14.034,1.726A4.276,4.276,0,0,0,8.1,1.91l-.708.677A.368.368,0,0,0,7.6,3.2,6.378,6.378,0,0,1,8.9,3.449a.4.4,0,0,0,.369-.092L9.418,3.2a2.42,2.42,0,0,1,3.262-.185A2.356,2.356,0,0,1,12.8,6.464L10.464,8.8a2.614,2.614,0,0,1-1.046.615,2.42,2.42,0,0,1-1.477-.092,2.561,2.561,0,0,1-.8-.523,1.975,1.975,0,0,1-.308-.4.333.333,0,0,0-.554-.062L5.418,9.2a.369.369,0,0,0-.031.462,3.293,3.293,0,0,0,.431.492,4.4,4.4,0,0,0,.738.585,4,4,0,0,0,1.415.554,4.4,4.4,0,0,0,2.862-.431,4.265,4.265,0,0,0,.954-.708l2.338-2.338a4.211,4.211,0,0,0-.092-6.092Z"/>
  </g>
</svg>
