<svg xmlns="http://www.w3.org/2000/svg" viewBox="0 0 14.77 14.766">
  <defs>
    <style>
      .cls-1 {
        fill: #074b69;
      }
    </style>
  </defs>
  <g id="icons_utility_location" data-name="icons/utility/location" transform="translate(-0.615 -0.615)">
    <path id="Mask" class="cls-1" d="M15.015,2.92,10.585.7a.788.788,0,0,0-.646,0L5.846,2.766,1.723.7A.763.763,0,0,0,.954.735a.709.709,0,0,0-.338.615V12.427a.718.718,0,0,0,.4.646l4.431,2.215a.788.788,0,0,0,.646,0l4.123-2.062,4.092,2.062a.62.62,0,0,0,.338.092.677.677,0,0,0,.4-.123.709.709,0,0,0,.338-.615V3.566a.691.691,0,0,0-.369-.646ZM13.846,4.335v5.846a.46.46,0,0,1-.615.462c-1.138-.431-.215-2.338-1.046-3.385-.769-.954-1.754.031-2.708-1.477-.892-1.446.308-2.492,1.415-3.046a.524.524,0,0,1,.431,0L13.6,3.873a.481.481,0,0,1,.246.462ZM7.662,12.889a.517.517,0,0,1-.554-.062,1.618,1.618,0,0,1-.554-1.138c0-.738-1.231-.492-1.231-1.969,0-1.2-1.415-1.508-2.615-1.385a.462.462,0,0,1-.523-.492V3.35a.458.458,0,0,1,.677-.431L5.508,4.243a.107.107,0,0,1,.062.031l.092.062c1.108.646.892,1.169.431,1.969-.523.892-.738,0-1.477-.246S3.138,6.3,3.385,6.8s.985,0,1.477.492.492,1.231,1.969.738,1.723-.246,2.215.246a1.554,1.554,0,0,1,0,2.215,5.113,5.113,0,0,0-.8,1.969A.489.489,0,0,1,8,12.766l-.338.123Z"/>
  </g>
</svg>
