<svg xmlns="http://www.w3.org/2000/svg" viewBox="0 0 13.539 14.77">
  <defs>
    <style>
      .cls-1 {
        fill: #074b69;
      }
    </style>
  </defs>
  <g id="icons_utility_log_a_call-copy" data-name="icons/utility/log_a_call-copy" transform="translate(-0.23 -0.615)">
    <path id="Mask" class="cls-1" d="M12.231.615H3.154A1.54,1.54,0,0,0,1.677,2.092v.492H1.185a.966.966,0,0,0-.954.985.966.966,0,0,0,.954.985h.492V7.015H1.185a.985.985,0,0,0,0,1.969h.492v2.462H1.185a.985.985,0,0,0,0,1.969h.492v.492a1.54,1.54,0,0,0,1.477,1.477h9.077a1.607,1.607,0,0,0,1.538-1.538V2.031A1.479,1.479,0,0,0,12.231.615Zm-.862,9.908-.677.708a.675.675,0,0,1-.554.215A6.465,6.465,0,0,1,5.985,9.538,6.6,6.6,0,0,1,4.108,5.292a.7.7,0,0,1,.215-.554L5,4.062a.733.733,0,0,1,1.108.062l.615.8a.786.786,0,0,1,.031.923l-.523.769a.233.233,0,0,0,.031.308L7.369,8.185,8.6,9.323a.237.237,0,0,0,.308.031L9.646,8.8a.786.786,0,0,1,.923.031l.769.646A.682.682,0,0,1,11.369,10.523Z"/>
  </g>
</svg>
