<svg xmlns="http://www.w3.org/2000/svg" viewBox="0 0 10.678 14.768">
  <defs>
    <style>
      .cls-1 {
        fill: #074b69;
      }
    </style>
  </defs>
  <g id="icons_utility_merge-copy" data-name="icons/utility/merge-copy" transform="translate(-0.077 -0.615)">
    <path id="Mask" class="cls-1" d="M10.481,13.554a7.1,7.1,0,0,1-3.569-4A7.4,7.4,0,0,1,6.45,7.615V6.538H9.774a.336.336,0,0,0,.246-.554L5.65.754a.411.411,0,0,0-.615,0L.789,5.985a.361.361,0,0,0,.246.554H4.389V7.615a9.9,9.9,0,0,1-.462,1.938,7.1,7.1,0,0,1-3.569,4,.474.474,0,0,0-.246.615l.4.954a.438.438,0,0,0,.646.185,9.33,9.33,0,0,0,4.215-4,9.4,9.4,0,0,0,4.246,4,.432.432,0,0,0,.646-.185l.4-.954A.4.4,0,0,0,10.481,13.554Z"/>
  </g>
</svg>
