<svg xmlns="http://www.w3.org/2000/svg" viewBox="0 0 11.692 14.77">
  <defs>
    <style>
      .cls-1 {
        fill: #074b69;
      }
    </style>
  </defs>
  <g id="icons_utility_moneybag" data-name="icons/utility/moneybag" transform="translate(-0.462 -0.615)">
    <path id="Mask" class="cls-1" d="M4.615,2.8a.436.436,0,0,0,.431.277H7.538A.436.436,0,0,0,7.969,2.8L8.954.985A.271.271,0,0,0,8.708.615h-4.8a.229.229,0,0,0-.215.338L4.615,2.8ZM7.754,4.523H4.862a4.432,4.432,0,0,0-4.4,4.462v4.923a1.477,1.477,0,0,0,1.477,1.477h8.738a1.5,1.5,0,0,0,1.477-1.477V8.985a4.452,4.452,0,0,0-4.4-4.462Zm-.708,8.308v.831a.28.28,0,0,1-.308.246H5.754c-.154,0-.185-.092-.185-.246v-.8a3.8,3.8,0,0,1-1.508-.615c-.185-.185-.246-.338-.092-.554l.308-.492a.4.4,0,0,1,.369-.185.58.58,0,0,1,.246.062h.031a2.453,2.453,0,0,0,1.231.431c.338,0,.615-.185.615-.369,0-.154-.092-.4-1.015-.708-.831-.308-1.846-.8-1.846-1.938,0-.677.431-1.446,1.662-1.692V6.062c0-.154.062-.246.185-.246h.985a.28.28,0,0,1,.308.246v.708a4.7,4.7,0,0,1,1.2.492.523.523,0,0,1,.185.308.342.342,0,0,1-.092.308l-.431.431a.581.581,0,0,1-.4.215.57.57,0,0,1-.215-.062,2.739,2.739,0,0,0-1.169-.431c-.4,0-.585.185-.585.308,0,.185.092.369.923.677,1.015.338,2.154.892,2.154,2.062a1.873,1.873,0,0,1-1.569,1.754Z"/>
  </g>
</svg>
