<svg xmlns="http://www.w3.org/2000/svg" viewBox="0 0 13.539 14.77">
  <defs>
    <style>
      .cls-1 {
        fill: #074b69;
      }
    </style>
  </defs>
  <g id="icons_utility_monthlyview" data-name="icons/utility/monthlyview" transform="translate(-0.23 -0.615)">
    <path id="Mask" class="cls-1" d="M12.538,2.154H11V1.538a.923.923,0,0,0-1.846,0v.615H4.846V1.538A.923.923,0,1,0,3,1.538v.615H1.462A1.234,1.234,0,0,0,.231,3.385v.769a.473.473,0,0,0,.462.462H13.308a.473.473,0,0,0,.462-.462V3.385A1.234,1.234,0,0,0,12.538,2.154Zm.769,4H.692a.473.473,0,0,0-.462.462v7.538a1.234,1.234,0,0,0,1.231,1.231H12.538a1.234,1.234,0,0,0,1.231-1.231V6.615A.473.473,0,0,0,13.308,6.154ZM5.492,13.538a2.359,2.359,0,0,1-1.815-.677.445.445,0,0,1-.062-.215.506.506,0,0,1,.492-.492.9.9,0,0,1,.277.062,2.386,2.386,0,0,0,1.077.308c.615,0,.954-.277.954-.646,0-.4-.308-.585-1.015-.585-.4.062-.677-.123-.677-.492a.445.445,0,0,1,.492-.462c.646.031,1.108-.123,1.108-.554,0-.4-.4-.585-.923-.585a1.909,1.909,0,0,0-.985.277.332.332,0,0,1-.246.062.453.453,0,0,1-.462-.462.494.494,0,0,1,.154-.338,2.508,2.508,0,0,1,1.662-.554c1.169,0,1.908.523,1.908,1.385a1.278,1.278,0,0,1-1.108,1.169,1.261,1.261,0,0,1,1.169,1.2c-.031.985-.8,1.6-2,1.6Zm4.892-.585c0,.277-.154.585-.462.585a.528.528,0,0,1-.462-.585V9.785l-.646.585a.463.463,0,0,1-.338.123.453.453,0,0,1-.462-.462.4.4,0,0,1,.123-.308L9.308,8.554a.654.654,0,0,1,.462-.215.644.644,0,0,1,.615.646v3.969Z"/>
  </g>
</svg>
