<svg xmlns="http://www.w3.org/2000/svg" viewBox="0 0 14.746 14.723">
  <defs>
    <style>
      .cls-1 {
        fill: #074b69;
      }
    </style>
  </defs>
  <g id="icons_utility_move" data-name="icons/utility/move" transform="translate(-0.615 -0.615)">
    <path id="Mask" class="cls-1" d="M15.269,7.762,12.715,4.992c-.185-.185-.431-.031-.431.277V7.054H9.208A.291.291,0,0,1,8.9,6.746V3.669h1.815c.308,0,.462-.277.277-.431L8.223.685a.37.37,0,0,0-.431,0L5.023,3.238c-.185.185-.031.431.277.431H7.054V6.746a.291.291,0,0,1-.308.308H3.669V5.238c0-.308-.277-.462-.431-.277L.685,7.731a.37.37,0,0,0,0,.431l2.554,2.769c.185.185.431.031.431-.277V8.9H6.746a.291.291,0,0,1,.308.308v3.077H5.238c-.308,0-.462.277-.277.431l2.769,2.554a.37.37,0,0,0,.431,0l2.769-2.554c.185-.185.031-.431-.277-.431H8.9V9.208A.291.291,0,0,1,9.208,8.9h3.077v1.815c0,.308.277.462.431.277l2.554-2.769a.334.334,0,0,0,0-.462Z"/>
  </g>
</svg>
