<svg xmlns="http://www.w3.org/2000/svg" viewBox="0 0 14.75 14.777">
  <defs>
    <style>
      .cls-1 {
        fill: #074b69;
      }
    </style>
  </defs>
  <g id="icons_utility_new-copy" data-name="icons/utility/new-copy" transform="translate(-0.615 -0.615)">
    <path id="Mask" class="cls-1" d="M13.223,2.762A7.4,7.4,0,0,0,2.762,13.223,7.4,7.4,0,0,0,13.223,2.762Zm-.308,5.846a.291.291,0,0,1-.308.308H9.223a.331.331,0,0,0-.308.308v3.385a.331.331,0,0,1-.308.308H7.377a.291.291,0,0,1-.308-.308V9.223a.291.291,0,0,0-.308-.308H3.377a.291.291,0,0,1-.308-.308V7.377a.331.331,0,0,1,.308-.308H6.762a.291.291,0,0,0,.308-.308V3.377a.331.331,0,0,1,.308-.308H8.608a.308.308,0,0,1,.308.308V6.762a.291.291,0,0,0,.308.308h3.385a.331.331,0,0,1,.308.308Z"/>
  </g>
</svg>
