<svg xmlns="http://www.w3.org/2000/svg" viewBox="0 0 14.77 14.77">
  <defs>
    <style>
      .cls-1 {
        fill: #074b69;
      }
    </style>
  </defs>
  <g id="icons_utility_new_window" data-name="icons/utility/new_window" transform="translate(-0.615 -0.615)">
    <path id="Mask" class="cls-1" d="M14.985.615H9.108a.452.452,0,0,0-.492.4v.923a.534.534,0,0,0,.492.523h2.431a.282.282,0,0,1,.215.492L6.523,8.185a.446.446,0,0,0,0,.646l.646.646a.446.446,0,0,0,.646,0l5.231-5.231a.287.287,0,0,1,.492.215V6.892a.559.559,0,0,0,.492.523h.892a.532.532,0,0,0,.462-.523V1.046a.381.381,0,0,0-.4-.431ZM11.169,7.846,10.123,8.923a.886.886,0,0,0-.277.646v3.508a.473.473,0,0,1-.462.462H2.923a.473.473,0,0,1-.462-.462V6.615a.473.473,0,0,1,.462-.462H6.462a.838.838,0,0,0,.646-.277L8.154,4.831a.308.308,0,0,0-.215-.523H1.846A1.234,1.234,0,0,0,.615,5.538v8.615a1.234,1.234,0,0,0,1.231,1.231h8.615a1.234,1.234,0,0,0,1.231-1.231V8.062A.308.308,0,0,0,11.169,7.846Z"/>
  </g>
</svg>
