<svg xmlns="http://www.w3.org/2000/svg" viewBox="0 0 14.773 12.893">
  <defs>
    <style>
      .cls-1 {
        fill: #074b69;
      }
    </style>
  </defs>
  <g id="icons_utility_note-copy" data-name="icons/utility/note-copy" transform="translate(-0.615 -0.846)">
    <path id="Mask" class="cls-1" d="M12.738,11.523l-.277.277a1.58,1.58,0,0,1-1.138.462h-.8a1.555,1.555,0,0,1-1.538-1.6V9.892a1.921,1.921,0,0,1,.431-1.2l3.323-3.385a.773.773,0,0,0,.185-.431V2.323A1.5,1.5,0,0,0,11.446.846H3.569A1.54,1.54,0,0,0,2.092,2.323H1.6A1,1,0,0,0,.615,3.338a.972.972,0,0,0,.985.985h.492v2H1.6a.985.985,0,0,0,0,1.969h.492v2H1.6a.991.991,0,0,0-.985.985.972.972,0,0,0,.985.985h.492a1.387,1.387,0,0,0,1.477,1.477h7.877a1.5,1.5,0,0,0,1.477-1.477v-.646q0-.231-.185-.092ZM10.215,4.569a.486.486,0,0,1-.492.492H4.8a.486.486,0,0,1-.492-.492V4.077A.486.486,0,0,1,4.8,3.585H9.723a.486.486,0,0,1,.492.492ZM8,10.538a.486.486,0,0,1-.492.492H4.8a.486.486,0,0,1-.492-.492v-.492A.486.486,0,0,1,4.8,9.554H7.508A.486.486,0,0,1,8,10.046Zm.738-2.985a.486.486,0,0,1-.492.492H4.8a.486.486,0,0,1-.492-.492V7.062A.486.486,0,0,1,4.8,6.569H8.246a.486.486,0,0,1,.492.492ZM15.231,6.2l-.308-.308a.483.483,0,0,0-.677,0L10.492,9.769c-.031,0-.031.062-.031.062v.831c0,.062,0,.123.062.123h.8c.031,0,.062-.031.092-.031L15.2,6.938a.481.481,0,0,0,.031-.738Z"/>
  </g>
</svg>
