<svg xmlns="http://www.w3.org/2000/svg" viewBox="0 0 14.37 10.463">
  <defs>
    <style>
      .cls-1 {
        fill: #074b69;
      }
    </style>
  </defs>
  <g id="icons_utility_offline_cached" data-name="icons/utility/offline_cached" transform="translate(-0.23 -0.076)">
    <path id="Mask" class="cls-1" d="M11.308,3.615a4.212,4.212,0,0,0-8.369.677,1.047,1.047,0,0,0,.031.308,2.974,2.974,0,0,0,.246,5.938H6.754L4.262,8.046a.263.263,0,0,1,0-.4l.4-.4a.263.263,0,0,1,.4,0L6.138,8.323A.2.2,0,0,0,6.477,8.2V4.046a.33.33,0,0,1,.308-.277h.585a.276.276,0,0,1,.277.277V8.169a.2.2,0,0,0,.338.123L9.062,7.215a.263.263,0,0,1,.4,0l.4.4a.263.263,0,0,1,0,.4L7.431,10.538h3.785A3.455,3.455,0,0,0,14.6,7.062a3.389,3.389,0,0,0-3.292-3.446Z"/>
  </g>
</svg>
