<svg xmlns="http://www.w3.org/2000/svg" viewBox="0 0 13.449 14.762">
  <defs>
    <style>
      .cls-1 {
        fill: #074b69;
      }
    </style>
  </defs>
  <g id="icons_utility_offline" data-name="icons/utility/offline" transform="translate(-0.23 -0.615)">
    <path id="Mask" class="cls-1" d="M9.6,11.077a.39.39,0,0,0,0-.554l-.554-.554a.39.39,0,0,0-.554,0L7.14,11.323a.281.281,0,0,1-.369,0L5.417,9.969a.39.39,0,0,0-.554,0l-.554.554a.39.39,0,0,0,0,.554l1.354,1.354a.281.281,0,0,1,0,.369L4.309,14.154a.39.39,0,0,0,0,.554l.554.554a.39.39,0,0,0,.554,0l1.354-1.354a.281.281,0,0,1,.369,0l1.354,1.354a.39.39,0,0,0,.554,0l.554-.554a.39.39,0,0,0,0-.554L8.248,12.8a.281.281,0,0,1,0-.369L9.6,11.077Zm4-7.538A8.9,8.9,0,0,0,6.955.615,8.9,8.9,0,0,0,.309,3.538a.3.3,0,0,0,.031.431l.923.8a.3.3,0,0,0,.431-.031,7.218,7.218,0,0,1,10.523,0,.33.33,0,0,0,.431.031l.923-.8A.3.3,0,0,0,13.6,3.538ZM6.955,4.923A4.489,4.489,0,0,0,3.571,6.462a.336.336,0,0,0,.031.462l.985.738a.288.288,0,0,0,.4-.031,2.7,2.7,0,0,1,1.969-.862A2.674,2.674,0,0,1,8.894,7.6a.288.288,0,0,0,.4.031l.985-.738a.308.308,0,0,0,.031-.462A4.454,4.454,0,0,0,6.955,4.923Z"/>
  </g>
</svg>
