<svg xmlns="http://www.w3.org/2000/svg" viewBox="0 0 14.77 13.539">
  <defs>
    <style>
      .cls-1 {
        fill: #074b69;
      }
    </style>
  </defs>
  <g id="icons_utility_open_folder" data-name="icons/utility/open_folder" transform="translate(-0.615 -0.23)">
    <path id="Mask" class="cls-1" d="M14.154,3.308H7.169a1.321,1.321,0,0,1-1.077-.615L5.015.846A1.241,1.241,0,0,0,3.938.231H1.846A1.234,1.234,0,0,0,.615,1.462V12.538a1.234,1.234,0,0,0,1.231,1.231H14.154a1.234,1.234,0,0,0,1.231-1.231v-8A1.234,1.234,0,0,0,14.154,3.308Zm0-2.462H6.738a.138.138,0,0,0-.123.215l.492.831a.3.3,0,0,0,.277.185h6.769a2.4,2.4,0,0,1,.954.185.2.2,0,0,0,.277-.185A1.234,1.234,0,0,0,14.154.846Z"/>
  </g>
</svg>
