<svg xmlns="http://www.w3.org/2000/svg" viewBox="0 0 13.539 14.77">
  <defs>
    <style>
      .cls-1 {
        fill: #074b69;
      }
    </style>
  </defs>
  <g id="icons_utility_package" data-name="icons/utility/package" transform="translate(-0.23 -0.615)">
    <path id="Mask" class="cls-1" d="M12.662,7.385H10.231L9.215,8.615h3.323v1.846H1.462V8.615H4.754L3.738,7.385h-2.4A1.1,1.1,0,0,0,.231,8.492v5.969a.907.907,0,0,0,.923.923H12.846a.907.907,0,0,0,.923-.923V8.492A1.1,1.1,0,0,0,12.662,7.385ZM6.077,1.077V4.923H3.954c-.308,0-.462.277-.277.431L6.754,9.138a.37.37,0,0,0,.431,0l3.077-3.785c.185-.185.031-.431-.277-.431H7.923V1.077A.473.473,0,0,0,7.462.615H6.538a.473.473,0,0,0-.462.462Z"/>
  </g>
</svg>
