<svg xmlns="http://www.w3.org/2000/svg" viewBox="0 0 13.539 14.369">
  <defs>
    <style>
      .cls-1 {
        fill: #074b69;
      }
    </style>
  </defs>
  <g id="icons_utility_package_org" data-name="icons/utility/package_org" transform="translate(-0.23 -0.615)">
    <path id="Mask" class="cls-1" d="M12.662,6.985H8.815L7.585,8.215h4.954v1.846H1.462V8.215H3.954L2.723,6.985H1.338A1.1,1.1,0,0,0,.231,8.092v5.969a.907.907,0,0,0,.923.923H12.846a.907.907,0,0,0,.923-.923V8.092A1.1,1.1,0,0,0,12.662,6.985Zm-7.323.862a.6.6,0,0,0,.862,0L12.046,2a.3.3,0,0,0,0-.431L11.185.708a.3.3,0,0,0-.431,0L5.769,5.692,3.708,3.631a.3.3,0,0,0-.431,0l-.862.862a.3.3,0,0,0,0,.431L5.338,7.846Z"/>
  </g>
</svg>
