<svg xmlns="http://www.w3.org/2000/svg" viewBox="0 0 13.539 14.154">
  <defs>
    <style>
      .cls-1 {
        fill: #074b69;
      }
    </style>
  </defs>
  <g id="icons_utility_package_org_beta" data-name="icons/utility/package_org_beta" transform="translate(-0.23 -0.23)">
    <path id="Mask" class="cls-1" d="M12.662,6.385H10.877a3.16,3.16,0,0,1-.646,1.231h2.308V9.462H1.462V7.615H3.308V6.385H1.338A1.1,1.1,0,0,0,.231,7.492v5.969a.907.907,0,0,0,.923.923H12.846a.907.907,0,0,0,.923-.923V7.492A1.1,1.1,0,0,0,12.662,6.385ZM9.769,2.354A2.187,2.187,0,0,0,7.554.231H5a.473.473,0,0,0-.462.462V7.154A.473.473,0,0,0,5,7.615H7.615A2.122,2.122,0,0,0,9.738,5.431a2,2,0,0,0-.646-1.477,2.235,2.235,0,0,0,.677-1.6Zm-4-.892H7.615a.923.923,0,1,1,0,1.846H5.769Zm2.769,4a.926.926,0,0,1-.923.923H5.769V4.538H7.615A.907.907,0,0,1,8.538,5.462Z"/>
  </g>
</svg>
