<svg width="30" height="30" viewBox="0 0 30 30" fill="none" xmlns="http://www.w3.org/2000/svg">
<path d="M10.4338 26.8894C10.3002 27.0233 10.0838 27.0233 9.95023 26.8894L3.18074 20.1022C3.04721 19.9683 3.04721 19.7513 3.18074 19.6174L22.6468 0.100406C22.7804 -0.0334682 22.9968 -0.0334687 23.1304 0.100405L29.8999 6.8876C30.0334 7.02147 30.0334 7.23853 29.8999 7.3724L10.4338 26.8894Z" fill="#0D7AA7"/>
<path d="M0.415787 29.9917C0.168154 30.0464 -0.050639 29.8213 0.0103103 29.5745L1.95369 21.7058C2.0179 21.4458 2.34131 21.3567 2.52894 21.5474L8.54324 27.6578C8.73222 27.8498 8.63621 28.1753 8.37347 28.2333L0.415787 29.9917Z" fill="#0D7AA7"/>
</svg>
