<svg xmlns="http://www.w3.org/2000/svg" viewBox="0 0 13.536 14.777">
  <defs>
    <style>
      .cls-1 {
        fill: #074b69;
      }
    </style>
  </defs>
  <g id="icons_utility_power" data-name="icons/utility/power" transform="translate(-0.23 -0.615)">
    <path id="Mask" class="cls-1" d="M9.582,2.369a.3.3,0,0,0-.431.277V3.815a.6.6,0,0,0,.308.523,4.863,4.863,0,0,1,2.431,4.831A4.924,4.924,0,1,1,4.536,4.338a.6.6,0,0,0,.308-.523V2.646a.3.3,0,0,0-.431-.277,6.769,6.769,0,1,0,5.169,0ZM7.92,1.077A.473.473,0,0,0,7.459.615H6.536a.473.473,0,0,0-.462.462V6.308a.473.473,0,0,0,.462.462h.923a.473.473,0,0,0,.462-.462Z"/>
  </g>
</svg>
