<svg xmlns="http://www.w3.org/2000/svg" viewBox="0 0 16.016 10.463">
  <defs>
    <style>
      .cls-1 {
        fill: #074b69;
      }
    </style>
  </defs>
  <g id="icons_utility_preview-copy" data-name="icons/utility/preview-copy" transform="translate(0 -0.076)">
    <path id="Mask" class="cls-1" d="M15.946,5.031a8.838,8.838,0,0,0-15.877,0,.588.588,0,0,0,0,.554,8.838,8.838,0,0,0,15.877,0,.588.588,0,0,0,0-.554ZM8.008,8.692a3.385,3.385,0,1,1,3.385-3.385A3.375,3.375,0,0,1,8.008,8.692Zm0-5.538a2.154,2.154,0,1,0,2.154,2.154A2.141,2.141,0,0,0,8.008,3.154Z"/>
  </g>
</svg>
