<svg xmlns="http://www.w3.org/2000/svg" viewBox="0 0 13.539 13.539">
  <defs>
    <style>
      .cls-1 {
        fill: #074b69;
      }
    </style>
  </defs>
  <g id="icons_utility_process-copy" data-name="icons/utility/process-copy" transform="translate(-0.23 -0.23)">
    <path id="Mask" class="cls-1" d="M3.985,6.138,6.6,2.877a.462.462,0,0,1,.738,0L9.954,6.169a.469.469,0,0,0,.369.215h2.954a.5.5,0,0,0,.492-.462V1.462A1.261,1.261,0,0,0,12.508.231H1.462A1.234,1.234,0,0,0,.231,1.462V5.923a.473.473,0,0,0,.462.462H3.615a.506.506,0,0,0,.369-.246Zm6,1.723L7.369,11.123a.462.462,0,0,1-.738,0L4.015,7.831c-.123-.092-.246-.215-.4-.215H.692a.473.473,0,0,0-.462.462v4.462a1.234,1.234,0,0,0,1.231,1.231H12.538a1.234,1.234,0,0,0,1.231-1.231V8.077a.473.473,0,0,0-.462-.462H10.354a.506.506,0,0,0-.369.246Z"/>
  </g>
</svg>
