<svg xmlns="http://www.w3.org/2000/svg" viewBox="0 0 14.77 14.738">
  <defs>
    <style>
      .cls-1 {
        fill: #074b69;
      }
    </style>
  </defs>
  <g id="icons_utility_push" data-name="icons/utility/push" transform="translate(-0.615 -0.615)">
    <path id="Mask" class="cls-1" d="M14.154.615H6.769A1.234,1.234,0,0,0,5.538,1.846v.031a.687.687,0,0,0,.308.554c.092.062,1.262,1.231,1.262,1.231.092.092.246,0,.246-.123a.5.5,0,0,1,.462-.492h5.231a.529.529,0,0,1,.492.492v8.308a.476.476,0,0,1-.492.431H7.815a.421.421,0,0,1-.431-.431v-.031a.142.142,0,0,0-.246-.092s-1.169,1.169-1.292,1.231a.646.646,0,0,0-.308.554v.615a1.208,1.208,0,0,0,1.2,1.231h7.385a1.261,1.261,0,0,0,1.262-1.231V1.846A1.234,1.234,0,0,0,14.154.615ZM10.462,14.769a.923.923,0,1,1,.923-.923A.907.907,0,0,1,10.462,14.769ZM9.108,7.354,5.262,3.508a.446.446,0,0,0-.646,0l-.646.646a.446.446,0,0,0,0,.646L5.385,6.215a.308.308,0,0,1-.215.523H1.077a.526.526,0,0,0-.462.492v.923a.473.473,0,0,0,.462.462H5.138a.308.308,0,0,1,.215.523L3.938,10.554a.446.446,0,0,0,0,.646l.646.646a.446.446,0,0,0,.646,0L9.108,8A.51.51,0,0,0,9.108,7.354Z"/>
  </g>
</svg>
