<svg xmlns="http://www.w3.org/2000/svg" viewBox="0 0 11.634 14.646">
  <defs>
    <style>
      .cls-1 {
        fill: #074b69;
      }
    </style>
  </defs>
  <g id="icons_utility_puzzle" data-name="icons/utility/puzzle" transform="translate(-0.462 -0.615)">
    <path id="Mask" class="cls-1" d="M12.092,11.815a25.669,25.669,0,0,1-.308,2.585.728.728,0,0,1-.554.554,44.6,44.6,0,0,1-4.954.308,37.769,37.769,0,0,1-4.923-.308A.688.688,0,0,1,.8,14.4a26.308,26.308,0,0,1-.338-4.123A26.308,26.308,0,0,1,.8,6.154.776.776,0,0,1,1.354,5.6c1.015-.123,2-.185,2.985-.246a.739.739,0,0,0,.738-.8c-.062-.677-1.231-1.138-1.231-2.277,0-.923.923-1.662,2.431-1.662,1.477,0,2.4.738,2.4,1.662,0,1.169-1.138,1.6-1.2,2.277-.062.738.738.8.738.8,1.015.031,2.031.123,3.015.246a.688.688,0,0,1,.554.554c.154.954.246,1.846.308,2.8a.541.541,0,0,1-.492.554h-.277a1.442,1.442,0,0,1-.892-.431,2.4,2.4,0,0,0-1.354-.708,2,2,0,0,0-2,2.031,2.023,2.023,0,0,0,1.969,2.062,2.534,2.534,0,0,0,1.354-.708,1.638,1.638,0,0,1,.892-.369h.277c.338,0,.554.185.523.431Z"/>
  </g>
</svg>
