<svg xmlns="http://www.w3.org/2000/svg" viewBox="0 0 9.822 14.802">
  <defs>
    <style>
      .cls-1 {
        fill: #074b69;
      }
    </style>
  </defs>
  <g id="icons_utility_question" data-name="icons/utility/question" transform="translate(-0.077 -0.615)">
    <path id="Mask" class="cls-1" d="M5.711,11.724H4.172a.421.421,0,0,1-.431-.431v-.462A3.081,3.081,0,0,1,5.8,7.94a2.293,2.293,0,0,0,.985-.646A2.472,2.472,0,0,0,3.249,3.848,2.165,2.165,0,0,0,2.541,5.2a.445.445,0,0,1-.462.338H.541A.444.444,0,0,1,.08,5.048,5.017,5.017,0,0,1,1.557,2,5.04,5.04,0,0,1,5.157.617a4.938,4.938,0,0,1,1.508,9.569A.686.686,0,0,0,6.2,10.8v.462A.479.479,0,0,1,5.711,11.724ZM6.2,14.955a.473.473,0,0,1-.462.462H4.2a.473.473,0,0,1-.462-.462V13.417a.473.473,0,0,1,.462-.462H5.741a.473.473,0,0,1,.462.462Z"/>
  </g>
</svg>
