<svg xmlns="http://www.w3.org/2000/svg" viewBox="0 0 14.77 14.77">
  <defs>
    <style>
      .cls-1 {
        fill: #074b69;
      }
    </style>
  </defs>
  <g id="icons_utility_questions_and_answers" data-name="icons/utility/questions_and_answers" transform="translate(-0.615 -0.615)">
    <path id="Mask" class="cls-1" d="M15.385,8.615A2.768,2.768,0,0,0,13.538,6,5.541,5.541,0,0,0,2.462,6a2.772,2.772,0,0,0,.215,5.292A5.566,5.566,0,0,0,8,15.385a5.566,5.566,0,0,0,5.323-4.092,2.778,2.778,0,0,0,2.062-2.677ZM12.308,5.846l-.031-.031.123.031ZM8,14.154A4.387,4.387,0,0,1,3.692,9.723a5.992,5.992,0,0,1,.369-2.092c.031-.092.092-.185.123-.277A4.73,4.73,0,0,0,6.431,5.508a5.984,5.984,0,0,0,4.646,2.277,6.552,6.552,0,0,0,.892,0,6.13,6.13,0,0,1,.277,1.385c-.185.769-1.385,1.508-3.077,1.6a.512.512,0,0,0-.431-.308H7.2a.476.476,0,0,0-.431.492v.923a.421.421,0,0,0,.431.431H8.738a.411.411,0,0,0,.431-.277,5.9,5.9,0,0,0,2.862-.8A4.281,4.281,0,0,1,8,14.154Z"/>
  </g>
</svg>
