<svg xmlns="http://www.w3.org/2000/svg" viewBox="0 0 13.785 12">
  <defs>
    <style>
      .cls-1 {
        fill: #074b69;
      }
    </style>
  </defs>
  <g id="icons_utility_quotation_marks" data-name="icons/utility/quotation_marks" transform="translate(-0.23 -0.846)">
    <path id="Mask" class="cls-1" d="M12.754.846A4.834,4.834,0,0,0,7.862,5.769v6.615a.473.473,0,0,0,.462.462h5.231a.473.473,0,0,0,.462-.462V7.154a.473.473,0,0,0-.462-.462H9.708V5.769a3.28,3.28,0,0,1,3.046-3.077h.8a.473.473,0,0,0,.462-.462V1.308a.473.473,0,0,0-.462-.462Zm-7.631,0A4.834,4.834,0,0,0,.231,5.769v6.615a.473.473,0,0,0,.462.462H5.923a.473.473,0,0,0,.462-.462V7.154a.473.473,0,0,0-.462-.462H2.077V5.769A3.28,3.28,0,0,1,5.123,2.692h.8a.473.473,0,0,0,.462-.462V1.308A.473.473,0,0,0,5.923.846Z"/>
  </g>
</svg>
