<svg xmlns="http://www.w3.org/2000/svg" viewBox="0 0 13.539 14.77">
  <defs>
    <style>
      .cls-1 {
        fill: #074b69;
      }
    </style>
  </defs>
  <g id="icons_utility_record_create" data-name="icons/utility/record_create" transform="translate(-0.23 -0.615)">
    <path id="Mask" class="cls-1" d="M4.354,3.569H9.677a.486.486,0,0,0,.492-.492V2.092A1.471,1.471,0,0,0,8.723.615H5.338A1.471,1.471,0,0,0,3.892,2.092v.985a.444.444,0,0,0,.462.492Zm7.969-1.723h-.492a.226.226,0,0,0-.246.246v.985A1.957,1.957,0,0,1,9.646,5.046H4.354A1.957,1.957,0,0,1,2.415,3.077V2.092a.226.226,0,0,0-.246-.246H1.677A1.471,1.471,0,0,0,.231,3.323V13.908a1.471,1.471,0,0,0,1.446,1.477H12.323a1.471,1.471,0,0,0,1.446-1.477V3.323a1.471,1.471,0,0,0-1.446-1.477ZM4.354,12.431a.486.486,0,0,1-.492.492H3.369a.486.486,0,0,1-.492-.492v-.492a.486.486,0,0,1,.492-.492h.492a.486.486,0,0,1,.492.492Zm0-2.462a.486.486,0,0,1-.492.492H3.369a.486.486,0,0,1-.492-.492V9.477a.486.486,0,0,1,.492-.492h.492a.486.486,0,0,1,.492.492Zm0-2.462A.486.486,0,0,1,3.862,8H3.369a.486.486,0,0,1-.492-.492V7.015a.486.486,0,0,1,.492-.492h.492a.486.486,0,0,1,.492.492Zm6.769,4.923a.486.486,0,0,1-.492.492H5.8a.486.486,0,0,1-.492-.492v-.492a.486.486,0,0,1,.492-.492h4.831a.486.486,0,0,1,.492.492Zm0-2.462a.486.486,0,0,1-.492.492H5.8a.486.486,0,0,1-.492-.492V9.477A.486.486,0,0,1,5.8,8.985h4.831a.486.486,0,0,1,.492.492Zm0-2.462A.486.486,0,0,1,10.631,8H5.8a.486.486,0,0,1-.492-.492V7.015A.486.486,0,0,1,5.8,6.523h4.831a.486.486,0,0,1,.492.492Z"/>
  </g>
</svg>
