<svg xmlns="http://www.w3.org/2000/svg" viewBox="0 0 14.301 15">
  <defs>
    <style>
      .cls-1 {
        fill: #074b69;
      }
    </style>
  </defs>
  <g id="icons_utility_redo" data-name="icons/utility/redo" transform="translate(-0.23 -0.615)">
    <path id="Mask" class="cls-1" d="M10.323,3.954h.215c.308,0,.308-.215.123-.4L9.154,2.046a.446.446,0,0,1,0-.646L9.8.754a.446.446,0,0,1,.646,0l3.969,3.969a.39.39,0,0,1,0,.554l-4,4a.4.4,0,0,1-.585-.031l-.677-.677a.447.447,0,0,1-.031-.646l1.508-1.508c.215-.215.277-.4.031-.523a1.657,1.657,0,0,0-.338-.031H6.046a3.938,3.938,0,1,0,0,7.877H8.538a.447.447,0,0,1,.431.462v.985a.4.4,0,0,1-.4.431H6.046a5.815,5.815,0,0,1,0-11.631l4.277-.031Z"/>
  </g>
</svg>
