<svg xmlns="http://www.w3.org/2000/svg" viewBox="0 0 14.77 14.77">
  <defs>
    <style>
      .cls-1 {
        fill: #074b69;
      }
    </style>
  </defs>
  <g id="icons_utility_remove_formatting" data-name="icons/utility/remove_formatting" transform="translate(-0.615 -0.615)">
    <path id="Mask" class="cls-1" d="M13.877,12.585l1.415-1.415a.3.3,0,0,0,0-.431l-.862-.862a.3.3,0,0,0-.431,0l-1.385,1.446L11.292,10a.3.3,0,0,0-.431,0L10,10.862a.3.3,0,0,0,0,.431l1.323,1.323-1.292,1.292a.3.3,0,0,0,0,.431l.862.862a.3.3,0,0,0,.431,0l1.292-1.292L14,15.292a.3.3,0,0,0,.431,0l.862-.862a.3.3,0,0,0,0-.431ZM1.477,2.462H4.8L3.538,9.6a.445.445,0,0,0,.431.554H5.538A.464.464,0,0,0,6,9.785L7.292,2.462h3.385a.462.462,0,0,0,.462-.4l.154-.923a.438.438,0,0,0-.462-.523H1.6a.433.433,0,0,0-.431.4l-.154.923a.438.438,0,0,0,.462.523Zm7.138,9.385a.473.473,0,0,0-.462-.462H1.077a.473.473,0,0,0-.462.462v.923a.473.473,0,0,0,.462.462H8.154a.473.473,0,0,0,.462-.462Z"/>
  </g>
</svg>
