<svg xmlns="http://www.w3.org/2000/svg" viewBox="0 0 14.818 14.77">
  <defs>
    <style>
      .cls-1 {
        fill: #074b69;
      }
    </style>
  </defs>
  <g id="icons_utility_replace" data-name="icons/utility/replace" transform="translate(-0.615 -0.615)">
    <path id="Mask" class="cls-1" d="M6.154,11.538a.473.473,0,0,0-.462-.462H1.077a.473.473,0,0,0-.462.462v3.385a.473.473,0,0,0,.462.462H5.692a.473.473,0,0,0,.462-.462ZM2.492,6.769H.985c-.308,0-.462.277-.277.431L3.169,9.754a.37.37,0,0,0,.431,0L6.062,7.2c.185-.185.031-.431-.277-.431H4.338A3.28,3.28,0,0,1,7.385,3.692V1.846A4.834,4.834,0,0,0,2.492,6.769Zm10.369-.523a.37.37,0,0,0-.431,0L9.969,8.8c-.185.185-.031.431.277.431h1.477a2.931,2.931,0,0,1-3.108,3.077v1.846a4.886,4.886,0,0,0,4.954-4.923h1.508c.308,0,.462-.277.277-.431L12.862,6.246Zm2.523-5.169a.473.473,0,0,0-.462-.462H10.308a.473.473,0,0,0-.462.462V4.462a.473.473,0,0,0,.462.462h4.615a.473.473,0,0,0,.462-.462Z"/>
  </g>
</svg>
