<svg xmlns="http://www.w3.org/2000/svg" viewBox="0 0 12.235 12.324">
  <defs>
    <style>
      .cls-1 {
        fill: #074b69;
      }
    </style>
  </defs>
  <g id="icons_utility_reply" data-name="icons/utility/reply" transform="translate(-0.846 -0.846)">
    <path id="Mask" class="cls-1" d="M4.862,4.554s-.338-.338-.154-.523L6.431,2.308a.446.446,0,0,0,0-.646L5.785.985a.446.446,0,0,0-.646,0L.985,5.138a.446.446,0,0,0,0,.646L5.138,9.938a.446.446,0,0,0,.646,0l.646-.646a.446.446,0,0,0,0-.646L4.738,6.923A.315.315,0,0,1,4.892,6.4a6.7,6.7,0,0,1,6.4,6.338.447.447,0,0,0,.462.431h.923a.4.4,0,0,0,.4-.492A8.381,8.381,0,0,0,4.862,4.554Z"/>
  </g>
</svg>
