<svg xmlns="http://www.w3.org/2000/svg" viewBox="0 0 14.76 14.163">
  <defs>
    <style>
      .cls-1 {
        fill: #074b69;
      }
    </style>
  </defs>
  <g id="icons_utility_resource_absence" data-name="icons/utility/resource_absence" transform="translate(-0.615 -0.615)">
    <path id="Mask" class="cls-1" d="M6.752,11.078A5.288,5.288,0,0,1,7.46,8.555,20,20,0,0,1,9.029,6.586a4.5,4.5,0,0,0,.431-4A3.075,3.075,0,0,0,6.444.616,3.078,3.078,0,0,0,3.552,2.739a3.861,3.861,0,0,0,.831,4.092,1.715,1.715,0,0,1,.646,1.754c-.215.615-.954.892-1.477,1.138C2.352,10.247.906,10.986.66,12.4A1.914,1.914,0,0,0,2.475,14.77H7.706a.312.312,0,0,0,.246-.492A4.916,4.916,0,0,1,6.752,11.078Zm7.538-2.615a3.7,3.7,0,1,0,0,5.231A3.7,3.7,0,0,0,14.291,8.462Zm-1.077,3.262a.31.31,0,0,1-.031.462l-.431.431a.246.246,0,0,1-.4-.031l-.646-.646-.677.677a.246.246,0,0,1-.4-.031l-.462-.431a.264.264,0,0,1-.031-.4l.677-.677-.646-.677a.264.264,0,0,1-.031-.4l.431-.431a.336.336,0,0,1,.462-.031l.646.646.646-.646a.336.336,0,0,1,.462-.031l.431.431a.31.31,0,0,1-.031.462l-.646.646Z"/>
  </g>
</svg>
