<svg xmlns="http://www.w3.org/2000/svg" viewBox="0 0 14.783 14.309">
  <defs>
    <style>
      .cls-1 {
        fill: #074b69;
      }
    </style>
  </defs>
  <g id="icons_utility_resource_capacity" data-name="icons/utility/resource_capacity" transform="translate(-0.615 -0.615)">
    <path id="Mask" class="cls-1" d="M11.675,7.386A3.738,3.738,0,1,0,15.4,11.139a3.743,3.743,0,0,0-3.723-3.754Zm2.615,4.123H11.583V8.647a2.692,2.692,0,0,1,1.938.892,2.5,2.5,0,0,1,.769,1.969ZM6.844,11.17a5.405,5.405,0,0,1,.708-2.554,25.4,25.4,0,0,1,1.569-2,4.57,4.57,0,0,0,.431-4.031A3.088,3.088,0,0,0,6.506.616,3.1,3.1,0,0,0,3.583,2.77a3.912,3.912,0,0,0,.831,4.123A1.743,1.743,0,0,1,5.06,8.678c-.215.615-.954.892-1.477,1.138-1.2.523-2.677,1.262-2.923,2.708a1.94,1.94,0,0,0,1.815,2.4H7.737a.312.312,0,0,0,.246-.492A5.38,5.38,0,0,1,6.844,11.17Z"/>
  </g>
</svg>
