<svg xmlns="http://www.w3.org/2000/svg" viewBox="0 0 16.008 11.076">
  <defs>
    <style>
      .cls-1 {
        fill: #074b69;
      }
    </style>
  </defs>
  <g id="icons_utility_retweet" data-name="icons/utility/retweet" transform="translate(0 -0.462)">
    <path id="Mask" class="cls-1" d="M15.892,6.862l-.646-.646a.446.446,0,0,0-.646,0l-.831.831a.3.3,0,0,1-.523-.215V1.692A1.234,1.234,0,0,0,12.015.462H7.554a.473.473,0,0,0-.462.462v.923a.473.473,0,0,0,.462.462h3.385a.473.473,0,0,1,.462.462V6.831a.327.327,0,0,1-.554.215l-.8-.8a.446.446,0,0,0-.646,0l-.646.677a.446.446,0,0,0,0,.646L11.985,10.8a.446.446,0,0,0,.646,0l3.262-3.262a.554.554,0,0,0,0-.677ZM8.477,9.692H5.092a.473.473,0,0,1-.462-.462V5.169a.327.327,0,0,1,.554-.215l.8.8a.446.446,0,0,0,.646,0l.646-.646a.446.446,0,0,0,0-.646L4.077,1.2a.446.446,0,0,0-.646,0L.138,4.462a.446.446,0,0,0,0,.646l.646.646a.446.446,0,0,0,.646,0l.831-.831a.308.308,0,0,1,.523.215v5.169a1.261,1.261,0,0,0,1.262,1.231H8.508a.473.473,0,0,0,.462-.462v-.923a.526.526,0,0,0-.492-.462Z"/>
  </g>
</svg>
