<svg xmlns="http://www.w3.org/2000/svg" viewBox="0 0 14.77 10.461">
  <defs>
    <style>
      .cls-1 {
        fill: #074b69;
      }
    </style>
  </defs>
  <g id="icons_utility_richtextbulletedlist" data-name="icons/utility/richtextbulletedlist" transform="translate(-0.615 -0.077)">
    <path id="Mask" class="cls-1" d="M2.462,1.462A.473.473,0,0,1,2,1.923H1.077a.473.473,0,0,1-.462-.462V.538A.473.473,0,0,1,1.077.077H2a.473.473,0,0,1,.462.462ZM15.385.538a.473.473,0,0,0-.462-.462H4.154a.473.473,0,0,0-.462.462v.923a.473.473,0,0,0,.462.462H14.923a.473.473,0,0,0,.462-.462ZM2.462,4.846A.473.473,0,0,0,2,4.385H1.077a.473.473,0,0,0-.462.462v.923a.473.473,0,0,0,.462.462H2a.473.473,0,0,0,.462-.462Zm11.692,0a.473.473,0,0,0-.462-.462H4.154a.473.473,0,0,0-.462.462v.923a.473.473,0,0,0,.462.462h9.538a.473.473,0,0,0,.462-.462ZM2.462,9.154A.473.473,0,0,0,2,8.692H1.077a.473.473,0,0,0-.462.462v.923a.473.473,0,0,0,.462.462H2a.473.473,0,0,0,.462-.462Zm12.923,0a.473.473,0,0,0-.462-.462H4.154a.473.473,0,0,0-.462.462v.923a.473.473,0,0,0,.462.462H14.923a.473.473,0,0,0,.462-.462Z"/>
  </g>
</svg>
