<svg xmlns="http://www.w3.org/2000/svg" viewBox="0 0 15.977 13.539">
  <defs>
    <style>
      .cls-1 {
        fill: #074b69;
      }
    </style>
  </defs>
  <g id="icons_utility_richtextoutdent" data-name="icons/utility/richtextoutdent" transform="translate(0 -0.23)">
    <path id="Mask" class="cls-1" d="M5.023,5.769H3.054V3.954c0-.308-.277-.462-.431-.277L.069,6.446a.37.37,0,0,0,0,.431L2.623,9.646c.185.185.431.031.431-.277V7.615H5.023a.5.5,0,0,0,.492-.462V6.231a.5.5,0,0,0-.492-.462ZM15.977,2.538a.473.473,0,0,0-.462-.462H10.285a.473.473,0,0,0-.462.462v.923a.473.473,0,0,0,.462.462h5.231a.473.473,0,0,0,.462-.462ZM14.746,9.923a.473.473,0,0,0-.462-.462h-4a.473.473,0,0,0-.462.462v.923a.473.473,0,0,0,.462.462h4a.473.473,0,0,0,.462-.462Zm1.231-3.692a.473.473,0,0,0-.462-.462H10.285a.473.473,0,0,0-.462.462v.923a.473.473,0,0,0,.462.462h5.231a.473.473,0,0,0,.462-.462ZM8.592.692A.473.473,0,0,0,8.131.231H7.208a.473.473,0,0,0-.462.462V13.308a.473.473,0,0,0,.462.462h.923a.473.473,0,0,0,.462-.462Z"/>
  </g>
</svg>
