<svg xmlns="http://www.w3.org/2000/svg" viewBox="0 0 13.539 12.924">
  <defs>
    <style>
      .cls-1 {
        fill: #074b69;
      }
    </style>
  </defs>
  <g id="icons_utility_right_align_text" data-name="icons/utility/right_align_text" transform="translate(-0.23 -0.846)">
    <path id="Mask" class="cls-1" d="M13.308.846H.692a.473.473,0,0,0-.462.462v.923a.473.473,0,0,0,.462.462H13.308a.473.473,0,0,0,.462-.462V1.308A.473.473,0,0,0,13.308.846Zm0,3.692H3.154A.473.473,0,0,0,2.692,5v.923a.473.473,0,0,0,.462.462H13.308a.473.473,0,0,0,.462-.462V5A.473.473,0,0,0,13.308,4.538Zm0,7.385H3.154a.473.473,0,0,0-.462.462v.923a.473.473,0,0,0,.462.462H13.308a.473.473,0,0,0,.462-.462v-.923A.473.473,0,0,0,13.308,11.923Zm0-3.692H.692a.473.473,0,0,0-.462.462v.923a.473.473,0,0,0,.462.462H13.308a.473.473,0,0,0,.462-.462V8.692A.473.473,0,0,0,13.308,8.231Z"/>
  </g>
</svg>
