<svg xmlns="http://www.w3.org/2000/svg" viewBox="0 0 14.77 14.77">
  <defs>
    <style>
      .cls-1 {
        fill: #074b69;
      }
    </style>
  </defs>
  <g id="icons_utility_rotate" data-name="icons/utility/rotate" transform="translate(-0.615 -0.615)">
    <path id="Mask" class="cls-1" d="M14.923.615H14a.473.473,0,0,0-.462.462V3.231c0,.277-.308.462-.492.246A6.765,6.765,0,0,0,7.292,1.262a5.915,5.915,0,0,0-2.277.677,5.966,5.966,0,0,0-1.046.646.492.492,0,0,0-.062.708l.646.646A.466.466,0,0,0,5.138,4a7.442,7.442,0,0,1,1.2-.646c.185-.062.4-.123.615-.185a5.082,5.082,0,0,1,4.831,1.662c.369.431.092.708-.215.708H9.415A.5.5,0,0,0,8.923,6v.923a.5.5,0,0,0,.492.462h5.6a.382.382,0,0,0,.369-.4V1.077A.473.473,0,0,0,14.923.615Zm-2.8,10.892a.446.446,0,0,0-.646,0,4.925,4.925,0,0,1-1.785,1.138c-.185.062-.4.123-.615.185a5.082,5.082,0,0,1-4.831-1.662c-.369-.431-.092-.708.215-.708H6.615A.473.473,0,0,0,7.077,10V9.077a.473.473,0,0,0-.462-.462h-5.6a.407.407,0,0,0-.4.4v5.908a.473.473,0,0,0,.462.462H2a.473.473,0,0,0,.462-.462V12.769c0-.277.308-.462.492-.246a6.731,6.731,0,0,0,5.754,2.215,5.915,5.915,0,0,0,2.277-.677A6.727,6.727,0,0,0,12.738,12.8a.446.446,0,0,0,0-.646l-.615-.646Z"/>
  </g>
</svg>
