<svg xmlns="http://www.w3.org/2000/svg" viewBox="0 0 13.539 11.076">
  <defs>
    <style>
      .cls-1 {
        fill: #074b69;
      }
    </style>
  </defs>
  <g id="icons_utility_rows" data-name="icons/utility/rows" transform="translate(-0.23 -0.462)">
    <path id="Mask" class="cls-1" d="M13.308,2.308H.692a.473.473,0,0,1-.462-.462V.923A.473.473,0,0,1,.692.462H13.308a.473.473,0,0,1,.462.462v.923A.473.473,0,0,1,13.308,2.308Zm0,4.585H.692a.473.473,0,0,1-.462-.462V5.508a.469.469,0,0,1,.462-.431H13.308a.473.473,0,0,1,.462.462v.923A.469.469,0,0,1,13.308,6.892Zm0,4.646H.692a.473.473,0,0,1-.462-.462v-.923a.473.473,0,0,1,.462-.462H13.308a.473.473,0,0,1,.462.462v.923A.473.473,0,0,1,13.308,11.538Z"/>
  </g>
</svg>
