<svg xmlns="http://www.w3.org/2000/svg" viewBox="0 0 16.031 11.107">
  <defs>
    <style>
      .cls-1 {
        fill: #074b69;
      }
    </style>
  </defs>
  <g id="icons_utility_salesforce1" data-name="icons/utility/salesforce1" transform="translate(0 -0.462)">
    <path id="Mask" class="cls-1" d="M6.708,1.692a2.821,2.821,0,0,1,4.492.585,3.5,3.5,0,0,1,1.385-.308,3.446,3.446,0,0,1,0,6.892,4.609,4.609,0,0,1-.677-.062,2.536,2.536,0,0,1-2.215,1.292,2.654,2.654,0,0,1-1.108-.246,2.892,2.892,0,0,1-5.354-.154,3.39,3.39,0,0,1-.554.062A2.679,2.679,0,0,1,0,7.077,2.65,2.65,0,0,1,1.323,4.769a3.253,3.253,0,0,1-.246-1.231A3.093,3.093,0,0,1,4.185.462,3.193,3.193,0,0,1,6.708,1.692"/>
  </g>
</svg>
