<svg xmlns="http://www.w3.org/2000/svg" viewBox="0 0 13.71 14.708">
  <defs>
    <style>
      .cls-1 {
        fill: #074b69;
      }
    </style>
  </defs>
  <g id="icons_utility_settings" data-name="icons/utility/settings" transform="translate(-0.23 -0.615)">
    <path id="Mask" class="cls-1" d="M7.105,5.846A2.154,2.154,0,1,0,9.259,8,2.141,2.141,0,0,0,7.105,5.846Zm6.462,4.092-1.138-.954a5.974,5.974,0,0,0,0-2.092l1.138-.954a1.037,1.037,0,0,0,.246-1.292l-.492-.862a1.033,1.033,0,0,0-.892-.492,1.106,1.106,0,0,0-.338.062l-1.415.523A5.168,5.168,0,0,0,8.859,2.831L8.613,1.385A.972.972,0,0,0,7.6.615H6.613A.972.972,0,0,0,5.6,1.385L5.351,2.8A5.512,5.512,0,0,0,3.505,3.846L2.09,3.323a1.309,1.309,0,0,0-.338-.062,1.033,1.033,0,0,0-.892.492l-.492.862A1,1,0,0,0,.613,5.908l1.138.954a6.009,6.009,0,0,0-.092,1.046,5.754,5.754,0,0,0,.092,1.046L.613,9.908A1.037,1.037,0,0,0,.367,11.2l.492.862a1.033,1.033,0,0,0,.892.492,1.106,1.106,0,0,0,.338-.062l1.415-.523A5.168,5.168,0,0,0,5.32,13.015l.246,1.477a1,1,0,0,0,1.015.831h.985a1.051,1.051,0,0,0,1.015-.862l.246-1.477a5.255,5.255,0,0,0,1.908-1.138l1.323.523a1.544,1.544,0,0,0,.369.062,1.033,1.033,0,0,0,.892-.492l.462-.8a.891.891,0,0,0-.215-1.2ZM7.105,11.385A3.385,3.385,0,1,1,10.49,8,3.375,3.375,0,0,1,7.105,11.385Z"/>
  </g>
</svg>
