<svg xmlns="http://www.w3.org/2000/svg" viewBox="0 0 14.77 14.785">
  <defs>
    <style>
      .cls-1 {
        fill: #074b69;
      }
    </style>
  </defs>
  <g id="icons_utility_shield" data-name="icons/utility/shield" transform="translate(-0.615 -0.615)">
    <path id="Mask" class="cls-1" d="M1.477,4.323H14.523a.485.485,0,0,0,.462-.615A9.591,9.591,0,0,0,13.662.938a.452.452,0,0,0-.708-.062,3.321,3.321,0,0,1-2.277.862A3.325,3.325,0,0,1,8.308.754a.483.483,0,0,0-.677,0,3.325,3.325,0,0,1-2.369.985A3.378,3.378,0,0,1,2.985.877a.492.492,0,0,0-.708.062A8.542,8.542,0,0,0,.954,3.708a.561.561,0,0,0,.523.615ZM15.385,6.292a.438.438,0,0,0-.492-.431H1.108a.438.438,0,0,0-.492.431v.092A8.9,8.9,0,0,0,8,15.4a8.888,8.888,0,0,0,7.385-8.985V6.292Z"/>
  </g>
</svg>
