<svg xmlns="http://www.w3.org/2000/svg" viewBox="0 0 14.77 13.539">
  <defs>
    <style>
      .cls-1 {
        fill: #074b69;
      }
    </style>
  </defs>
  <g id="icons_utility_side_list" data-name="icons/utility/side_list" transform="translate(-0.615 -0.23)">
    <path id="Mask" class="cls-1" d="M14.923.231H6.615a.473.473,0,0,0-.462.462V13.308a.473.473,0,0,0,.462.462h8.308a.473.473,0,0,0,.462-.462V.692A.473.473,0,0,0,14.923.231ZM4.462.231H1.077A.473.473,0,0,0,.615.692V2.231a.473.473,0,0,0,.462.462H4.462a.473.473,0,0,0,.462-.462V.692A.473.473,0,0,0,4.462.231Zm0,3.692H1.077a.473.473,0,0,0-.462.462V5.923a.473.473,0,0,0,.462.462H4.462a.473.473,0,0,0,.462-.462V4.385A.473.473,0,0,0,4.462,3.923Zm0,3.692H1.077a.473.473,0,0,0-.462.462V9.615a.473.473,0,0,0,.462.462H4.462a.473.473,0,0,0,.462-.462V8.077A.473.473,0,0,0,4.462,7.615Zm0,3.692H1.077a.473.473,0,0,0-.462.462v1.538a.473.473,0,0,0,.462.462H4.462a.473.473,0,0,0,.462-.462V11.769A.473.473,0,0,0,4.462,11.308Z"/>
  </g>
</svg>
