<svg xmlns="http://www.w3.org/2000/svg" viewBox="0 0 12.985 14.8">
  <defs>
    <style>
      .cls-1 {
        fill: #074b69;
      }
    </style>
  </defs>
  <g id="icons_utility_standard_objects" data-name="icons/utility/standard_objects" transform="translate(-0.846 -0.615)">
    <path id="Mask" class="cls-1" d="M13.585,11.985,7.8,15.277a1,1,0,0,1-1.015,0L1.031,11.985a.3.3,0,0,1,0-.554l1.354-.769a.279.279,0,0,1,.308,0l3.508,2a2.354,2.354,0,0,0,2.215,0l3.508-2a.279.279,0,0,1,.308,0l1.354.769a.3.3,0,0,1,0,.554Zm0-3.692L7.8,11.585a1,1,0,0,1-1.015,0L1.031,8.292a.3.3,0,0,1,0-.554l1.354-.769a.279.279,0,0,1,.308,0l3.508,2a2.354,2.354,0,0,0,2.215,0l3.508-2a.279.279,0,0,1,.308,0l1.354.769a.3.3,0,0,1,0,.554Zm-6.738-.4L1.062,4.6a.3.3,0,0,1,0-.554L6.846.754a1,1,0,0,1,1.015,0l5.785,3.292a.3.3,0,0,1,0,.554L7.862,7.892A1.175,1.175,0,0,1,6.846,7.892Z"/>
  </g>
</svg>
