<svg xmlns="http://www.w3.org/2000/svg" viewBox="0 0 14.77 14.708">
  <defs>
    <style>
      .cls-1 {
        fill: #074b69;
      }
    </style>
  </defs>
  <g id="icons_utility_strikethrough" data-name="icons/utility/strikethrough" transform="translate(-0.615 -0.615)">
    <path id="Mask" class="cls-1" d="M3.723,5.569a5.515,5.515,0,0,1-.092-1.046,3.373,3.373,0,0,1,.277-1.292,3.425,3.425,0,0,1,.862-1.262,4.709,4.709,0,0,1,1.477-.954,5.768,5.768,0,0,1,2.185-.4,7.559,7.559,0,0,1,2.215.308,4.2,4.2,0,0,1,1.538.923.458.458,0,0,1-.031.677l-.831.769a.475.475,0,0,1-.646,0,3.313,3.313,0,0,0-.738-.554A3.3,3.3,0,0,0,8.431,2.4a3.309,3.309,0,0,0-1.323.215,2.448,2.448,0,0,0-.862.554,2.319,2.319,0,0,0-.462.708,1.978,1.978,0,0,0-.123.677,2.394,2.394,0,0,0,.154.862.3.3,0,0,1-.277.431H4.031a.361.361,0,0,1-.308-.277Zm8.554,4.585H10.738a.287.287,0,0,0-.277.4,1.565,1.565,0,0,1,.123.677,2.249,2.249,0,0,1-.246,1.015,2.589,2.589,0,0,1-.677.738,3.174,3.174,0,0,1-.923.431,3.647,3.647,0,0,1-.985.154A3.855,3.855,0,0,1,6.092,13.2a3.18,3.18,0,0,1-1.046-.769.477.477,0,0,0-.646-.062l-.862.738a.446.446,0,0,0-.031.646,4.05,4.05,0,0,0,1.631,1.108,7.138,7.138,0,0,0,2.585.462,5.515,5.515,0,0,0,1.908-.308,4.873,4.873,0,0,0,1.569-.862,3.93,3.93,0,0,0,1.046-1.385,4.363,4.363,0,0,0,.4-1.815,3.923,3.923,0,0,0-.031-.615.518.518,0,0,0-.338-.185Zm3.077-2.8a.436.436,0,0,0-.431-.277H1.077a.411.411,0,0,0-.431.277.277.277,0,0,0-.031.154v.923a.5.5,0,0,0,.462.492H14.923a.5.5,0,0,0,.462-.492V7.508A.277.277,0,0,0,15.354,7.354Z"/>
  </g>
</svg>
