<svg xmlns="http://www.w3.org/2000/svg" viewBox="0 0 14.792 12.946">
  <defs>
    <style>
      .cls-1 {
        fill: #074b69;
      }
    </style>
  </defs>
  <g id="icons_utility_task-copy" data-name="icons/utility/task-copy" transform="translate(-0.615 -0.23)">
    <path id="Mask" class="cls-1" d="M7.408.869,6.885.346a.354.354,0,0,0-.523,0L3.1,3.577,1.777,2.285a.354.354,0,0,0-.523,0l-.523.523a.354.354,0,0,0,0,.523L2.546,5.146a.743.743,0,0,0,1.046,0L7.408,1.392a.416.416,0,0,0,0-.523Zm7.508,3.508H8.485a.486.486,0,0,1-.492-.492V2.9a.486.486,0,0,1,.492-.492h6.431a.486.486,0,0,1,.492.492v.985A.486.486,0,0,1,14.915,4.377Zm0,4.4H7.008a.486.486,0,0,1-.492-.492V7.3a.486.486,0,0,1,.492-.492h7.908a.486.486,0,0,1,.492.492v.985A.486.486,0,0,1,14.915,8.777Zm-10.892,0H3.038a.486.486,0,0,1-.492-.492V7.3a.486.486,0,0,1,.492-.492h.985a.486.486,0,0,1,.492.492v.985A.468.468,0,0,1,4.023,8.777Zm0,4.4H3.038a.486.486,0,0,1-.492-.492V11.7a.486.486,0,0,1,.492-.492h.985a.486.486,0,0,1,.492.492v.985A.468.468,0,0,1,4.023,13.177Zm10.892,0H7.008a.486.486,0,0,1-.492-.492V11.7a.486.486,0,0,1,.492-.492h7.908a.486.486,0,0,1,.492.492v.985A.486.486,0,0,1,14.915,13.177Z"/>
  </g>
</svg>
