<svg xmlns="http://www.w3.org/2000/svg" viewBox="0 0 14.758 14.785">
  <defs>
    <style>
      .cls-1 {
        fill: #074b69;
      }
    </style>
  </defs>
  <g id="icons_utility_topic-copy" data-name="icons/utility/topic-copy" transform="translate(-0.615 -0.615)">
    <path id="Mask" class="cls-1" d="M5.346,10.854a.372.372,0,0,0-.215-.215l-.677-.185a.309.309,0,0,0-.338.154l-1.169,2c-.308.554-.123.738.431.431l2.031-1.169a.309.309,0,0,0,.154-.338l-.215-.677Zm5.292-5.723a.372.372,0,0,0,.215.215l.677.185a.309.309,0,0,0,.338-.154l1.169-2.031c.308-.554.123-.738-.431-.431L10.577,4.085a.309.309,0,0,0-.154.338l.215.708Zm-6.523.277a.309.309,0,0,0,.338.154l.677-.185a.372.372,0,0,0,.215-.215l.185-.677a.309.309,0,0,0-.154-.338l-2-1.2c-.554-.308-.738-.123-.431.431Zm7.754,5.169a.309.309,0,0,0-.338-.154l-.677.185a.372.372,0,0,0-.215.215l-.185.708a.309.309,0,0,0,.154.338l2.031,1.169c.554.308.738.123.431-.431l-1.2-2.031Zm3.108-2.831L9.931,6.392a.426.426,0,0,1-.338-.338L8.238,1.008c-.154-.523-.369-.523-.523,0L6.362,6.054a.426.426,0,0,1-.338.338L1.008,7.746c-.523.154-.523.369,0,.523L6.054,9.623a.426.426,0,0,1,.338.338l1.354,5.046c.154.523.369.523.523,0L9.623,9.962a.426.426,0,0,1,.338-.338l5.046-1.354C15.5,8.115,15.5,7.869,14.977,7.746ZM7.992,9.223A1.231,1.231,0,1,1,9.223,7.992,1.234,1.234,0,0,1,7.992,9.223Z"/>
  </g>
</svg>
