<svg xmlns="http://www.w3.org/2000/svg" viewBox="0 0 14.3 15">
  <defs>
    <style>
      .cls-1 {
        fill: #074b69;
      }
    </style>
  </defs>
  <g id="icons_utility_undo" data-name="icons/utility/undo" transform="translate(-0.615 -0.615)">
    <path id="Mask" class="cls-1" d="M9.1,3.985a5.815,5.815,0,0,1,0,11.631H6.577a.4.4,0,0,1-.4-.431V14.2a.447.447,0,0,1,.431-.462H9.1a3.938,3.938,0,0,0,0-7.877H4.823a1.657,1.657,0,0,0-.338.031c-.246.123-.185.308.031.523L6.023,7.923a.447.447,0,0,1-.031.646l-.677.677a.4.4,0,0,1-.585.031l-4-4a.39.39,0,0,1,0-.554L4.7.754a.446.446,0,0,1,.646,0l.646.646a.446.446,0,0,1,0,.646L4.485,3.554c-.185.185-.185.4.123.4h.215L9.1,3.985Z"/>
  </g>
</svg>
