<svg xmlns="http://www.w3.org/2000/svg" viewBox="0 0 14.752 14.155">
  <defs>
    <style>
      .cls-1 {
        fill: #074b69;
      }
    </style>
  </defs>
  <g id="icons_utility_user_role" data-name="icons/utility/user_role" transform="translate(-0.615 -0.615)">
    <path id="Mask" class="cls-1" d="M6.752,11.078A5.288,5.288,0,0,1,7.46,8.555,20,20,0,0,1,9.029,6.586a4.5,4.5,0,0,0,.431-4A3.075,3.075,0,0,0,6.444.616,3.078,3.078,0,0,0,3.552,2.739a3.861,3.861,0,0,0,.831,4.092,1.715,1.715,0,0,1,.646,1.754c-.215.615-.954.892-1.477,1.138C2.352,10.247.906,10.986.66,12.4A1.914,1.914,0,0,0,2.475,14.77H7.706a.312.312,0,0,0,.246-.492A4.916,4.916,0,0,1,6.752,11.078Zm4.923-3.692a3.692,3.692,0,1,0,3.692,3.692A3.7,3.7,0,0,0,11.675,7.386Zm.646,4.031a1.093,1.093,0,0,1-.308-.062L10.6,12.77a.441.441,0,0,1-.308.123.4.4,0,0,1-.308-.123.468.468,0,0,1,0-.615L11.4,10.739a.91.91,0,0,1-.062-.308A1.133,1.133,0,0,1,12.444,9.2a1.093,1.093,0,0,1,.308.062c.062,0,.062.062.031.092L12.168,10a.087.087,0,0,0,0,.154l.431.431a.115.115,0,0,0,.185,0L13.4,9.97c.031-.031.092-.031.092.031a1.093,1.093,0,0,1,.062.308A1.117,1.117,0,0,1,12.321,11.416Z"/>
  </g>
</svg>
