<svg xmlns="http://www.w3.org/2000/svg" viewBox="0 0 14.77 14.778">
  <defs>
    <style>
      .cls-1 {
        fill: #074b69;
      }
    </style>
  </defs>
  <g id="icons_utility_volume_off" data-name="icons/utility/volume_off" transform="translate(-0.615 -0.615)">
    <path id="Mask" class="cls-1" d="M7.569.8,3.692,5.543H1.846A1.234,1.234,0,0,0,.615,6.774V9.235a1.234,1.234,0,0,0,1.231,1.231H3.692L7.569,15.2a.606.606,0,0,0,1.046-.431V1.235A.609.609,0,0,0,7.569.8ZM13.785,8,15.292,6.5a.3.3,0,0,0,0-.431l-.431-.431a.3.3,0,0,0-.431,0L12.923,7.143,11.415,5.635a.3.3,0,0,0-.431,0l-.431.431a.3.3,0,0,0,0,.431L12.062,8,10.554,9.512a.3.3,0,0,0,0,.431l.431.431a.3.3,0,0,0,.431,0l1.508-1.508,1.508,1.508a.3.3,0,0,0,.431,0l.431-.431a.3.3,0,0,0,0-.431Z"/>
  </g>
</svg>
