<svg xmlns="http://www.w3.org/2000/svg" viewBox="0 0 12 14.778">
  <defs>
    <style>
      .cls-1 {
        fill: #074b69;
      }
    </style>
  </defs>
  <g id="icons_utility_volume_low" data-name="icons/utility/volume_low" transform="translate(-0.846 -0.615)">
    <path id="Mask" class="cls-1" d="M7.8.8,3.923,5.543H2.077A1.234,1.234,0,0,0,.846,6.774V9.235a1.234,1.234,0,0,0,1.231,1.231H3.923L7.8,15.2a.606.606,0,0,0,1.046-.431V1.235A.609.609,0,0,0,7.8.8Zm3.6,3.846a.3.3,0,0,0-.431,0l-.431.431a.3.3,0,0,0,0,.431,3.39,3.39,0,0,1-.031,4.985.3.3,0,0,0,0,.431l.431.431a.3.3,0,0,0,.431,0,4.616,4.616,0,0,0,1.477-3.385A4.555,4.555,0,0,0,11.4,4.651Z"/>
  </g>
</svg>
