<svg xmlns="http://www.w3.org/2000/svg" viewBox="0 0 13.449 11.661">
  <defs>
    <style>
      .cls-1 {
        fill: #074b69;
      }
    </style>
  </defs>
  <g id="icons_utility_wifi" data-name="icons/utility/wifi" transform="translate(-0.23 -0.462)">
    <path id="Mask" class="cls-1" d="M13.6,3.385A8.9,8.9,0,0,0,6.955.462,8.9,8.9,0,0,0,.309,3.385a.3.3,0,0,0,.031.431l.923.8a.3.3,0,0,0,.431-.031,7.218,7.218,0,0,1,10.523,0,.33.33,0,0,0,.431.031l.923-.8a.3.3,0,0,0,.031-.431ZM6.955,4.769A4.489,4.489,0,0,0,3.571,6.308a.336.336,0,0,0,.031.462l.985.738a.288.288,0,0,0,.4-.031,2.7,2.7,0,0,1,1.969-.862,2.674,2.674,0,0,1,1.938.831.288.288,0,0,0,.4.031l.985-.738a.308.308,0,0,0,.031-.462A4.454,4.454,0,0,0,6.955,4.769Zm.031,4.277a1.543,1.543,0,0,1,1.538,1.538,1.538,1.538,0,0,1-3.077,0A1.543,1.543,0,0,1,6.986,9.046Z"/>
  </g>
</svg>
