<svg width="24" height="24" fill="none" xmlns="http://www.w3.org/2000/svg"><path d="M17.625 13.255h-.75a.402.402 0 00-.375.375v2.497a.384.384 0 01-.375.375h-8.25a.384.384 0 01-.375-.375V13.63a.401.401 0 00-.375-.375h-.75A.402.402 0 006 13.63V17a1.001 1.001 0 001 1h10a1.003 1.003 0 001-.999V13.63a.4.4 0 00-.375-.375zm-5.374-7.143a.363.363 0 00-.525 0L8.35 9.484a.362.362 0 000 .525l.525.524a.364.364 0 00.525 0l1.4-1.399a.268.268 0 01.45.172v5.295a.362.362 0 00.35.374h.75a.428.428 0 00.402-.374V9.334a.247.247 0 01.425-.172l1.398 1.396a.361.361 0 00.525 0l.525-.524a.364.364 0 000-.525L12.25 6.112z" fill="#2782ED"/></svg>