<svg width="24" height="24" fill="none" xmlns="http://www.w3.org/2000/svg"><path fill-rule="evenodd" clip-rule="evenodd" d="M13.719 15.646H7.875a.384.384 0 01-.375-.374v-2.498a.401.401 0 00-.375-.374h-.75a.403.403 0 00-.375.374v3.372a1 1 0 001 .998h7.008a5.122 5.122 0 01-.29-1.497zM12.132 5.175a.38.38 0 01.12.083l3.373 3.397a.364.364 0 010 .524l-.525.525a.363.363 0 01-.525 0l-1.398-1.396a.248.248 0 00-.425.172v5.266a.426.426 0 01-.402.375h-.75a.363.363 0 01-.35-.375V8.451a.268.268 0 00-.45-.172L9.4 9.677a.362.362 0 01-.525 0l-.525-.524a.362.362 0 010-.524l3.376-3.372a.363.363 0 01.406-.083z" fill="#2782ED"/><path d="M22.982 15.854a.28.28 0 00-.273-.274h-.636a.25.25 0 00-.255.256c0 .037 0 .092-.018.128a2.408 2.408 0 01-.273.678c-.509.898-1.4 1.393-2.345 1.393a2.714 2.714 0 01-1.927-.807.96.96 0 01-.219-.256c-.054-.147.073-.22.237-.22h1.273a.28.28 0 00.272-.275v-.568a.25.25 0 00-.254-.256h-3.328a.242.242 0 00-.236.238v3.334c.018.147.146.275.29.275h.546a.28.28 0 00.273-.275v-1.282c0-.165.091-.238.218-.128.055.073.11.128.182.183.91.916 2.182 1.3 3.491 1.044.454-.092.89-.275 1.273-.531a3.85 3.85 0 001.709-2.62v-.037zm-7.964-1.208a.28.28 0 00.273.274h.636a.25.25 0 00.255-.256c0-.037 0-.092.018-.128.055-.239.146-.458.273-.678.509-.898 1.4-1.393 2.345-1.393.727 0 1.418.294 1.927.807a.96.96 0 01.219.256c.054.147-.073.22-.237.22h-1.273a.28.28 0 00-.272.275v.568a.25.25 0 00.254.256h3.328c.127 0 .236-.11.236-.238v-3.334c-.018-.147-.145-.275-.29-.275h-.546a.28.28 0 00-.273.275v1.282c0 .165-.091.238-.218.128a.865.865 0 00-.182-.183c-.91-.916-2.182-1.3-3.491-1.044-.454.092-.89.275-1.273.531a3.85 3.85 0 00-1.709 2.62v.037z" fill="#00A1DE"/></svg>