<svg width="24" height="24" fill="none" xmlns="http://www.w3.org/2000/svg"><path fill-rule="evenodd" clip-rule="evenodd" d="M17.858 7.518a.485.485 0 000-.688l-.688-.687a.486.486 0 00-.688 0l-4.253 4.252a.325.325 0 01-.458 0L7.518 6.143a.487.487 0 00-.688 0l-.687.687a.486.486 0 000 .688l4.252 4.253a.325.325 0 010 .458l-4.252 4.253a.486.486 0 000 .688l.687.687a.488.488 0 00.688 0l4.253-4.252a.325.325 0 01.458 0l4.253 4.252a.487.487 0 00.688 0l.688-.687a.485.485 0 000-.688l-4.253-4.253a.325.325 0 010-.458l4.253-4.253z" fill="#C23934"/></svg>