<svg width="24" height="24" fill="none" xmlns="http://www.w3.org/2000/svg"><path fill-rule="evenodd" clip-rule="evenodd" d="M17.963 7.36a.485.485 0 01-.105.158l-4.253 4.253a.325.325 0 000 .458l.833.833a5.125 5.125 0 00-.433 2.32l-1.776-1.777a.325.325 0 00-.458 0l-4.253 4.252a.487.487 0 01-.688 0l-.687-.687a.486.486 0 010-.688l4.252-4.253a.325.325 0 000-.458L6.143 7.518a.487.487 0 010-.688l.687-.687a.487.487 0 01.688 0l4.253 4.252a.325.325 0 00.458 0l4.253-4.252a.486.486 0 01.688 0l.688.687a.485.485 0 01.105.53z" fill="#C23934"/><path d="M23.267 15.854a.28.28 0 00-.272-.274h-.637a.25.25 0 00-.254.256c0 .037 0 .092-.018.128a2.405 2.405 0 01-.273.678c-.51.898-1.4 1.393-2.345 1.393a2.714 2.714 0 01-1.928-.807.962.962 0 01-.218-.256c-.055-.147.073-.22.236-.22h1.273a.28.28 0 00.273-.275v-.568a.25.25 0 00-.255-.256h-3.327a.242.242 0 00-.236.238v3.334c.018.147.145.275.29.275h.546a.28.28 0 00.273-.275v-1.282c0-.165.09-.238.218-.128a.877.877 0 00.182.183c.909.916 2.182 1.3 3.49 1.044a3.554 3.554 0 001.273-.531 3.85 3.85 0 001.71-2.62v-.037zm-7.963-1.208a.28.28 0 00.273.274h.636a.25.25 0 00.255-.256c0-.037 0-.092.018-.128.054-.239.145-.458.272-.678.51-.898 1.4-1.393 2.346-1.393.727 0 1.418.294 1.927.807a.938.938 0 01.218.256c.055.147-.072.22-.236.22H19.74a.28.28 0 00-.272.275v.568a.25.25 0 00.254.256h3.327c.128 0 .237-.11.237-.238v-3.334c-.019-.147-.146-.275-.291-.275h-.546a.28.28 0 00-.272.275v1.282c0 .165-.091.238-.219.128a.867.867 0 00-.181-.183c-.91-.916-2.182-1.3-3.491-1.044a3.567 3.567 0 00-1.273.531 3.85 3.85 0 00-1.71 2.62v.037z" fill="#00A1DE"/></svg>