<svg width="44" height="44" fill="none" xmlns="http://www.w3.org/2000/svg"><path d="M22 44c12.15 0 22-9.85 22-22S34.15 0 22 0 0 9.85 0 22s9.85 22 22 22z" fill="#0090B9"/><path d="M23.05 33.95l.8-1.9.1-.25.2-.2L34 21.75C33.85 15.25 28.55 10 22 10c-6.65 0-12 5.35-12 12s5.35 12 12 12c.35 0 .7 0 1.05-.05z" fill="#fff"/><path d="M29 21h-5.5v-7c0-.55-.45-1-1-1H22c-.55 0-1 .45-1 1v8.5c0 .55.45 1 1 1h7c.55 0 1-.45 1-1V22c0-.55-.45-1-1-1z" fill="#0090B9"/><path fill-rule="evenodd" clip-rule="evenodd" d="M25 32.5l-1.5 3.65 3.6-1.5L25 32.5zm13.05-9.55l-1.4-1.4c-.2-.2-.5-.2-.7 0l-9.75 9.8 2.1 2.1 9.75-9.75c.2-.2.2-.55 0-.75z" fill="#fff"/></svg>