<svg width="32" height="32" viewBox="0 0 44 44" fill="none" xmlns="http://www.w3.org/2000/svg">
<path d="M22 44C34.1503 44 44 34.1503 44 22C44 9.84974 34.1503 0 22 0C9.84974 0 0 9.84974 0 22C0 34.1503 9.84974 44 22 44Z" fill="#0090B9"/>
<path d="M15.3532 28.82L16.7712 27.15C16.8078 27.1078 16.8525 27.0733 16.9026 27.0485C16.9527 27.0236 17.0072 27.009 17.063 27.0054C17.1188 27.0017 17.1748 27.0092 17.2277 27.0273C17.2806 27.0455 17.3293 27.0739 17.3712 27.111C18.6467 28.2582 20.2839 28.922 21.9982 28.987C24.1362 28.987 25.3102 28.016 25.3102 26.535C25.3102 24.973 24.0842 24.473 22.3582 23.742L19.7582 22.614C17.8882 21.836 15.9192 20.355 15.9192 17.578C15.9192 14.552 18.5912 12.223 22.2972 12.223C24.3551 12.2283 26.3386 12.9932 27.8672 14.371C27.9453 14.4455 27.9925 14.5467 27.9992 14.6545C28.0058 14.7622 27.9715 14.8685 27.9032 14.952L26.6852 16.452C26.6143 16.538 26.5123 16.5925 26.4015 16.6037C26.2907 16.615 26.1799 16.582 26.0932 16.512C25.024 15.6285 23.6802 15.1455 22.2932 15.146C20.4932 15.146 19.3182 15.989 19.3182 17.377C19.3182 18.87 20.7652 19.422 22.3392 20.066L24.9002 21.141C27.1602 22.082 28.7402 23.511 28.7402 26.264C28.7402 29.343 26.1842 31.91 21.9202 31.91C19.5053 31.9114 17.175 31.0212 15.3762 29.41C15.2977 29.3332 15.2517 29.2293 15.2474 29.1196C15.2431 29.0099 15.281 28.9027 15.3532 28.82V28.82Z" fill="white"/>
<path d="M22.3463 9.47803H21.6533C21.3772 9.47803 21.1533 9.70188 21.1533 9.97803V12.685C21.1533 12.9612 21.3772 13.185 21.6533 13.185H22.3463C22.6225 13.185 22.8463 12.9612 22.8463 12.685V9.97803C22.8463 9.70188 22.6225 9.47803 22.3463 9.47803Z" fill="white"/>
<path d="M22.3463 30.8151H21.6533C21.3772 30.8151 21.1533 31.0389 21.1533 31.3151V34.0221C21.1533 34.2982 21.3772 34.5221 21.6533 34.5221H22.3463C22.6225 34.5221 22.8463 34.2982 22.8463 34.0221V31.3151C22.8463 31.0389 22.6225 30.8151 22.3463 30.8151Z" fill="white"/>
</svg>
