<svg width="26" height="26" viewBox="0 0 26 26" fill="none" xmlns="http://www.w3.org/2000/svg">
<path fill-rule="evenodd" clip-rule="evenodd" d="M4.5 1C4.22388 1 4 1.22385 4 1.5V24.5C4 24.7762 4.22388 25 4.5 25H10V17.5C10 17.2238 10.2239 17 10.5 17H15.5C15.7761 17 16 17.2238 16 17.5V25H21.5C21.7761 25 22 24.7762 22 24.5V1.5C22 1.22385 21.7761 1 21.5 1H4.5ZM11.5 4C11.2239 4 11 4.22385 11 4.5V7.5C11 7.77615 11.2239 8 11.5 8H14.5C14.7761 8 15 7.77615 15 7.5V4.5C15 4.22385 14.7761 4 14.5 4H11.5ZM11.5 10C11.2239 10 11 10.2238 11 10.5V13.5C11 13.7762 11.2239 14 11.5 14H14.5C14.7761 14 15 13.7762 15 13.5V10.5C15 10.2238 14.7761 10 14.5 10H11.5ZM16 10.5C16 10.2238 16.2239 10 16.5 10H19.5C19.7761 10 20 10.2238 20 10.5V13.5C20 13.7762 19.7761 14 19.5 14H16.5C16.2239 14 16 13.7762 16 13.5V10.5ZM16.5 4C16.2239 4 16 4.22385 16 4.5V7.5C16 7.77615 16.2239 8 16.5 8H19.5C19.7761 8 20 7.77615 20 7.5V4.5C20 4.22385 19.7761 4 19.5 4H16.5ZM6 10.5C6 10.2238 6.22388 10 6.5 10H9.5C9.77612 10 10 10.2238 10 10.5V13.5C10 13.7762 9.77612 14 9.5 14H6.5C6.22388 14 6 13.7762 6 13.5V10.5ZM6.5 4C6.22388 4 6 4.22385 6 4.5V7.5C6 7.77615 6.22388 8 6.5 8H9.5C9.77612 8 10 7.77615 10 7.5V4.5C10 4.22385 9.77612 4 9.5 4H6.5Z" fill="#DDDDDD"/>
</svg>
