<svg width="5" height="3" viewBox="0 0 5 3" fill="none" xmlns="http://www.w3.org/2000/svg">
<path d="M0.163725 0H4.5887C4.62016 0.000897757 4.65068 0.0109104 4.67656 0.0288219C4.70243 0.0467334 4.72255 0.0717731 4.73447 0.1009C4.74639 0.130026 4.74959 0.161987 4.74369 0.1929C4.73779 0.223812 4.72304 0.252347 4.70124 0.275038L2.53872 2.92507C2.51995 2.94846 2.49617 2.96733 2.46914 2.9803C2.4421 2.99327 2.4125 3 2.38251 3C2.35253 3 2.32292 2.99327 2.29589 2.9803C2.26885 2.96733 2.24507 2.94846 2.2263 2.92507L0.0385968 0.275038C0.0185844 0.250734 0.00579515 0.221301 0.00168423 0.190087C-0.00242669 0.158874 0.00230572 0.127133 0.0153431 0.0984762C0.0283804 0.0698195 0.0491992 0.0453973 0.0754309 0.0279881C0.101663 0.0105789 0.132254 0.000881821 0.163725 0Z" fill="#666666"/>
</svg>
