<svg width="18" height="18" viewBox="0 0 18 18" fill="none" xmlns="http://www.w3.org/2000/svg">
<path d="M15.4639 6.67558H12.1064C10.9872 6.67558 10.0833 5.77164 10.0833 4.69551V1.338C10.1263 0.993637 9.82501 0.692322 9.43761 0.692322H4.10002C2.98085 0.692322 2.0769 1.59627 2.0769 2.67239V15.3276C2.0769 16.4468 2.98085 17.3077 4.10002 17.3077H14.1295C15.2487 17.3077 16.1526 16.4038 16.1526 15.3276V7.3643C16.1526 6.9769 15.8513 6.67558 15.4639 6.67558ZM16.0235 3.87765L12.9243 0.821457C12.8382 0.735367 12.7521 0.692322 12.6229 0.692322C12.3647 0.692322 12.1494 0.907547 12.1494 1.16582V3.36111C12.1494 4.09288 12.7521 4.69551 13.4838 4.69551H15.6791C15.9374 4.69551 16.1526 4.48028 16.1526 4.22201C16.1526 4.09288 16.1096 4.00679 16.0235 3.87765Z" fill="#2782ED"/>
</svg>
