<svg width="11" height="8" viewBox="0 0 11 8" fill="none" xmlns="http://www.w3.org/2000/svg">
<path d="M0.504775 0.8396L9.82773 0.8396C9.894 0.841491 9.95831 0.862587 10.0128 0.900324C10.0673 0.938062 10.1097 0.990818 10.1348 1.05218C10.1599 1.11355 10.1667 1.18089 10.1543 1.24602C10.1418 1.31115 10.1108 1.37127 10.0648 1.41907L5.50863 7.0024C5.46909 7.05168 5.41899 7.09144 5.36203 7.11877C5.30507 7.14609 5.2427 7.16027 5.17952 7.16027C5.11634 7.16027 5.05397 7.14609 4.99701 7.11877C4.94005 7.09144 4.88995 7.05168 4.85041 7.0024L0.241144 1.41907C0.19898 1.36787 0.172035 1.30586 0.163373 1.24009C0.154712 1.17433 0.164683 1.10746 0.192151 1.04708C0.219619 0.986702 0.263482 0.935247 0.31875 0.898567C0.374017 0.861888 0.43847 0.841458 0.504775 0.8396Z" fill="#666666"/>
</svg>
