<svg width="20" height="20" viewBox="0 0 20 20" fill="none" xmlns="http://www.w3.org/2000/svg">
<path d="M11.7648 15.8978L6.12257 10.3097C6.04395 10.2297 5.99991 10.122 5.99991 10.0098C5.99991 9.89763 6.04395 9.78995 6.12257 9.70993L11.7648 4.12266C11.8448 4.04405 11.9525 4 12.0646 4C12.1768 4 12.2845 4.04405 12.3645 4.12266L12.9643 4.7224C13.0429 4.80242 13.0869 4.9101 13.0869 5.02228C13.0869 5.13445 13.0429 5.24213 12.9643 5.32215L8.52066 9.70993C8.44204 9.78995 8.398 9.89763 8.398 10.0098C8.398 10.122 8.44204 10.2297 8.52066 10.3097L12.9368 14.6984C13.0154 14.7784 13.0595 14.8861 13.0595 14.9982C13.0595 15.1104 13.0154 15.2181 12.9368 15.2981L12.337 15.8978C12.2563 15.9639 12.1552 16 12.0509 16C11.9466 16 11.8455 15.9639 11.7648 15.8978Z" />
</svg>
