<svg width="14" height="17" viewBox="0 0 14 17" fill="none" xmlns="http://www.w3.org/2000/svg">
<path d="M13.4997 3.42364H9.33347V2.10623C9.33261 1.75709 9.19184 1.42249 8.94195 1.17562C8.69205 0.928736 8.35337 0.789666 7.99996 0.788818H6.00024C5.64684 0.789666 5.30816 0.928736 5.05826 1.17562C4.80836 1.42249 4.66759 1.75709 4.66674 2.10623V3.42364H0.500472C0.368691 3.42663 0.243147 3.47968 0.149939 3.57177C0.0567316 3.66385 0.00303064 3.78788 0 3.91807V4.90586C0.00303064 5.03605 0.0567316 5.16007 0.149939 5.25216C0.243147 5.34424 0.368691 5.39729 0.500472 5.40029H13.4997C13.6315 5.39729 13.7571 5.34424 13.8503 5.25216C13.9435 5.16007 13.9972 5.03605 14.0002 4.90586V3.917C13.9969 3.78699 13.9431 3.66323 13.8499 3.57138C13.7567 3.47952 13.6313 3.42662 13.4997 3.42364ZM6.00024 2.43585C5.99756 2.39187 6.00435 2.34783 6.02016 2.30663C6.03598 2.26544 6.06047 2.22803 6.092 2.19688C6.12354 2.16572 6.1614 2.14153 6.2031 2.12591C6.2448 2.11028 6.28938 2.10357 6.33389 2.10623H7.66632C7.71083 2.10357 7.75541 2.11028 7.79711 2.12591C7.83881 2.14153 7.87667 2.16572 7.90821 2.19688C7.93974 2.22803 7.96423 2.26544 7.98004 2.30663C7.99586 2.34783 8.00265 2.39187 7.99996 2.43585V3.42364H6.00024V2.43585ZM12.1662 6.71662H1.8329C1.70112 6.71962 1.57557 6.77267 1.48236 6.86475C1.38916 6.95684 1.33546 7.08087 1.33242 7.21106V14.9496C1.3304 15.1663 1.37211 15.3813 1.45512 15.5819C1.53813 15.7825 1.66078 15.9647 1.81589 16.118C1.97101 16.2712 2.15548 16.3924 2.35853 16.4744C2.56158 16.5564 2.77914 16.5976 2.9985 16.5956H10.9995C11.2189 16.5976 11.4365 16.5564 11.6395 16.4744C11.8426 16.3924 12.027 16.2712 12.1821 16.118C12.3373 15.9647 12.4599 15.7825 12.5429 15.5819C12.6259 15.3813 12.6676 15.1663 12.6656 14.9496V7.20998C12.6623 7.08016 12.6087 6.95656 12.5157 6.86473C12.4228 6.7729 12.2976 6.71988 12.1662 6.71662ZM6.00024 13.9608C6.00293 14.0047 5.99614 14.0488 5.98032 14.09C5.96451 14.1312 5.94002 14.1686 5.90849 14.1997C5.87695 14.2309 5.83909 14.2551 5.79739 14.2707C5.75569 14.2863 5.71111 14.293 5.6666 14.2904H5.00038C4.95587 14.293 4.91129 14.2863 4.86959 14.2707C4.82789 14.2551 4.79003 14.2309 4.75849 14.1997C4.72696 14.1686 4.70247 14.1312 4.68666 14.09C4.67084 14.0488 4.66405 14.0047 4.66674 13.9608V9.35037C4.66405 9.30639 4.67084 9.26235 4.68666 9.22116C4.70247 9.17997 4.72696 9.14256 4.75849 9.1114C4.79003 9.08025 4.82789 9.05606 4.86959 9.04043C4.91129 9.02481 4.95587 9.0181 5.00038 9.02075H5.6666C5.71111 9.0181 5.75569 9.02481 5.79739 9.04043C5.83909 9.05606 5.87695 9.08025 5.90849 9.1114C5.94002 9.14256 5.96451 9.17997 5.98032 9.22116C5.99614 9.26235 6.00293 9.30639 6.00024 9.35037V13.9608ZM9.33347 13.9608C9.33616 14.0047 9.32937 14.0488 9.31355 14.09C9.29774 14.1312 9.27325 14.1686 9.24172 14.1997C9.21018 14.2309 9.17231 14.2551 9.13062 14.2707C9.08892 14.2863 9.04434 14.293 8.99983 14.2904H8.33253C8.28801 14.293 8.24343 14.2863 8.20174 14.2707C8.16004 14.2551 8.12217 14.2309 8.09064 14.1997C8.0591 14.1686 8.03462 14.1312 8.0188 14.09C8.00298 14.0488 7.99619 14.0047 7.99888 13.9608V9.35037C7.99619 9.30639 8.00298 9.26235 8.0188 9.22116C8.03462 9.17997 8.0591 9.14256 8.09064 9.1114C8.12217 9.08025 8.16004 9.05606 8.20174 9.04043C8.24343 9.02481 8.28801 9.0181 8.33253 9.02075H8.99874C9.04326 9.0181 9.08784 9.02481 9.12953 9.04043C9.17123 9.05606 9.2091 9.08025 9.24063 9.1114C9.27217 9.14256 9.29665 9.17997 9.31247 9.22116C9.32829 9.26235 9.33508 9.30639 9.33239 9.35037L9.33347 13.9608Z" fill="#2782ED"/>
</svg>
