<svg width="16" height="16" viewBox="0 0 16 16" fill="none" xmlns="http://www.w3.org/2000/svg">
<path d="M8.00003 0C6.41778 0 4.87104 0.469185 3.55545 1.34824C2.23986 2.22729 1.21448 3.47673 0.608979 4.93854C0.00347757 6.40035 -0.154964 8.00888 0.153717 9.56073C0.462399 11.1126 1.22435 12.538 2.34317 13.6569C3.46199 14.7757 4.88745 15.5376 6.4393 15.8463C7.99115 16.155 9.59968 15.9965 11.0615 15.391C12.5233 14.7855 13.7727 13.7601 14.6518 12.4445C15.5308 11.129 16 9.58225 16 8C16 5.87827 15.1571 3.84343 13.6568 2.34314C12.1565 0.842849 10.1218 0 8.00003 0ZM7.16403 4.09C7.17457 3.87404 7.26772 3.67041 7.42429 3.5213C7.58085 3.37219 7.78876 3.28903 8.00497 3.28903C8.22118 3.28903 8.42916 3.37219 8.58572 3.5213C8.74229 3.67041 8.83544 3.87404 8.84598 4.09V4.22098C8.70398 5.95098 8.62099 7.668 8.54599 9.681C8.54482 9.74785 8.53048 9.81378 8.50381 9.87509C8.47715 9.9364 8.4387 9.99187 8.39059 10.0383C8.34249 10.0847 8.28569 10.1212 8.22348 10.1457C8.16127 10.1702 8.09483 10.1822 8.02798 10.181C8.01499 10.181 8.00198 10.181 7.98898 10.181C7.92506 10.187 7.86057 10.1804 7.79923 10.1614C7.73788 10.1424 7.68091 10.1115 7.63156 10.0705C7.58221 10.0294 7.54147 9.97894 7.51169 9.92206C7.4819 9.86517 7.46363 9.80295 7.45798 9.73898C7.45697 9.72066 7.45697 9.70231 7.45798 9.68399C7.38698 7.67099 7.30399 5.954 7.15799 4.224L7.16403 4.09ZM8.89401 11.824C8.89749 12.0562 8.80864 12.2802 8.647 12.4469C8.48537 12.6136 8.26418 12.7093 8.03201 12.713H7.99399C7.87939 12.7152 7.76551 12.6949 7.65878 12.6531C7.55206 12.6113 7.45461 12.5488 7.37204 12.4693C7.28947 12.3898 7.2234 12.2948 7.17758 12.1897C7.13176 12.0847 7.10709 11.9716 7.10501 11.857V11.825C7.11277 11.5929 7.21039 11.373 7.37729 11.2115C7.54419 11.0501 7.76729 10.9599 7.99948 10.9599C8.23167 10.9599 8.45477 11.0501 8.62167 11.2115C8.78858 11.373 8.88625 11.5929 8.89401 11.825V11.824Z" fill="#FFA845"/>
</svg>
