<svg width="10" height="10" viewBox="0 0 10 10" fill="none" xmlns="http://www.w3.org/2000/svg">
<path d="M3 9.65556L3 0.332612C3.00189 0.266335 3.02299 0.202032 3.06072 0.147513C3.09846 0.0929956 3.15122 0.0506077 3.21258 0.0254993C3.27395 0.000390041 3.34129 -0.00635912 3.40642 0.00606917C3.47155 0.0184984 3.53167 0.049572 3.57947 0.0955143L9.1628 4.65171C9.21208 4.69125 9.25184 4.74135 9.27917 4.79831C9.30649 4.85527 9.32067 4.91764 9.32067 4.98082C9.32067 5.044 9.30649 5.10637 9.27917 5.16333C9.25184 5.22029 9.21208 5.27039 9.1628 5.30993L3.57947 9.9192C3.52827 9.96136 3.46626 9.9883 3.40049 9.99697C3.33473 10.0056 3.26786 9.99566 3.20748 9.96819C3.1471 9.94072 3.09565 9.89686 3.05897 9.84159C3.02229 9.78632 3.00186 9.72187 3 9.65556Z" fill="#666666"/>
</svg>
