<svg width="16" height="16" viewBox="0 0 16 16" fill="none" xmlns="http://www.w3.org/2000/svg">
<path d="M14.5455 0H1.45455C0.654545 0 0 0.654545 0 1.45455V14.5455C0 15.3455 0.654545 16 1.45455 16H14.5455C15.3455 16 16 15.3455 16 14.5455V1.45455C16 0.654545 15.3455 0 14.5455 0ZM2.90909 3.63636C2.90909 3.41818 3.05455 3.27273 3.27273 3.27273H6.90909C7.12727 3.27273 7.27273 3.41818 7.27273 3.63636V7.27273C7.27273 7.49091 7.12727 7.63636 6.90909 7.63636H3.27273C3.05455 7.63636 2.90909 7.49091 2.90909 7.27273V3.63636ZM11.6364 13.0909C11.6364 13.3091 11.4909 13.4545 11.2727 13.4545H3.27273C3.05455 13.4545 2.90909 13.3091 2.90909 13.0909V12.3636C2.90909 12.1455 3.05455 12 3.27273 12H11.2727C11.4909 12 11.6364 12.1455 11.6364 12.3636V13.0909ZM13.0909 10.1818C13.0909 10.4 12.9455 10.5455 12.7273 10.5455H3.27273C3.05455 10.5455 2.90909 10.4 2.90909 10.1818V9.45455C2.90909 9.23636 3.05455 9.09091 3.27273 9.09091H12.7273C12.9455 9.09091 13.0909 9.23636 13.0909 9.45455V10.1818ZM13.0909 7.27273C13.0909 7.49091 12.9455 7.63636 12.7273 7.63636H9.09091C8.87273 7.63636 8.72727 7.49091 8.72727 7.27273V6.54545C8.72727 6.32727 8.87273 6.18182 9.09091 6.18182H12.7273C12.9455 6.18182 13.0909 6.32727 13.0909 6.54545V7.27273ZM13.0909 4.36364C13.0909 4.58182 12.9455 4.72727 12.7273 4.72727H9.09091C8.87273 4.72727 8.72727 4.58182 8.72727 4.36364V3.63636C8.72727 3.41818 8.87273 3.27273 9.09091 3.27273H12.7273C12.9455 3.27273 13.0909 3.41818 13.0909 3.63636V4.36364Z" fill="white"/>
</svg>
