<svg width="24" height="24" viewBox="0 0 24 24" fill="none" xmlns="http://www.w3.org/2000/svg">
<path d="M8 16.69C8.13137 16.6904 8.2615 16.6646 8.38286 16.6144C8.50422 16.5641 8.61439 16.4902 8.707 16.397L11.536 13.569C11.7044 13.3966 11.804 13.1687 11.816 12.928C11.8252 12.7926 11.8075 12.6566 11.764 12.528V12.512C11.7172 12.3765 11.6403 12.2534 11.539 12.152L8.707 9.33001C8.61475 9.2345 8.50441 9.15832 8.3824 9.10591C8.2604 9.0535 8.12918 9.02591 7.9964 9.02476C7.86362 9.0236 7.73194 9.0489 7.60904 9.09919C7.48615 9.14947 7.3745 9.22372 7.28061 9.31761C7.18671 9.4115 7.11246 9.52316 7.06218 9.64605C7.01189 9.76895 6.98659 9.90063 6.98775 10.0334C6.9889 10.1662 7.01649 10.2974 7.0689 10.4194C7.12131 10.5414 7.19749 10.6518 7.293 10.744L8.415 11.866H3C2.73478 11.866 2.48043 11.9714 2.29289 12.1589C2.10536 12.3464 2 12.6008 2 12.866C2 13.1312 2.10536 13.3856 2.29289 13.5731C2.48043 13.7607 2.73478 13.866 3 13.866H8.415L7.293 14.987C7.206 15.0763 7.13647 15.1811 7.088 15.296C7.0611 15.3689 7.04297 15.4448 7.034 15.522C7.02555 15.555 7.01888 15.5883 7.014 15.622C7.00358 15.8514 7.07088 16.0776 7.205 16.264C7.23034 16.3109 7.25979 16.3554 7.293 16.397C7.3856 16.4902 7.49578 16.5641 7.61714 16.6144C7.7385 16.6646 7.86863 16.6904 8 16.69Z" fill="white"/>
<path d="M20.8439 16.943C20.5549 15.252 18.8229 14.386 17.4209 13.767C16.8019 13.479 15.9359 13.149 15.6889 12.406C15.6157 12.2099 15.5888 11.9996 15.6103 11.7915C15.6318 11.5833 15.7011 11.3829 15.8129 11.206C16.1856 10.8605 16.5175 10.4733 16.8019 10.052C16.8849 9.928 16.9259 9.845 17.0089 9.722C17.4052 9.1038 17.6524 8.40196 17.731 7.67187C17.8096 6.94177 17.7175 6.2034 17.4619 5.515C17.2261 4.7904 16.769 4.15799 16.155 3.70681C15.5409 3.25564 14.8008 3.00843 14.0389 3H13.7919C13.0299 3.00843 12.2898 3.25564 11.6758 3.70681C11.0617 4.15799 10.6046 4.7904 10.3689 5.515C10.1111 6.2045 10.0181 6.94471 10.0972 7.67655C10.1764 8.40839 10.4256 9.11159 10.8249 9.73C10.8783 9.84881 10.9476 9.95982 11.0309 10.06C11.3282 10.4715 11.6594 10.8575 12.0209 11.214L12.0279 11.235L12.2449 11.452C12.6198 11.8271 12.8304 12.3357 12.8304 12.866C12.8304 13.3963 12.6198 13.9049 12.2449 14.28L9.41488 17.104C9.09609 17.4245 8.67759 17.6268 8.22838 17.6775C7.77918 17.7283 7.32611 17.6244 6.94388 17.383C6.92489 17.6836 6.96716 17.985 7.06813 18.2687C7.1691 18.5525 7.32666 18.8128 7.53126 19.0339C7.73586 19.255 7.98324 19.4321 8.25838 19.5547C8.53352 19.6773 8.8307 19.7427 9.13188 19.747H18.8639C19.1896 19.719 19.5053 19.6202 19.7888 19.4576C20.0724 19.2949 20.317 19.0722 20.5056 18.8052C20.6942 18.5382 20.8221 18.2331 20.8806 17.9115C20.939 17.5898 20.9265 17.2593 20.8439 16.943Z" fill="white"/>
</svg>
