<svg width="24" height="24" viewBox="0 0 24 20" fill="none" xmlns="http://www.w3.org/2000/svg">
<path fill-rule="evenodd" clip-rule="evenodd" d="M19.4769 4.4L18.3692 5.50769C18.2462 5.63077 18.0615 5.63077 17.9385 5.50769L16.5231 4.09231C16.4 3.96923 16.2154 3.96923 16.0923 4.09231L14.9846 5.2C14.8615 5.32308 14.6769 5.32308 14.5538 5.2L13.4462 4.09231C13.3231 3.96923 13.1385 3.96923 13.0154 4.09231L11.9077 5.2C11.7846 5.32308 11.6 5.32308 11.4769 5.2L10.3692 4.09231C10.2462 3.96923 10.0615 3.96923 9.93846 4.09231L8.83077 5.2C8.70769 5.32308 8.52308 5.32308 8.4 5.2L7.29231 4.09231C7.16923 3.96923 6.98462 3.96923 6.86154 4.09231L5.75385 5.2C5.63077 5.32308 5.44615 5.32308 5.32308 5.2L4.52308 4.4C4.33846 4.21538 4 4.33846 4 4.61538V7.69231V16.3077V19.3846C4 19.6615 4.33846 19.7846 4.52308 19.6L5.63077 18.4923C5.75385 18.3692 5.93846 18.3692 6.06154 18.4923L7.47692 19.9077C7.6 20.0308 7.78462 20.0308 7.90769 19.9077L9.01538 18.8C9.13846 18.6769 9.32308 18.6769 9.44615 18.8L10.5538 19.9077C10.6769 20.0308 10.8615 20.0308 10.9846 19.9077L12.0923 18.8C12.2154 18.6769 12.4 18.6769 12.5231 18.8L13.6308 19.9077C13.7538 20.0308 13.9385 20.0308 14.0615 19.9077L15.1692 18.8C15.2923 18.6769 15.4769 18.6769 15.6 18.8L16.7077 19.9077C16.8308 20.0308 17.0154 20.0308 17.1385 19.9077L18.2462 18.8C18.3692 18.6769 18.5538 18.6769 18.6769 18.8L19.4769 19.6C19.6615 19.7846 20 19.6615 20 19.3846V16.3077L20 7.69231L20 7.69013V4.61538C20 4.33846 19.6615 4.21538 19.4769 4.4ZM12.5644 15.8476V15.0166L12.5674 15.0176C12.99 14.9486 13.3762 14.7369 13.6617 14.4178C13.9472 14.0986 14.1148 13.6913 14.1364 13.2636C14.1364 12.0936 12.9974 11.5396 11.9824 11.2016C11.1514 10.8936 11.0594 10.7096 11.0594 10.5246C11.0594 10.4016 11.2444 10.2166 11.6444 10.2166C12.062 10.2686 12.462 10.416 12.8134 10.6476C12.8802 10.6823 12.9533 10.7033 13.0284 10.7096C13.1061 10.7025 13.1815 10.6797 13.2503 10.6428C13.319 10.6059 13.3796 10.5555 13.4284 10.4946L13.8594 10.0636C13.8988 10.0237 13.9278 9.97479 13.9438 9.92108C13.9599 9.86737 13.9625 9.81055 13.9514 9.7556C13.928 9.63431 13.8625 9.5252 13.7664 9.4476C13.391 9.22893 12.9872 9.06336 12.5664 8.9556V8.2476C12.5578 8.17427 12.5207 8.10729 12.463 8.06122C12.4053 8.01515 12.3318 7.99372 12.2584 8.0016H11.2734C11.1504 8.0016 11.0884 8.0936 11.0884 8.2476V8.9876C9.85738 9.2336 9.42638 10.0026 9.42638 10.6796C9.42638 11.8176 10.4414 12.3096 11.2724 12.6176C12.1954 12.9256 12.2874 13.1716 12.2874 13.3256C12.2874 13.5096 12.0104 13.6946 11.6724 13.6946C11.2307 13.6647 10.8053 13.5157 10.4414 13.2636H10.4104C10.334 13.225 10.2499 13.2039 10.1644 13.2016C10.0919 13.196 10.0192 13.2102 9.95417 13.2428C9.88915 13.2754 9.83425 13.3251 9.79538 13.3866L9.48738 13.8786C9.33338 14.0946 9.39438 14.2476 9.57938 14.4326C10.0317 14.7442 10.5462 14.954 11.0874 15.0476V15.8476C11.0874 16.0016 11.1184 16.0936 11.2724 16.0936H12.2564C12.3298 16.1015 12.4033 16.0801 12.461 16.034C12.5187 15.9879 12.5558 15.9209 12.5644 15.8476Z" fill="white" fill-opacity="0.8"/>
</svg>
