<svg width="20" height="20" viewBox="0 0 20 20" fill="none" xmlns="http://www.w3.org/2000/svg">
<path fill-rule="evenodd" clip-rule="evenodd" d="M10 20C15.5228 20 20 15.5228 20 10C20 4.47715 15.5228 0 10 0C4.47715 0 0 4.47715 0 10C0 15.5228 4.47715 20 10 20ZM15.9167 8.33333L9.75 14.5C9.58333 14.6667 9.41667 14.8333 9.25 14.8333C9.08333 14.8333 8.91667 14.8333 8.75 14.6667L5.25 11C4.91667 10.6667 4.91667 10.1667 5.25 10L5.75 9.5C5.91667 9.33333 6.08333 9.33333 6.25 9.33333C6.41667 9.33333 6.58333 9.33333 6.75 9.5L9.25 12L14.4167 6.83333C14.5833 6.66667 14.75 6.66667 14.9167 6.66667C15.0833 6.66667 15.25 6.66667 15.4167 6.83333L15.9167 7.33333C16.25 7.5 16.25 8 15.9167 8.33333Z" fill="#999999"/>
</svg>
