<svg width="16" height="16" viewBox="0 0 16 16" fill="none" xmlns="http://www.w3.org/2000/svg">
<path d="M0 2C0 0.895431 0.895431 0 2 0H14C15.1046 0 16 0.895431 16 2V14C16 15.1046 15.1046 16 14 16H2C0.895431 16 0 15.1046 0 14V2Z" fill="#FF0000"/>
<path d="M4.25247 10.5C4.29747 10.5 4.32747 10.47 4.32747 10.425V8.65502C4.32747 8.62502 4.34247 8.61002 4.37247 8.61002H4.61997C5.52747 8.61002 6.11997 8.16002 6.11997 7.00502C6.11997 5.84252 5.54997 5.40002 4.61997 5.40002H3.41997C3.37497 5.40002 3.34497 5.43002 3.34497 5.47502V10.425C3.34497 10.47 3.37497 10.5 3.41997 10.5H4.25247ZM4.58997 7.74752H4.37247C4.34247 7.74752 4.32747 7.73252 4.32747 7.70252V6.30752C4.32747 6.27752 4.34247 6.26252 4.37247 6.26252H4.58997C4.97247 6.26252 5.13747 6.42752 5.13747 7.00502C5.13747 7.58252 4.97247 7.74752 4.58997 7.74752Z" fill="white"/>
<path d="M6.67017 10.425C6.67017 10.47 6.70017 10.5 6.74517 10.5H8.03517C8.74017 10.5 9.15267 10.23 9.34017 9.65252C9.43017 9.36752 9.47517 9.02252 9.47517 7.95002C9.47517 6.87752 9.43017 6.53252 9.34017 6.24752C9.15267 5.67002 8.74017 5.40002 8.03517 5.40002H6.74517C6.70017 5.40002 6.67017 5.43002 6.67017 5.47502V10.425ZM7.65267 9.57002V6.33002C7.65267 6.30002 7.66767 6.28502 7.69767 6.28502H7.93767C8.18517 6.28502 8.32017 6.37502 8.39517 6.60002C8.45517 6.75752 8.47767 6.97502 8.47767 7.95002C8.47767 8.92502 8.45517 9.14252 8.39517 9.30002C8.32017 9.52502 8.18517 9.61502 7.93767 9.61502H7.69767C7.66767 9.61502 7.65267 9.60002 7.65267 9.57002Z" fill="white"/>
<path d="M10.0906 10.425C10.0906 10.47 10.1206 10.5 10.1656 10.5H10.9981C11.0431 10.5 11.0731 10.47 11.0731 10.425V8.46752C11.0731 8.43752 11.0881 8.42252 11.1181 8.42252H12.2206C12.2656 8.42252 12.2956 8.39252 12.2956 8.34752V7.60502C12.2956 7.56002 12.2656 7.53002 12.2206 7.53002H11.1181C11.0881 7.53002 11.0731 7.51502 11.0731 7.48502V6.33002C11.0731 6.30002 11.0881 6.28502 11.1181 6.28502H12.3931C12.4381 6.28502 12.4681 6.25502 12.4681 6.21002V5.47502C12.4681 5.43002 12.4381 5.40002 12.3931 5.40002H10.1656C10.1206 5.40002 10.0906 5.43002 10.0906 5.47502V10.425Z" fill="white"/>
</svg>
