<svg width="31" height="30" viewBox="0 0 31 30" fill="none" xmlns="http://www.w3.org/2000/svg">
<path d="M16.8427 16.007H22.3811C22.6497 16.007 22.8846 15.772 22.8846 15.5035V14.4965C22.8846 14.2279 22.6497 13.993 22.3811 13.993H16.8427C16.6413 13.993 16.507 13.8587 16.507 13.6573V8.11885C16.507 7.85032 16.272 7.61536 16.0035 7.61536H14.9965C14.728 7.61536 14.493 7.85032 14.493 8.11885V13.6573C14.493 13.8587 14.3587 13.993 14.1573 13.993H8.61888C8.35035 13.993 8.11539 14.2279 8.11539 14.4965V15.5035C8.11539 15.772 8.35035 16.007 8.61888 16.007H14.1573C14.3587 16.007 14.493 16.1412 14.493 16.3426V21.8811C14.493 22.1496 14.728 22.3846 14.9965 22.3846H16.0035C16.272 22.3846 16.507 22.1496 16.507 21.8811V16.3426C16.507 16.1412 16.6413 16.007 16.8427 16.007Z" fill="white"/>
</svg>
