<svg width="120" height="120" viewBox="0 0 120 120" fill="none" xmlns="http://www.w3.org/2000/svg">
<circle cx="60" cy="60" r="60" fill="#0090B9"/>
<path fill-rule="evenodd" clip-rule="evenodd" d="M79.9034 34.4519L83.3649 31.1811C83.9418 30.636 84.9995 30.9994 84.9995 31.8171V53.6296L84.9996 53.6582V63.5911C84.7633 63.5782 84.5254 63.5716 84.2859 63.5716C79.527 63.5716 75.372 66.1571 73.1489 70H46.4284C45.6395 70 44.9999 70.6396 44.9999 71.4285C44.9999 72.2175 45.6395 72.8571 46.4284 72.8571H71.9313C71.6041 73.9911 71.4287 75.1894 71.4287 76.4287C71.4287 81.313 74.1523 85.5611 78.1635 87.7374L76.0574 89.7274C75.6728 90.0908 75.0959 90.0908 74.7113 89.7274L71.2498 86.4566C70.8652 86.0932 70.2882 86.0932 69.9036 86.4566L66.4421 89.7274C66.0575 90.0908 65.4806 90.0908 65.096 89.7274L61.6345 86.4566C61.2499 86.0932 60.6729 86.0932 60.2883 86.4566L56.8268 89.7274C56.4422 90.0908 55.8653 90.0908 55.4807 89.7274L52.0192 86.4566C51.6346 86.0932 51.0576 86.0932 50.673 86.4566L47.2115 89.7274C46.8269 90.0908 46.25 90.0908 45.8654 89.7274L41.4424 85.5481C41.0577 85.1846 40.4808 85.1846 40.0962 85.5481L36.6347 88.8188C36.0578 89.3639 35.0001 89.0005 35.0001 88.1828L35.0001 66.3702L35 66.3417V31.8171C35 30.9994 36.0577 30.636 36.6346 31.1811L39.1346 33.5433C39.5192 33.9067 40.0961 33.9067 40.4807 33.5433L43.9422 30.2726C44.3268 29.9091 44.9037 29.9091 45.2884 30.2726L48.7499 33.5433C49.1345 33.9067 49.7114 33.9067 50.096 33.5433L53.5575 30.2726C53.9421 29.9091 54.519 29.9091 54.9037 30.2726L58.3652 33.5433C58.7498 33.9067 59.3267 33.9067 59.7113 33.5433L63.1728 30.2726C63.5574 29.9091 64.1343 29.9091 64.5189 30.2726L67.9804 33.5433C68.3651 33.9067 68.942 33.9067 69.3266 33.5433L72.7881 30.2726C73.1727 29.9091 73.7496 29.9091 74.1342 30.2726L78.5573 34.4519C78.9419 34.8153 79.5188 34.8153 79.9034 34.4519ZM44.9999 58.9289C44.9999 58.1399 45.6395 57.5003 46.4284 57.5003H73.5712C74.3602 57.5003 74.9998 58.1399 74.9998 58.9289C74.9998 59.7179 74.3602 60.3575 73.5712 60.3575H46.4284C45.6395 60.3575 44.9999 59.7179 44.9999 58.9289ZM46.4284 45.0001C45.6394 45.0001 44.9998 45.6397 44.9998 46.4287C44.9998 47.2177 45.6394 47.8573 46.4284 47.8573H73.5712C74.3601 47.8573 74.9997 47.2177 74.9997 46.4287C74.9997 45.6397 74.3601 45.0001 73.5712 45.0001H46.4284Z" fill="white"/>
<path fill-rule="evenodd" clip-rule="evenodd" d="M84.2858 87.1431C90.2031 87.1431 95.0001 82.3461 95.0001 76.4288C95.0001 70.5115 90.2031 65.7145 84.2858 65.7145C78.3685 65.7145 73.5715 70.5115 73.5715 76.4288C73.5715 82.3461 78.3685 87.1431 84.2858 87.1431ZM85.0062 71.2195L85.0171 75.5003C85.0164 75.5306 85.0218 75.5607 85.033 75.5888C85.0443 75.6169 85.0611 75.6425 85.0826 75.6639C85.104 75.6853 85.1295 75.7022 85.1576 75.7134C85.1858 75.7247 85.2159 75.7301 85.2462 75.7294L89.5251 75.7409C89.5707 75.7396 89.616 75.7477 89.6583 75.7645C89.7007 75.7814 89.7391 75.8067 89.7713 75.8389C89.8035 75.8711 89.8288 75.9096 89.8457 75.9519C89.8625 75.9942 89.8706 76.0395 89.8693 76.0851L89.8687 76.7741C89.8697 76.8196 89.8615 76.8649 89.8445 76.9072C89.8275 76.9495 89.8021 76.9879 89.7699 77.0201C89.7377 77.0523 89.6993 77.0777 89.657 77.0947C89.6147 77.1116 89.5695 77.1199 89.5239 77.1189L85.228 77.1244C85.1976 77.1237 85.1675 77.1291 85.1393 77.1404C85.1111 77.1517 85.0855 77.1686 85.064 77.1901C85.0426 77.2115 85.0257 77.2371 85.0144 77.2653C85.0031 77.2935 84.9976 77.3237 84.9983 77.354L84.9892 81.6488C84.9902 81.6943 84.9819 81.7396 84.965 81.7819C84.948 81.8241 84.9226 81.8625 84.8904 81.8947C84.8582 81.927 84.8198 81.9523 84.7775 81.9693C84.7352 81.9863 84.69 81.9945 84.6444 81.9936L83.9554 81.9942C83.9098 81.9954 83.8645 81.9874 83.8222 81.9705C83.7799 81.9537 83.7414 81.9284 83.7092 81.8962C83.677 81.8639 83.6517 81.8255 83.6348 81.7832C83.618 81.7408 83.6099 81.6955 83.6112 81.65L83.6209 77.3231C83.6216 77.2929 83.6162 77.2627 83.6049 77.2346C83.5937 77.2065 83.5769 77.1809 83.5554 77.1595C83.534 77.1381 83.5085 77.1212 83.4803 77.11C83.4522 77.0987 83.4221 77.0933 83.3918 77.0941L79.0947 77.0995C79.0491 77.1008 79.0038 77.0927 78.9615 77.0759C78.9192 77.059 78.8807 77.0337 78.8485 77.0015C78.8163 76.9693 78.791 76.9308 78.7741 76.8885C78.7573 76.8462 78.7492 76.8009 78.7505 76.7553L78.7511 76.0663C78.7501 76.0207 78.7584 75.9755 78.7753 75.9332C78.7923 75.8909 78.8177 75.8525 78.8499 75.8203C78.8821 75.7881 78.9205 75.7627 78.9628 75.7457C79.0051 75.7288 79.0503 75.7205 79.0959 75.7215L83.4094 75.7324C83.4397 75.7331 83.4699 75.7276 83.4981 75.7163C83.5263 75.705 83.5519 75.6882 83.5734 75.6667C83.5948 75.6452 83.6117 75.6196 83.623 75.5914C83.6343 75.5632 83.6398 75.5331 83.6391 75.5027L83.6463 71.2038C83.6454 71.1582 83.6536 71.1129 83.6706 71.0707C83.6876 71.0284 83.7129 70.99 83.7452 70.9578C83.7774 70.9256 83.8158 70.9002 83.858 70.8832C83.9003 70.8662 83.9456 70.858 83.9911 70.8589L84.662 70.8753C84.7075 70.874 84.7529 70.8821 84.7952 70.8989C84.8375 70.9158 84.876 70.9411 84.9082 70.9733C84.9404 71.0055 84.9657 71.044 84.9826 71.0863C84.9994 71.1286 85.0075 71.174 85.0062 71.2195Z" fill="white"/>
</svg>
