<svg width="5" height="8" viewBox="0 0 5 8" fill="none" xmlns="http://www.w3.org/2000/svg">
<path d="M0.163481 5H4.58846C4.61992 5.0009 4.65044 5.01091 4.67631 5.02882C4.70219 5.04673 4.72231 5.07177 4.73423 5.1009C4.74614 5.13003 4.74935 5.16199 4.74345 5.1929C4.73755 5.22381 4.7228 5.25235 4.70099 5.27504L2.53847 7.92507C2.51971 7.94846 2.49593 7.96733 2.46889 7.9803C2.44186 7.99327 2.41225 8 2.38227 8C2.35228 8 2.32268 7.99327 2.29564 7.9803C2.26861 7.96733 2.24483 7.94846 2.22606 7.92507L0.0383527 5.27504C0.0183402 5.25073 0.00555101 5.2213 0.00144009 5.19009C-0.00267083 5.15887 0.00206158 5.12713 0.0150989 5.09848C0.0281363 5.06982 0.0489551 5.0454 0.0751868 5.02799C0.101419 5.01058 0.13201 5.00088 0.163481 5Z" fill="#666666"/>
<path d="M4.58286 3L0.157878 3C0.12642 2.9991 0.0959001 2.98909 0.070024 2.97118C0.044148 2.95327 0.0240293 2.92823 0.0121121 2.8991C0.000194561 2.86997 -0.00300931 2.83801 0.00289013 2.8071C0.00878956 2.77619 0.0235377 2.74765 0.0453439 2.72496L2.20786 0.0749307C2.22663 0.0515444 2.25041 0.0326705 2.27745 0.0197017C2.30448 0.00673273 2.33409 -2.10886e-07 2.36407 -2.08264e-07C2.39406 -2.05643e-07 2.42366 0.00673274 2.4507 0.0197018C2.47773 0.0326705 2.50151 0.0515445 2.52028 0.0749307L4.70799 2.72496C4.728 2.74927 4.74079 2.7787 4.7449 2.80991C4.74901 2.84113 4.74428 2.87287 4.73124 2.90152C4.7182 2.93018 4.69738 2.9546 4.67115 2.97201C4.64492 2.98942 4.61433 2.99912 4.58286 3Z" fill="#666666"/>
</svg>
