<svg width="14" height="14" viewBox="0 0 14 14" fill="none" xmlns="http://www.w3.org/2000/svg">
<path d="M12.7123 2.33364H9.06681V1.16682C9.06606 0.85759 8.94289 0.561241 8.72423 0.342583C8.50557 0.123924 8.20922 0.000750863 7.89999 0H6.15024C5.84101 0.000750863 5.54466 0.123924 5.326 0.342583C5.10734 0.561241 4.98417 0.85759 4.98342 1.16682V2.33364H1.33794C1.22263 2.33629 1.11278 2.38328 1.03122 2.46484C0.949665 2.54639 0.902676 2.65624 0.900024 2.77155V3.64643C0.902676 3.76174 0.949665 3.87159 1.03122 3.95315C1.11278 4.0347 1.22263 4.08169 1.33794 4.08434H12.7123C12.8276 4.08169 12.9375 4.0347 13.019 3.95315C13.1006 3.87159 13.1476 3.76174 13.1502 3.64643V2.7706C13.1473 2.65546 13.1002 2.54585 13.0187 2.46449C12.9372 2.38314 12.8274 2.33628 12.7123 2.33364ZM6.15024 1.45876C6.14789 1.41981 6.15383 1.3808 6.16767 1.34432C6.18151 1.30783 6.20293 1.2747 6.23053 1.24711C6.25812 1.21951 6.29125 1.19809 6.32774 1.18425C6.36422 1.17041 6.40323 1.16447 6.44218 1.16682H7.60805C7.647 1.16447 7.68601 1.17041 7.7225 1.18425C7.75898 1.19809 7.79211 1.21951 7.81971 1.24711C7.8473 1.2747 7.86872 1.30783 7.88256 1.34432C7.8964 1.3808 7.90234 1.41981 7.89999 1.45876V2.33364H6.15024V1.45876ZM11.5455 5.25021H2.50381C2.3885 5.25287 2.27865 5.29985 2.19709 5.38141C2.11554 5.46297 2.06855 5.57282 2.0659 5.68813V12.5421C2.06412 12.7341 2.10062 12.9244 2.17326 13.1021C2.24589 13.2798 2.35321 13.4412 2.48893 13.5769C2.62466 13.7126 2.78607 13.8199 2.96374 13.8926C3.14141 13.9652 3.33177 14.0017 3.52371 13.9999H10.5246C10.7166 14.0017 10.9069 13.9652 11.0846 13.8926C11.2623 13.8199 11.4237 13.7126 11.5594 13.5769C11.6951 13.4412 11.8024 13.2798 11.8751 13.1021C11.9477 12.9244 11.9842 12.7341 11.9824 12.5421V5.68718C11.9796 5.5722 11.9326 5.46272 11.8513 5.38139C11.7699 5.30006 11.6605 5.2531 11.5455 5.25021ZM6.15024 11.6663C6.15259 11.7053 6.14665 11.7443 6.13281 11.7807C6.11897 11.8172 6.09754 11.8504 6.06995 11.878C6.04236 11.9055 6.00922 11.927 5.97274 11.9408C5.93625 11.9546 5.89725 11.9606 5.8583 11.9582H5.27536C5.23641 11.9606 5.1974 11.9546 5.16092 11.9408C5.12443 11.927 5.0913 11.9055 5.06371 11.878C5.03611 11.8504 5.01469 11.8172 5.00085 11.7807C4.98701 11.7443 4.98107 11.7053 4.98342 11.6663V7.5829C4.98107 7.54395 4.98701 7.50495 5.00085 7.46846C5.01469 7.43198 5.03611 7.39884 5.06371 7.37125C5.0913 7.34366 5.12443 7.32223 5.16092 7.30839C5.1974 7.29455 5.23641 7.28861 5.27536 7.29096H5.8583C5.89725 7.28861 5.93625 7.29455 5.97274 7.30839C6.00922 7.32223 6.04236 7.34366 6.06995 7.37125C6.09754 7.39884 6.11897 7.43198 6.13281 7.46846C6.14665 7.50495 6.15259 7.54395 6.15024 7.5829V11.6663ZM9.06681 11.6663C9.06916 11.7053 9.06322 11.7443 9.04938 11.7807C9.03554 11.8172 9.01412 11.8504 8.98653 11.878C8.95893 11.9055 8.9258 11.927 8.88931 11.9408C8.85283 11.9546 8.81382 11.9606 8.77487 11.9582H8.19099C8.15204 11.9606 8.11303 11.9546 8.07654 11.9408C8.04006 11.927 8.00693 11.9055 7.97933 11.878C7.95174 11.8504 7.93032 11.8172 7.91648 11.7807C7.90264 11.7443 7.89669 11.7053 7.89904 11.6663V7.5829C7.89669 7.54395 7.90264 7.50495 7.91648 7.46846C7.93032 7.43198 7.95174 7.39884 7.97933 7.37125C8.00693 7.34366 8.04006 7.32223 8.07654 7.30839C8.11303 7.29455 8.15204 7.28861 8.19099 7.29096H8.77392C8.81287 7.28861 8.85188 7.29455 8.88837 7.30839C8.92485 7.32223 8.95798 7.34366 8.98558 7.37125C9.01317 7.39884 9.03459 7.43198 9.04844 7.46846C9.06227 7.50495 9.06822 7.54395 9.06587 7.5829L9.06681 11.6663Z" fill="white"/>
</svg>