<svg width="37" height="36" viewBox="0 0 37 36" fill="none" xmlns="http://www.w3.org/2000/svg">
  <path fill-rule="evenodd" clip-rule="evenodd" d="M34.0769 21.4961H32C31.4461 21.4961 30.9615 22.0499 30.9615 22.5345V29.4576C30.9615 30.0114 30.4769 30.4961 29.9231 30.4961H7.07692C6.52307 30.4961 6.03846 30.0114 6.03846 29.4576V22.5345C6.03846 22.0499 5.55384 21.4961 5 21.4961H2.92307C2.36923 21.4961 1.88461 22.0499 1.88461 22.5345V31.8807C1.88461 33.4038 3.13077 34.6499 4.65384 34.6499H32.3461C33.8692 34.6499 35.1154 33.4038 35.1154 31.8807V22.5345C35.1154 22.0499 34.6308 21.4961 34.0769 21.4961ZM19.1923 1.69606C18.7769 1.28068 18.1538 1.28068 17.7385 1.69606L8.39231 11.0422C7.97692 11.4576 7.97692 12.0807 8.39231 12.4961L9.84615 13.9499C10.2615 14.3653 10.8846 14.3653 11.3 13.9499L15.1769 10.073C15.5923 9.6576 16.4231 9.93452 16.4231 10.5576V25.2345C16.4231 25.7884 16.8385 26.273 17.3923 26.273H19.4692C20.0231 26.273 20.5769 25.7191 20.5769 25.2345V10.6268C20.5769 10.0038 21.2692 9.72683 21.7538 10.1422L25.6308 14.0191C26.0462 14.4345 26.6692 14.4345 27.0846 14.0191L28.5385 12.5653C28.9538 12.1499 28.9538 11.5268 28.5385 11.1114L19.1923 1.69606Z" fill="#2782ED"/>
</svg>
