<svg xmlns="http://www.w3.org/2000/svg" viewBox="0 0 14.765 12.313">
  <defs>
    <style>
      .cls-1 {
        fill: #074b69;
      }
    </style>
  </defs>
  <g id="icons_utility_apex-copy" data-name="icons/utility/apex-copy" transform="translate(-0.615 -0.846)">
    <path id="Mask" class="cls-1" d="M14.918,11.312H6.61a.473.473,0,0,0-.462.462V12.7a.473.473,0,0,0,.462.462h8.308a.473.473,0,0,0,.462-.462v-.923A.473.473,0,0,0,14.918,11.312ZM7.81,5.712,1.841.942a.418.418,0,0,0-.615.092L.7,1.773a.477.477,0,0,0,.092.646L5.041,5.8a.32.32,0,0,1,0,.492L.795,9.681a.482.482,0,0,0-.092.646l.523.8a.418.418,0,0,0,.615.092L7.81,6.45a.462.462,0,0,0,0-.738Z"/>
  </g>
</svg>
