<svg xmlns="http://www.w3.org/2000/svg" viewBox="0 0 14.785 14.754">
  <defs>
    <style>
      .cls-1 {
        fill: #074b69;
      }
    </style>
  </defs>
  <g id="icons_utility_attach" data-name="icons/utility/attach" transform="translate(-0.615 -0.615)">
    <path id="Mask" class="cls-1" d="M5.423,11.269a.475.475,0,0,0,.646,0L9.146,8.192a.621.621,0,0,1,.862,0,.641.641,0,0,1,0,.923L6.223,12.838a2.173,2.173,0,0,1-3.046,0l-.031-.031a2.173,2.173,0,0,1,0-3.046L9.823,3.085a2.173,2.173,0,0,1,3.046,0l.031.031a2.173,2.173,0,0,1,0,3.046l-.031.031a.424.424,0,0,0-.062.554,4.635,4.635,0,0,1,.431,1.077.315.315,0,0,0,.523.154c.246-.246.462-.492.462-.492a4.03,4.03,0,0,0,0-5.692h-.062a4.03,4.03,0,0,0-5.692,0L1.792,8.438a4.03,4.03,0,0,0,0,5.692l.062.062a3.993,3.993,0,0,0,5.662,0l3.815-3.785a2.5,2.5,0,1,0-3.6-3.477L4.715,9.946a.483.483,0,0,0,0,.677l.708.646Z"/>
  </g>
</svg>
