<svg xmlns="http://www.w3.org/2000/svg" viewBox="0 0 14.754 11.723">
  <defs>
    <style>
      .cls-1 {
        fill: #074b69;
      }
    </style>
  </defs>
  <g id="icons_utility_back-copy" data-name="icons/utility/back-copy" transform="translate(-0.615 -0.846)">
    <path id="Mask" class="cls-1" d="M14.938,5.785H4.723a.308.308,0,0,1-.215-.523L7.462,2.308a.446.446,0,0,0,0-.646L6.785.985a.446.446,0,0,0-.646,0L.754,6.4a.446.446,0,0,0,0,.646l5.385,5.385a.446.446,0,0,0,.646,0l.646-.646a.446.446,0,0,0,0-.646L4.477,8.185a.327.327,0,0,1,.215-.554H14.908a.447.447,0,0,0,.462-.431V6.277a.476.476,0,0,0-.431-.492Z"/>
  </g>
</svg>
