<svg xmlns="http://www.w3.org/2000/svg" viewBox="0 0 8.923 11.385">
  <defs>
    <style>
      .cls-1 {
        fill: #074b69;
      }
    </style>
  </defs>
  <g id="icons_utility_bold" data-name="icons/utility/bold" transform="translate(-0.692 -0.461)">
    <path id="Mask" class="cls-1" d="M9.615,3.846A3.345,3.345,0,0,0,6.385.462H1.308a.617.617,0,0,0-.615.615V11.231a.617.617,0,0,0,.615.615H6.385A3.345,3.345,0,0,0,9.615,8.462a3.425,3.425,0,0,0-.892-2.308A3.425,3.425,0,0,0,9.615,3.846ZM6.385,9.692H2.846V7.231H6.385a1.238,1.238,0,0,1,0,2.462Zm0-4.615H2.846V2.615H6.385A1.216,1.216,0,0,1,7.492,3.846,1.216,1.216,0,0,1,6.385,5.077Z"/>
  </g>
</svg>
