<svg xmlns="http://www.w3.org/2000/svg" viewBox="0 0 14.738 14.18">
  <defs>
    <style>
      .cls-1 {
        fill: #074b69;
      }
    </style>
  </defs>
  <g id="icons_utility_broadcast" data-name="icons/utility/broadcast" transform="translate(-0.615 -0.615)">
    <path id="Combined-Shape" class="cls-1" d="M.615,5.562A6.683,6.683,0,0,0,2.585,10.3a.651.651,0,0,0,.954,0,.687.687,0,0,0,0-.985,5.349,5.349,0,0,1,0-7.508.687.687,0,0,0,0-.985.651.651,0,0,0-.954,0A6.683,6.683,0,0,0,.615,5.562ZM4.523,8.331a3.937,3.937,0,0,1,0-5.538.7.7,0,0,1,.985.985,2.465,2.465,0,0,0-.738,1.785,2.539,2.539,0,0,0,.738,1.785.7.7,0,1,1-.985.985ZM13.385.823h0a6.686,6.686,0,0,1,0,9.477.7.7,0,0,1-.985-.985,5.21,5.21,0,0,0,1.569-3.754A5.336,5.336,0,0,0,12.4,1.808a.7.7,0,0,1,.985-.985Zm-.8,4.738h-.031a3.885,3.885,0,0,1-1.138,2.769.651.651,0,0,1-.954,0,.687.687,0,0,1,0-.985A2.539,2.539,0,0,0,11.2,5.562a2.6,2.6,0,0,0-.738-1.785.687.687,0,0,1,0-.985.651.651,0,0,1,.954,0A4.048,4.048,0,0,1,12.585,5.562ZM7.292,7.223a1.809,1.809,0,0,1,.677-3.477A1.812,1.812,0,0,1,9.785,5.531,1.791,1.791,0,0,1,8.677,7.192v7.262a.348.348,0,0,1-.369.338H7.631a.341.341,0,0,1-.338-.338V7.223Z"/>
  </g>
</svg>
