<svg xmlns="http://www.w3.org/2000/svg" viewBox="0 0 14.791 14.771">
  <defs>
    <style>
      .cls-1 {
        fill: #074b69;
      }
    </style>
  </defs>
  <g id="icons_utility_brush" data-name="icons/utility/brush" transform="translate(-0.615 -0.615)">
    <path id="Mask" class="cls-1" d="M15.21.817C14.164-.26,8.318,3.063,4.749,8.786a.517.517,0,0,0,.215.738A3.549,3.549,0,0,1,6.749,11.4a.479.479,0,0,0,.738.215c5.538-3.662,8.769-9.723,7.723-10.8Zm-11.538,10a1.758,1.758,0,0,0-1.2.554H2.441c-.154,0-.308.246-.431.462A27.624,27.624,0,0,1,.687,14.725a.336.336,0,0,0,.123.523A5.153,5.153,0,0,0,4.657,14.6v.031c.308-.062.215-.185.308-.185A2.971,2.971,0,0,0,5.58,12.94,2.051,2.051,0,0,0,3.672,10.817Z"/>
  </g>
</svg>
