<svg xmlns="http://www.w3.org/2000/svg" viewBox="0 0 14.77 14.77">
  <defs>
    <style>
      .cls-1 {
        fill: #074b69;
      }
    </style>
  </defs>
  <g id="icons_utility_bucket" data-name="icons/utility/bucket" transform="translate(-0.615 -0.615)">
    <path id="Mask" class="cls-1" d="M15.385,3.385c0-1.908-3.015-2.769-5.846-2.769s-5.846.862-5.846,2.769v.123C1.046,4.308.615,6,.615,6.954A3.424,3.424,0,0,0,1.877,9.508a4.081,4.081,0,0,0,2.431.954h.246c2-.062,3.969-.708,4.523-1.815a1.229,1.229,0,1,1,2-.954,1.207,1.207,0,0,1-.769,1.138c-.615,1.723-3.077,2.862-6,2.862v1.846c0,1.015,2.338,1.846,5.231,1.846s5.231-.831,5.231-1.846V4.708A1.74,1.74,0,0,0,15.385,3.385ZM9.538,2.462a7.373,7.373,0,0,1,3.815.8.144.144,0,0,1,0,.246,7.373,7.373,0,0,1-3.815.8,7.373,7.373,0,0,1-3.815-.8.144.144,0,0,1,0-.246A7.373,7.373,0,0,1,9.538,2.462ZM2.677,8.554a2.121,2.121,0,0,1-.831-1.6c0-1.385,1.262-2.031,2.369-2.308l.092.092V9.231a2.749,2.749,0,0,1-1.631-.677Z"/>
  </g>
</svg>
