<svg id="icons_utility_call-copy" data-name="icons/utility/call-copy" xmlns="http://www.w3.org/2000/svg" viewBox="0 0 16 16">
  <defs>
    <style>
      .cls-1, .cls-2 {
        fill: #074b69;
      }

      .cls-2 {
        fill-rule: evenodd;
      }
    </style>
  </defs>
  <path id="Mask" class="cls-1" d="M14.985,11.652l-1.877-1.508a1.2,1.2,0,0,0-1.477-.031l-1.6,1.169a.48.48,0,0,1-.646-.062l-2.4-2.154-2.154-2.4a.512.512,0,0,1-.062-.646l1.169-1.6a1.2,1.2,0,0,0-.031-1.477L4.4,1.067A1.223,1.223,0,0,0,2.585.975l-1.6,1.6A1.3,1.3,0,0,0,.615,3.5a12.687,12.687,0,0,0,3.662,8.215,12.687,12.687,0,0,0,8.215,3.662,1.185,1.185,0,0,0,.923-.369l1.6-1.6a1.1,1.1,0,0,0-.031-1.754Z"/>
  <g id="_-icn-color" data-name="↳-icn-color">
    <path id="color" class="cls-2" d="M0,0H16V16H0Z"/>
  </g>
</svg>
