<svg xmlns="http://www.w3.org/2000/svg" viewBox="0 0 13.539 12.924">
  <defs>
    <style>
      .cls-1 {
        fill: #074b69;
      }
    </style>
  </defs>
  <g id="icons_utility_center_align_text" data-name="icons/utility/center_align_text" transform="translate(-0.23 -0.846)">
    <path id="Mask" class="cls-1" d="M13.769,1.308a.473.473,0,0,0-.462-.462H.692a.473.473,0,0,0-.462.462v.923a.473.473,0,0,0,.462.462H13.308a.473.473,0,0,0,.462-.462ZM11.923,5a.473.473,0,0,0-.462-.462H2.538A.473.473,0,0,0,2.077,5v.923a.473.473,0,0,0,.462.462h8.923a.473.473,0,0,0,.462-.462Zm-.615,7.385a.473.473,0,0,0-.462-.462H3.154a.473.473,0,0,0-.462.462v.923a.473.473,0,0,0,.462.462h7.692a.473.473,0,0,0,.462-.462Zm2.462-3.692a.473.473,0,0,0-.462-.462H.692a.473.473,0,0,0-.462.462v.923a.473.473,0,0,0,.462.462H13.308a.473.473,0,0,0,.462-.462Z"/>
  </g>
</svg>
