<svg xmlns="http://www.w3.org/2000/svg" viewBox="0 0 13.738 14.732">
  <defs>
    <style>
      .cls-1 {
        fill: #074b69;
      }
    </style>
  </defs>
  <g id="icons_utility_chart" data-name="icons/utility/chart" transform="translate(-0.23 -0.615)">
    <path id="Mask" class="cls-1" d="M13.009,7.154,6.7,10.631a.632.632,0,0,1-.923-.554V2.538a.472.472,0,0,0-.585-.462,6.751,6.751,0,1,0,8.492,5.385.457.457,0,0,0-.677-.308ZM7.533,8.569l6.062-3.231a.693.693,0,0,0,.246-1.015,9.3,9.3,0,0,0-6-3.692.692.692,0,0,0-.831.677V8.261a.349.349,0,0,0,.523.308Z"/>
  </g>
</svg>
