<svg xmlns="http://www.w3.org/2000/svg" viewBox="0 0 14.759 13.57">
  <defs>
    <style>
      .cls-1 {
        fill: #074b69;
      }
    </style>
  </defs>
  <g id="icons_utility_chat" data-name="icons/utility/chat" transform="translate(-0.615 -0.23)">
    <path id="Mask" class="cls-1" d="M7.989.231C3.9.231.635,3.246.635,6.969a6.647,6.647,0,0,0,.892,3.262.62.62,0,0,1,.062.523L.635,13.369a.319.319,0,0,0,.4.4l2.646-1.015a.645.645,0,0,1,.523.062,7.934,7.934,0,0,0,3.846.985c4.031-.031,7.323-3.015,7.323-6.769A7.121,7.121,0,0,0,7.989.231Zm-3.692,8A1.231,1.231,0,1,1,5.528,7,1.234,1.234,0,0,1,4.3,8.231Zm3.692,0A1.231,1.231,0,1,1,9.22,7,1.234,1.234,0,0,1,7.989,8.231Zm3.692,0A1.231,1.231,0,1,1,12.912,7,1.234,1.234,0,0,1,11.681,8.231Z"/>
  </g>
</svg>
