<svg xmlns="http://www.w3.org/2000/svg" viewBox="0 0 14.797 12.291">
  <defs>
    <style>
      .cls-1 {
        fill: #074b69;
      }
    </style>
  </defs>
  <g id="icons_utility_comments" data-name="icons/utility/comments" transform="translate(-0.615 -0.846)">
    <path id="Mask" class="cls-1" d="M14.721,8.508a.515.515,0,0,1,.031-.369A4.794,4.794,0,0,0,15.4,5.769,5.089,5.089,0,0,0,10.168.846,5.343,5.343,0,0,0,6.66,2.138a6.269,6.269,0,0,1,5.662,6.092,5.761,5.761,0,0,1-.431,2.185,9.508,9.508,0,0,0,.985-.431.4.4,0,0,1,.369-.031l1.877.738a.212.212,0,0,0,.277-.277l-.677-1.908ZM5.86,3.308A5.089,5.089,0,0,0,.629,8.231,4.794,4.794,0,0,0,1.275,10.6a.4.4,0,0,1,.031.369L.629,12.846a.212.212,0,0,0,.277.277l1.877-.738a.515.515,0,0,1,.369.031,5.384,5.384,0,0,0,2.708.708A5.089,5.089,0,0,0,11.091,8.2,5.084,5.084,0,0,0,5.86,3.308Z"/>
  </g>
</svg>
