<svg xmlns="http://www.w3.org/2000/svg" viewBox="0 0 14.754 14.754">
  <defs>
    <style>
      .cls-1 {
        fill: #074b69;
      }
    </style>
  </defs>
  <g id="icons_utility_contract-copy" data-name="icons/utility/contract-copy" transform="translate(-0.615 -0.615)">
    <path id="Mask" class="cls-1" d="M9.1,7.377h4.738c.308,0,.4-.338.154-.585L12.485,5.254l2.769-2.8a.428.428,0,0,0,0-.585L14.115.731a.466.466,0,0,0-.585.031L10.762,3.531,9.192,2.023c-.246-.246-.585-.154-.585.154V6.915A.556.556,0,0,0,9.1,7.377ZM6.885,8.608H2.146c-.308,0-.4.338-.154.585L3.5,10.731l-2.769,2.8a.428.428,0,0,0,0,.585l1.138,1.138a.428.428,0,0,0,.585,0l2.8-2.8,1.569,1.508c.215.277.554.185.554-.123V9.131A.622.622,0,0,0,6.885,8.608ZM8.608,9.1v4.738c0,.308.338.4.585.154l1.538-1.508,2.8,2.769a.428.428,0,0,0,.585,0l1.138-1.138a.466.466,0,0,0-.031-.585l-2.769-2.769,1.508-1.569c.246-.246.154-.585-.154-.585H9.069A.556.556,0,0,0,8.608,9.1ZM7.377,6.885V2.146c0-.308-.338-.4-.585-.154L5.254,3.5,2.454.731a.428.428,0,0,0-.585,0L.731,1.869a.428.428,0,0,0,0,.585l2.8,2.8L2.023,6.823c-.277.215-.185.554.123.554H6.854A.622.622,0,0,0,7.377,6.885Z"/>
  </g>
</svg>
