<svg xmlns="http://www.w3.org/2000/svg" viewBox="0 0 14.754 14.758">
  <defs>
    <style>
      .cls-1 {
        fill: #074b69;
      }
    </style>
  </defs>
  <g id="icons_utility_contract_alt" data-name="icons/utility/contract_alt" transform="translate(-0.615 -0.615)">
    <path id="Mask" class="cls-1" d="M9.1,7.35h4.738c.308,0,.4-.338.154-.585L12.485,5.227l2.769-2.8a.428.428,0,0,0,0-.585L14.115.7a.466.466,0,0,0-.585.031L10.762,3.5,9.192,2c-.246-.246-.585-.154-.585.154V6.889A.556.556,0,0,0,9.1,7.35ZM6.885,8.612H2.146c-.308,0-.4.338-.154.585L3.5,10.735l-2.769,2.8a.428.428,0,0,0,0,.585l1.138,1.138a.428.428,0,0,0,.585,0l2.8-2.8,1.569,1.508c.215.277.554.185.554-.123V9.135A.622.622,0,0,0,6.885,8.612Z"/>
  </g>
</svg>
