<svg xmlns="http://www.w3.org/2000/svg" viewBox="0 0 16 10.463">
  <defs>
    <style>
      .cls-1 {
        fill: #074b69;
      }
    </style>
  </defs>
  <g id="icons_utility_crossfilter" data-name="icons/utility/crossfilter" transform="translate(0 -0.076)">
    <path id="Mask" class="cls-1" d="M10.769.077A4.637,4.637,0,0,0,9.292.292a7.332,7.332,0,0,1,1.446,1.631h.031a3.385,3.385,0,0,1,0,6.769,3.187,3.187,0,0,1-1.323-.277,5.392,5.392,0,0,0,.615-1.077,2.412,2.412,0,0,0,.154-.431,5.44,5.44,0,0,0,.246-1.6,5.231,5.231,0,1,0-5.231,5.231,4.637,4.637,0,0,0,1.477-.215A7.332,7.332,0,0,1,5.262,8.692H5.231a3.385,3.385,0,1,1,0-6.769A3.438,3.438,0,0,1,6.585,2.2,5.216,5.216,0,1,0,10.769.077Z"/>
  </g>
</svg>
