<svg xmlns="http://www.w3.org/2000/svg" viewBox="0 0 14.785 14.77">
  <defs>
    <style>
      .cls-1 {
        fill: #074b69;
      }
    </style>
  </defs>
  <g id="icons_utility_custom_apps" data-name="icons/utility/custom_apps" transform="translate(-0.615 -0.615)">
    <path id="Mask" class="cls-1" d="M15.215,3.754a.262.262,0,0,0-.431-.092L12.292,6.154a.483.483,0,0,1-.677,0L9.862,4.4a.483.483,0,0,1,0-.677l2.523-2.492A.285.285,0,0,0,12.292.8,4.9,4.9,0,0,0,10.969.615a4.41,4.41,0,0,0-4.4,4.923,4.661,4.661,0,0,0,.308,1.169L1.123,12.431a1.709,1.709,0,0,0,0,2.431,1.779,1.779,0,0,0,1.231.523,1.779,1.779,0,0,0,1.231-.523L9.308,9.138a5.036,5.036,0,0,0,1.169.308,4.41,4.41,0,0,0,4.923-4.4,4.373,4.373,0,0,0-.185-1.292Z"/>
  </g>
</svg>
