<svg xmlns="http://www.w3.org/2000/svg" viewBox="0 0 13.589 14.461">
  <defs>
    <style>
      .cls-1 {
        fill: #074b69;
      }
    </style>
  </defs>
  <g id="icons_utility_cut" data-name="icons/utility/cut" transform="translate(-0.23 -0.615)">
    <path id="Mask" class="cls-1" d="M11.517,9.654a2.529,2.529,0,0,0-1.446.092L3.271.731A.331.331,0,0,0,2.84.669L2.594.854a1.25,1.25,0,0,0-.215,1.723L5.64,6.884a.462.462,0,0,1,0,.554L3.887,9.746A2.85,2.85,0,0,0,2.44,9.654a2.744,2.744,0,1,0,3.292,3.262,2.564,2.564,0,0,0-.369-2L6.656,9.192a.462.462,0,0,1,.738,0l1.292,1.723a2.669,2.669,0,0,0-.369,2,2.721,2.721,0,0,0,2.246,2.123,2.773,2.773,0,0,0,3.231-3.077,3.013,3.013,0,0,0-2.277-2.308Zm-8.554,3.6a.923.923,0,0,1,0-1.846.923.923,0,1,1,0,1.846Zm8,0a.923.923,0,1,1,.923-.923A.946.946,0,0,1,10.964,13.254ZM8.625,5.808a.32.32,0,0,0,.492,0l2.462-3.231a1.246,1.246,0,0,0-.031-1.508l.031-.031-.031.031a4.155,4.155,0,0,0-.462-.4.331.331,0,0,0-.431.062l-2.708,3.6a.462.462,0,0,0,0,.554Z"/>
  </g>
</svg>
