<svg xmlns="http://www.w3.org/2000/svg" viewBox="0 0 10.153 14.738">
  <defs>
    <style>
      .cls-1 {
        fill: #074b69;
      }
    </style>
  </defs>
  <g id="icons_utility_datadotcom" data-name="icons/utility/datadotcom" transform="translate(-0.077 -0.615)">
    <path id="Mask" class="cls-1" d="M10.231,15.077H8.6a10.352,10.352,0,0,1-.154-1.569H8.415a4.1,4.1,0,0,1-3.754,1.846,4.084,4.084,0,0,1-3.415-1.508A6.182,6.182,0,0,1,.077,9.908a6.336,6.336,0,0,1,.585-2.8A4.61,4.61,0,0,1,2.354,5.138,4.55,4.55,0,0,1,4.938,4.4,4.541,4.541,0,0,1,8.354,5.754V.615h1.723V12.8A19.3,19.3,0,0,0,10.231,15.077ZM8.323,10.615V7.323A4.14,4.14,0,0,0,6.938,6.154a4.111,4.111,0,0,0-1.785-.369,2.838,2.838,0,0,0-2.4,1.138,4.74,4.74,0,0,0-.862,2.954,4.841,4.841,0,0,0,.831,2.985,2.779,2.779,0,0,0,2.338,1.108,3.04,3.04,0,0,0,2.369-.954,3.226,3.226,0,0,0,.892-2.4Z"/>
  </g>
</svg>
