<svg xmlns="http://www.w3.org/2000/svg" viewBox="0 0 12.924 14.77">
  <defs>
    <style>
      .cls-1 {
        fill: #074b69;
      }
    </style>
  </defs>
  <g id="icons_utility_delete-copy" data-name="icons/utility/delete-copy" transform="translate(-0.846 -0.615)">
    <path id="Mask" class="cls-1" d="M13.308,3.077H9.462V1.846A1.234,1.234,0,0,0,8.231.615H6.385A1.234,1.234,0,0,0,5.154,1.846V3.077H1.308a.473.473,0,0,0-.462.462v.923a.473.473,0,0,0,.462.462h12a.473.473,0,0,0,.462-.462V3.538A.473.473,0,0,0,13.308,3.077ZM6.385,2.154a.291.291,0,0,1,.308-.308H7.923a.291.291,0,0,1,.308.308v.923H6.385Zm5.692,4H2.538a.473.473,0,0,0-.462.462v7.231a1.524,1.524,0,0,0,1.538,1.538H11a1.524,1.524,0,0,0,1.538-1.538V6.615A.473.473,0,0,0,12.077,6.154ZM6.385,12.923a.291.291,0,0,1-.308.308H5.462a.291.291,0,0,1-.308-.308V8.615a.291.291,0,0,1,.308-.308h.615a.291.291,0,0,1,.308.308Zm3.077,0a.291.291,0,0,1-.308.308H8.538a.291.291,0,0,1-.308-.308V8.615a.291.291,0,0,1,.308-.308h.615a.291.291,0,0,1,.308.308Z"/>
  </g>
</svg>
