<svg xmlns="http://www.w3.org/2000/svg" viewBox="0 0 14.77 12.309">
  <defs>
    <style>
      .cls-1 {
        fill: #074b69;
      }
    </style>
  </defs>
  <g id="icons_utility_deprecate" data-name="icons/utility/deprecate" transform="translate(-0.615 -0.846)">
    <path id="Mask" class="cls-1" d="M14.769.846H1.231a.617.617,0,0,0-.615.615v8a.617.617,0,0,0,.615.615H6.215a3.681,3.681,0,0,0,7.262,0h1.292a.617.617,0,0,0,.615-.615v-8A.617.617,0,0,0,14.769.846ZM12.123,10.877l-.862.862L9.846,10.323,8.431,11.738l-.862-.862L8.985,9.462,7.569,8.046l.862-.862L9.846,8.6l1.415-1.415.862.862L10.708,9.462l1.415,1.415Zm2.031-2.031h-.677a3.681,3.681,0,0,0-7.262,0H1.846V2.077H14.154Z"/>
  </g>
</svg>
