<svg xmlns="http://www.w3.org/2000/svg" viewBox="0 0 13.539 13.539">
  <defs>
    <style>
      .cls-1 {
        fill: #074b69;
      }
    </style>
  </defs>
  <g id="icons_utility_description-copy" data-name="icons/utility/description-copy" transform="translate(-0.23 -0.23)">
    <path id="Mask" class="cls-1" d="M12.538.231H1.462A1.234,1.234,0,0,0,.231,1.462V12.538a1.234,1.234,0,0,0,1.231,1.231H12.538a1.234,1.234,0,0,0,1.231-1.231V1.462A1.234,1.234,0,0,0,12.538.231ZM2.692,3.308A.291.291,0,0,1,3,3H6.077a.291.291,0,0,1,.308.308V6.385a.291.291,0,0,1-.308.308H3a.291.291,0,0,1-.308-.308Zm7.385,8a.291.291,0,0,1-.308.308H3a.291.291,0,0,1-.308-.308v-.615A.291.291,0,0,1,3,10.385H9.769a.291.291,0,0,1,.308.308Zm1.231-2.462A.291.291,0,0,1,11,9.154H3a.291.291,0,0,1-.308-.308V8.231A.291.291,0,0,1,3,7.923h8a.291.291,0,0,1,.308.308Zm0-2.462A.291.291,0,0,1,11,6.692H7.923a.291.291,0,0,1-.308-.308V5.769a.291.291,0,0,1,.308-.308H11a.291.291,0,0,1,.308.308Zm0-2.462A.291.291,0,0,1,11,4.231H7.923a.291.291,0,0,1-.308-.308V3.308A.291.291,0,0,1,7.923,3H11a.291.291,0,0,1,.308.308Z"/>
  </g>
</svg>
