<svg xmlns="http://www.w3.org/2000/svg" viewBox="0 0 14.77 14.77">
  <defs>
    <style>
      .cls-1 {
        fill: #074b69;
      }
    </style>
  </defs>
  <g id="icons_utility_desktop" data-name="icons/utility/desktop" transform="translate(-0.615 -0.615)">
    <path id="Mask" class="cls-1" d="M15.385,1.846A1.234,1.234,0,0,0,14.154.615H1.846A1.234,1.234,0,0,0,.615,1.846v8a1.234,1.234,0,0,0,1.231,1.231H14.154a1.234,1.234,0,0,0,1.231-1.231ZM13.538,8.769a.473.473,0,0,1-.462.462H2.923a.473.473,0,0,1-.462-.462V2.923a.473.473,0,0,1,.462-.462H13.077a.473.473,0,0,1,.462.462Zm-3.385,4.769H9.231a.291.291,0,0,1-.308-.308v-.615a.291.291,0,0,0-.308-.308H7.385a.291.291,0,0,0-.308.308v.615a.291.291,0,0,1-.308.308H5.846a1.234,1.234,0,0,0-1.231,1.231v.154a.473.473,0,0,0,.462.462h5.846a.473.473,0,0,0,.462-.462v-.154A1.234,1.234,0,0,0,10.154,13.538Z"/>
  </g>
</svg>
