<svg xmlns="http://www.w3.org/2000/svg" viewBox="0 0 13.539 13.539">
  <defs>
    <style>
      .cls-1 {
        fill: #074b69;
      }
    </style>
  </defs>
  <g id="icons_utility_dislike" data-name="icons/utility/dislike" transform="translate(-0.23 -0.23)">
    <path id="Mask" class="cls-1" d="M2.692,8.077V1.769A1.234,1.234,0,0,0,1.462.538H.692A.473.473,0,0,0,.231,1V8.077a.473.473,0,0,0,.462.462H2.231A.473.473,0,0,0,2.692,8.077ZM13.769,7V3.154C13.769.477,11.646.231,9.338.231c-2.185,0-2.892.831-4.985.923a.447.447,0,0,0-.431.462V7.769a.473.473,0,0,0,.462.462C5.862,8.231,7,9.831,7,11.462v1.846a.473.473,0,0,0,.462.462h.769a1.234,1.234,0,0,0,1.231-1.231V9.462a1.234,1.234,0,0,1,1.231-1.231h1.846A1.234,1.234,0,0,0,13.769,7Z"/>
  </g>
</svg>
