<svg xmlns="http://www.w3.org/2000/svg" viewBox="0 0 14.77 14.77">
  <defs>
    <style>
      .cls-1 {
        fill: #074b69;
      }
    </style>
  </defs>
  <g id="icons_utility_dock_panel" data-name="icons/utility/dock_panel" transform="translate(-0.615 -0.615)">
    <path id="Mask" class="cls-1" d="M.615,10.769v-8A2.141,2.141,0,0,1,2.769.615h8a2.141,2.141,0,0,1,2.154,2.154v.923H11.077V2.769a.291.291,0,0,0-.308-.308h-8a.291.291,0,0,0-.308.308v8a.291.291,0,0,0,.308.308h.923v1.846H2.769A2.141,2.141,0,0,1,.615,10.769ZM14.154,4.923h-8A1.234,1.234,0,0,0,4.923,6.154v8a1.234,1.234,0,0,0,1.231,1.231h8a1.234,1.234,0,0,0,1.231-1.231v-8A1.234,1.234,0,0,0,14.154,4.923Zm-1.231,7.754c0,.154-.092.246-.277.246H9.077a.33.33,0,0,1-.308-.277v-.554a.331.331,0,0,1,.308-.308h1.477a.187.187,0,0,0,.154-.308l-3.2-3.2a.262.262,0,0,1,0-.4l.4-.369a.231.231,0,0,1,.369,0l3.2,3.2c.123.123.308.031.308-.154V9.077a.335.335,0,0,1,.338-.308h.554a.28.28,0,0,1,.246.308v3.6Z"/>
  </g>
</svg>
