<svg xmlns="http://www.w3.org/2000/svg" viewBox="0 0 14.747 14.748">
  <defs>
    <style>
      .cls-1 {
        fill: #074b69;
      }
    </style>
  </defs>
  <g id="icons_utility_edit-copy" data-name="icons/utility/edit-copy" transform="translate(-0.615 -0.615)">
    <path id="Mask" class="cls-1" d="M2.9,10.277l2.738,2.738a.3.3,0,0,0,.431,0L12.9,6.154a.3.3,0,0,0,0-.431L10.193,3.015a.3.3,0,0,0-.431,0L2.9,9.877a.262.262,0,0,0,0,.4Zm8.185-8.523a.3.3,0,0,0,0,.431l2.708,2.708a.3.3,0,0,0,.431,0l.769-.769a1.154,1.154,0,0,0,0-1.692L13.547.985a1.226,1.226,0,0,0-1.754,0l-.708.769ZM.624,14.831a.447.447,0,0,0,.523.523l3.354-.8a.6.6,0,0,0,.277-.154l.062-.062a.328.328,0,0,0-.031-.4L2.039,11.169a.328.328,0,0,0-.4-.031l-.062.062a.629.629,0,0,0-.154.277l-.8,3.354Z"/>
  </g>
</svg>
