<svg xmlns="http://www.w3.org/2000/svg" viewBox="0 0 14.777 14.154">
  <defs>
    <style>
      .cls-1 {
        fill: #074b69;
      }
    </style>
  </defs>
  <g id="icons_utility_edit_form" data-name="icons/utility/edit_form" transform="translate(-0.615 -0.23)">
    <path id="Mask" class="cls-1" d="M9.662,4.015h2.523a.341.341,0,0,0,.338-.338.409.409,0,0,0-.092-.246L9.292.323A.409.409,0,0,0,9.046.231a.341.341,0,0,0-.338.338V3.062A.959.959,0,0,0,9.662,4.015Zm5.569,3.2-.277-.277a.483.483,0,0,0-.677,0L10.615,10.6c-.031.031,0,.062,0,.092v.769c0,.062,0,.123.062.123h.8c.031,0,.062-.031.092-.031l3.662-3.631a.467.467,0,0,0,0-.708Zm-2.954,5.754H10.092a.893.893,0,0,1-.892-.892V10.415a.747.747,0,0,1,.277-.646L12.4,6.846a.494.494,0,0,0,.154-.338V5.892a.473.473,0,0,0-.462-.462H8.708A1.412,1.412,0,0,1,7.292,4.015V.692A.48.48,0,0,0,6.8.231H2.031A1.432,1.432,0,0,0,.615,1.646V12.969a1.432,1.432,0,0,0,1.415,1.415h9.046a1.452,1.452,0,0,0,1.415-1.138.245.245,0,0,0-.215-.277ZM2.523,4.477a.473.473,0,0,1,.462-.462H4.892a.453.453,0,0,1,.462.462v.462a.473.473,0,0,1-.462.462H2.985a.453.453,0,0,1-.462-.462ZM7.292,10.6a.473.473,0,0,1-.462.462H2.985a.453.453,0,0,1-.462-.462v-.462a.473.473,0,0,1,.462-.462H6.8a.453.453,0,0,1,.462.462V10.6Zm.954-2.831a.473.473,0,0,1-.462.462h-4.8a.453.453,0,0,1-.462-.462V7.308a.473.473,0,0,1,.462-.462H7.754a.453.453,0,0,1,.462.462v.462Z"/>
  </g>
</svg>
