<svg xmlns="http://www.w3.org/2000/svg" viewBox="0 0 14.784 11.385">
  <defs>
    <style>
      .cls-1 {
        fill: #074b69;
      }
    </style>
  </defs>
  <g id="icons_utility_email-copy" data-name="icons/utility/email-copy" transform="translate(-0.615 -0.461)">
    <path id="Mask" class="cls-1" d="M7.676,7.569a.446.446,0,0,0,.646,0l6.954-6.462a.416.416,0,0,0-.4-.646L1.122.492c-.369,0-.677.338-.4.646L7.676,7.569ZM15.4,3.631a.371.371,0,0,0-.615-.277L9.338,8.369a1.942,1.942,0,0,1-1.323.523A2.067,2.067,0,0,1,6.691,8.4L1.276,3.354a.364.364,0,0,0-.615.277C.63,3.538.63,10.615.63,10.615a1.234,1.234,0,0,0,1.231,1.231H14.168A1.234,1.234,0,0,0,15.4,10.615Z"/>
  </g>
</svg>
