<svg xmlns="http://www.w3.org/2000/svg" viewBox="0 0 13.539 14.77">
  <defs>
    <style>
      .cls-1 {
        fill: #074b69;
      }
    </style>
  </defs>
  <g id="icons_utility_event-copy" data-name="icons/utility/event-copy" transform="translate(-0.23 -0.615)">
    <path id="Mask" class="cls-1" d="M13.308,6.154H.692a.473.473,0,0,0-.462.462v7.538a1.234,1.234,0,0,0,1.231,1.231H12.538a1.234,1.234,0,0,0,1.231-1.231V6.615A.473.473,0,0,0,13.308,6.154ZM4.846,12.923a.291.291,0,0,1-.308.308H3.308A.291.291,0,0,1,3,12.923V11.692a.291.291,0,0,1,.308-.308H4.538a.291.291,0,0,1,.308.308Zm0-3.077a.291.291,0,0,1-.308.308H3.308A.291.291,0,0,1,3,9.846V8.615a.291.291,0,0,1,.308-.308H4.538a.291.291,0,0,1,.308.308Zm3.077,3.077a.291.291,0,0,1-.308.308H6.385a.291.291,0,0,1-.308-.308V11.692a.291.291,0,0,1,.308-.308H7.615a.291.291,0,0,1,.308.308Zm0-3.077a.291.291,0,0,1-.308.308H6.385a.291.291,0,0,1-.308-.308V8.615a.291.291,0,0,1,.308-.308H7.615a.291.291,0,0,1,.308.308ZM11,12.923a.291.291,0,0,1-.308.308H9.462a.291.291,0,0,1-.308-.308V11.692a.291.291,0,0,1,.308-.308h1.231a.291.291,0,0,1,.308.308Zm0-3.077a.291.291,0,0,1-.308.308H9.462a.291.291,0,0,1-.308-.308V8.615a.291.291,0,0,1,.308-.308h1.231A.291.291,0,0,1,11,8.615Zm1.538-7.692H11V1.538a.923.923,0,0,0-1.846,0v.615H4.846V1.538A.923.923,0,1,0,3,1.538v.615H1.462A1.234,1.234,0,0,0,.231,3.385v.769a.473.473,0,0,0,.462.462H13.308a.473.473,0,0,0,.462-.462V3.385A1.234,1.234,0,0,0,12.538,2.154Z"/>
  </g>
</svg>
