<svg xmlns="http://www.w3.org/2000/svg" viewBox="0 0 14.8 10.465">
  <defs>
    <style>
      .cls-1 {
        fill: #074b69;
      }
    </style>
  </defs>
  <g id="icons_utility_feed-copy" data-name="icons/utility/feed-copy" transform="translate(-0.615 -0.461)">
    <path id="Mask" class="cls-1" d="M7.754,10.926a.8.8,0,0,1-.338-.092.74.74,0,0,1-.369-.492L5.292,3.234,3.785,6.619a.628.628,0,0,1-.615.431H1.077a.447.447,0,0,1-.462-.431V6.157A.473.473,0,0,1,1.077,5.7h1.6L4.8.865a.726.726,0,0,1,.708-.4.656.656,0,0,1,.615.523l1.815,7.2,2.431-5.262a.665.665,0,0,1,.677-.4.847.847,0,0,1,.615.462l1.2,2.738h2.092a.473.473,0,0,1,.462.462v.431a.473.473,0,0,1-.462.462H12.431a.718.718,0,0,1-.646-.4l-.769-1.754L8.431,10.557a.8.8,0,0,1-.677.369Z"/>
  </g>
</svg>
