<svg xmlns="http://www.w3.org/2000/svg" viewBox="0 0 14.754 11.723">
  <defs>
    <style>
      .cls-1 {
        fill: #074b69;
      }
    </style>
  </defs>
  <g id="icons_utility_forward" data-name="icons/utility/forward" transform="translate(-0.615 -0.846)">
    <path id="Mask" class="cls-1" d="M1.046,7.631H11.262a.308.308,0,0,1,.215.523L8.523,11.108a.446.446,0,0,0,0,.646l.677.677a.446.446,0,0,0,.646,0l5.385-5.415a.446.446,0,0,0,0-.646L9.846.985a.446.446,0,0,0-.646,0l-.646.646a.446.446,0,0,0,0,.646l2.954,2.954a.327.327,0,0,1-.215.554H1.077a.447.447,0,0,0-.462.431v.923a.476.476,0,0,0,.431.492Z"/>
  </g>
</svg>
