<svg xmlns="http://www.w3.org/2000/svg" viewBox="0 0 14.77 13.785">
  <defs>
    <style>
      .cls-1 {
        fill: #074b69;
      }
    </style>
  </defs>
  <g id="icons_utility_full_width_view" data-name="icons/utility/full_width_view" transform="translate(-0.615 -0.23)">
    <path id="Mask" class="cls-1" d="M14.923.231H1.077A.473.473,0,0,0,.615.692V2.231a.473.473,0,0,0,.462.462H14.923a.473.473,0,0,0,.462-.462V.692A.5.5,0,0,0,14.923.231ZM3.292,3.923H1.138a.473.473,0,0,0-.462.462v9.169a.473.473,0,0,0,.462.462H3.292a.473.473,0,0,0,.462-.462V4.385a.473.473,0,0,0-.462-.462Zm11.631,0H12.769a.473.473,0,0,0-.462.462v9.169a.473.473,0,0,0,.462.462h2.154a.473.473,0,0,0,.462-.462V4.385a.473.473,0,0,0-.462-.462Zm-4.308,0H5.446a.473.473,0,0,0-.462.462v9.169a.473.473,0,0,0,.462.462h5.169a.473.473,0,0,0,.462-.462V4.385a.473.473,0,0,0-.462-.462Z"/>
  </g>
</svg>
