<svg xmlns="http://www.w3.org/2000/svg" viewBox="0 0 14.758 14.77">
  <defs>
    <style>
      .cls-1 {
        fill: #074b69;
      }
    </style>
  </defs>
  <g id="icons_utility_home-copy" data-name="icons/utility/home-copy" transform="translate(-0.615 -0.615)">
    <path id="Mask" class="cls-1" d="M15.078,8.308H13.54v6.769a.291.291,0,0,1-.308.308H10.155a.291.291,0,0,1-.308-.308V9.846H6.155v5.231a.291.291,0,0,1-.308.308H2.77a.291.291,0,0,1-.308-.308V8.308H.924a.269.269,0,0,1-.277-.185.281.281,0,0,1,.062-.338L7.786.708a.3.3,0,0,1,.431,0l7.077,7.077a.335.335,0,0,1,.062.338.269.269,0,0,1-.277.185Z"/>
  </g>
</svg>
