<svg xmlns="http://www.w3.org/2000/svg" viewBox="0 0 14.77 13.539">
  <defs>
    <style>
      .cls-1 {
        fill: #074b69;
      }
    </style>
  </defs>
  <g id="icons_utility_inbox" data-name="icons/utility/inbox" transform="translate(-0.615 -0.23)">
    <path id="Mask" class="cls-1" d="M15.385,1.462A1.234,1.234,0,0,0,14.154.231H1.846A1.234,1.234,0,0,0,.615,1.462V12.538a1.234,1.234,0,0,0,1.231,1.231H14.154a1.234,1.234,0,0,0,1.231-1.231ZM5.846,9.769a.291.291,0,0,1-.308.308H2.769a.291.291,0,0,1-.308-.308V8.538a.291.291,0,0,1,.308-.308H5.538a.291.291,0,0,1,.308.308Zm0-3.077A.291.291,0,0,1,5.538,7H2.769a.291.291,0,0,1-.308-.308V5.462a.291.291,0,0,1,.308-.308H5.538a.291.291,0,0,1,.308.308Zm0-3.077a.291.291,0,0,1-.308.308H2.769a.291.291,0,0,1-.308-.308V2.385a.291.291,0,0,1,.308-.308H5.538a.291.291,0,0,1,.308.308Zm7.692,8a.291.291,0,0,1-.308.308H7.385a.291.291,0,0,1-.308-.308V2.385a.291.291,0,0,1,.308-.308h5.846a.291.291,0,0,1,.308.308Z"/>
  </g>
</svg>
