<svg xmlns="http://www.w3.org/2000/svg" viewBox="0 0 16 9.896">
  <defs>
    <style>
      .cls-1 {
        fill: #074b69;
      }
    </style>
  </defs>
  <g id="icons_utility_insert_tag_field" data-name="icons/utility/insert_tag_field" transform="translate(0 -0.076)">
    <path id="Mask" class="cls-1" d="M5.015.76,4.308.175a.477.477,0,0,0-.646.062L.092,4.729a.508.508,0,0,0,0,.585l3.6,4.462a.446.446,0,0,0,.646.062l.708-.585a.425.425,0,0,0,.062-.646l-2.892-3.6,2.923-3.6A.494.494,0,0,0,5.015.76ZM15.908,4.729,12.308.268a.446.446,0,0,0-.646-.062l-.708.585a.425.425,0,0,0-.062.646l2.923,3.6-2.923,3.6a.477.477,0,0,0,.062.646l.708.585a.477.477,0,0,0,.646-.062l3.6-4.492a.507.507,0,0,0,0-.585ZM9.723.329,8.8.114a.491.491,0,0,0-.585.338L5.938,9.191a.459.459,0,0,0,.338.554L7.2,9.96a.491.491,0,0,0,.585-.338L10.062.883A.445.445,0,0,0,9.723.329Z"/>
  </g>
</svg>
