<svg xmlns="http://www.w3.org/2000/svg" viewBox="0 0 7.385 10.77">
  <defs>
    <style>
      .cls-1 {
        fill: #074b69;
      }
    </style>
  </defs>
  <g id="icons_utility_italic" data-name="icons/utility/italic" transform="translate(-0.308 -0.461)">
    <path id="Mask" class="cls-1" d="M7.692,1.477v-.4A.617.617,0,0,0,7.077.462H2.769a.617.617,0,0,0-.615.615v.615a.617.617,0,0,0,.615.615.813.813,0,0,1,.8.985L2.462,8.708a.846.846,0,0,1-.8.677H.923A.617.617,0,0,0,.308,10v.615a.617.617,0,0,0,.615.615H5.231a.617.617,0,0,0,.615-.615V10a.617.617,0,0,0-.615-.615.813.813,0,0,1-.8-.985L5.538,2.985a.846.846,0,0,1,.8-.677h.523a.827.827,0,0,0,.831-.831Z"/>
  </g>
</svg>
