<svg xmlns="http://www.w3.org/2000/svg" viewBox="0 0 14.77 14.77">
  <defs>
    <style>
      .cls-1 {
        fill: #074b69;
      }
    </style>
  </defs>
  <g id="icons_utility_kanban" data-name="icons/utility/kanban" transform="translate(-0.615 -0.615)">
    <path id="Mask" class="cls-1" d="M9.846,5.385a.473.473,0,0,0-.462-.462H6.615a.473.473,0,0,0-.462.462v8.308a.473.473,0,0,0,.462.462H9.385a.473.473,0,0,0,.462-.462Zm-5.538,0a.473.473,0,0,0-.462-.462H1.077a.473.473,0,0,0-.462.462v9.538a.473.473,0,0,0,.462.462H3.846a.473.473,0,0,0,.462-.462Zm11.077,0a.473.473,0,0,0-.462-.462H12.154a.473.473,0,0,0-.462.462v7.077a.473.473,0,0,0,.462.462h2.769a.473.473,0,0,0,.462-.462Zm0-4.308a.473.473,0,0,0-.462-.462H1.077a.473.473,0,0,0-.462.462V2.615a.473.473,0,0,0,.462.462H14.923a.473.473,0,0,0,.462-.462Z"/>
  </g>
</svg>
