<svg xmlns="http://www.w3.org/2000/svg" viewBox="0 0 14.77 13.484">
  <defs>
    <style>
      .cls-1 {
        fill: #074b69;
      }
    </style>
  </defs>
  <g id="icons_utility_keyboard_dismiss" data-name="icons/utility/keyboard_dismiss" transform="translate(-0.615 -0.23)">
    <path id="Mask" class="cls-1" d="M14.769,9.462a.617.617,0,0,0,.615-.615v-8a.617.617,0,0,0-.615-.615H1.231A.617.617,0,0,0,.615.846v8a.617.617,0,0,0,.615.615ZM1.846,8.231V1.462H14.154V8.231ZM4.215,3.092a.473.473,0,0,1-.462.462H3.446a.473.473,0,0,1-.462-.462V2.785a.473.473,0,0,1,.462-.462h.308a.473.473,0,0,1,.462.462Zm1.754-.308a.473.473,0,0,0-.462-.462H5.2a.473.473,0,0,0-.462.462v.308a.473.473,0,0,0,.462.462h.308a.473.473,0,0,0,.462-.462Zm3.538.308a.473.473,0,0,1-.462.462H8.738a.473.473,0,0,1-.462-.462V2.785a.473.473,0,0,1,.462-.462h.308a.473.473,0,0,1,.462.462Zm-1.785,0a.473.473,0,0,1-.462.462H6.954a.473.473,0,0,1-.462-.462V2.785a.473.473,0,0,1,.462-.462h.308a.473.473,0,0,1,.462.462Zm5.323-.308a.473.473,0,0,0-.462-.462h-.308a.473.473,0,0,0-.462.462v.308a.473.473,0,0,0,.462.462h.308a.473.473,0,0,0,.462-.462Zm-1.785,0a.473.473,0,0,0-.462-.462h-.308a.473.473,0,0,0-.462.462v.308a.473.473,0,0,0,.462.462H10.8a.473.473,0,0,0,.462-.462ZM4.215,4.938a.473.473,0,0,1-.462.462H3.446a.473.473,0,0,1-.462-.462V4.631a.473.473,0,0,1,.462-.462h.308a.473.473,0,0,1,.462.462Zm1.754-.308a.473.473,0,0,0-.462-.462H5.2a.473.473,0,0,0-.462.462v.308A.473.473,0,0,0,5.2,5.4h.308a.473.473,0,0,0,.462-.462Zm3.538.308a.473.473,0,0,1-.462.462H8.738a.473.473,0,0,1-.462-.462V4.631a.473.473,0,0,1,.462-.462h.308a.473.473,0,0,1,.462.462Zm-1.785,0a.473.473,0,0,1-.462.462H6.954a.473.473,0,0,1-.462-.462V4.631a.473.473,0,0,1,.462-.462h.308a.473.473,0,0,1,.462.462Zm5.323-.308a.473.473,0,0,0-.462-.462h-.308a.473.473,0,0,0-.462.462v.308a.473.473,0,0,0,.462.462h.308a.473.473,0,0,0,.462-.462Zm-1.785,0a.473.473,0,0,0-.462-.462h-.308a.473.473,0,0,0-.462.462v.308a.473.473,0,0,0,.462.462H10.8a.473.473,0,0,0,.462-.462ZM4.215,6.785a.473.473,0,0,1-.462.462H3.446a.473.473,0,0,1-.462-.462V6.477a.473.473,0,0,1,.462-.462h.308a.473.473,0,0,1,.462.462Zm7.046-.308a.473.473,0,0,0-.462-.462H5.2a.473.473,0,0,0-.462.462v.308a.473.473,0,0,0,.462.462h5.6a.473.473,0,0,0,.462-.462Zm1.785,0a.473.473,0,0,0-.462-.462h-.308a.473.473,0,0,0-.462.462v.308a.473.473,0,0,0,.462.462h.308a.473.473,0,0,0,.462-.462ZM5.569,10.415h4.862a.178.178,0,0,1,.123.308L8.185,13.646a.241.241,0,0,1-.338,0l-2.4-2.923a.185.185,0,0,1,.123-.308Z"/>
  </g>
</svg>
