<svg xmlns="http://www.w3.org/2000/svg" viewBox="0 0 16 12">
  <defs>
    <style>
      .cls-1 {
        fill: #074b69;
      }
    </style>
  </defs>
  <g id="icons_utility_knowledge_base" data-name="icons/utility/knowledge_base" transform="translate(0 -0.846)">
    <path id="Mask" class="cls-1" d="M2.923,9.462h4A.473.473,0,0,0,7.385,9V1.769A1.024,1.024,0,0,0,6.4.846H2.923a.473.473,0,0,0-.462.462V9A.473.473,0,0,0,2.923,9.462Zm12.215-7.2a.294.294,0,0,0-.369.308v7.662a.473.473,0,0,1-.462.462H1.692a.473.473,0,0,1-.462-.462V2.6A.311.311,0,0,0,.8,2.323,1.421,1.421,0,0,0,0,3.615v7.077a1.234,1.234,0,0,0,1.231,1.231H6.308a.473.473,0,0,1,.462.462.473.473,0,0,0,.462.462H8.769a.473.473,0,0,0,.462-.462.473.473,0,0,1,.462-.462h5.077A1.234,1.234,0,0,0,16,10.692V3.615c0-.646-.215-1.2-.862-1.354Zm-6.062,7.2h4A.473.473,0,0,0,13.538,9V1.308a.473.473,0,0,0-.462-.462H9.6a1,1,0,0,0-.985.923V9a.473.473,0,0,0,.462.462Z"/>
  </g>
</svg>
