<svg xmlns="http://www.w3.org/2000/svg" viewBox="0 0 13.539 13.539">
  <defs>
    <style>
      .cls-1 {
        fill: #074b69;
      }
    </style>
  </defs>
  <g id="icons_utility_like" data-name="icons/utility/like" transform="translate(-0.23 -0.23)">
    <path id="Mask" class="cls-1" d="M2.231,5.462H.692a.473.473,0,0,0-.462.462V13a.473.473,0,0,0,.462.462h.769a1.234,1.234,0,0,0,1.231-1.231V5.923A.473.473,0,0,0,2.231,5.462Zm10.308.308H10.692A1.234,1.234,0,0,1,9.462,4.538V1.462A1.234,1.234,0,0,0,8.231.231H7.462A.473.473,0,0,0,7,.692V2.538C7,4.169,5.862,5.769,4.385,5.769a.473.473,0,0,0-.462.462v6.154a.447.447,0,0,0,.431.462c2.092.092,2.8.923,4.985.923,2.308,0,4.431-.246,4.431-2.923V7a1.234,1.234,0,0,0-1.231-1.231Z"/>
  </g>
</svg>
