<svg xmlns="http://www.w3.org/2000/svg" viewBox="0 0 12.309 14.773">
  <defs>
    <style>
      .cls-1 {
        fill: #074b69;
      }
    </style>
  </defs>
  <g id="icons_utility_lock" data-name="icons/utility/lock" transform="translate(-0.846 -0.615)">
    <path id="Mask" class="cls-1" d="M2.385,5.851H3.615c.185,0,.308-.092.308-.277V5.543A3.1,3.1,0,0,1,7.215,2.466a3.161,3.161,0,0,1,2.862,3.2V5.574c0,.185.123.277.308.277h1.231c.185,0,.308-.092.308-.277V5.543A4.937,4.937,0,0,0,6.754.62,5.005,5.005,0,0,0,2.077,5.574a.327.327,0,0,0,.308.277Zm-.308-.277v0ZM13.154,8.313a1.234,1.234,0,0,0-1.231-1.231H2.077A1.234,1.234,0,0,0,.846,8.313v5.846a1.234,1.234,0,0,0,1.231,1.231h9.846a1.234,1.234,0,0,0,1.231-1.231ZM8.415,13.143a.318.318,0,0,1-.308.4H5.862a.321.321,0,0,1-.308-.4L6.108,11.3A1.491,1.491,0,0,1,5.462,9.82a1.543,1.543,0,0,1,3.046.277,1.408,1.408,0,0,1-.646,1.2l.554,1.846Z"/>
  </g>
</svg>
