<svg xmlns="http://www.w3.org/2000/svg" viewBox="0 0 14.785 14.77">
  <defs>
    <style>
      .cls-1 {
        fill: #074b69;
      }
    </style>
  </defs>
  <g id="icons_utility_logout" data-name="icons/utility/logout" transform="translate(-0.615 -0.615)">
    <path id="Mask" class="cls-1" d="M6.462,14.923V14A.473.473,0,0,0,6,13.538H2.923a.473.473,0,0,1-.462-.462V2.923a.473.473,0,0,1,.462-.462H6A.473.473,0,0,0,6.462,2V1.077A.473.473,0,0,0,6,.615H1.846A1.234,1.234,0,0,0,.615,1.846V14.154a1.234,1.234,0,0,0,1.231,1.231H6A.473.473,0,0,0,6.462,14.923Zm8.8-6.615a.446.446,0,0,0,0-.646L11.108,3.508a.446.446,0,0,0-.646,0l-.646.646a.446.446,0,0,0,0,.646l1.723,1.723a.308.308,0,0,1-.215.523H4.769a.447.447,0,0,0-.462.431V8.4a.5.5,0,0,0,.462.492h6.523a.308.308,0,0,1,.215.523L9.785,11.138a.446.446,0,0,0,0,.646l.646.646a.446.446,0,0,0,.646,0Z"/>
  </g>
</svg>
