<svg xmlns="http://www.w3.org/2000/svg" viewBox="0 0 14.77 14.785">
  <defs>
    <style>
      .cls-1 {
        fill: #074b69;
      }
    </style>
  </defs>
  <g id="icons_utility_magicwand" data-name="icons/utility/magicwand" transform="translate(-0.615 -0.615)">
    <path id="Mask" class="cls-1" d="M8.677,6.477a.3.3,0,0,0-.431,0L.892,13.831a.892.892,0,0,0,0,1.292.892.892,0,0,0,1.292,0L9.538,7.769a.3.3,0,0,0,0-.431l-.862-.862Zm2.154,0,.985-.985a.446.446,0,0,0,0-.646L11.169,4.2a.446.446,0,0,0-.646,0l-.985.985a.3.3,0,0,0,0,.431l.862.862A.3.3,0,0,0,10.831,6.477ZM3.2,3.585A3.719,3.719,0,0,1,5.662,6.046a.192.192,0,0,0,.369,0A3.719,3.719,0,0,1,8.492,3.585a.192.192,0,0,0,0-.369A3.719,3.719,0,0,1,6.031.754a.192.192,0,0,0-.369,0A3.719,3.719,0,0,1,3.2,3.215.205.205,0,0,0,3.2,3.585ZM15.262,9.4a3.367,3.367,0,0,1-2.185-2.185.182.182,0,0,0-.338,0A3.367,3.367,0,0,1,10.554,9.4a.182.182,0,0,0,0,.338,3.367,3.367,0,0,1,2.185,2.185.182.182,0,0,0,.338,0,3.367,3.367,0,0,1,2.185-2.185C15.415,9.677,15.415,9.431,15.262,9.4ZM11.785,2.6a2.41,2.41,0,0,1,1.631,1.631.128.128,0,0,0,.246,0A2.41,2.41,0,0,1,15.292,2.6a.128.128,0,0,0,0-.246A2.41,2.41,0,0,1,13.662.723a.128.128,0,0,0-.246,0,2.41,2.41,0,0,1-1.631,1.631A.128.128,0,0,0,11.785,2.6Z"/>
  </g>
</svg>
