<svg xmlns="http://www.w3.org/2000/svg" viewBox="0 0 16 16">
  <defs>
    <style>
      .cls-1 {
        fill: #074b69;
      }
    </style>
  </defs>
  <g id="icons_utility_muted" data-name="icons/utility/muted" transform="translate(1)">
    <path id="Mask" class="cls-1" d="M14.173,1.723l-.646-.646a.513.513,0,0,0-.738.092L9.712,4.246v-1.2A2.416,2.416,0,0,0,7.281.615H7.219A2.416,2.416,0,0,0,4.788,3.046V7.508A2.347,2.347,0,0,0,5.158,8.8L4.081,9.877A3.761,3.761,0,0,1,3.25,7.508V6.277a.736.736,0,0,0-.769-.738.736.736,0,0,0-.769.738V7.508A5.241,5.241,0,0,0,3,10.954L.419,13.538a.575.575,0,0,0-.092.738l.646.646a.513.513,0,0,0,.738-.092L14.081,2.462a.513.513,0,0,0,.092-.738ZM11.25,7.138v.369a3.979,3.979,0,0,1-4,3.938H6.973l-1.2,1.262c.246.062.554.123.862.185v.954H5.25a.769.769,0,1,0,0,1.538H9.281a.762.762,0,0,0,.769-.769.788.788,0,0,0-.8-.769H7.865v-.985a5.547,5.547,0,0,0,4.923-5.354V6.277a.872.872,0,0,0-.185-.492Z"/>
    <g id="_-icn-color" data-name="↳-icn-color">
      <g id="color" transform="translate(-1)">
        <rect id="長方形_715" data-name="長方形 715" class="cls-1" width="16" height="16"/>
      </g>
    </g>
  </g>
</svg>
