<svg xmlns="http://www.w3.org/2000/svg" viewBox="0 0 16 12.309">
  <defs>
    <style>
      .cls-1 {
        fill: #074b69;
      }
    </style>
  </defs>
  <g id="icons_utility_news-copy" data-name="icons/utility/news-copy" transform="translate(0 -0.846)">
    <path id="Mask" class="cls-1" d="M15.538.846H2.923a.473.473,0,0,0-.462.462v9.385a.623.623,0,0,1-.708.615.659.659,0,0,1-.523-.646V3.923a.291.291,0,0,0-.308-.308H.462A.473.473,0,0,0,0,4.077v7.846a1.234,1.234,0,0,0,1.231,1.231H14.769A1.234,1.234,0,0,0,16,11.923V1.308A.473.473,0,0,0,15.538.846ZM8.615,9.769a.291.291,0,0,1-.308.308H4.615a.291.291,0,0,1-.308-.308V9.154a.291.291,0,0,1,.308-.308H8.308a.291.291,0,0,1,.308.308Zm0-2.462a.291.291,0,0,1-.308.308H4.615a.291.291,0,0,1-.308-.308V6.692a.291.291,0,0,1,.308-.308H8.308a.291.291,0,0,1,.308.308Zm5.538,2.462a.291.291,0,0,1-.308.308H10.154a.291.291,0,0,1-.308-.308V9.154a.291.291,0,0,1,.308-.308h3.692a.291.291,0,0,1,.308.308Zm0-2.462a.291.291,0,0,1-.308.308H10.154a.291.291,0,0,1-.308-.308V6.692a.291.291,0,0,1,.308-.308h3.692a.291.291,0,0,1,.308.308Zm0-2.462a.291.291,0,0,1-.308.308H4.615a.291.291,0,0,1-.308-.308V3a.291.291,0,0,1,.308-.308h9.231A.291.291,0,0,1,14.154,3Z"/>
  </g>
</svg>
