<svg xmlns="http://www.w3.org/2000/svg" viewBox="0 0 13.539 14.77">
  <defs>
    <style>
      .cls-1 {
        fill: #074b69;
      }
    </style>
  </defs>
  <g id="icons_utility_notebook" data-name="icons/utility/notebook" transform="translate(-0.23 -0.615)">
    <path id="Mask" class="cls-1" d="M12.538.615H3.308A1.234,1.234,0,0,0,2.077,1.846v.923H1.154a.923.923,0,1,0,0,1.846h.923V7.077H1.154a.923.923,0,1,0,0,1.846h.923v2.462H1.154a.923.923,0,0,0,0,1.846h.923v.923a1.234,1.234,0,0,0,1.231,1.231h9.231a1.234,1.234,0,0,0,1.231-1.231V1.846A1.234,1.234,0,0,0,12.538.615ZM10.385,11.077a.291.291,0,0,1-.308.308H5.769a.291.291,0,0,1-.308-.308v-.615a.291.291,0,0,1,.308-.308h4.308a.291.291,0,0,1,.308.308ZM11,8.615a.291.291,0,0,1-.308.308H5.154a.291.291,0,0,1-.308-.308V8a.291.291,0,0,1,.308-.308h5.538A.291.291,0,0,1,11,8Zm.615-3.077a.291.291,0,0,1-.308.308H4.538a.291.291,0,0,1-.308-.308V3.692a.291.291,0,0,1,.308-.308h6.769a.291.291,0,0,1,.308.308Z"/>
  </g>
</svg>
