<svg xmlns="http://www.w3.org/2000/svg" viewBox="0 0 14.77 14.773">
  <defs>
    <style>
      .cls-1 {
        fill: #074b69;
      }
    </style>
  </defs>
  <g id="icons_utility_notification" data-name="icons/utility/notification" transform="translate(-0.615 -0.615)">
    <path id="Mask" class="cls-1" d="M14.154,10.159H14a1.09,1.09,0,0,1-1.077-1.077V5.543A4.937,4.937,0,0,0,7.754.62,5.009,5.009,0,0,0,3.077,5.7V9.113A1.064,1.064,0,0,1,2,10.159H1.846A1.261,1.261,0,0,0,.615,11.42v.462a.469.469,0,0,0,.462.431H14.923a.473.473,0,0,0,.462-.462v-.462A1.234,1.234,0,0,0,14.154,10.159ZM9.508,13.543H6.492a.325.325,0,0,0-.308.369A1.822,1.822,0,0,0,8,15.389a1.852,1.852,0,0,0,1.815-1.477A.325.325,0,0,0,9.508,13.543Z"/>
  </g>
</svg>
