<svg xmlns="http://www.w3.org/2000/svg" viewBox="0 0 14.77 14.77">
  <defs>
    <style>
      .cls-1 {
        fill: #074b69;
      }
    </style>
  </defs>
  <g id="icons_utility_open" data-name="icons/utility/open" transform="translate(-0.615 -0.615)">
    <path id="Combined-Shape" class="cls-1" d="M14.154.615a1.234,1.234,0,0,1,1.231,1.231V12.923a1.234,1.234,0,0,1-1.231,1.231H10.462a.291.291,0,0,1-.308-.308V12.615a.291.291,0,0,1,.308-.308h2.615a.473.473,0,0,0,.462-.462V4.154a.473.473,0,0,0-.462-.462H2.923a.473.473,0,0,0-.462.462v7.692a.473.473,0,0,0,.462.462H5.538a.291.291,0,0,1,.308.308v1.231a.291.291,0,0,1-.308.308H1.846A1.234,1.234,0,0,1,.615,12.923V1.846A1.234,1.234,0,0,1,1.846.615ZM11.538,10.646a.554.554,0,0,1-.677,0L9.446,9.2a.3.3,0,0,0-.523.215v5.508a.5.5,0,0,1-.492.462H7.508a.447.447,0,0,1-.431-.462V9.415A.33.33,0,0,0,6.523,9.2L5.108,10.615a.446.446,0,0,1-.646,0l-.646-.646a.446.446,0,0,1,0-.646L7.662,5.477a.446.446,0,0,1,.646,0l3.877,3.877a.446.446,0,0,1,0,.646Z"/>
  </g>
</svg>
