<svg xmlns="http://www.w3.org/2000/svg" viewBox="0 0 14.788 13.539">
  <defs>
    <style>
      .cls-1 {
        fill: #074b69;
      }
    </style>
  </defs>
  <g id="icons_utility_opened_folder" data-name="icons/utility/opened_folder" transform="translate(-0.615 -0.23)">
    <path id="Mask" class="cls-1" d="M13.538,3.615a1.234,1.234,0,0,0-1.231-1.231H7.784a1.769,1.769,0,0,1-1.077-.615L5.938.846A1.345,1.345,0,0,0,4.861.231H3.691A1.234,1.234,0,0,0,2.461,1.462V4.231H13.538Zm.892,1.846H1.568A.947.947,0,0,0,.645,6.631L2.4,13.092a.96.96,0,0,0,.923.677h9.385a.933.933,0,0,0,.923-.677l1.754-6.462a.982.982,0,0,0-.954-1.169Z"/>
  </g>
</svg>
