<svg xmlns="http://www.w3.org/2000/svg" viewBox="0 0 16 16">
  <defs>
    <style>
      .cls-1 {
        fill: #074b69;
      }
    </style>
  </defs>
  <g id="icons_utility_page" data-name="icons/utility/page" transform="translate(1)">
    <path id="Mask" class="cls-1" d="M12.662,5.846H9.215A1.2,1.2,0,0,1,7.923,4.554V1.108A.486.486,0,0,0,7.431.615H2.323A1.5,1.5,0,0,0,.846,2.092V13.908a1.5,1.5,0,0,0,1.477,1.477h9.354a1.5,1.5,0,0,0,1.477-1.477V6.338A.486.486,0,0,0,12.662,5.846Zm.4-1.877L9.8.708A.43.43,0,0,0,9.523.615a.369.369,0,0,0-.369.338V3.569A1.078,1.078,0,0,0,10.2,4.615h2.615a.369.369,0,0,0,.338-.369.43.43,0,0,0-.092-.277Z"/>
    <path id="Mask-2" data-name="Mask" class="cls-1" d="M12.662,5.846H9.215A1.2,1.2,0,0,1,7.923,4.554V1.108A.486.486,0,0,0,7.431.615H2.323A1.5,1.5,0,0,0,.846,2.092V13.908a1.5,1.5,0,0,0,1.477,1.477h9.354a1.5,1.5,0,0,0,1.477-1.477V6.338A.486.486,0,0,0,12.662,5.846Zm.4-1.877L9.8.708A.43.43,0,0,0,9.523.615a.369.369,0,0,0-.369.338V3.569A1.078,1.078,0,0,0,10.2,4.615h2.615a.369.369,0,0,0,.338-.369.43.43,0,0,0-.092-.277Z"/>
    <g id="_-icn-color" data-name="↳-icn-color">
      <g id="color" transform="translate(-1)">
        <rect id="長方形_716" data-name="長方形 716" class="cls-1" width="16" height="16"/>
      </g>
    </g>
  </g>
</svg>
