<svg xmlns="http://www.w3.org/2000/svg" viewBox="0 0 14.777 14.77">
  <defs>
    <style>
      .cls-1 {
        fill: #074b69;
      }
    </style>
  </defs>
  <g id="icons_utility_palette" data-name="icons/utility/palette" transform="translate(-0.615 -0.615)">
    <path id="Mask" class="cls-1" d="M15.231,5.323C14.523,2.4,11.446.615,8.062.615a7.385,7.385,0,1,0,0,14.769c5.723,0,5.262-2.892,3.446-4.031A2.171,2.171,0,0,1,10.923,8C12.923,5.938,16.154,9.231,15.231,5.323ZM4,10.462A1.538,1.538,0,1,1,5.538,8.923,1.524,1.524,0,0,1,4,10.462Zm.308-5.846A1.538,1.538,0,1,1,5.846,6.154,1.524,1.524,0,0,1,4.308,4.615Zm3.385,8.923A1.538,1.538,0,1,1,9.231,12,1.524,1.524,0,0,1,7.692,13.538Zm2.769-8A1.538,1.538,0,1,1,12,4,1.524,1.524,0,0,1,10.462,5.538Z"/>
  </g>
</svg>
