<svg xmlns="http://www.w3.org/2000/svg" viewBox="0 0 13.539 14.77">
  <defs>
    <style>
      .cls-1 {
        fill: #074b69;
      }
    </style>
  </defs>
  <g id="icons_utility_paste" data-name="icons/utility/paste" transform="translate(-0.23 -0.615)">
    <path id="Mask" class="cls-1" d="M4.385,3.692H9.615a.473.473,0,0,0,.462-.462V1.846A1.234,1.234,0,0,0,8.846.615H5.154A1.234,1.234,0,0,0,3.923,1.846V3.231A.473.473,0,0,0,4.385,3.692Zm8.154-1.846h-.769a.473.473,0,0,0-.462.462V3.692a1.234,1.234,0,0,1-1.231,1.231H3.923A1.234,1.234,0,0,1,2.692,3.692V2.308a.473.473,0,0,0-.462-.462H1.462A1.234,1.234,0,0,0,.231,3.077V14.154a1.234,1.234,0,0,0,1.231,1.231H12.538a1.234,1.234,0,0,0,1.231-1.231V3.077A1.234,1.234,0,0,0,12.538,1.846ZM10.692,12.615a.291.291,0,0,1-.308.308H3.615a.291.291,0,0,1-.308-.308V12a.291.291,0,0,1,.308-.308h6.769a.291.291,0,0,1,.308.308Zm0-2.462a.291.291,0,0,1-.308.308H3.615a.291.291,0,0,1-.308-.308V9.538a.291.291,0,0,1,.308-.308h6.769a.291.291,0,0,1,.308.308Zm0-2.462A.291.291,0,0,1,10.385,8H3.615a.291.291,0,0,1-.308-.308V7.077a.291.291,0,0,1,.308-.308h6.769a.291.291,0,0,1,.308.308Z"/>
  </g>
</svg>
