<svg id="icons_utility_people-copy" data-name="icons/utility/people-copy" xmlns="http://www.w3.org/2000/svg" viewBox="0 0 16 16">
  <defs>
    <style>
      .cls-1 {
        fill: #074b69;
      }
    </style>
  </defs>
  <path id="Mask" class="cls-1" d="M12.923,6.862c-.862-.338-.985-.677-.985-1.015a1.3,1.3,0,0,1,.554-.923,2.269,2.269,0,0,0,.8-1.785A2.389,2.389,0,0,0,10.831.615,2.334,2.334,0,0,0,8.4,2.8a.323.323,0,0,0,.154.277,4.129,4.129,0,0,1,1.877,3.6A3.885,3.885,0,0,1,9.138,9.631a.187.187,0,0,0,0,.246,10.265,10.265,0,0,0,1.015.523.724.724,0,0,0,.246.062h3.723a1.261,1.261,0,0,0,1.262-1.231V9.046c0-1.077-1.169-1.662-2.462-2.185ZM8.8,11.138c-1.046-.431-1.2-.8-1.2-1.2a1.677,1.677,0,0,1,.646-1.108A2.71,2.71,0,0,0,9.2,6.708,2.832,2.832,0,0,0,6.246,3.723,2.849,2.849,0,0,0,3.292,6.708a2.71,2.71,0,0,0,.954,2.123,1.677,1.677,0,0,1,.646,1.108c0,.4-.154.8-1.231,1.2C2.123,11.754.615,12.462.615,13.754v.4a1.241,1.241,0,0,0,1.262,1.231H10.4a1.268,1.268,0,0,0,1.292-1.231v-.431c0-1.262-1.354-1.969-2.892-2.585Z"/>
  <g id="_-icn-color" data-name="↳-icn-color">
    <rect id="color" class="cls-1" width="16" height="16"/>
  </g>
</svg>
