<svg xmlns="http://www.w3.org/2000/svg" viewBox="0 0 16 10.463">
  <defs>
    <style>
      .cls-1 {
        fill: #074b69;
      }
    </style>
  </defs>
  <g id="icons_utility_phone_landscape" data-name="icons/utility/phone_landscape" transform="translate(0 -0.076)">
    <path id="Mask" class="cls-1" d="M16,1.308A1.234,1.234,0,0,0,14.769.077H1.231A1.234,1.234,0,0,0,0,1.308v8a1.234,1.234,0,0,0,1.231,1.231H14.769A1.234,1.234,0,0,0,16,9.308ZM1.538,6.231a.923.923,0,1,1,0-1.846.923.923,0,1,1,0,1.846Zm12,2a.473.473,0,0,1-.462.462H3.538a.473.473,0,0,1-.462-.462V2.385a.473.473,0,0,1,.462-.462h9.538a.473.473,0,0,1,.462.462Z"/>
  </g>
</svg>
