<svg xmlns="http://www.w3.org/2000/svg" viewBox="0 0 10.461 16">
  <defs>
    <style>
      .cls-1 {
        fill: #074b69;
      }
    </style>
  </defs>
  <g id="icons_utility_phone_portrait" data-name="icons/utility/phone_portrait" transform="translate(-0.077)">
    <path id="Mask" class="cls-1" d="M10.538,1.231A1.234,1.234,0,0,0,9.308,0h-8A1.234,1.234,0,0,0,.077,1.231V14.769A1.234,1.234,0,0,0,1.308,16h8a1.234,1.234,0,0,0,1.231-1.231ZM5.308,15.385a.923.923,0,1,1,.923-.923A.907.907,0,0,1,5.308,15.385Zm3.385-2.923a.473.473,0,0,1-.462.462H2.385a.473.473,0,0,1-.462-.462V2.923a.473.473,0,0,1,.462-.462H8.231a.473.473,0,0,1,.462.462Z"/>
  </g>
</svg>
