<svg xmlns="http://www.w3.org/2000/svg" viewBox="0 0 14.77 12.309">
  <defs>
    <style>
      .cls-1 {
        fill: #074b69;
      }
    </style>
  </defs>
  <g id="icons_utility_photo-copy" data-name="icons/utility/photo-copy" transform="translate(-0.615 -0.846)">
    <path id="Mask" class="cls-1" d="M8,5.154a2.462,2.462,0,1,0,2.462,2.462A2.469,2.469,0,0,0,8,5.154Zm6.154-1.846h-1.6a1.284,1.284,0,0,1-1.046-.554L10.8,1.677A1.38,1.38,0,0,0,9.508.846H6.492a1.455,1.455,0,0,0-1.323.831L4.462,2.754a1.242,1.242,0,0,1-1.046.554H1.846A1.234,1.234,0,0,0,.615,4.538v7.385a1.234,1.234,0,0,0,1.231,1.231H14.154a1.234,1.234,0,0,0,1.231-1.231V4.538A1.234,1.234,0,0,0,14.154,3.308ZM8,11.308a3.692,3.692,0,1,1,3.692-3.692A3.7,3.7,0,0,1,8,11.308Z"/>
  </g>
</svg>
