<svg xmlns="http://www.w3.org/2000/svg" viewBox="0 0 14.154 14.77">
  <defs>
    <style>
      .cls-1 {
        fill: #074b69;
      }
    </style>
  </defs>
  <g id="icons_utility_priority-copy" data-name="icons/utility/priority-copy" transform="translate(-0.23 -0.615)">
    <path id="Mask" class="cls-1" d="M2.077,1.077A.473.473,0,0,0,1.615.615H.692a.473.473,0,0,0-.462.462V14.923a.473.473,0,0,0,.462.462h.923a.473.473,0,0,0,.462-.462ZM13.923,2.369C9,4.954,9.554-.338,3.615,1.723a.463.463,0,0,0-.308.431V9.323a.287.287,0,0,0,.4.277C9.615,7.631,9,13.046,14.138,10.154a.48.48,0,0,0,.246-.4V2.615A.3.3,0,0,0,13.923,2.369Z"/>
  </g>
</svg>
