<svg xmlns="http://www.w3.org/2000/svg"  viewBox="0 0 13.602 13.57">
  <g id="icons_utility_refresh-copy" data-name="icons/utility/refresh-copy" transform="translate(-0.23 -0.23)">
    <path id="Mask" d="M13.34.231h-.923a.473.473,0,0,0-.462.462V2.846c0,.277-.154.4-.369.215a1.459,1.459,0,0,0-.308-.308A6.474,6.474,0,0,0,5.37,1a6.037,6.037,0,0,0-2.154.892A6.513,6.513,0,0,0,.232,7.277,6.457,6.457,0,0,0,6.693,13.8a6.519,6.519,0,0,0,4.215-1.538.458.458,0,0,0,.031-.677l-.646-.646a.468.468,0,0,0-.615-.031,4.664,4.664,0,0,1-4.123.923,4.3,4.3,0,0,1-1.169-.492A4.663,4.663,0,0,1,2.293,6.2a4.3,4.3,0,0,1,.492-1.169A4.539,4.539,0,0,1,6.755,2.692a4.611,4.611,0,0,1,3.262,1.354,1.619,1.619,0,0,1,.369.431c.092.246-.123.369-.4.369H7.832a.473.473,0,0,0-.462.462v.954a.421.421,0,0,0,.431.431h5.631a.407.407,0,0,0,.4-.4V.692A.526.526,0,0,0,13.34.231Z"/>
  </g>
</svg>
