<svg xmlns="http://www.w3.org/2000/svg" viewBox="0 0 14.77 14.77">
  <defs>
    <style>
      .cls-1 {
        fill: #074b69;
      }
    </style>
  </defs>
  <g id="icons_utility_relate" data-name="icons/utility/relate" transform="translate(-0.615 -0.615)">
    <path id="Mask" class="cls-1" d="M11.077,6.154A1.234,1.234,0,0,0,9.846,4.923h-8A1.234,1.234,0,0,0,.615,6.154v8a1.234,1.234,0,0,0,1.231,1.231h8a1.234,1.234,0,0,0,1.231-1.231ZM8.615,10.462a.331.331,0,0,1-.308.308H6.462v1.846a.331.331,0,0,1-.308.308H5.538a.331.331,0,0,1-.308-.308V10.769H3.385a.331.331,0,0,1-.308-.308V9.846a.331.331,0,0,1,.308-.308H5.231V7.692a.331.331,0,0,1,.308-.308h.615a.331.331,0,0,1,.308.308V9.538H8.308a.331.331,0,0,1,.308.308Zm4.615,2.462h-.923V11.077h.923a.291.291,0,0,0,.308-.308v-8a.291.291,0,0,0-.308-.308h-8a.291.291,0,0,0-.308.308v.923H3.077V2.769A2.141,2.141,0,0,1,5.231.615h8a2.141,2.141,0,0,1,2.154,2.154v8A2.141,2.141,0,0,1,13.231,12.923Z"/>
  </g>
</svg>
