<svg xmlns="http://www.w3.org/2000/svg" viewBox="0 0 14.761 14.81">
  <defs>
    <style>
      .cls-1 {
        fill: #074b69;
      }
    </style>
  </defs>
  <g id="icons_utility_remove_link" data-name="icons/utility/remove_link" transform="translate(-0.615 -0.615)">
    <path id="Mask" class="cls-1" d="M7.376,11.271a1.742,1.742,0,0,1-.554-.092,4.1,4.1,0,0,1-.585-.154.336.336,0,0,0-.308.062l-.123.123a2.129,2.129,0,0,1-2.862.154,2.058,2.058,0,0,1-.092-3.015L4.883,6.317a2,2,0,0,1,.923-.523A1.868,1.868,0,0,1,7.1,5.887a1.666,1.666,0,0,1,.677.462,1.918,1.918,0,0,1,.277.369.3.3,0,0,0,.492.062l.769-.769a.29.29,0,0,0,.031-.4c-.123-.154-.246-.277-.369-.431a5.331,5.331,0,0,0-.646-.523,3.72,3.72,0,0,0-1.262-.492,3.844,3.844,0,0,0-2.523.4,3.236,3.236,0,0,0-.831.615L1.745,7.148a3.746,3.746,0,0,0-.154,5.2,3.709,3.709,0,0,0,5.354.092l.677-.677C7.776,11.61,7.653,11.3,7.376,11.271Zm5.077-4.338a3.735,3.735,0,0,0-.092-5.354,3.776,3.776,0,0,0-5.2.154l-.615.615a.31.31,0,0,0,.185.523,4.95,4.95,0,0,1,1.138.215.336.336,0,0,0,.308-.062L8.3,2.9a2.129,2.129,0,0,1,2.862-.154,2.058,2.058,0,0,1,.092,3.015L9.222,7.794a2,2,0,0,1-.923.523,1.868,1.868,0,0,1-1.292-.092,1.666,1.666,0,0,1-.677-.462,1.366,1.366,0,0,1-.246-.338.3.3,0,0,0-.492-.062L4.853,8.1a.29.29,0,0,0-.031.4,4.594,4.594,0,0,0,.369.431,4.82,4.82,0,0,0,.646.523A3.72,3.72,0,0,0,7.1,9.948a3.844,3.844,0,0,0,2.523-.4,3.236,3.236,0,0,0,.831-.615l2-2Zm1.415,5.692,1.415-1.415a.3.3,0,0,0,0-.431l-.862-.862a.3.3,0,0,0-.431,0l-1.385,1.446-1.323-1.323a.3.3,0,0,0-.431,0l-.862.862a.3.3,0,0,0,0,.431l1.323,1.323-1.292,1.292a.3.3,0,0,0,0,.431l.862.862a.3.3,0,0,0,.431,0l1.292-1.292,1.385,1.385a.3.3,0,0,0,.431,0l.862-.862a.3.3,0,0,0,0-.431Z"/>
  </g>
</svg>
