<svg xmlns="http://www.w3.org/2000/svg" viewBox="0 0 12.309 14.774">
  <defs>
    <style>
      .cls-1 {
        fill: #074b69;
      }
    </style>
  </defs>
  <g id="icons_utility_reset_password-copy" data-name="icons/utility/reset_password-copy" transform="translate(-0.846 -0.615)">
    <path id="Mask" class="cls-1" d="M11.923,7.082H2.077A1.234,1.234,0,0,0,.846,8.313v5.846a1.234,1.234,0,0,0,1.231,1.231h9.846a1.234,1.234,0,0,0,1.231-1.231V8.313A1.234,1.234,0,0,0,11.923,7.082ZM8.538,13.7A2.737,2.737,0,0,1,7,14.159a3.391,3.391,0,0,1-.554-.062,2.7,2.7,0,0,1-1.754-1.169l1.015-.677a1.452,1.452,0,0,0,.985.646,1.472,1.472,0,0,0,1.169-.246,1.539,1.539,0,0,0,.431-2.123,1.452,1.452,0,0,0-.985-.646,1.472,1.472,0,0,0-1.169.246,1.338,1.338,0,0,0-.215.185L7,11.389H4.231V8.62l.8.8a3.9,3.9,0,0,1,.4-.338,2.932,2.932,0,0,1,2.092-.431A2.7,2.7,0,0,1,9.277,9.82,2.8,2.8,0,0,1,8.538,13.7ZM2.077,5.574v0Zm.308.277H3.615c.185,0,.308-.092.308-.277V5.543A3.1,3.1,0,0,1,7.215,2.466a3.161,3.161,0,0,1,2.862,3.2V5.574c0,.185.123.277.308.277h1.231c.185,0,.308-.092.308-.277V5.543A4.937,4.937,0,0,0,6.754.62,5.005,5.005,0,0,0,2.077,5.574a.327.327,0,0,0,.308.277Z"/>
  </g>
</svg>
