<svg xmlns="http://www.w3.org/2000/svg" viewBox="0 0 12.938 14.286">
  <defs>
    <style>
      .cls-1 {
        fill: #074b69;
      }
    </style>
  </defs>
  <g id="icons_utility_resource_territory" data-name="icons/utility/resource_territory" transform="translate(-0.846 -0.615)">
    <path id="Mask" class="cls-1" d="M7.568,8.586c.615-.892,1.262-1.323,1.692-2a4.5,4.5,0,0,0,.431-4A3.075,3.075,0,0,0,6.675.616,3.078,3.078,0,0,0,3.783,2.739a3.861,3.861,0,0,0,.831,4.092A1.715,1.715,0,0,1,5.26,8.586c-.215.615-.954.892-1.477,1.138-1.2.523-2.646,1.262-2.892,2.677A1.914,1.914,0,0,0,2.706,14.77H8.244c.246,0,.462-.277.308-.462a5.441,5.441,0,0,1-1.569-3.231,4.732,4.732,0,0,1,.585-2.492Zm3.385,3.2a1.2,1.2,0,0,1-1.2-1.169,1.176,1.176,0,0,1,1.2-1.169,1.17,1.17,0,1,1,0,2.338Zm0-4a2.823,2.823,0,0,0-2.831,2.831c0,1.938,2.031,3.754,2.646,4.215a.28.28,0,0,0,.369,0c.615-.492,2.646-2.277,2.646-4.215a2.823,2.823,0,0,0-2.831-2.831Z"/>
  </g>
</svg>
