<svg xmlns="http://www.w3.org/2000/svg" viewBox="0 0 16 13.539">
  <defs>
    <style>
      .cls-1 {
        fill: #074b69;
      }
    </style>
  </defs>
  <g id="icons_utility_richtextindent" data-name="icons/utility/richtextindent" transform="translate(0 -0.23)">
    <path id="Mask" class="cls-1" d="M16,2.538a.473.473,0,0,0-.462-.462H10.308a.473.473,0,0,0-.462.462v.923a.473.473,0,0,0,.462.462h5.231A.473.473,0,0,0,16,3.462ZM14.769,9.923a.473.473,0,0,0-.462-.462h-4a.473.473,0,0,0-.462.462v.923a.473.473,0,0,0,.462.462h4a.473.473,0,0,0,.462-.462ZM16,6.231a.473.473,0,0,0-.462-.462H10.308a.473.473,0,0,0-.462.462v.923a.473.473,0,0,0,.462.462h5.231A.473.473,0,0,0,16,7.154ZM8.615.692A.473.473,0,0,0,8.154.231H7.231a.473.473,0,0,0-.462.462V13.308a.473.473,0,0,0,.462.462h.923a.473.473,0,0,0,.462-.462ZM2.892,3.708c-.185-.185-.431-.031-.431.277V5.769h-2A.473.473,0,0,0,0,6.231v.923a.473.473,0,0,0,.462.462h2V9.431c0,.308.277.462.431.277L5.446,6.938a.37.37,0,0,0,0-.431l-2.554-2.8Z"/>
  </g>
</svg>
