<svg xmlns="http://www.w3.org/2000/svg" viewBox="0 0 14.77 13.539">
  <defs>
    <style>
      .cls-1 {
        fill: #074b69;
      }
    </style>
  </defs>
  <g id="icons_utility_richtextnumberedlist" data-name="icons/utility/richtextnumberedlist" transform="translate(-0.615 -0.23)">
    <path id="Mask" class="cls-1" d="M15.385,1v.923a.473.473,0,0,1-.462.462H6.615a.473.473,0,0,1-.462-.462V1A.473.473,0,0,1,6.615.538h8.308A.473.473,0,0,1,15.385,1ZM6.615,5.462h5.538A.473.473,0,0,0,12.615,5V4.077a.473.473,0,0,0-.462-.462H6.615a.473.473,0,0,0-.462.462V5A.473.473,0,0,0,6.615,5.462Zm8.308,2.769H6.615a.473.473,0,0,0-.462.462v.923a.473.473,0,0,0,.462.462h8.308a.473.473,0,0,0,.462-.462V8.692A.473.473,0,0,0,14.923,8.231Zm-2.769,3.077H6.615a.473.473,0,0,0-.462.462v.923a.473.473,0,0,0,.462.462h5.538a.473.473,0,0,0,.462-.462v-.923A.473.473,0,0,0,12.154,11.308ZM1.077,1.462h.769V5.308a.473.473,0,0,0,.462.462h.308a.473.473,0,0,0,.462-.462V.846A.617.617,0,0,0,2.462.231H1.077A.473.473,0,0,0,.615.692V1A.473.473,0,0,0,1.077,1.462ZM3.692,7.615H1.077a.473.473,0,0,0-.462.462v.308a.473.473,0,0,0,.462.462h2v1.231H1.231a.617.617,0,0,0-.615.615v2.462a.617.617,0,0,0,.615.615H3.846a.473.473,0,0,0,.462-.462V13a.473.473,0,0,0-.462-.462h-2V11.308H3.692a.617.617,0,0,0,.615-.615V8.231A.617.617,0,0,0,3.692,7.615Z"/>
  </g>
</svg>
