<svg xmlns="http://www.w3.org/2000/svg" viewBox="0 0 13.557 14.77">
  <defs>
    <style>
      .cls-1 {
        fill: #074b69;
      }
    </style>
  </defs>
  <g id="icons_utility_setup" data-name="icons/utility/setup" transform="translate(-0.23 -0.615)">
    <path id="Mask" class="cls-1" d="M13.413,9.969l-1.138-.954a5.974,5.974,0,0,0,0-2.092l1.138-.954a1.037,1.037,0,0,0,.246-1.292l-.492-.892a1.033,1.033,0,0,0-.892-.492,1.106,1.106,0,0,0-.338.062l-1.385.523A5.328,5.328,0,0,0,8.767,2.831L8.52,1.385A.972.972,0,0,0,7.505.615H6.52a.972.972,0,0,0-1.015.769L5.259,2.8A5.378,5.378,0,0,0,3.443,3.846L2.09,3.323a1.309,1.309,0,0,0-.338-.062,1.033,1.033,0,0,0-.892.492l-.492.862A1,1,0,0,0,.613,5.908l1.138.954a6.009,6.009,0,0,0-.092,1.046,5.754,5.754,0,0,0,.092,1.046L.613,9.908A1.037,1.037,0,0,0,.367,11.2l.492.923a1.033,1.033,0,0,0,.892.492,1.106,1.106,0,0,0,.338-.062l1.385-.523a5.328,5.328,0,0,0,1.785,1.046l.246,1.477a1,1,0,0,0,1.015.831h.985a1.051,1.051,0,0,0,1.015-.862l.246-1.477a5.134,5.134,0,0,0,1.877-1.138l1.292.523a1.544,1.544,0,0,0,.369.062A1.033,1.033,0,0,0,13.2,12l.462-.8A.968.968,0,0,0,13.413,9.969ZM7.043,11.415A3.385,3.385,0,1,1,10.4,8.031a3.368,3.368,0,0,1-3.354,3.385Zm.892-5.877H6.52a.474.474,0,0,0-.462.308L5.2,8.062a.256.256,0,0,0,.246.338H6.89l-.523,1.846c-.062.185.154.277.277.154L8.828,7.846a.237.237,0,0,0-.185-.4H7.567L8.52,5.938a.252.252,0,0,0-.215-.369H7.936Z"/>
  </g>
</svg>
