<svg xmlns="http://www.w3.org/2000/svg" viewBox="0 0 12.309 14.77">
  <defs>
    <style>
      .cls-1 {
        fill: #074b69;
      }
    </style>
  </defs>
  <g id="icons_utility_setup_assistant_guide" data-name="icons/utility/setup_assistant_guide" transform="translate(-0.846 -0.615)">
    <path id="Mask" class="cls-1" d="M2.538,7.662a.161.161,0,0,0-.246-.123L.908,8.677a.332.332,0,0,0-.062.246v4.892c0,.308.431.462.708.246L3.8,12.308a.149.149,0,0,0,.031-.215A9.338,9.338,0,0,1,2.538,7.662Zm2.985,4.585a.437.437,0,0,0,.185.062H8.262a.437.437,0,0,0,.185-.062c.369-.246,1.846-1.477,1.846-5.662a7.16,7.16,0,0,0-1.2-4.215A4.835,4.835,0,0,0,7,.615,4.765,4.765,0,0,0,4.877,2.4,7.066,7.066,0,0,0,3.708,6.585c0,4.185,1.446,5.415,1.815,5.662ZM6.969,4A1.846,1.846,0,1,1,5.123,5.846,1.852,1.852,0,0,1,6.969,4Zm6.092,4.677L11.708,7.538a.145.145,0,0,0-.246.123A10.069,10.069,0,0,1,10.2,12.123a.19.19,0,0,0,.031.215l2.246,1.754a.4.4,0,0,0,.677-.246V8.923a.255.255,0,0,0-.092-.246ZM8.908,13.692a.314.314,0,0,0-.246-.154H5.277a.274.274,0,0,0-.246.154,3.531,3.531,0,0,0-.431.954.616.616,0,0,0,.615.738H8.723a.616.616,0,0,0,.615-.738A2.792,2.792,0,0,0,8.908,13.692Z"/>
  </g>
</svg>
