<svg xmlns="http://www.w3.org/2000/svg" viewBox="0 0 12.309 15.023">
  <defs>
    <style>
      .cls-1 {
        fill: #074b69;
      }
    </style>
  </defs>
  <g id="icons_utility_share_mobile" data-name="icons/utility/share_mobile" transform="translate(-0.846 -0.615)">
    <path id="Mask" class="cls-1" d="M11.923,15.638a1.234,1.234,0,0,0,1.231-1.231V6.131A1.234,1.234,0,0,0,11.923,4.9H9.615a.473.473,0,0,0-.462.462v.923a.473.473,0,0,0,.462.462h1.231a.473.473,0,0,1,.462.462v6.123a.473.473,0,0,1-.462.462H3.154a.473.473,0,0,1-.462-.462V7.208a.473.473,0,0,1,.462-.462H4.385a.473.473,0,0,0,.462-.462V5.362A.473.473,0,0,0,4.385,4.9H2.077A1.234,1.234,0,0,0,.846,6.131v8.277a1.234,1.234,0,0,0,1.231,1.231Zm-4-6V3.669H9.738c.308,0,.462-.277.277-.431L7.246.685a.37.37,0,0,0-.431,0L4.046,3.238c-.185.185-.031.431.277.431H6.077V9.638a.5.5,0,0,0,.462.492h.923a.5.5,0,0,0,.462-.492Z"/>
  </g>
</svg>
