<svg xmlns="http://www.w3.org/2000/svg" viewBox="0 0 14.785 14.785">
  <defs>
    <style>
      .cls-1 {
        fill: #074b69;
      }
    </style>
  </defs>
  <g id="icons_utility_share-copy" data-name="icons/utility/share-copy" transform="translate(-0.615 -0.615)">
    <path id="Mask" class="cls-1" d="M14.923,9.246H14a.473.473,0,0,0-.462.462v3.385a.473.473,0,0,1-.462.462H2.923a.473.473,0,0,1-.462-.462V6.631a.473.473,0,0,1,.462-.462H4.154a.473.473,0,0,0,.462-.462V4.785a.473.473,0,0,0-.462-.462H1.846A1.234,1.234,0,0,0,.615,5.554v8.615A1.234,1.234,0,0,0,1.846,15.4H14.154a1.234,1.234,0,0,0,1.231-1.231V9.708A.473.473,0,0,0,14.923,9.246ZM10.462,4.323a6.485,6.485,0,0,0-6.123,5.969.46.46,0,0,0,.462.492h.923a.466.466,0,0,0,.462-.4,4.665,4.665,0,0,1,4.585-4.215h.492a.308.308,0,0,1,.215.523L9.785,8.415a.446.446,0,0,0,0,.646l.646.646a.446.446,0,0,0,.646,0l4.185-4.154a.446.446,0,0,0,0-.646L11.108.754a.446.446,0,0,0-.646,0L9.815,1.4a.447.447,0,0,0-.031.646l1.723,1.723a.308.308,0,0,1-.215.523l-.831.031Z"/>
  </g>
</svg>
