<svg xmlns="http://www.w3.org/2000/svg" viewBox="0 0 14.785 14.77">
  <defs>
    <style>
      .cls-1 {
        fill: #074b69;
      }
    </style>
  </defs>
  <g id="icons_utility_signpost" data-name="icons/utility/signpost" transform="translate(-0.615 -0.615)">
    <path id="Mask" class="cls-1" d="M15.238,2.769l-1.292-.954a1.013,1.013,0,0,0-.585-.185H8.992V1.108A.486.486,0,0,0,8.5.615H7.515a.486.486,0,0,0-.492.492V1.6H2.1a.486.486,0,0,0-.492.492V4.062a.486.486,0,0,0,.492.492H13.362a.947.947,0,0,0,.585-.185l1.292-.954a.4.4,0,0,0,0-.646ZM13.915,7.015H8.992V6.277a.226.226,0,0,0-.246-.246H7.269a.226.226,0,0,0-.246.246v.738H2.654a.947.947,0,0,0-.585.185L.777,8.154a.4.4,0,0,0,0,.646l1.292.954a1.013,1.013,0,0,0,.585.185H13.915a.486.486,0,0,0,.492-.492V7.477a.48.48,0,0,0-.492-.462ZM8.992,13.323V11.692a.226.226,0,0,0-.246-.246H7.269a.226.226,0,0,0-.246.246v1.631a2.151,2.151,0,0,0-1.692,1.6.381.381,0,0,0,.369.462h4.646a.369.369,0,0,0,.369-.462A2.24,2.24,0,0,0,8.992,13.323Z"/>
  </g>
</svg>
