<svg xmlns="http://www.w3.org/2000/svg" viewBox="0 0 14.759 13.569">
  <defs>
    <style>
      .cls-1 {
        fill: #074b69;
      }
    </style>
  </defs>
  <g id="icons_utility_sms" data-name="icons/utility/sms" transform="translate(-0.615 -0.23)">
    <path id="Mask" class="cls-1" d="M7.989.231C3.9.231.635,3.246.635,6.969a6.647,6.647,0,0,0,.892,3.262.62.62,0,0,1,.062.523L.635,13.369a.319.319,0,0,0,.4.4l2.646-1.015a.645.645,0,0,1,.523.062,7.934,7.934,0,0,0,3.846.985c4.031-.031,7.323-3.046,7.323-6.769A7.121,7.121,0,0,0,7.989.231ZM5.035,8.108a1.38,1.38,0,0,1-.308.4,1.631,1.631,0,0,1-.462.246,1.439,1.439,0,0,1-.523.062,1.656,1.656,0,0,1-.677-.123,1.529,1.529,0,0,1-.585-.4L2.42,8.231c-.031-.031,0-.092.062-.154l.492-.462c.062-.062.123-.062.154-.031a.443.443,0,0,1,.062.092.829.829,0,0,0,.246.215.675.675,0,0,0,.492.062c.062,0,.092-.031.154-.062L4.174,7.8A.185.185,0,0,0,4.2,7.677c0-.123-.031-.154-.062-.185a.6.6,0,0,0-.277-.154c-.123-.031-.246-.092-.4-.123-.154-.062-.308-.123-.431-.185A1.181,1.181,0,0,1,2.7,6.692a1.1,1.1,0,0,1-.154-.585,1.054,1.054,0,0,1,.123-.554A.978.978,0,0,1,3,5.185a1.071,1.071,0,0,1,.462-.215A1.941,1.941,0,0,1,4.574,5a2.079,2.079,0,0,1,.462.246l.092.062c.062.031.031.123-.031.185l-.462.462a.149.149,0,0,1-.215,0c-.062-.031-.092-.092-.123-.092a.855.855,0,0,0-.554-.092.16.16,0,0,0-.123.062l-.092.092c-.031.031-.031.062-.031.123a.181.181,0,0,0,.062.154,1.107,1.107,0,0,0,.277.154c.123.031.246.092.4.123.154.062.308.123.431.185A1.181,1.181,0,0,1,5,7a1.1,1.1,0,0,1,.154.585A1.011,1.011,0,0,1,5.035,8.108Zm5.108.431a.316.316,0,0,1-.338.308H9.5c-.185,0-.277-.123-.277-.308V6.723a.16.16,0,0,0-.308-.062L8.389,8.046a.269.269,0,0,1-.277.185H7.9a.312.312,0,0,1-.277-.185L7.066,6.662a.16.16,0,0,0-.308.062V8.538a.316.316,0,0,1-.338.308H6.112c-.185,0-.277-.123-.277-.308V5.154a.284.284,0,0,1,.277-.308h.8a.312.312,0,0,1,.277.185l.615,1.6c.062.123.246.123.277,0l.615-1.6a.269.269,0,0,1,.277-.185H9.8a.316.316,0,0,1,.338.308Zm3.231-.4a1.071,1.071,0,0,1-.338.4,1.631,1.631,0,0,1-.462.246,1.524,1.524,0,0,1-.523.062,1.656,1.656,0,0,1-.677-.123,1.529,1.529,0,0,1-.585-.4l-.062-.062c-.031-.031,0-.092.062-.154l.492-.462c.062-.062.123-.062.154-.031a.443.443,0,0,1,.062.092.829.829,0,0,0,.246.215.694.694,0,0,0,.492.062c.062-.031.123-.031.154-.062l.092-.092a.7.7,0,0,0,.031-.123c0-.123-.031-.154-.062-.185a.6.6,0,0,0-.277-.154c-.123-.031-.246-.092-.4-.123-.154-.062-.308-.123-.431-.185a1.312,1.312,0,0,1-.369-.338,1.1,1.1,0,0,1-.154-.585,1.054,1.054,0,0,1,.123-.554.978.978,0,0,1,.338-.369A1.27,1.27,0,0,1,11.743,5a1.941,1.941,0,0,1,1.108.031,1.311,1.311,0,0,1,.462.277L13.4,5.4c.062.031.031.123-.031.185l-.462.462a.149.149,0,0,1-.215,0c-.062-.031-.092-.092-.123-.092a.855.855,0,0,0-.554-.092.16.16,0,0,0-.123.062l-.092.092a.185.185,0,0,0-.031.123.181.181,0,0,0,.062.154,1.107,1.107,0,0,0,.277.154c.123.031.246.092.4.123.154.062.308.123.431.185a1.932,1.932,0,0,1,.369.338,1.1,1.1,0,0,1,.154.585A.689.689,0,0,1,13.374,8.138Z"/>
  </g>
</svg>
