<svg xmlns="http://www.w3.org/2000/svg" viewBox="0 0 14.77 12.309">
  <defs>
    <style>
      .cls-1 {
        fill: #074b69;
      }
    </style>
  </defs>
  <g id="icons_utility_snippet" data-name="icons/utility/snippet" transform="translate(-0.615 -0.846)">
    <path id="Mask" class="cls-1" d="M4.462.846H1.077a.473.473,0,0,0-.462.462v4a.473.473,0,0,0,.462.462H4.462a.473.473,0,0,0,.462-.462v-4A.473.473,0,0,0,4.462.846Zm10.462,0H6.615a.473.473,0,0,0-.462.462v.923a.473.473,0,0,0,.462.462h8.308a.473.473,0,0,0,.462-.462V1.308A.473.473,0,0,0,14.923.846ZM6.615,5.769h5.231a.473.473,0,0,0,.462-.462V4.385a.473.473,0,0,0-.462-.462H6.615a.473.473,0,0,0-.462.462v.923A.473.473,0,0,0,6.615,5.769ZM4.462,8.231H1.077a.473.473,0,0,0-.462.462v4a.473.473,0,0,0,.462.462H4.462a.473.473,0,0,0,.462-.462v-4A.473.473,0,0,0,4.462,8.231Zm10.462,0H6.615a.473.473,0,0,0-.462.462v.923a.473.473,0,0,0,.462.462h8.308a.473.473,0,0,0,.462-.462V8.692A.473.473,0,0,0,14.923,8.231Zm-3.077,3.077H6.615a.473.473,0,0,0-.462.462v.923a.473.473,0,0,0,.462.462h5.231a.473.473,0,0,0,.462-.462v-.923A.473.473,0,0,0,11.846,11.308Z"/>
  </g>
</svg>
