<svg xmlns="http://www.w3.org/2000/svg" viewBox="0 0 14.8 14.8">
  <defs>
    <style>
      .cls-1 {
        fill: #074b69;
      }
    </style>
  </defs>
  <g id="icons_utility_socialshare" data-name="icons/utility/socialshare" transform="translate(-0.615 -0.615)">
    <path id="Mask" class="cls-1" d="M12.615,9.877a2.737,2.737,0,0,0-2,.862L6.123,8.492A2.487,2.487,0,0,0,6.154,8c0-.154-.031-.338-.031-.492l4.492-2.246a2.717,2.717,0,0,0,2.031.892A2.769,2.769,0,1,0,9.877,3.385v.185L5.231,5.908a2.99,2.99,0,0,0-1.846-.646,2.769,2.769,0,0,0,0,5.538A2.7,2.7,0,0,0,5.2,10.123l4.646,2.308v.215a2.769,2.769,0,1,0,2.769-2.769Z"/>
  </g>
</svg>
