<svg xmlns="http://www.w3.org/2000/svg" viewBox="0 0 14.77 14.77">
  <defs>
    <style>
      .cls-1 {
        fill: #074b69;
      }
    </style>
  </defs>
  <g id="icons_utility_spinner" data-name="icons/utility/spinner" transform="translate(-0.615 -0.615)">
    <path id="Mask" class="cls-1" d="M4.923,8.462V7.538a.473.473,0,0,0-.462-.462H1.077a.473.473,0,0,0-.462.462v.923a.473.473,0,0,0,.462.462H4.462A.473.473,0,0,0,4.923,8.462Zm.585,1.385a.446.446,0,0,0-.646,0l-2.4,2.4a.446.446,0,0,0,0,.646l.646.646a.446.446,0,0,0,.646,0l2.4-2.4a.446.446,0,0,0,0-.646Zm4.985-3.692a.446.446,0,0,0,.646,0l2.4-2.4a.446.446,0,0,0,0-.646l-.646-.646a.446.446,0,0,0-.646,0l-2.4,2.369a.446.446,0,0,0,0,.646l.646.677ZM3.754,2.462a.446.446,0,0,0-.646,0l-.646.646a.446.446,0,0,0,0,.646l2.4,2.4a.446.446,0,0,0,.646,0l.646-.646a.446.446,0,0,0,0-.646l-2.4-2.4Zm7.415,7.385a.446.446,0,0,0-.646,0l-.677.646a.446.446,0,0,0,0,.646l2.4,2.4a.446.446,0,0,0,.646,0l.646-.646a.446.446,0,0,0,0-.646l-2.369-2.4ZM8.462,11.077H7.538a.473.473,0,0,0-.462.462v3.385a.473.473,0,0,0,.462.462h.923a.473.473,0,0,0,.462-.462V11.538A.473.473,0,0,0,8.462,11.077Zm6.462-4H11.538a.473.473,0,0,0-.462.462v.923a.473.473,0,0,0,.462.462h3.385a.473.473,0,0,0,.462-.462V7.538A.473.473,0,0,0,14.923,7.077ZM8.462.615H7.538a.473.473,0,0,0-.462.462V4.462a.473.473,0,0,0,.462.462h.923a.473.473,0,0,0,.462-.462V1.077A.473.473,0,0,0,8.462.615Z"/>
  </g>
</svg>
