<svg xmlns="http://www.w3.org/2000/svg" viewBox="0 0 14.77 14.77">
  <defs>
    <style>
      .cls-1 {
        fill: #074b69;
      }
    </style>
  </defs>
  <g id="icons_utility_success" data-name="icons/utility/success" transform="translate(-0.615 -0.615)">
    <path id="Mask" class="cls-1" d="M8,.615A7.385,7.385,0,1,0,15.385,8,7.367,7.367,0,0,0,8,.615Zm4.123,5.538L7.415,10.923a.483.483,0,0,1-.677,0L4.154,8.308a.483.483,0,0,1,0-.677l.677-.677a.483.483,0,0,1,.677,0L6.862,8.338a.335.335,0,0,0,.462,0l3.446-3.569a.483.483,0,0,1,.677,0l.677.677a.468.468,0,0,1,0,.708Z"/>
  </g>
</svg>
