<svg xmlns="http://www.w3.org/2000/svg" viewBox="0 0 14.77 14.77">
  <defs>
    <style>
      .cls-1 {
        fill: #074b69;
      }
    </style>
  </defs>
  <g id="icons_utility_summarydetail" data-name="icons/utility/summarydetail" transform="translate(-0.615 -0.615)">
    <path id="Mask" class="cls-1" d="M14.923.615H1.077a.473.473,0,0,0-.462.462V2.615a.473.473,0,0,0,.462.462H14.923a.473.473,0,0,0,.462-.462V1.077A.473.473,0,0,0,14.923.615ZM6.308,4.308H4.154a.473.473,0,0,0-.462.462v.923a.473.473,0,0,0,.462.462H6.308a.473.473,0,0,0,.462-.462V4.769A.473.473,0,0,0,6.308,4.308Zm4.308,0H8.462A.473.473,0,0,0,8,4.769v.923a.473.473,0,0,0,.462.462h2.154a.473.473,0,0,0,.462-.462V4.769A.473.473,0,0,0,10.615,4.308Zm4.308,0H12.769a.473.473,0,0,0-.462.462v.923a.473.473,0,0,0,.462.462h2.154a.473.473,0,0,0,.462-.462V4.769A.473.473,0,0,0,14.923,4.308ZM6.308,10.462H4.154a.473.473,0,0,0-.462.462v.923a.473.473,0,0,0,.462.462H6.308a.473.473,0,0,0,.462-.462v-.923A.473.473,0,0,0,6.308,10.462Zm4.308,0H8.462A.473.473,0,0,0,8,10.923v.923a.473.473,0,0,0,.462.462h2.154a.473.473,0,0,0,.462-.462v-.923A.473.473,0,0,0,10.615,10.462Zm4.308,0H12.769a.473.473,0,0,0-.462.462v.923a.473.473,0,0,0,.462.462h2.154a.473.473,0,0,0,.462-.462v-.923A.473.473,0,0,0,14.923,10.462Zm0,3.077h-12a.473.473,0,0,1-.462-.462V10.923A.473.473,0,0,0,2,10.462H1.077a.473.473,0,0,0-.462.462v4a.473.473,0,0,0,.462.462H14.923a.473.473,0,0,0,.462-.462V14A.473.473,0,0,0,14.923,13.538Zm0-6.154h-12a.473.473,0,0,1-.462-.462V4.769A.473.473,0,0,0,2,4.308H1.077a.473.473,0,0,0-.462.462v4a.473.473,0,0,0,.462.462H14.923a.473.473,0,0,0,.462-.462V7.846A.473.473,0,0,0,14.923,7.385Z"/>
  </g>
</svg>
