<svg xmlns="http://www.w3.org/2000/svg" viewBox="0 0 13.539 14.277">
  <defs>
    <style>
      .cls-1 {
        fill: #074b69;
      }
    </style>
  </defs>
  <g id="icons_utility_sync" data-name="icons/utility/sync" transform="translate(-0.23 -0.615)">
    <path id="Mask" class="cls-1" d="M13.738,8.769a.473.473,0,0,0-.462-.462H12.2a.421.421,0,0,0-.431.431.524.524,0,0,1-.031.215,4.028,4.028,0,0,1-.462,1.138,4.539,4.539,0,0,1-3.969,2.338,4.611,4.611,0,0,1-3.262-1.354,1.619,1.619,0,0,1-.369-.431c-.092-.246.123-.369.4-.369H6.231a.473.473,0,0,0,.462-.462V8.862a.421.421,0,0,0-.431-.431H.631a.407.407,0,0,0-.4.4v5.6a.526.526,0,0,0,.492.462h.923a.473.473,0,0,0,.462-.462V12.277c0-.277.154-.4.369-.215a1.459,1.459,0,0,0,.308.308,6.474,6.474,0,0,0,5.908,1.754,6.037,6.037,0,0,0,2.154-.892,6.463,6.463,0,0,0,2.892-4.4V8.769ZM.262,6.738A.473.473,0,0,0,.723,7.2H1.8a.421.421,0,0,0,.431-.431.524.524,0,0,1,.031-.215,4.028,4.028,0,0,1,.462-1.138A4.539,4.539,0,0,1,6.692,3.077,4.611,4.611,0,0,1,9.954,4.431a1.619,1.619,0,0,1,.369.431c.092.246-.123.369-.4.369H7.769a.473.473,0,0,0-.462.462v.954a.421.421,0,0,0,.431.431h5.631a.407.407,0,0,0,.4-.4v-5.6a.526.526,0,0,0-.492-.462h-.923a.473.473,0,0,0-.462.462V3.231c0,.277-.154.4-.369.215a1.459,1.459,0,0,0-.308-.308A6.474,6.474,0,0,0,5.308,1.385a6.037,6.037,0,0,0-2.154.892,6.463,6.463,0,0,0-2.892,4.4v.062Z"/>
  </g>
</svg>
