<svg xmlns="http://www.w3.org/2000/svg" viewBox="0 0 13.539 14.77">
  <defs>
    <style>
      .cls-1 {
        fill: #074b69;
      }
    </style>
  </defs>
  <g id="icons_utility_table" data-name="icons/utility/table" transform="translate(-0.23 -0.615)">
    <path id="Mask" class="cls-1" d="M13.308.615H.692a.473.473,0,0,0-.462.462V2.615a.473.473,0,0,0,.462.462H13.308a.473.473,0,0,0,.462-.462V1.077A.473.473,0,0,0,13.308.615ZM3.462,4.308H.692a.473.473,0,0,0-.462.462v.923a.473.473,0,0,0,.462.462H3.462a.473.473,0,0,0,.462-.462V4.769A.473.473,0,0,0,3.462,4.308Zm4.923,0H5.615a.473.473,0,0,0-.462.462v.923a.473.473,0,0,0,.462.462H8.385a.473.473,0,0,0,.462-.462V4.769A.473.473,0,0,0,8.385,4.308Zm4.923,0H10.538a.473.473,0,0,0-.462.462v.923a.473.473,0,0,0,.462.462h2.769a.473.473,0,0,0,.462-.462V4.769A.473.473,0,0,0,13.308,4.308ZM3.462,7.385H.692a.473.473,0,0,0-.462.462v.923a.473.473,0,0,0,.462.462H3.462a.473.473,0,0,0,.462-.462V7.846A.473.473,0,0,0,3.462,7.385Zm4.923,0H5.615a.473.473,0,0,0-.462.462v.923a.473.473,0,0,0,.462.462H8.385a.473.473,0,0,0,.462-.462V7.846A.473.473,0,0,0,8.385,7.385Zm4.923,0H10.538a.473.473,0,0,0-.462.462v.923a.473.473,0,0,0,.462.462h2.769a.473.473,0,0,0,.462-.462V7.846A.473.473,0,0,0,13.308,7.385ZM3.462,10.462H.692a.473.473,0,0,0-.462.462v.923a.473.473,0,0,0,.462.462H3.462a.473.473,0,0,0,.462-.462v-.923A.473.473,0,0,0,3.462,10.462Zm4.923,0H5.615a.473.473,0,0,0-.462.462v.923a.473.473,0,0,0,.462.462H8.385a.473.473,0,0,0,.462-.462v-.923A.473.473,0,0,0,8.385,10.462Zm4.923,0H10.538a.473.473,0,0,0-.462.462v.923a.473.473,0,0,0,.462.462h2.769a.473.473,0,0,0,.462-.462v-.923A.473.473,0,0,0,13.308,10.462ZM3.462,13.538H.692A.473.473,0,0,0,.231,14v.923a.473.473,0,0,0,.462.462H3.462a.473.473,0,0,0,.462-.462V14A.473.473,0,0,0,3.462,13.538Zm4.923,0H5.615A.473.473,0,0,0,5.154,14v.923a.473.473,0,0,0,.462.462H8.385a.473.473,0,0,0,.462-.462V14A.473.473,0,0,0,8.385,13.538Zm4.923,0H10.538a.473.473,0,0,0-.462.462v.923a.473.473,0,0,0,.462.462h2.769a.473.473,0,0,0,.462-.462V14A.473.473,0,0,0,13.308,13.538Z"/>
  </g>
</svg>
