<svg xmlns="http://www.w3.org/2000/svg" viewBox="0 0 14.77 12.309">
  <defs>
    <style>
      .cls-1 {
        fill: #074b69;
      }
    </style>
  </defs>
  <g id="icons_utility_tablet_landscape" data-name="icons/utility/tablet_landscape" transform="translate(-0.615 -0.846)">
    <path id="Mask" class="cls-1" d="M15.385,2.077A1.234,1.234,0,0,0,14.154.846H1.846A1.234,1.234,0,0,0,.615,2.077v9.846a1.234,1.234,0,0,0,1.231,1.231H14.154a1.234,1.234,0,0,0,1.231-1.231ZM2.123,7.923a.923.923,0,0,1,0-1.846A.907.907,0,0,1,3.046,7,.926.926,0,0,1,2.123,7.923Zm11.415,2.923a.473.473,0,0,1-.462.462H4.154a.473.473,0,0,1-.462-.462V3.154a.473.473,0,0,1,.462-.462h8.923a.473.473,0,0,1,.462.462Z"/>
  </g>
</svg>
