<svg xmlns="http://www.w3.org/2000/svg" viewBox="0 0 12.309 14.77">
  <defs>
    <style>
      .cls-1 {
        fill: #074b69;
      }
    </style>
  </defs>
  <g id="icons_utility_tablet_portrait" data-name="icons/utility/tablet_portrait" transform="translate(-0.846 -0.615)">
    <path id="Mask" class="cls-1" d="M13.154,1.846A1.234,1.234,0,0,0,11.923.615H2.077A1.234,1.234,0,0,0,.846,1.846V14.154a1.234,1.234,0,0,0,1.231,1.231h9.846a1.234,1.234,0,0,0,1.231-1.231ZM6.969,14.769a.923.923,0,1,1,.923-.923A.926.926,0,0,1,6.969,14.769Zm4.338-2.923a.473.473,0,0,1-.462.462H3.154a.473.473,0,0,1-.462-.462V2.923a.473.473,0,0,1,.462-.462h7.692a.473.473,0,0,1,.462.462Z"/>
  </g>
</svg>
