<svg xmlns="http://www.w3.org/2000/svg" viewBox="0 0 13.539 13.539">
  <defs>
    <style>
      .cls-1 {
        fill: #074b69;
      }
    </style>
  </defs>
  <g id="icons_utility_text_background_color" data-name="icons/utility/text_background_color" transform="translate(-0.23 -0.23)">
    <path id="Mask" class="cls-1" d="M6.969,3.923,8.292,7H5.523l1.2-3.077Zm6.8-2.462V12.538a1.234,1.234,0,0,1-1.231,1.231H1.462A1.234,1.234,0,0,1,.231,12.538V1.462A1.234,1.234,0,0,1,1.462.231H12.538A1.234,1.234,0,0,1,13.769,1.462ZM12.077,11.523,8.385,2.385a.5.5,0,0,0-.462-.308H5.738a.463.463,0,0,0-.431.308L1.923,11.523a.3.3,0,0,0,.277.4H3.462a.494.494,0,0,0,.431-.338l.985-2.738H9l1.077,2.738a.494.494,0,0,0,.431.338h1.262A.318.318,0,0,0,12.077,11.523Z"/>
  </g>
</svg>
