<svg xmlns="http://www.w3.org/2000/svg" viewBox="0 0 14.77 13.539">
  <defs>
    <style>
      .cls-1 {
        fill: #074b69;
      }
    </style>
  </defs>
  <g id="icons_utility_text_color" data-name="icons/utility/text_color" transform="translate(-0.615 -0.23)">
    <path id="Mask" class="cls-1" d="M3.2,10.077H4.462a.494.494,0,0,0,.431-.338L5.877,7H10l1.077,2.738a.494.494,0,0,0,.431.338h1.262a.287.287,0,0,0,.277-.4L9.354.538a.425.425,0,0,0-.4-.308H6.769a.463.463,0,0,0-.431.308L2.954,9.677a.283.283,0,0,0,.246.4Zm4.523-8H8L9.323,5.154H6.554Zm7.2,9.846H1.077a.473.473,0,0,0-.462.462v.923a.473.473,0,0,0,.462.462H14.923a.473.473,0,0,0,.462-.462v-.923A.473.473,0,0,0,14.923,11.923Z"/>
  </g>
</svg>
