<svg xmlns="http://www.w3.org/2000/svg" viewBox="0 0 14.77 14.77">
  <defs>
    <style>
      .cls-1 {
        fill: #074b69;
      }
    </style>
  </defs>
  <g id="icons_utility_thunder" data-name="icons/utility/thunder" transform="translate(-0.615 -0.615)">
    <path id="Mask" class="cls-1" d="M9.362.962a1.133,1.133,0,0,0-1.631,0L.962,7.731a1.1,1.1,0,0,0,0,1.6l3.6,3.631a1.152,1.152,0,0,0,1.6,0l6.8-6.8a1.152,1.152,0,0,0,0-1.6l-3.6-3.6Zm-5.6.585a.468.468,0,0,0-.615,0l-1.6,1.6a.468.468,0,0,0,0,.615l.615.585a.378.378,0,0,0,.585,0l1.6-1.6a.378.378,0,0,0,0-.585l-.585-.615Zm5.815,9.631a.378.378,0,0,0,0,.585l3.477,3.508a.468.468,0,0,0,.615,0l1.6-1.6a.468.468,0,0,0,0-.615L11.762,9.546a.428.428,0,0,0-.585,0l-1.6,1.631Z"/>
  </g>
</svg>
