<svg xmlns="http://www.w3.org/2000/svg" viewBox="0 0 13.539 13.539">
  <defs>
    <style>
      .cls-1 {
        fill: #074b69;
      }
    </style>
  </defs>
  <g id="icons_utility_tile_card_list" data-name="icons/utility/tile_card_list" transform="translate(-0.23 -0.23)">
    <path id="Mask" class="cls-1" d="M3.462.231H.692A.473.473,0,0,0,.231.692V5.923a.473.473,0,0,0,.462.462H3.462a.473.473,0,0,0,.462-.462V.692A.473.473,0,0,0,3.462.231Zm4.923,0H5.615a.473.473,0,0,0-.462.462V5.923a.473.473,0,0,0,.462.462H8.385a.473.473,0,0,0,.462-.462V.692A.473.473,0,0,0,8.385.231Zm4.923,0H10.538a.473.473,0,0,0-.462.462V5.923a.473.473,0,0,0,.462.462h2.769a.473.473,0,0,0,.462-.462V.692A.473.473,0,0,0,13.308.231ZM3.462,7.615H.692a.473.473,0,0,0-.462.462v5.231a.473.473,0,0,0,.462.462H3.462a.473.473,0,0,0,.462-.462V8.077A.473.473,0,0,0,3.462,7.615Zm4.923,0H5.615a.473.473,0,0,0-.462.462v5.231a.473.473,0,0,0,.462.462H8.385a.473.473,0,0,0,.462-.462V8.077A.473.473,0,0,0,8.385,7.615Zm4.923,0H10.538a.473.473,0,0,0-.462.462v5.231a.473.473,0,0,0,.462.462h2.769a.473.473,0,0,0,.462-.462V8.077A.473.473,0,0,0,13.308,7.615Z"/>
  </g>
</svg>
