<svg xmlns="http://www.w3.org/2000/svg" viewBox="0 0 9.843 14.725">
  <defs>
    <style>
      .cls-1 {
        fill: #074b69;
      }
    </style>
  </defs>
  <g id="icons_utility_touch_action" data-name="icons/utility/touch_action" transform="translate(-0.077 -0.615)">
    <path id="Mask" class="cls-1" d="M8.662,9.125,6.138,8.263A.5.5,0,0,1,5.8,7.8V4.448a.933.933,0,0,0-.954-.923H4.754a.953.953,0,0,0-.954.923v6.615a.549.549,0,0,1-1.015.308l-.646-1.354A1.14,1.14,0,0,0,.477,9.679l-.4.308L2.2,15a.581.581,0,0,0,.554.338H8.323a.564.564,0,0,0,.554-.431L9.862,11.4a1.933,1.933,0,0,0-1.2-2.277ZM2.323,7.033V4.386A2.466,2.466,0,0,1,4.662,2.048h.246A2.466,2.466,0,0,1,7.246,4.386V7.033a.267.267,0,0,0,.431.185A3.875,3.875,0,0,0,8.754,4.54,3.94,3.94,0,0,0,4.446.633,3.987,3.987,0,0,0,.908,3.925,3.869,3.869,0,0,0,1.923,7.217.247.247,0,0,0,2.323,7.033Z"/>
  </g>
</svg>
