<svg xmlns="http://www.w3.org/2000/svg" viewBox="0 0 11.702 14.77">
  <defs>
    <style>
      .cls-1 {
        fill: #074b69;
      }
    </style>
  </defs>
  <g id="icons_utility_trail" data-name="icons/utility/trail" transform="translate(-0.846 -0.615)">
    <path id="Mask" class="cls-1" d="M7.253.615A1.8,1.8,0,0,1,9.069,2.431a1.815,1.815,0,1,1-3.631,0A1.8,1.8,0,0,1,7.253.615ZM11.93,5.569a.663.663,0,0,0-.738.554l-.185,1.785c-.062,0-.092.092-.154.092H9.161L7.992,5.938A.678.678,0,0,0,7.5,5.569L5.715,5.323a.7.7,0,0,0-.738.431L3.623,9.231a.6.6,0,0,0,.277.708l3.323,2.277L7.5,14.8a.669.669,0,0,0,.677.585.646.646,0,0,0,.677-.677l-.308-3.169a.576.576,0,0,0-.246-.431L6.484,9.077l.677-1.662.8,1.385a.8.8,0,0,0,.585.4h2.338l-.677,5.538a.6.6,0,0,0,.585.646.107.107,0,0,0,.062-.031.692.692,0,0,0,.677-.585l1.015-8.554a.641.641,0,0,0-.615-.646ZM2.453,8.523,3.592,5.6a2.33,2.33,0,0,1,.277-.554l-.154-.031A2.071,2.071,0,0,0,1.5,6.369l-.615,1.6a.634.634,0,0,0,.431.831l.277.062a.646.646,0,0,0,.862-.338Zm.431,2.308L1.5,14.954a.308.308,0,0,0,.308.4h.769a.712.712,0,0,0,.646-.431l1.354-2.985-1.538-.954a.371.371,0,0,0-.154-.154Z"/>
  </g>
</svg>
