<svg xmlns="http://www.w3.org/2000/svg" viewBox="0 0 14.833 12.924">
  <defs>
    <style>
      .cls-1 {
        fill: #074b69;
      }
    </style>
  </defs>
  <g id="icons_utility_turn_off_notifications" data-name="icons/utility/turn_off_notifications" transform="translate(-0.615 -0.846)">
    <path id="Mask" class="cls-1" d="M7.233,7.492a.411.411,0,0,0,.615,0l6.585-6.062a.374.374,0,0,0-.369-.585H1.079c-.338,0-.615.338-.369.615L7.233,7.492Zm2.062,3.385a3.7,3.7,0,0,1,3.292-3.323c.154,0,.308-.031.431-.031a3.994,3.994,0,0,1,1.508.308V4.015a.343.343,0,0,0-.585-.246L8.833,8.508a1.863,1.863,0,0,1-2.523,0L1.2,3.769a.34.34,0,0,0-.585.246v6.031a1.432,1.432,0,0,0,1.415,1.415H9.325a3.724,3.724,0,0,1-.031-.585Zm3.692-2.031a2.462,2.462,0,1,0,2.462,2.462A2.469,2.469,0,0,0,12.986,8.846ZM14.833,11.8a.141.141,0,0,1-.154.123H11.294a.141.141,0,0,1-.154-.123v-.985a.141.141,0,0,1,.154-.123h3.385a.141.141,0,0,1,.154.123Z"/>
  </g>
</svg>
