<svg xmlns="http://www.w3.org/2000/svg" viewBox="0 0 12.924 14.77">
  <defs>
    <style>
      .cls-1 {
        fill: #074b69;
      }
    </style>
  </defs>
  <g id="icons_utility_undelete" data-name="icons/utility/undelete" transform="translate(-0.846 -0.615)">
    <path id="Mask" class="cls-1" d="M12.077,6.154H2.538a.473.473,0,0,0-.462.462v7.231a1.524,1.524,0,0,0,1.538,1.538H11a1.524,1.524,0,0,0,1.538-1.538V6.615A.473.473,0,0,0,12.077,6.154Zm-4.769,8V12.923A1.846,1.846,0,1,0,6.015,9.785l.738.738a.166.166,0,0,1-.123.277H4.385a.145.145,0,0,1-.154-.154V8.4a.17.17,0,0,1,.277-.123l.646.646a3.178,3.178,0,0,1,2.185-.892,3.062,3.062,0,1,1-.031,6.123Zm6-11.077H9.462V1.846A1.234,1.234,0,0,0,8.231.615H6.385A1.234,1.234,0,0,0,5.154,1.846V3.077H1.308a.473.473,0,0,0-.462.462v.923a.473.473,0,0,0,.462.462h12a.473.473,0,0,0,.462-.462V3.538A.473.473,0,0,0,13.308,3.077Zm-5.077,0H6.385V2.154a.291.291,0,0,1,.308-.308H7.923a.291.291,0,0,1,.308.308Z"/>
  </g>
</svg>
