<svg xmlns="http://www.w3.org/2000/svg" viewBox="0 0 12.309 14.775">
  <defs>
    <style>
      .cls-1 {
        fill: #074b69;
      }
    </style>
  </defs>
  <g id="icons_utility_unlock" data-name="icons/utility/unlock" transform="translate(-0.846 -0.615)">
    <path id="Mask" class="cls-1" d="M2.077,5.575v0Zm9.846,1.508h-8V5.637A3.132,3.132,0,0,1,6.785,2.468,3.079,3.079,0,0,1,9.954,4.683a.331.331,0,0,0,.308.246h1.262a.325.325,0,0,0,.308-.369A4.935,4.935,0,0,0,6.754.622,5.027,5.027,0,0,0,2.077,5.575V7.083A1.234,1.234,0,0,0,.846,8.314V14.16a1.234,1.234,0,0,0,1.231,1.231h9.846a1.234,1.234,0,0,0,1.231-1.231V8.314A1.234,1.234,0,0,0,11.923,7.083ZM8.415,13.145a.318.318,0,0,1-.308.4H5.862a.308.308,0,0,1-.308-.4L6.108,11.3a1.419,1.419,0,0,1-.615-1.477,1.543,1.543,0,0,1,3.046.277,1.408,1.408,0,0,1-.646,1.2l.523,1.846Z"/>
  </g>
</svg>
