<svg xmlns="http://www.w3.org/2000/svg" viewBox="0 0 11.076 14.77">
  <defs>
    <style>
      .cls-1 {
        fill: #074b69;
      }
    </style>
  </defs>
  <g id="icons_utility_unmuted" data-name="icons/utility/unmuted" transform="translate(-0.462 -0.615)">
    <path id="Mask" class="cls-1" d="M10.769,5.538A.736.736,0,0,0,10,6.277V7.508a4.032,4.032,0,0,1-8.062,0V6.277a.736.736,0,0,0-.769-.738.687.687,0,0,0-.708.738V7.508a5.464,5.464,0,0,0,4.769,5.354v1.046H3.969a.739.739,0,1,0,0,1.477H8a.739.739,0,1,0,0-1.477H6.738V12.862a5.465,5.465,0,0,0,4.8-5.354V6.277A.736.736,0,0,0,10.769,5.538ZM6,9.969A2.469,2.469,0,0,0,8.462,7.508V3.046A2.416,2.416,0,0,0,6.031.615H5.969A2.416,2.416,0,0,0,3.538,3.046V7.508A2.469,2.469,0,0,0,6,9.969Z"/>
  </g>
</svg>
