<svg xmlns="http://www.w3.org/2000/svg" viewBox="0 0 14.77 14.785">
  <defs>
    <style>
      .cls-1 {
        fill: #074b69;
      }
    </style>
  </defs>
  <g id="icons_utility_upload-copy" data-name="icons/utility/upload-copy" transform="translate(-0.615 -0.615)">
    <path id="Mask" class="cls-1" d="M14.923,9.554H14a.5.5,0,0,0-.462.462v3.077a.473.473,0,0,1-.462.462H2.923a.473.473,0,0,1-.462-.462V10.015A.5.5,0,0,0,2,9.554H1.077a.5.5,0,0,0-.462.462v4.154A1.234,1.234,0,0,0,1.846,15.4H14.154a1.234,1.234,0,0,0,1.231-1.231V10.015A.5.5,0,0,0,14.923,9.554ZM8.308.754a.446.446,0,0,0-.646,0L3.508,4.908a.446.446,0,0,0,0,.646l.646.646a.446.446,0,0,0,.646,0L6.523,4.477a.33.33,0,0,1,.554.215v6.523a.447.447,0,0,0,.431.462h.923a.527.527,0,0,0,.492-.462V4.723a.3.3,0,0,1,.523-.215l1.723,1.723a.446.446,0,0,0,.646,0l.646-.646a.446.446,0,0,0,0-.646L8.308.754Z"/>
  </g>
</svg>
