<svg xmlns="http://www.w3.org/2000/svg" viewBox="0 0 14.77 14.778">
  <defs>
    <style>
      .cls-1 {
        fill: #074b69;
      }
    </style>
  </defs>
  <g id="icons_utility_volume_high" data-name="icons/utility/volume_high" transform="translate(-0.615 -0.615)">
    <path id="Mask" class="cls-1" d="M7.569.8,3.692,5.543H1.846A1.234,1.234,0,0,0,.615,6.774V9.235a1.234,1.234,0,0,0,1.231,1.231H3.692L7.569,15.2a.606.606,0,0,0,1.046-.431V1.235A.609.609,0,0,0,7.569.8Zm5.538,1.877a.3.3,0,0,0-.431,0l-.431.431a.3.3,0,0,0,0,.431,6.171,6.171,0,0,1,0,8.923.3.3,0,0,0,0,.431l.431.431a.3.3,0,0,0,.431,0A7.384,7.384,0,0,0,15.385,8a7.265,7.265,0,0,0-2.277-5.323ZM11.169,4.651a.3.3,0,0,0-.431,0l-.431.431a.3.3,0,0,0,0,.431,3.39,3.39,0,0,1-.031,4.985.3.3,0,0,0,0,.431l.431.431a.3.3,0,0,0,.431,0,4.616,4.616,0,0,0,1.477-3.385,4.555,4.555,0,0,0-1.446-3.323Z"/>
  </g>
</svg>
