<svg xmlns="http://www.w3.org/2000/svg" viewBox="0 0 18 18">
  <defs>
    <style>
      .path{
        fill:#fff;
      }</style>
  </defs>
  <g transform="translate(-594.814 -407.659)">
    <path class="circle" style="fill: none" d="M603.814,408.659a8,8,0,1,0,8,8A8,8,0,0,0,603.814,408.659Z"/>
    <path class="path" d="M603.814,408.659a8,8,0,1,1-8,8,8,8,0,0,1,8-8m0-1a9,9,0,1,0,9,9,9.01,9.01,0,0,0-9-9Z"/>
    <path class="path" d="M602.978,412.75a.842.842,0,0,1,1.682,0v.13c-.142,1.73-.225,3.447-.3,5.46a.509.509,0,0,1-.518.5l-.039,0a.49.49,0,0,1-.533-.5c-.071-2.013-.154-3.73-.3-5.46Z"/>
    <path class="path" d="M604.708,420.483a.875.875,0,0,1-.862.889h-.038a.874.874,0,0,1-.889-.857v-.032a.895.895,0,0,1,1.789,0Z"/>
  </g>
</svg>

