<svg xmlns="http://www.w3.org/2000/svg" viewBox="0 0 12.894 13.478">
  <defs>
    <style>
      .cls-1 {
        fill: #074b69;
      }
    </style>
  </defs>
  <g id="icons_utility_work_order_type" data-name="icons/utility/work_order_type" transform="translate(-0.846 -0.23)">
    <path id="Mask" class="cls-1" d="M11.4,7.277a.605.605,0,0,1-.585.585H3.8a.605.605,0,0,1-.585-.585V6.692A.605.605,0,0,1,3.8,6.108h7.046a.605.605,0,0,1,.585.585v.585Zm-1.169,3.508a.605.605,0,0,1-.585.585H3.8a.605.605,0,0,1-.585-.585V10.2A.605.605,0,0,1,3.8,9.615H9.677a.605.605,0,0,1,.585.585v.585ZM3.215,3.154A.605.605,0,0,1,3.8,2.569H9.677a.605.605,0,0,1,.585.585v.585a.605.605,0,0,1-.585.585H3.8a.605.605,0,0,1-.585-.585V3.154ZM11.985.231H2.631A1.78,1.78,0,0,0,.846,1.985v9.969A1.773,1.773,0,0,0,2.6,13.708h9.385a1.773,1.773,0,0,0,1.754-1.754V1.985A1.734,1.734,0,0,0,11.985.231Z"/>
  </g>
</svg>
