<svg xmlns="http://www.w3.org/2000/svg" viewBox="0 0 14.77 14.77">
  <defs>
    <style>
      .cls-1 {
        fill: #074b69;
      }
    </style>
  </defs>
  <g id="icons_utility_world" data-name="icons/utility/world" transform="translate(-0.615 -0.615)">
    <path id="Mask" class="cls-1" d="M8,.615A7.385,7.385,0,1,0,15.385,8,7.367,7.367,0,0,0,8,.615Zm.615,1.569h0ZM8,13.846A5.844,5.844,0,0,1,2.154,8a4.472,4.472,0,0,1,.092-.923,2.236,2.236,0,0,1,1.138.462A4.259,4.259,0,0,0,5.046,8.862a.368.368,0,0,0-.123.123,1.089,1.089,0,0,0-.123.585c0,1.446,1.354.585,1.354,2.031s1.631,2.031,1.631.862,1.077-1.723,1.077-2.615-.831-.862-1.354-1.169c-.554-.277-.831-.738-1.877-.585-.554-.523-.862-.954-.615-1.446.277-.523,1.415-.615,1.415-1.415s-.769-.954-1.323-.954a3.607,3.607,0,0,1-1.2-.4A6.347,6.347,0,0,1,5.754,2.615a5.618,5.618,0,0,0,2.031.554c.831,0,1.262-.585,1.138-.954a6,6,0,0,1,3.508,1.908,3.841,3.841,0,0,1-2.154.585c-1.415,0-1.415,1.446-.585,1.723.862.277,1.723-.554,2,0s-2,.554-1.415,1.969S11.415,8.369,12,9.785s1.723-.215.862-1.323c-.369-.492-.277-2,.585-2h.277A6.4,6.4,0,0,1,13.938,8,5.984,5.984,0,0,1,8,13.846Z"/>
  </g>
</svg>
