<svg xmlns="http://www.w3.org/2000/svg" viewBox="0 0 16 7.385">
  <defs>
    <style>
      .cls-1 {
        fill: #074b69;
      }
    </style>
  </defs>
  <g id="icons_utility_yubi_key" data-name="icons/utility/yubi_key" transform="translate(0 -0.308)">
    <path id="Combined-Shape" class="cls-1" d="M12.308,1.508h3.231A.473.473,0,0,1,16,1.969v4a.473.473,0,0,1-.462.462H12.308v.8a.473.473,0,0,1-.462.462H.462A.473.473,0,0,1,0,7.231V.769A.473.473,0,0,1,.462.308H11.846a.473.473,0,0,1,.462.462ZM14.492,5.2a.291.291,0,0,0,.308-.308V4.369H12.308V5.2Zm0-2.462H12.308v.892H14.8V3.046A.291.291,0,0,0,14.492,2.738ZM6.462,5.877A1.877,1.877,0,1,1,8.338,4,1.865,1.865,0,0,1,6.462,5.877Zm0-1.508A.369.369,0,1,0,6.092,4,.369.369,0,0,0,6.462,4.369Z"/>
  </g>
</svg>
