<svg xmlns="http://www.w3.org/2000/svg" viewBox="0 0 14.758 14.785">
  <defs>
    <style>
      .cls-1 {
        fill: #074b69;
      }
    </style>
  </defs>
  <g id="icons_utility_zoomin" data-name="icons/utility/zoomin" transform="translate(-0.615 -0.615)">
    <path id="Mask" class="cls-1" d="M9.538,5.846H7.692V4a.291.291,0,0,0-.308-.308H6.154A.291.291,0,0,0,5.846,4V5.846H4a.291.291,0,0,0-.308.308V7.385A.291.291,0,0,0,4,7.692H5.846V9.538a.291.291,0,0,0,.308.308H7.385a.291.291,0,0,0,.308-.308V7.692H9.538a.291.291,0,0,0,.308-.308V6.154A.291.291,0,0,0,9.538,5.846Zm5.723,8.062L11.723,10.4A6.184,6.184,0,1,0,10.4,11.723l3.538,3.538a.446.446,0,0,0,.646,0l.646-.646A.556.556,0,0,0,15.262,13.908ZM6.769,11.077a4.308,4.308,0,1,1,4.308-4.308A4.32,4.32,0,0,1,6.769,11.077Z"/>
  </g>
</svg>
