<svg xmlns="http://www.w3.org/2000/svg" viewBox="0 0 14.758 14.785">
  <defs>
    <style>
      .cls-1 {
        fill: #074b69;
      }
    </style>
  </defs>
  <g id="icons_utility_zoomout" data-name="icons/utility/zoomout" transform="translate(-0.615 -0.615)">
    <path id="Combined-Shape" class="cls-1" d="M15.262,13.938a.516.516,0,0,1-.031.677l-.646.646a.446.446,0,0,1-.646,0L10.4,11.723A6.184,6.184,0,1,1,11.723,10.4ZM6.769,11.077A4.308,4.308,0,1,0,2.462,6.769,4.32,4.32,0,0,0,6.769,11.077ZM5.846,5.846V7.692H4a.291.291,0,0,1-.308-.308V6.154A.291.291,0,0,1,4,5.846Zm0,1.846V5.846H9.538a.291.291,0,0,1,.308.308V7.385a.291.291,0,0,1-.308.308Z"/>
  </g>
</svg>
