<svg xmlns="http://www.w3.org/2000/svg" width="14.984" height="15" viewBox="0 0 14.984 15">
  <path id="Mask" d="M15.132,9.684h-.937a.5.5,0,0,0-.468.468v3.122a.48.48,0,0,1-.468.468H2.957a.48.48,0,0,1-.468-.468V10.152a.5.5,0,0,0-.468-.468H1.084a.5.5,0,0,0-.468.468v4.214a1.252,1.252,0,0,0,1.249,1.249H14.351A1.252,1.252,0,0,0,15.6,14.367V10.152A.5.5,0,0,0,15.132,9.684ZM8.42.756a.453.453,0,0,0-.656,0L3.55,4.97a.453.453,0,0,0,0,.656l.656.656a.453.453,0,0,0,.656,0L6.609,4.533a.335.335,0,0,1,.562.219V11.37a.454.454,0,0,0,.437.468h.937a.535.535,0,0,0,.5-.468V4.783a.309.309,0,0,1,.531-.219l1.748,1.748a.453.453,0,0,0,.656,0l.656-.656a.453.453,0,0,0,0-.656L8.42.756Z" transform="translate(-0.615 -0.615)" fill="#0e7aa7"/>
</svg>
