<svg xmlns="http://www.w3.org/2000/svg" width="16" height="15.998" viewBox="0 0 16 15.998">
  <g id="申請-04" transform="translate(0 -0.002)">
    <path id="Mask_10_" d="M15.982,12.381a.279.279,0,0,0-.273-.273h-.636a.25.25,0,0,0-.255.243v.012a.306.306,0,0,1-.018.127,2.357,2.357,0,0,1-.273.672,2.686,2.686,0,0,1-2.345,1.382,2.725,2.725,0,0,1-1.928-.8.952.952,0,0,1-.218-.255c-.054-.145.073-.218.236-.218h1.273A.279.279,0,0,0,11.818,13v-.562a.25.25,0,0,0-.243-.255H8.236A.241.241,0,0,0,8,12.418v3.309A.312.312,0,0,0,8.291,16h.545a.279.279,0,0,0,.273-.273V14.454c0-.164.091-.236.218-.127a.872.872,0,0,0,.182.182A3.822,3.822,0,0,0,13,15.545a3.554,3.554,0,0,0,1.273-.527,3.82,3.82,0,0,0,1.709-2.6v-.037Zm-7.964-1.2a.279.279,0,0,0,.272.273h.636a.25.25,0,0,0,.255-.243V11.2a.306.306,0,0,1,.018-.127,2.357,2.357,0,0,1,.273-.672,2.68,2.68,0,0,1,2.345-1.382,2.725,2.725,0,0,1,1.928.8.952.952,0,0,1,.218.255c.054.145-.073.218-.236.218H12.454a.279.279,0,0,0-.273.273v.564a.25.25,0,0,0,.243.255h3.34A.24.24,0,0,0,16,11.147V7.836a.312.312,0,0,0-.291-.273h-.545a.279.279,0,0,0-.273.273V9.108c0,.164-.091.236-.218.127a.872.872,0,0,0-.182-.182A3.827,3.827,0,0,0,11,8.018a3.554,3.554,0,0,0-1.273.527,3.82,3.82,0,0,0-1.709,2.6v.036Z" fill="#7ebcd6"/>
    <path id="パス_450" data-name="パス 450" d="M9.307,7.964,7.576,6.22a.312.312,0,0,1-.01-.442.094.094,0,0,1,.01-.01l4.2-4.23a.469.469,0,0,0,.017-.662L11.777.859,11.133.18a.469.469,0,0,0-.662-.017L10.454.18,6.224,4.41a.312.312,0,0,1-.442.01.094.094,0,0,1-.01-.01L1.534.147A.467.467,0,0,0,.873.13.136.136,0,0,0,.856.147L.177.825a.469.469,0,0,0-.017.662c0,.006.011.011.017.017l4.23,4.23a.312.312,0,0,1,.01.442.094.094,0,0,1-.01.01L.146,10.453a.469.469,0,0,0-.017.662l.017.017.679.679a.469.469,0,0,0,.662.017c.006-.005.011-.011.017-.017L5.738,7.577a.312.312,0,0,1,.442-.01.094.094,0,0,1,.01.01L7.965,9.352A4.58,4.58,0,0,1,9.307,7.964Z" fill="#b7423a"/>
  </g>
</svg>
