<svg viewBox="0 0 44 44" fill="none" xmlns="http://www.w3.org/2000/svg">
<path d="M22 44C34.15 44 44 34.15 44 22C44 9.85 34.15 0 22 0C9.85 0 0 9.85 0 22C0 34.15 9.85 44 22 44Z" fill="#0090B9"/>
<path d="M23.05 33.95L23.85 32.05L23.95 31.8L24.15 31.6L34 21.75C33.85 15.25 28.55 10 22 10C15.35 10 10 15.35 10 22C10 28.65 15.35 34 22 34C22.35 34 22.7 34 23.05 33.95Z" fill="white"/>
<path d="M29 21H23.5V14C23.5 13.45 23.05 13 22.5 13H22C21.45 13 21 13.45 21 14V22V22.5C21 23.05 21.45 23.5 22 23.5H29C29.55 23.5 30 23.05 30 22.5V22C30 21.45 29.55 21 29 21Z" fill="#0090B9"/>
<path fill-rule="evenodd" clip-rule="evenodd" d="M25 32.5L23.5 36.15L27.1 34.65L25 32.5Z" fill="white"/>
<path fill-rule="evenodd" clip-rule="evenodd" d="M38.0502 22.95L36.6502 21.55C36.4502 21.35 36.1502 21.35 35.9502 21.55L26.2002 31.35L28.3002 33.45L38.0502 23.7C38.2502 23.5 38.2502 23.15 38.0502 22.95Z" fill="white"/>
</svg>
