<svg width="32" height="32" viewBox="0 0 44 44" fill="none" xmlns="http://www.w3.org/2000/svg">
<path d="M22 44C34.1503 44 44 34.1503 44 22C44 9.84974 34.1503 0 22 0C9.84974 0 0 9.84974 0 22C0 34.1503 9.84974 44 22 44Z" fill="#0090B9"/>
<path d="M12.3938 22.1217L10.9796 23.5359C10.589 23.9265 10.589 24.5596 10.9796 24.9501L18.0506 32.0212C18.4412 32.4117 19.0743 32.4117 19.4648 32.0212L20.8791 30.607C21.2696 30.2165 21.2696 29.5833 20.8791 29.1928L13.808 22.1217C13.4175 21.7312 12.7843 21.7312 12.3938 22.1217Z" fill="white"/>
<path d="M35.0207 15.0503L33.6065 13.6361C33.216 13.2455 32.5828 13.2455 32.1923 13.6361L16.636 29.1924C16.2454 29.5829 16.2454 30.2161 16.636 30.6066L18.0502 32.0208C18.4407 32.4114 19.0739 32.4114 19.4644 32.0208L35.0207 16.4645C35.4113 16.074 35.4113 15.4408 35.0207 15.0503Z" fill="white"/>
</svg>
