<svg xmlns="http://www.w3.org/2000/svg" width="16" height="16" viewBox="0 0 16 16"><defs><style>.a{fill:#afadab;}.b{fill:#fff;}</style></defs><g transform="translate(-62 -524)"><circle class="a" cx="8" cy="8" r="8" transform="translate(62 524)"/><path class="b" d="M4.274,3.356,6.388,1.233a.234.234,0,0,0,0-.341L6.064.552a.236.236,0,0,0-.342,0L3.594,2.675a.158.158,0,0,1-.228,0L1.234.535a.236.236,0,0,0-.342,0L.551.875a.234.234,0,0,0,0,.341L2.679,3.339a.157.157,0,0,1,0,.227L.535,5.707a.234.234,0,0,0,0,.341l.342.341a.236.236,0,0,0,.342,0L3.349,4.264a.158.158,0,0,1,.228,0L5.705,6.387a.236.236,0,0,0,.342,0l.342-.341a.234.234,0,0,0,0-.341L4.274,3.583a.157.157,0,0,1,0-.227Z" transform="translate(66.539 528.538)"/></g></svg>