<svg xmlns="http://www.w3.org/2000/svg" width="16.044" height="16.043" viewBox="0 0 16.044 16.043">
  <g id="申請-03" transform="translate(0.044 0.043)">
    <path id="Mask_10_" d="M15.982,12.381a.279.279,0,0,0-.273-.273h-.636a.25.25,0,0,0-.255.243v.012a.306.306,0,0,1-.018.127,2.357,2.357,0,0,1-.273.672,2.686,2.686,0,0,1-2.345,1.382,2.725,2.725,0,0,1-1.928-.8.952.952,0,0,1-.218-.255c-.054-.145.073-.218.236-.218h1.273A.279.279,0,0,0,11.818,13v-.562a.25.25,0,0,0-.243-.255H8.236A.241.241,0,0,0,8,12.418v3.309A.312.312,0,0,0,8.291,16h.545a.279.279,0,0,0,.273-.273V14.454c0-.164.091-.236.218-.127a.872.872,0,0,0,.182.182A3.822,3.822,0,0,0,13,15.545a3.554,3.554,0,0,0,1.273-.527,3.82,3.82,0,0,0,1.709-2.6v-.037Zm-7.964-1.2a.279.279,0,0,0,.272.273h.636a.25.25,0,0,0,.255-.243V11.2a.306.306,0,0,1,.018-.127,2.357,2.357,0,0,1,.273-.672,2.68,2.68,0,0,1,2.345-1.382,2.725,2.725,0,0,1,1.928.8.952.952,0,0,1,.218.255c.054.145-.073.218-.236.218H12.454a.279.279,0,0,0-.273.273v.564a.25.25,0,0,0,.243.255h3.34A.24.24,0,0,0,16,11.147V7.836a.312.312,0,0,0-.291-.273h-.545a.279.279,0,0,0-.273.273V9.108c0,.164-.091.236-.218.127a.872.872,0,0,0-.182-.182A3.827,3.827,0,0,0,11,8.018a3.554,3.554,0,0,0-1.273.527,3.82,3.82,0,0,0-1.709,2.6v.036Z" fill="#7ebcd6"/>
    <g id="グループ化_360" data-name="グループ化 360">
      <path id="パス_448" data-name="パス 448" d="M2.306,3.965l.525.525a.363.363,0,0,0,.513.012l.013-.012,1.4-1.4a.268.268,0,0,1,.45.175v5.3a.363.363,0,0,0,.35.374h.75a.427.427,0,0,0,.4-.374V3.29a.248.248,0,0,1,.426-.175l1.4,1.4a.362.362,0,0,0,.513.013l.012-.012.525-.525a.361.361,0,0,0,.012-.512.069.069,0,0,0-.011-.013L6.206.069A.363.363,0,0,0,5.693.056L5.681.069,2.306,3.44a.361.361,0,0,0-.012.512Z" fill="#0e7aa7"/>
      <path id="パス_449" data-name="パス 449" d="M7.2,11.784a4.514,4.514,0,0,1,.219-1.326H1.831a.384.384,0,0,1-.375-.374v-2.5a.4.4,0,0,0-.374-.375H.332a.4.4,0,0,0-.376.375v3.371a1,1,0,0,0,1,1H7.219C7.217,11.9,7.2,11.843,7.2,11.784Z" fill="#0e7aa7"/>
    </g>
  </g>
</svg>
