<svg xmlns="http://www.w3.org/2000/svg" width="12.965" height="13" viewBox="0 0 12.965 13">
  <path id="Mask" d="M8.7,6.733l4.568-4.6a.509.509,0,0,0,0-.738l-.7-.738a.509.509,0,0,0-.738,0l-4.6,4.6a.34.34,0,0,1-.492,0L2.13.62a.509.509,0,0,0-.738,0l-.738.738a.509.509,0,0,0,0,.738l4.6,4.6a.34.34,0,0,1,0,.492L.62,11.828a.509.509,0,0,0,0,.738l.738.738a.509.509,0,0,0,.738,0L6.7,8.7a.34.34,0,0,1,.492,0l4.6,4.6a.509.509,0,0,0,.738,0l.738-.738a.509.509,0,0,0,0-.738L8.7,7.225a.34.34,0,0,1,0-.492Z" transform="translate(-0.462 -0.461)" fill="#b7423a"/>
</svg>
