<svg width="44" height="44" viewBox="0 0 44 44" fill="none" xmlns="http://www.w3.org/2000/svg">
<path d="M22 44C34.1503 44 44 34.1503 44 22C44 9.84974 34.1503 0 22 0C9.84974 0 0 9.84974 0 22C0 34.1503 9.84974 44 22 44Z" fill="#0090B9"/>
<path d="M28.2971 30.143C28.2353 29.8034 28.0925 29.4838 27.8809 29.2112C27.6692 28.9386 27.3948 28.721 27.0811 28.577L24.3422 27.458C24.1184 27.3551 23.9287 27.1902 23.7958 26.9829C23.6629 26.7755 23.5922 26.5343 23.5922 26.288V25.888C23.5918 25.697 23.6235 25.5074 23.6862 25.327C24.6469 24.0355 25.2421 22.509 25.4091 20.908C25.4091 18.258 23.7092 16.554 21.6232 16.554C19.5372 16.554 17.8382 18.254 17.8382 20.908C18.0052 22.509 18.6004 24.0355 19.5612 25.327C19.6233 25.5075 19.6551 25.6971 19.6552 25.888V26.288C19.6551 26.5343 19.5844 26.7755 19.4515 26.9829C19.3186 27.1902 19.129 27.3551 18.9052 27.458L16.1662 28.577C15.8524 28.7209 15.578 28.9384 15.3663 29.211C15.1546 29.4836 15.0118 29.8034 14.9502 30.143L14.8502 31.42C14.8448 31.4889 14.8537 31.5581 14.8764 31.6234C14.8991 31.6886 14.9351 31.7484 14.9821 31.7991C15.029 31.8497 15.086 31.8901 15.1494 31.9176C15.2127 31.9451 15.2811 31.9593 15.3502 31.959H27.8972C27.9662 31.9593 28.0346 31.9451 28.098 31.9176C28.1613 31.8901 28.2183 31.8497 28.2653 31.7991C28.3122 31.7484 28.3482 31.6886 28.3709 31.6234C28.3936 31.5581 28.4025 31.4889 28.3972 31.42L28.2971 30.143Z" fill="white"/>
<path d="M24.2435 22.823C23.9612 22.9524 23.7143 23.1481 23.5238 23.3934C23.3333 23.6387 23.2049 23.9264 23.1494 24.232L23.0225 25.866H23.5955C23.5966 25.6817 23.6273 25.4987 23.6865 25.324C24.3153 24.4454 24.8084 23.4773 25.1494 22.452L24.2435 22.823Z" fill="white"/>
<path d="M20.0986 24.232C20.043 23.9265 19.9145 23.6389 19.7241 23.3936C19.5336 23.1483 19.2868 22.9526 19.0046 22.823L18.0986 22.452C18.4392 23.4774 18.9324 24.4457 19.5616 25.324C19.6208 25.4987 19.6515 25.6817 19.6526 25.866H20.2256L20.0986 24.232Z" fill="white"/>
<path d="M17.5125 25.866C16.5239 24.3903 15.9458 22.678 15.8375 20.905C15.8057 19.2619 16.3807 17.6648 17.4525 16.419L17.4825 16.348C17.6765 13.719 16.0825 12 14.0915 12C12.2105 12 10.6855 13.533 10.6855 15.918C10.8357 17.3588 11.3711 18.7326 12.2355 19.895C12.2917 20.0575 12.3204 20.2281 12.3205 20.4V20.762C12.3205 20.9837 12.2569 21.2008 12.1373 21.3874C12.0176 21.574 11.847 21.7224 11.6455 21.815L9.18053 22.823C8.89822 22.9524 8.65133 23.1481 8.46086 23.3934C8.27039 23.6387 8.14197 23.9264 8.08652 24.232L8.00152 25.332C7.99614 25.4009 8.00507 25.4701 8.02777 25.5353C8.05047 25.6006 8.08646 25.6604 8.13344 25.7111C8.18041 25.7617 8.23737 25.8021 8.30072 25.8296C8.36407 25.8571 8.43245 25.8712 8.50152 25.871H17.5135L17.5125 25.866Z" fill="white"/>
<path d="M35.1604 24.232C35.1048 23.9265 34.9763 23.6389 34.7859 23.3936C34.5954 23.1483 34.3486 22.9526 34.0664 22.823L31.6014 21.815C31.3997 21.7227 31.2289 21.5744 31.1092 21.3877C30.9895 21.201 30.926 20.9838 30.9264 20.762V20.4C30.926 20.2281 30.9547 20.0573 31.0114 19.895C31.8757 18.7325 32.4111 17.3588 32.5614 15.918C32.5614 13.533 31.0364 12 29.1544 12C27.1624 12 25.5694 13.719 25.7644 16.348L25.7944 16.419C26.8658 17.665 27.4407 19.262 27.4094 20.905C27.3009 22.6781 26.7224 24.3904 25.7334 25.866H34.7454C34.8145 25.8662 34.8828 25.8521 34.9462 25.8246C35.0096 25.7971 35.0665 25.7567 35.1135 25.7061C35.1605 25.6554 35.1964 25.5956 35.2191 25.5303C35.2419 25.4651 35.2508 25.3959 35.2454 25.327L35.1604 24.232Z" fill="white"/>
</svg>
