<svg width="32" height="32" viewBox="0 0 44 44" fill="none" xmlns="http://www.w3.org/2000/svg"><path d="M22 44c12.15 0 22-9.85 22-22S34.15 0 22 0 0 9.85 0 22s9.85 22 22 22z" fill="#0090B9"/><path d="M15.353 28.82l1.418-1.67a.421.421 0 01.6-.039 7.335 7.335 0 004.627 1.876c2.138 0 3.312-.971 3.312-2.452 0-1.562-1.226-2.062-2.952-2.793l-2.6-1.128c-1.87-.778-3.839-2.259-3.839-5.036 0-3.026 2.672-5.355 6.378-5.355a8.352 8.352 0 015.57 2.148.429.429 0 01.036.581l-1.218 1.5a.423.423 0 01-.592.06 5.962 5.962 0 00-3.8-1.366c-1.8 0-2.975.843-2.975 2.231 0 1.493 1.447 2.045 3.021 2.689l2.561 1.075c2.26.941 3.84 2.37 3.84 5.123 0 3.079-2.556 5.646-6.82 5.646a9.8 9.8 0 01-6.544-2.5.43.43 0 01-.023-.59z" fill="#fff"/><path d="M22.346 9.478h-.693a.5.5 0 00-.5.5v2.707a.5.5 0 00.5.5h.693a.5.5 0 00.5-.5V9.978a.5.5 0 00-.5-.5zm0 21.337h-.693a.5.5 0 00-.5.5v2.707a.5.5 0 00.5.5h.693a.5.5 0 00.5-.5v-2.707a.5.5 0 00-.5-.5z" fill="#fff"/></svg>