<svg width="44" height="44" viewBox="0 0 44 44" fill="none" xmlns="http://www.w3.org/2000/svg">
<path d="M22 44C34.1503 44 44 34.1503 44 22C44 9.84974 34.1503 0 22 0C9.84974 0 0 9.84974 0 22C0 34.1503 9.84974 44 22 44Z" fill="#0090B9"/>
<path d="M31.9315 16.0899L29.2945 16.6652C29.2155 16.688 29.1317 16.6882 29.0525 16.6659C28.9734 16.6436 28.9021 16.5997 28.8465 16.5391L27.3022 14.8874C27.2458 14.828 27.2071 14.7539 27.1906 14.6736C27.1741 14.5934 27.1804 14.5101 27.2088 14.4332L27.9507 11.8618C28.0134 11.6842 28.0077 11.4896 27.9347 11.3161C27.8616 11.1425 27.7266 11.0023 27.5558 10.923L25.9281 10.1849C25.7563 10.1065 25.5612 10.0959 25.3819 10.1554C25.2027 10.2148 25.0525 10.3399 24.9616 10.5054L23.5131 12.7538C23.4737 12.8257 23.4151 12.8853 23.3438 12.9258C23.2725 12.9664 23.1913 12.9863 23.1094 12.9835L20.8483 12.9065C20.7667 12.904 20.6873 12.8791 20.6187 12.8346C20.5502 12.7902 20.4952 12.7277 20.4597 12.6542L19.1588 10.2909C19.079 10.1199 18.9377 9.98523 18.7629 9.91389C18.5882 9.84255 18.393 9.83975 18.2163 9.90605L16.542 10.5369C16.365 10.6032 16.2196 10.7339 16.1349 10.9028C16.0502 11.0718 16.0325 11.2664 16.0852 11.4479L16.6606 14.0837C16.6833 14.1627 16.6836 14.2465 16.6613 14.3256C16.639 14.4048 16.5951 14.4761 16.5344 14.5316L14.8815 16.0773C14.8216 16.1334 14.7474 16.1718 14.667 16.1883C14.5866 16.2048 14.5032 16.1987 14.426 16.1706L11.8559 15.43C11.6784 15.3655 11.4831 15.3703 11.3091 15.4435C11.1351 15.5167 10.9951 15.6529 10.9171 15.8249L10.1777 17.4526C10.1014 17.6247 10.0919 17.819 10.1512 17.9977C10.2105 18.1764 10.3342 18.3267 10.4982 18.4191L12.7479 19.8676C12.8195 19.907 12.8787 19.9654 12.919 20.0365C12.9594 20.1076 12.9792 20.1884 12.9763 20.2701L12.9006 22.5298C12.8985 22.6116 12.8738 22.6912 12.8293 22.7598C12.7847 22.8284 12.7221 22.8833 12.6482 22.9185L10.2837 24.2206C10.115 24.3028 9.98289 24.4448 9.91294 24.6189C9.843 24.7931 9.84023 24.987 9.90518 25.1631L10.5361 26.8362C10.6023 27.0128 10.7329 27.158 10.9015 27.2427C11.0701 27.3274 11.2645 27.3453 11.4458 27.2929L14.0828 26.7163C14.1617 26.6941 14.2451 26.6942 14.324 26.7164C14.4028 26.7387 14.4739 26.7823 14.5295 26.8425L16.0751 28.4941C16.1314 28.5539 16.1699 28.6282 16.1864 28.7086C16.2029 28.7891 16.1967 28.8725 16.1685 28.9496L15.4278 31.521C15.3651 31.6986 15.3708 31.8932 15.4439 32.0668C15.5169 32.2403 15.652 32.3805 15.8228 32.4598L17.4504 33.1992C17.6224 33.2772 17.8175 33.2874 17.9967 33.2277C18.1759 33.1681 18.326 33.043 18.4169 32.8774L19.8642 30.6277C19.904 30.5562 19.9627 30.4971 20.034 30.4568C20.1052 30.4165 20.1861 30.3967 20.2679 30.3994L22.529 30.4751C22.6107 30.4774 22.6901 30.5022 22.7587 30.5467C22.8272 30.5912 22.8822 30.6537 22.9176 30.7274L24.2185 33.0907C24.2996 33.2605 24.4411 33.394 24.6154 33.4652C24.7896 33.5363 24.9841 33.54 25.161 33.4755L26.8353 32.8446C27.0112 32.7769 27.1554 32.646 27.2399 32.4775C27.3244 32.309 27.343 32.1151 27.2921 31.9336L26.7154 29.2978C26.6932 29.2186 26.6932 29.1348 26.7154 29.0555C26.7377 28.9763 26.7813 28.9047 26.8416 28.8487L28.4945 27.3043C28.5542 27.2483 28.6282 27.2099 28.7084 27.1934C28.7886 27.1769 28.8718 27.183 28.9487 27.2109L31.5202 27.9528C31.6975 28.0174 31.8926 28.0128 32.0666 27.9398C32.2407 27.8668 32.3807 27.7309 32.4589 27.5592L33.1983 25.9315C33.2764 25.7597 33.2868 25.5647 33.2274 25.3855C33.168 25.2063 33.0431 25.0561 32.8778 24.965L30.6269 23.5165C30.5553 23.4768 30.4961 23.4181 30.4558 23.3468C30.4155 23.2756 30.3956 23.1946 30.3985 23.1128L30.4742 20.853C30.4764 20.7713 30.5011 20.6917 30.5457 20.6231C30.5902 20.5546 30.6528 20.4996 30.7265 20.4643L33.0911 19.1622C33.261 19.0813 33.3942 18.9395 33.4643 18.7649C33.5345 18.5903 33.5363 18.3956 33.4696 18.2197L32.8387 16.5466C32.771 16.3716 32.6407 16.2279 32.4731 16.1435C32.3054 16.0591 32.1124 16.04 31.9315 16.0899V16.0899ZM25.4676 23.408C25.0703 24.2837 24.3816 24.9945 23.519 25.4194C22.6563 25.8443 21.6731 25.9568 20.7367 25.738C19.8003 25.5191 18.9688 24.9823 18.3839 24.2191C17.799 23.4558 17.4968 22.5134 17.5288 21.5523C17.5609 20.5913 17.9252 19.6711 18.5597 18.9485C19.1941 18.2259 20.0595 17.7457 21.0084 17.5897C21.9573 17.4337 22.9309 17.6116 23.7633 18.093C24.5957 18.5743 25.2355 19.3295 25.5736 20.2297C25.767 20.7401 25.8574 21.2838 25.8394 21.8293C25.8214 22.3749 25.6955 22.9114 25.4688 23.408H25.4676Z" fill="white"/>
</svg>
