<svg width="24" height="24" viewBox="0 0 24 24" fill="none" xmlns="http://www.w3.org/2000/svg">
<path d="M17.625 13.2553H16.8749C16.7776 13.2616 16.6858 13.3031 16.6168 13.3721C16.5478 13.441 16.5063 13.5326 16.4999 13.6299V16.1274C16.4976 16.226 16.4573 16.3199 16.3875 16.3897C16.3177 16.4594 16.2236 16.4997 16.1249 16.502H7.87509C7.77636 16.4997 7.68233 16.4594 7.6125 16.3897C7.54267 16.3199 7.50241 16.226 7.50007 16.1274V13.6299C7.49373 13.5326 7.45218 13.441 7.38318 13.3721C7.31417 13.3031 7.22243 13.2616 7.12505 13.2553H6.37502C6.27764 13.2616 6.1859 13.3031 6.1169 13.3721C6.04789 13.441 6.00635 13.5326 6 13.6299V17.0011C6.00076 17.2658 6.10634 17.5194 6.29369 17.7066C6.48103 17.8938 6.73491 17.9992 6.99986 18H17.0001C17.2651 17.9992 17.519 17.8938 17.7063 17.7066C17.8937 17.5194 17.9992 17.2658 18 17.0011V13.6299C17.9937 13.5326 17.9521 13.441 17.8831 13.3721C17.8141 13.3031 17.7224 13.2616 17.625 13.2553ZM12.2513 6.11239C12.2174 6.07688 12.1767 6.0486 12.1316 6.02928C12.0865 6.00996 12.0379 6 11.9888 6C11.9397 6 11.8911 6.00996 11.846 6.02928C11.8009 6.0486 11.7602 6.07688 11.7263 6.11239L8.35004 9.48418C8.31449 9.518 8.28618 9.55867 8.26684 9.60374C8.2475 9.64881 8.23753 9.69734 8.23753 9.74638C8.23753 9.79541 8.2475 9.84394 8.26684 9.88901C8.28618 9.93408 8.31449 9.97476 8.35004 10.0086L8.87495 10.533C8.90879 10.5685 8.94951 10.5967 8.99462 10.6161C9.03974 10.6354 9.08832 10.6453 9.1374 10.6453C9.18649 10.6453 9.23506 10.6354 9.28018 10.6161C9.32529 10.5967 9.36601 10.5685 9.39986 10.533L10.8 9.13421C10.8367 9.09994 10.8823 9.07666 10.9317 9.06703C10.981 9.0574 11.032 9.06181 11.0789 9.07975C11.1259 9.09769 11.1668 9.12844 11.1971 9.1685C11.2274 9.20856 11.2458 9.25632 11.2503 9.30633V14.6007C11.247 14.6967 11.282 14.79 11.3476 14.8603C11.4131 14.9305 11.5039 14.9719 11.6 14.9753H12.35C12.4504 14.97 12.5457 14.9295 12.6192 14.861C12.6928 14.7925 12.7398 14.7004 12.752 14.6007V9.33444C12.7521 9.28526 12.7668 9.23722 12.7944 9.19644C12.8219 9.15567 12.861 9.12402 12.9066 9.10555C12.9522 9.08707 13.0023 9.0826 13.0505 9.09272C13.0986 9.10283 13.1427 9.12706 13.177 9.16232L14.5749 10.5582C14.6087 10.5937 14.6494 10.622 14.6946 10.6413C14.7397 10.6606 14.7882 10.6706 14.8373 10.6706C14.8864 10.6706 14.935 10.6606 14.9801 10.6413C15.0252 10.622 15.0659 10.5937 15.0998 10.5582L15.6247 10.0338C15.6602 10 15.6885 9.95932 15.7079 9.91425C15.7272 9.86918 15.7372 9.82066 15.7372 9.77162C15.7372 9.72258 15.7272 9.67406 15.7079 9.62899C15.6885 9.58391 15.6602 9.54324 15.6247 9.50943L12.2513 6.11239Z" fill="#2782ED"/>
</svg>
