<svg width="24" height="24" viewBox="0 0 24 24" fill="none" xmlns="http://www.w3.org/2000/svg">
<path fill-rule="evenodd" clip-rule="evenodd" d="M17.9629 7.36053C17.9385 7.41957 17.9027 7.47322 17.8575 7.51841L13.6051 11.7708C13.5444 11.8316 13.5103 11.9141 13.5103 12C13.5103 12.0859 13.5444 12.1684 13.6051 12.2292L14.4382 13.0624C14.1565 13.6985 14 14.4024 14 15.1429C14 15.2228 14.0018 15.3023 14.0054 15.3813L12.2292 13.6051C12.1684 13.5444 12.0859 13.5103 12 13.5103C11.9141 13.5103 11.8316 13.5444 11.7708 13.6051L7.51841 17.8574C7.47322 17.9026 7.41958 17.9385 7.36053 17.963C7.30149 17.9874 7.23821 18 7.17431 18C7.1104 18 7.04709 17.9874 6.98804 17.963C6.929 17.9385 6.87535 17.9026 6.83016 17.8574L6.14254 17.1698C6.09734 17.1246 6.06152 17.071 6.03706 17.0119C6.0126 16.9529 6 16.8896 6 16.8257C6 16.7618 6.0126 16.6985 6.03706 16.6395C6.06152 16.5804 6.09734 16.5268 6.14254 16.4816L10.3949 12.2292C10.4556 12.1684 10.4897 12.0859 10.4897 12C10.4897 11.9141 10.4556 11.8316 10.3949 11.7708L6.14254 7.51841C6.09734 7.47322 6.06152 7.41957 6.03706 7.36053C6.0126 7.30149 6 7.2382 6 7.17429C6 7.11038 6.0126 7.0471 6.03706 6.98806C6.06152 6.92901 6.09734 6.87537 6.14254 6.83018L6.83016 6.14255C6.87535 6.09736 6.929 6.06151 6.98804 6.03705C7.04709 6.01259 7.1104 6 7.17431 6C7.23821 6 7.30149 6.01259 7.36053 6.03705C7.41958 6.06151 7.47322 6.09736 7.51841 6.14255L11.7708 10.3949C11.8316 10.4556 11.9141 10.4897 12 10.4897C12.0859 10.4897 12.1684 10.4556 12.2292 10.3949L16.4816 6.14255C16.5268 6.09736 16.5804 6.06151 16.6395 6.03705C16.6985 6.01259 16.7618 6 16.8257 6C16.8896 6 16.9529 6.01259 17.012 6.03705C17.071 6.06151 17.1247 6.09736 17.1698 6.14255L17.8575 6.83018C17.9027 6.87537 17.9385 6.92901 17.9629 6.98806C17.9874 7.0471 18 7.11038 18 7.17429C18 7.2382 17.9874 7.30149 17.9629 7.36053Z" fill="#C23934"/>
<path d="M23.2675 15.8545C23.2675 15.708 23.1402 15.5797 22.9947 15.5797H22.3584C22.2129 15.5797 22.1038 15.6897 22.1038 15.8362C22.1038 15.8728 22.1038 15.9278 22.0856 15.9644C22.0311 16.2026 21.9402 16.4224 21.8129 16.6422C21.3038 17.5399 20.4129 18.0345 19.4675 18.0345C18.7402 18.0345 18.0493 17.7414 17.5402 17.2284C17.4493 17.1552 17.3766 17.0636 17.322 16.972C17.2675 16.8254 17.3947 16.7522 17.5584 16.7522H18.8311C18.9766 16.7522 19.1038 16.6239 19.1038 16.4774V15.9095C19.1038 15.7629 18.9947 15.653 18.8493 15.653H15.522C15.3947 15.653 15.2856 15.7629 15.2856 15.8912V19.2252C15.3038 19.3718 15.4311 19.5 15.5766 19.5H16.122C16.2675 19.5 16.3947 19.3718 16.3947 19.2252V17.9429C16.3947 17.778 16.4856 17.7047 16.6129 17.8147C16.6675 17.8879 16.722 17.9429 16.7947 17.9978C17.7038 18.9138 18.9766 19.2985 20.2856 19.042C20.7402 18.9504 21.1766 18.7672 21.5584 18.5108C22.5038 17.8879 23.1038 16.9353 23.2675 15.8912V15.8545ZM15.3038 14.6455C15.3038 14.792 15.4311 14.9203 15.5766 14.9203H16.2129C16.3584 14.9203 16.4675 14.8103 16.4675 14.6638C16.4675 14.6272 16.4675 14.5722 16.4856 14.5356C16.5402 14.2974 16.6311 14.0776 16.7584 13.8578C17.2675 12.9601 18.1584 12.4655 19.1038 12.4655C19.8311 12.4655 20.522 12.7586 21.0311 13.2716C21.122 13.3448 21.1947 13.4364 21.2493 13.528C21.3038 13.6746 21.1766 13.7478 21.0129 13.7478H19.7402C19.5947 13.7478 19.4675 13.8761 19.4675 14.0226V14.5905C19.4675 14.7371 19.5766 14.847 19.722 14.847H23.0493C23.1766 14.847 23.2856 14.7371 23.2856 14.6088V11.2748C23.2675 11.1282 23.1402 11 22.9947 11H22.4493C22.3038 11 22.1766 11.1282 22.1766 11.2748V12.5571C22.1766 12.722 22.0856 12.7953 21.9584 12.6853C21.9038 12.6121 21.8493 12.5571 21.7766 12.5022C20.8675 11.5862 19.5947 11.2015 18.2856 11.458C17.8311 11.5496 17.3947 11.7328 17.0129 11.9892C16.0675 12.6121 15.4675 13.5647 15.3038 14.6088V14.6455Z" fill="#00A1DE"/>
</svg>
