<svg xmlns="http://www.w3.org/2000/svg" width="16" height="16" viewBox="0 0 16 16"><defs><style>.a{fill:#ff9e2c;}</style></defs><path class="a" d="M603.814,384.445a8,8,0,1,0,8,8A8,8,0,0,0,603.814,384.445Zm-.836,4.09a.842.842,0,0,1,1.682,0v.131c-.142,1.73-.225,3.447-.3,5.46a.509.509,0,0,1-.518.5c-.013,0-.026,0-.039,0a.487.487,0,0,1-.531-.442.5.5,0,0,1,0-.055c-.071-2.013-.154-3.73-.3-5.46Zm1.73,7.734a.876.876,0,0,1-.862.889h-.038a.872.872,0,0,1-.889-.856v-.032a.895.895,0,0,1,1.789,0Z" transform="translate(-595.814 -384.445)"/></svg>