<svg width="14" height="16" viewBox="0 0 14 16" fill="none" xmlns="http://www.w3.org/2000/svg">
<path d="M13.2463 6.06184H0.754026C0.477103 6.06184 0.261719 6.27722 0.261719 6.55415V13.7849C0.261719 14.5849 0.907873 15.2311 1.70787 15.2311H12.2925C13.0925 15.2311 13.7386 14.5849 13.7386 13.7849V6.55415C13.7386 6.27722 13.5233 6.06184 13.2463 6.06184ZM4.60018 12.8003C4.60018 13.0772 4.3848 13.2926 4.10787 13.2926H3.15403C2.8771 13.2926 2.66172 13.0772 2.66172 12.8003V11.8465C2.66172 11.5695 2.8771 11.3541 3.15403 11.3541H4.10787C4.3848 11.3541 4.60018 11.5695 4.60018 11.8465V12.8003ZM7.95403 12.8003C7.95403 13.0772 7.73864 13.2926 7.46172 13.2926H6.50787C6.23095 13.2926 6.01556 13.0772 6.01556 12.8003V11.8465C6.01556 11.5695 6.23095 11.3541 6.50787 11.3541H7.46172C7.73864 11.3541 7.95403 11.5695 7.95403 11.8465V12.8003ZM7.95403 9.44646C7.95403 9.72338 7.73864 9.93876 7.46172 9.93876H6.50787C6.23095 9.93876 6.01556 9.72338 6.01556 9.44646V8.49261C6.01556 8.21569 6.23095 8.0003 6.50787 8.0003H7.46172C7.73864 8.0003 7.95403 8.21569 7.95403 8.49261V9.44646ZM11.3386 9.44646C11.3386 9.72338 11.1233 9.93876 10.8463 9.93876H9.89249C9.61556 9.93876 9.40018 9.72338 9.40018 9.44646V8.49261C9.40018 8.21569 9.61556 8.0003 9.89249 8.0003H10.8463C11.1233 8.0003 11.3386 8.21569 11.3386 8.49261V9.44646ZM12.2925 2.21569H11.0925V1.72338C11.0925 1.2003 10.6617 0.769531 10.1386 0.769531C9.61557 0.769531 9.18479 1.2003 9.18479 1.72338V2.21569H4.84633V1.72338C4.84633 1.2003 4.41556 0.769531 3.89249 0.769531C3.36941 0.769531 2.93864 1.2003 2.93864 1.72338V2.21569H1.70787C0.907873 2.21569 0.261719 2.86184 0.261719 3.66184V4.15415C0.261719 4.43107 0.477103 4.64645 0.754026 4.64645H13.2771C13.554 4.64645 13.7694 4.43107 13.7694 4.15415V3.66184C13.7386 2.86184 13.0925 2.21569 12.2925 2.21569Z" fill="#706E6B"/>
</svg>
