<svg width="12" height="9" viewBox="0 0 12 9" fill="none" xmlns="http://www.w3.org/2000/svg">
<path d="M4.24654 8.38035L0.112738 4.22212C0.0404849 4.14857 0 4.0496 0 3.9465C0 3.8434 0.0404849 3.74443 0.112738 3.67089L0.663966 3.11966C0.737509 3.04741 0.836483 3.00692 0.939581 3.00692C1.04268 3.00692 1.14165 3.04741 1.21519 3.11966L4.32145 6.25116C4.37217 6.29944 4.43951 6.32638 4.50954 6.32638C4.57956 6.32638 4.64691 6.29944 4.69762 6.25116L10.7856 0.112738C10.8591 0.0404849 10.9581 0 11.0612 0C11.1643 0 11.2632 0.0404849 11.3368 0.112738L11.888 0.663967C11.9603 0.737509 12.0008 0.836483 12.0008 0.939581C12.0008 1.04268 11.9603 1.14165 11.888 1.21519L4.79777 8.38035C4.76457 8.42148 4.72259 8.45466 4.6749 8.47745C4.6272 8.50025 4.57502 8.51208 4.52216 8.51208C4.4693 8.51208 4.41711 8.50025 4.36942 8.47745C4.32173 8.45466 4.27974 8.42148 4.24654 8.38035Z" fill="#2782ED"/>
</svg>
