<svg width="20" height="20" viewBox="0 0 20 20" fill="none" xmlns="http://www.w3.org/2000/svg">
<circle cx="10" cy="10" r="9.25" fill="white" stroke="#0090B9" stroke-width="1.5"/>
<path d="M9.75 14.5L15.9167 8.33334C16.25 8.00001 16.25 7.50001 15.9167 7.33334L15.4167 6.83334C15.25 6.66667 15.0833 6.66667 14.9167 6.66667C14.75 6.66667 14.5833 6.66667 14.4167 6.83334L9.25 12L6.75 9.50001C6.58333 9.33334 6.41667 9.33334 6.25 9.33334C6.08333 9.33334 5.91667 9.33334 5.75 9.50001L5.25 10C4.91667 10.1667 4.91667 10.6667 5.25 11L8.75 14.6667C8.91667 14.8333 9.08333 14.8333 9.25 14.8333C9.41667 14.8333 9.58333 14.6667 9.75 14.5Z" fill="#0090B9"/>
</svg>
