<svg width="18" height="18" viewBox="0 0 18 18" fill="none" xmlns="http://www.w3.org/2000/svg">
<rect width="18" height="18" rx="2" fill="none"/>
<path d="M15.5625 10.4583H14.6875C14.4542 10.4583 14.25 10.6625 14.25 10.8958V13.8125C14.25 14.0458 14.0458 14.25 13.8125 14.25H4.1875C3.95417 14.25 3.75 14.0458 3.75 13.8125V10.8958C3.75 10.6625 3.54583 10.4583 3.3125 10.4583H2.4375C2.20417 10.4583 2 10.6625 2 10.8958V14.8333C2 15.475 2.525 16 3.16667 16H14.8333C15.475 16 16 15.475 16 14.8333V10.8958C16 10.6625 15.7958 10.4583 15.5625 10.4583ZM8.70833 12.3833C8.88333 12.5583 9.14583 12.5583 9.32083 12.3833L13.2583 8.44583C13.4333 8.27083 13.4333 8.00833 13.2583 7.83333L12.6458 7.22083C12.4708 7.04583 12.2083 7.04583 12.0333 7.22083L10.4 8.85417C10.225 9.02917 9.90417 8.9125 9.90417 8.65V2.4375C9.875 2.20417 9.64167 2 9.4375 2H8.5625C8.32917 2 8.125 2.20417 8.125 2.4375V8.62083C8.125 8.88333 7.80417 9 7.62917 8.825L5.99583 7.19167C5.82083 7.01667 5.55833 7.01667 5.38333 7.19167L4.77083 7.83333C4.59583 8.00833 4.59583 8.27083 4.77083 8.44583L8.70833 12.3833Z" fill="white"/>
</svg>
