<svg width="31" height="30" viewBox="0 0 31 30" fill="none" xmlns="http://www.w3.org/2000/svg">
<path d="M22.5154 7.61536H17.7462C17.4385 7.61536 17.3462 7.89228 17.5923 8.13843L19.1 9.64613L16.3308 12.4154C16.1769 12.5692 16.1769 12.8154 16.3308 13L17.4692 14.1384C17.6231 14.2923 17.8692 14.2923 18.0538 14.1384L20.8538 11.3384L22.3615 12.8461C22.6077 13.0923 22.8846 13 22.8846 12.6923V7.95382C22.8846 7.7692 22.7 7.61536 22.5154 7.61536V7.61536ZM8.57693 22.3846H13.3154C13.6231 22.3846 13.7154 22.0461 13.4692 21.8L11.9615 20.2615L14.7308 17.4615C14.8846 17.3077 14.8846 17.0307 14.7308 16.8769L13.5923 15.7384C13.4385 15.5846 13.1923 15.5846 13.0077 15.7384L10.2385 18.5077L8.7 17C8.42308 16.7538 8.11539 16.8461 8.11539 17.1538V21.8923C8.11539 22.1077 8.36154 22.3846 8.57693 22.3846V22.3846Z" fill="white"/>
</svg>
