<svg width="18" height="18" viewBox="0 0 18 18" fill="none" xmlns="http://www.w3.org/2000/svg">
<path d="M15.4639 6.67557H12.1064C10.9872 6.67557 10.0833 5.77162 10.0833 4.69549V1.33798C10.1263 0.993622 9.82501 0.692307 9.43761 0.692307H4.10002C2.98085 0.692307 2.0769 1.59625 2.0769 2.67238V15.3276C2.0769 16.4468 2.98085 17.3077 4.10002 17.3077H14.1295C15.2487 17.3077 16.1526 16.4037 16.1526 15.3276V7.36429C16.1526 6.97688 15.8513 6.67557 15.4639 6.67557ZM16.0235 3.87764L12.9243 0.821442C12.8382 0.735352 12.7521 0.692307 12.6229 0.692307C12.3647 0.692307 12.1494 0.907532 12.1494 1.1658V3.3611C12.1494 4.09286 12.7521 4.69549 13.4838 4.69549H15.6791C15.9374 4.69549 16.1526 4.48027 16.1526 4.222C16.1526 4.09286 16.1096 4.00677 16.0235 3.87764Z" fill="#DADADA"/>
</svg>
