<svg width="16" height="12" viewBox="0 0 16 12" fill="none" xmlns="http://www.w3.org/2000/svg">
<path fill-rule="evenodd" clip-rule="evenodd" d="M0 2C0 0 2 0 2 0H14C14 0 16 0 16 1.90909C16 3.81818 16 8.18182 16 10.0909C16 12 14 12 14 12H2C2 12 0 12 0 10.0909C0 8.18182 0 4 0 2ZM2 1C1 1 1 2 1 2V10.0909C1 10.5833 1.4375 11 2 11H14C14.5625 11 15 10.5833 15 10.0909V1.90909C15 1.41667 14.5625 1 14 1C14 1 3 1 2 1Z" fill="#008AB3"/>
<path d="M12.7273 2H11.4545L7 10H12.7273C14 10 14 8.85714 14 8.85714V3.14286C14 2.57143 14 2 12.7273 2Z" fill="#008AB3"/>
</svg>
