<svg width="24" height="24" viewBox="0 0 24 24" fill="none" xmlns="http://www.w3.org/2000/svg">
<path fill-rule="evenodd" clip-rule="evenodd" d="M14.2865 9.54535H4.54594C4.40219 9.54865 4.26524 9.60723 4.16356 9.70891C4.06189 9.81058 4.00331 9.94753 4 10.0913V18.9988C4.00094 19.3843 4.15449 19.7538 4.42709 20.0264C4.69969 20.299 5.06914 20.4525 5.45465 20.4535H11.5991C10.6001 19.2433 10 17.6918 10 16C10 13.0962 11.7681 10.6053 14.2865 9.54535ZM9.43292 17.6868C9.45018 17.6414 9.45758 17.5927 9.45465 17.5442V16.0895C9.45758 16.041 9.45018 15.9923 9.43292 15.9468C9.41567 15.9014 9.38896 15.86 9.35456 15.8256C9.32016 15.7912 9.27885 15.7645 9.23337 15.7473C9.18788 15.73 9.13925 15.7226 9.09069 15.7256H7.63722C7.58866 15.7226 7.54003 15.73 7.49455 15.7473C7.44906 15.7645 7.40776 15.7912 7.37336 15.8256C7.33896 15.86 7.31225 15.9014 7.29499 15.9468C7.27774 15.9923 7.27033 16.041 7.27326 16.0895V17.5442C7.27033 17.5927 7.27774 17.6414 7.29499 17.6868C7.31225 17.7323 7.33896 17.7736 7.37336 17.808C7.40776 17.8424 7.44906 17.8691 7.49455 17.8864C7.54003 17.9036 7.58866 17.9111 7.63722 17.9081H9.09069C9.13925 17.9111 9.18788 17.9036 9.23337 17.8864C9.27885 17.8691 9.32016 17.8424 9.35456 17.808C9.38896 17.7736 9.41567 17.7323 9.43292 17.6868ZM9.43292 14.0508C9.45018 14.0053 9.45758 13.9567 9.45465 13.9081V12.4535C9.45758 12.4049 9.45018 12.3563 9.43292 12.3108C9.41567 12.2653 9.38896 12.224 9.35456 12.1896C9.32016 12.1552 9.27885 12.1285 9.23337 12.1112C9.18788 12.094 9.13925 12.0866 9.09069 12.0895H7.63722C7.58866 12.0866 7.54003 12.094 7.49455 12.1112C7.44906 12.1285 7.40776 12.1552 7.37336 12.1896C7.33896 12.224 7.31225 12.2653 7.29499 12.3108C7.27774 12.3563 7.27033 12.4049 7.27326 12.4535V13.9081C7.27033 13.9567 7.27774 14.0053 7.29499 14.0508C7.31225 14.0963 7.33896 14.1376 7.37336 14.172C7.40776 14.2064 7.44906 14.2331 7.49455 14.2504C7.54003 14.2676 7.58866 14.275 7.63722 14.2721H9.09069C9.13925 14.275 9.18788 14.2676 9.23337 14.2504C9.27885 14.2331 9.32016 14.2064 9.35456 14.172C9.38896 14.1376 9.41567 14.0963 9.43292 14.0508ZM16.7267 4.81861H18.5442C18.9299 4.81924 19.2996 4.97266 19.5725 5.24529C19.8453 5.51792 19.9991 5.88755 20 6.27326V7.18198C19.9967 7.32573 19.9381 7.46268 19.8364 7.56436C19.7348 7.66603 19.5978 7.72461 19.4541 7.72792H4.54712C4.40337 7.72461 4.26642 7.66603 4.16474 7.56436C4.06307 7.46268 4.00449 7.32573 4.00118 7.18198V6.27326C4.00181 5.88755 4.15523 5.51779 4.42786 5.24494C4.70049 4.97209 5.07012 4.81837 5.45583 4.81743H7.27326V4.09069C7.27326 3.80142 7.38818 3.524 7.59272 3.31946C7.79727 3.11491 8.07469 3 8.36396 3C8.65323 3 8.93065 3.11491 9.1352 3.31946C9.33974 3.524 9.45465 3.80142 9.45465 4.09069V4.81743H14.5453V4.09069C14.5453 3.80142 14.6603 3.524 14.8648 3.31946C15.0693 3.11491 15.3468 3 15.636 3C15.9253 3 16.2027 3.11491 16.4073 3.31946C16.6118 3.524 16.7267 3.80142 16.7267 4.09069V4.81861Z" fill="white" fill-opacity="0.8"/>
<path fill-rule="evenodd" clip-rule="evenodd" d="M17 22C20.3137 22 23 19.3137 23 16C23 12.6863 20.3137 10 17 10C13.6863 10 11 12.6863 11 16C11 19.3137 13.6863 22 17 22ZM17.7446 19.8476V19.0166L17.7476 19.0176C18.1702 18.9486 18.5564 18.7369 18.8419 18.4178C19.1274 18.0986 19.2949 17.6913 19.3166 17.2636C19.3166 16.0936 18.1776 15.5396 17.1626 15.2016C16.3316 14.8936 16.2396 14.7096 16.2396 14.5246C16.2396 14.4016 16.4246 14.2166 16.8246 14.2166C17.2422 14.2686 17.6422 14.416 17.9936 14.6476C18.0604 14.6823 18.1335 14.7033 18.2086 14.7096C18.2862 14.7025 18.3617 14.6797 18.4304 14.6428C18.4992 14.6059 18.5597 14.5555 18.6086 14.4946L19.0396 14.0636C19.079 14.0237 19.108 13.9748 19.124 13.9211C19.14 13.8674 19.1426 13.8105 19.1316 13.7556C19.1082 13.6343 19.0427 13.5252 18.9466 13.4476C18.5712 13.2289 18.1674 13.0634 17.7466 12.9556V12.2476C17.738 12.1743 17.7009 12.1073 17.6432 12.0612C17.5855 12.0151 17.512 11.9937 17.4386 12.0016H16.4536C16.3306 12.0016 16.2686 12.0936 16.2686 12.2476V12.9876C15.0376 13.2336 14.6066 14.0026 14.6066 14.6796C14.6066 15.8176 15.6216 16.3096 16.4526 16.6176C17.3756 16.9256 17.4676 17.1716 17.4676 17.3256C17.4676 17.5096 17.1906 17.6946 16.8526 17.6946C16.4108 17.6647 15.9855 17.5157 15.6216 17.2636H15.5906C15.5141 17.225 15.4301 17.2039 15.3446 17.2016C15.272 17.196 15.1994 17.2102 15.1343 17.2428C15.0693 17.2754 15.0144 17.3251 14.9756 17.3866L14.6676 17.8786C14.5136 18.0946 14.5746 18.2476 14.7596 18.4326C15.2119 18.7442 15.7263 18.954 16.2676 19.0476V19.8476C16.2676 20.0016 16.2986 20.0936 16.4526 20.0936H17.4366C17.51 20.1015 17.5835 20.0801 17.6412 20.034C17.6989 19.9879 17.736 19.9209 17.7446 19.8476Z" fill="white" fill-opacity="0.8"/>
</svg>
