<svg width="16" height="18" viewBox="0 0 16 18" fill="none" xmlns="http://www.w3.org/2000/svg">
<path d="M15.4541 6.54535H0.545938C0.402185 6.54865 0.265236 6.60723 0.163561 6.70891C0.0618855 6.81058 0.00330596 6.94753 0 7.09128V15.9988C0.000936087 16.3843 0.154494 16.7538 0.427092 17.0264C0.69969 17.299 1.06914 17.4525 1.45465 17.4535H14.5442C14.9297 17.4525 15.2991 17.299 15.5717 17.0264C15.8443 16.7538 15.9979 16.3843 15.9988 15.9988V7.0901C15.9952 6.94676 15.9367 6.81027 15.8353 6.70888C15.7339 6.60749 15.5974 6.54894 15.4541 6.54535ZM5.45465 14.5442C5.45758 14.5927 5.45018 14.6414 5.43292 14.6868C5.41567 14.7323 5.38896 14.7736 5.35456 14.808C5.32016 14.8424 5.27885 14.8691 5.23337 14.8864C5.18788 14.9036 5.13925 14.9111 5.09069 14.9081H3.63722C3.58866 14.9111 3.54003 14.9036 3.49455 14.8864C3.44906 14.8691 3.40776 14.8424 3.37336 14.808C3.33896 14.7736 3.31225 14.7323 3.29499 14.6868C3.27774 14.6414 3.27033 14.5927 3.27326 14.5442V13.0895C3.27033 13.041 3.27774 12.9923 3.29499 12.9468C3.31225 12.9014 3.33896 12.86 3.37336 12.8256C3.40776 12.7912 3.44906 12.7645 3.49455 12.7473C3.54003 12.73 3.58866 12.7226 3.63722 12.7256H5.09069C5.13925 12.7226 5.18788 12.73 5.23337 12.7473C5.27885 12.7645 5.32016 12.7912 5.35456 12.8256C5.38896 12.86 5.41567 12.9014 5.43292 12.9468C5.45018 12.9923 5.45758 13.041 5.45465 13.0895V14.5442ZM5.45465 10.9081C5.45758 10.9567 5.45018 11.0053 5.43292 11.0508C5.41567 11.0963 5.38896 11.1376 5.35456 11.172C5.32016 11.2064 5.27885 11.2331 5.23337 11.2504C5.18788 11.2676 5.13925 11.275 5.09069 11.2721H3.63722C3.58866 11.275 3.54003 11.2676 3.49455 11.2504C3.44906 11.2331 3.40776 11.2064 3.37336 11.172C3.33896 11.1376 3.31225 11.0963 3.29499 11.0508C3.27774 11.0053 3.27033 10.9567 3.27326 10.9081V9.45347C3.27033 9.40491 3.27774 9.35628 3.29499 9.3108C3.31225 9.26531 3.33896 9.224 3.37336 9.1896C3.40776 9.15521 3.44906 9.1285 3.49455 9.11124C3.54003 9.09399 3.58866 9.08658 3.63722 9.08951H5.09069C5.13925 9.08658 5.18788 9.09399 5.23337 9.11124C5.27885 9.1285 5.32016 9.15521 5.35456 9.1896C5.38896 9.224 5.41567 9.26531 5.43292 9.3108C5.45018 9.35628 5.45758 9.40491 5.45465 9.45347V10.9081ZM9.09069 14.5442C9.09362 14.5927 9.08622 14.6414 9.06896 14.6868C9.05171 14.7323 9.025 14.7736 8.9906 14.808C8.9562 14.8424 8.91489 14.8691 8.86941 14.8864C8.82392 14.9036 8.77529 14.9111 8.72673 14.9081H7.27326C7.2247 14.9111 7.17608 14.9036 7.13059 14.8864C7.0851 14.8691 7.0438 14.8424 7.0094 14.808C6.975 14.7736 6.94829 14.7323 6.93104 14.6868C6.91378 14.6414 6.90637 14.5927 6.90931 14.5442V13.0895C6.90637 13.041 6.91378 12.9923 6.93104 12.9468C6.94829 12.9014 6.975 12.86 7.0094 12.8256C7.0438 12.7912 7.0851 12.7645 7.13059 12.7473C7.17608 12.73 7.2247 12.7226 7.27326 12.7256H8.72673C8.77529 12.7226 8.82392 12.73 8.86941 12.7473C8.91489 12.7645 8.9562 12.7912 8.9906 12.8256C9.025 12.86 9.05171 12.9014 9.06896 12.9468C9.08622 12.9923 9.09362 13.041 9.09069 13.0895V14.5442ZM9.09069 10.9081C9.09362 10.9567 9.08622 11.0053 9.06896 11.0508C9.05171 11.0963 9.025 11.1376 8.9906 11.172C8.9562 11.2064 8.91489 11.2331 8.86941 11.2504C8.82392 11.2676 8.77529 11.275 8.72673 11.2721H7.27326C7.2247 11.275 7.17608 11.2676 7.13059 11.2504C7.0851 11.2331 7.0438 11.2064 7.0094 11.172C6.975 11.1376 6.94829 11.0963 6.93104 11.0508C6.91378 11.0053 6.90637 10.9567 6.90931 10.9081V9.45347C6.90637 9.40491 6.91378 9.35628 6.93104 9.3108C6.94829 9.26531 6.975 9.224 7.0094 9.1896C7.0438 9.15521 7.0851 9.1285 7.13059 9.11124C7.17608 9.09399 7.2247 9.08658 7.27326 9.08951H8.72673C8.77529 9.08658 8.82392 9.09399 8.86941 9.11124C8.91489 9.1285 8.9562 9.15521 8.9906 9.1896C9.025 9.224 9.05171 9.26531 9.06896 9.3108C9.08622 9.35628 9.09362 9.40491 9.09069 9.45347V10.9081ZM12.7267 14.5442C12.7297 14.5927 12.7223 14.6414 12.705 14.6868C12.6877 14.7323 12.661 14.7736 12.6266 14.808C12.5922 14.8424 12.5509 14.8691 12.5055 14.8864C12.46 14.9036 12.4113 14.9111 12.3628 14.9081H10.9093C10.8607 14.9111 10.8121 14.9036 10.7666 14.8864C10.7211 14.8691 10.6798 14.8424 10.6454 14.808C10.611 14.7736 10.5843 14.7323 10.5671 14.6868C10.5498 14.6414 10.5424 14.5927 10.5453 14.5442V13.0895C10.5424 13.041 10.5498 12.9923 10.5671 12.9468C10.5843 12.9014 10.611 12.86 10.6454 12.8256C10.6798 12.7912 10.7211 12.7645 10.7666 12.7473C10.8121 12.73 10.8607 12.7226 10.9093 12.7256H12.364C12.4125 12.7226 12.4611 12.73 12.5066 12.7473C12.5521 12.7645 12.5934 12.7912 12.6278 12.8256C12.6622 12.86 12.6889 12.9014 12.7062 12.9468C12.7234 12.9923 12.7308 13.041 12.7279 13.0895L12.7267 14.5442ZM12.7267 10.9081C12.7297 10.9567 12.7223 11.0053 12.705 11.0508C12.6877 11.0963 12.661 11.1376 12.6266 11.172C12.5922 11.2064 12.5509 11.2331 12.5055 11.2504C12.46 11.2676 12.4113 11.275 12.3628 11.2721H10.9093C10.8607 11.275 10.8121 11.2676 10.7666 11.2504C10.7211 11.2331 10.6798 11.2064 10.6454 11.172C10.611 11.1376 10.5843 11.0963 10.5671 11.0508C10.5498 11.0053 10.5424 10.9567 10.5453 10.9081V9.45347C10.5424 9.40491 10.5498 9.35628 10.5671 9.3108C10.5843 9.26531 10.611 9.224 10.6454 9.1896C10.6798 9.15521 10.7211 9.1285 10.7666 9.11124C10.8121 9.09399 10.8607 9.08658 10.9093 9.08951H12.364C12.4124 9.08676 12.4609 9.09429 12.5063 9.11162C12.5516 9.12895 12.5928 9.15569 12.627 9.19007C12.6613 9.22445 12.6879 9.2657 12.7051 9.31109C12.7223 9.35649 12.7296 9.40502 12.7267 9.45347V10.9081ZM14.5442 1.81861H12.7267V1.09069C12.7267 0.801424 12.6118 0.524002 12.4073 0.319457C12.2027 0.114912 11.9253 0 11.636 0C11.3468 0 11.0693 0.114912 10.8648 0.319457C10.6603 0.524002 10.5453 0.801424 10.5453 1.09069V1.81743H5.45465V1.09069C5.45465 0.801424 5.33974 0.524002 5.1352 0.319457C4.93065 0.114912 4.65323 0 4.36396 0C4.07469 0 3.79727 0.114912 3.59272 0.319457C3.38818 0.524002 3.27326 0.801424 3.27326 1.09069V1.81743H1.45583C1.07012 1.81837 0.700489 1.97209 0.427857 2.24494C0.155226 2.51779 0.00180569 2.88755 0.00118169 3.27326V4.18198C0.00448765 4.32573 0.0630672 4.46268 0.164743 4.56436C0.266418 4.66603 0.403367 4.72461 0.54712 4.72792H15.4541C15.5978 4.72461 15.7348 4.66603 15.8364 4.56436C15.9381 4.46268 15.9967 4.32573 16 4.18198V3.27326C15.9991 2.88755 15.8453 2.51792 15.5725 2.24529C15.2996 1.97266 14.9299 1.81924 14.5442 1.81861Z" fill="white" fill-opacity="0.8"/>
</svg>
