<svg width="12" height="16" viewBox="0 0 12 16" fill="none" xmlns="http://www.w3.org/2000/svg">
<path d="M10 0H2C0.9 0 0 0.9 0 2V12C0 13.1 0.9 14 2 14H2.6L1 16H3.1L4.7 14H7.4L9 16H11L9.4 14H10C11.1 14 12 13.1 12 12V2C12 0.9 11.1 0 10 0ZM3 12C2.5 12 2 11.5 2 11C2 10.5 2.5 10 3 10C3.6 10 4 10.5 4 11C4 11.5 3.5 12 3 12ZM9 12C8.5 12 8 11.5 8 11C8 10.5 8.5 10 9 10C9.6 10 10 10.5 10 11C10 11.5 9.5 12 9 12ZM10 6.9C10 7.5 9.6 7.9 9 7.9H3C2.4 7.9 2 7.5 2 6.9V3.7C2 3.1 2.4 2.7 3 2.7H9C9.6 2.7 10 3.1 10 3.7V6.9Z" fill="#DDDDDD"/>
</svg>
