<svg width="32" height="32" viewBox="0 0 32 32" fill="none" xmlns="http://www.w3.org/2000/svg">
<path d="M16 32C24.8366 32 32 24.8366 32 16C32 7.16344 24.8366 0 16 0C7.16344 0 0 7.16344 0 16C0 24.8366 7.16344 32 16 32Z" fill="#0090B9"/>
<path d="M26.2 8.9C26.2 8.6 25.9 8.4 25.6 8.5L20.3 10.1C19.9 10.2 19.8 10.7 20.2 11L22.3 12.4L16.6 20.8L12 14C11.8 13.7 11.5 13.6 11.2 13.6C10.9 13.6 10.6 13.8 10.4 14L4.99999 22C4.69999 22.5 4.79999 23.1 5.29999 23.4C5.49999 23.5 5.69999 23.6 5.89999 23.6C6.19999 23.6 6.49999 23.4 6.69999 23.2L11.3 16.4L15.9 23.2C16.3 23.8 17.2 23.8 17.6 23.2L24.1 13.6L26.2 15C26.5 15.2 27 15 26.9 14.6L26.2 8.9Z" fill="white" style="fill: white" />
</svg>
