<svg width="26" height="26" viewBox="0 0 26 26" fill="none" xmlns="http://www.w3.org/2000/svg">
<path fill-rule="evenodd" clip-rule="evenodd" d="M7.86977 5.42996L5.12443 1.33691C4.82494 0.887675 4.17604 0.887675 3.87655 1.33691L1.13121 5.42996C0.781805 5.92911 1.18113 6.57801 1.73019 6.57801H2.57875V10.6711C2.57875 11.0704 2.92816 11.4198 3.32748 11.4198H5.15844C5.05456 11.9311 5 12.4596 5 13C5 17.3934 8.60656 21 13 21C15.7286 21 18.1537 19.6089 19.5998 17.5021V19.3563H18.7513C18.1523 19.3563 17.8029 20.0052 18.1523 20.5043L20.8976 24.5974C21.1971 25.0466 21.846 25.0466 22.1455 24.5974L24.8908 20.5043C25.1903 20.0052 24.8409 19.3563 24.2419 19.3563H23.3934V15.2633C23.3934 14.8639 23.044 14.5145 22.6446 14.5145H20.8546C20.95 14.0237 21 13.5173 21 13C21 8.60656 17.3934 5 13 5C10.2538 5 7.815 6.40914 6.37231 8.53879V6.57801H7.22087C7.81985 6.57801 8.16926 5.92911 7.86977 5.42996ZM13 19.4918C9.39344 19.4918 6.5082 16.541 6.5082 13C6.5082 9.39344 9.45902 6.5082 13 6.5082C16.541 6.5082 19.4918 9.45902 19.4918 13C19.4918 16.6066 16.6066 19.4918 13 19.4918ZM13 7.49182C9.98358 7.49182 7.49178 9.98362 7.49178 13C7.49178 16.0164 9.98358 18.5082 13 18.5082C16.0164 18.5082 18.5082 16.0164 18.5082 13C18.5082 9.98362 16.0164 7.49182 13 7.49182ZM13.5849 13.6557H14.9673V14.1475H13.5263V14.6393H14.9673V15.1311H13.5263V16.2445H12.4406V15.1311H11.0329V14.6393H12.4406V14.1475H11.0329V13.6557H12.3928L10.3771 10.3771H11.6202L13.0207 12.8716H13.0373L14.4213 10.3771H15.623L13.5849 13.6557Z" fill="#666666"/>
</svg>
