<svg width="16" height="16" viewBox="0 0 16 16" fill="none" xmlns="http://www.w3.org/2000/svg">
<path d="M0 2C0 0.895431 0.895431 0 2 0H14C15.1046 0 16 0.895431 16 2V14C16 15.1046 15.1046 16 14 16H2C0.895431 16 0 15.1046 0 14V2Z" fill="#0066DD"/>
<path fill-rule="evenodd" clip-rule="evenodd" d="M12.1215 5.757C11.3633 5.757 10.743 5.13668 10.743 4.3785C10.743 3.62033 11.3633 3 12.1215 3C12.8797 3 13.5 3.62033 13.5 4.3785C13.5 5.13668 12.8797 5.757 12.1215 5.757ZM13.0175 11.9603H3.0234C2.60985 11.9603 2.36861 11.5122 2.57539 11.1676L5.60809 5.89485C5.74594 5.65361 6.0561 5.65361 6.19395 5.89485L8.02046 9.03094C8.15831 9.23771 8.46847 9.27218 8.60632 9.0654L10.0882 6.92873C10.2261 6.72195 10.5362 6.72195 10.6741 6.92873L13.3966 11.271C13.6034 11.5812 13.3966 11.9603 13.0175 11.9603Z" fill="white"/>
</svg>
