<svg width="14" height="16" viewBox="0 0 14 16" fill="none" xmlns="http://www.w3.org/2000/svg">
<path d="M11.9185 7.06802H3.92182V5.62247C3.92182 3.99239 5.15208 2.54684 6.78216 2.45457C8.28922 2.3623 9.55023 3.31575 9.95006 4.66903C9.98082 4.79205 10.1038 4.91508 10.2576 4.91508H11.5186C11.7032 4.91508 11.857 4.73054 11.8262 4.546C11.3341 2.20852 9.24267 0.486169 6.7514 0.609194C4.13712 0.73222 2.13796 2.97743 2.07644 5.56096V7.06802C1.39981 7.06802 0.846191 7.62164 0.846191 8.29827V14.142C0.846191 14.8186 1.39981 15.3722 2.07644 15.3722H11.9185C12.5951 15.3722 13.1487 14.8186 13.1487 14.142V8.29827C13.1487 7.62164 12.5951 7.06802 11.9185 7.06802ZM8.41225 13.127C8.47376 13.3116 8.31998 13.5268 8.10468 13.5268H5.85947C5.64418 13.5268 5.4904 13.3423 5.55191 13.127L6.10552 11.2816C5.64418 10.9741 5.36737 10.4205 5.4904 9.80534C5.61342 9.22096 6.07477 8.75962 6.68989 8.63659C7.67409 8.45206 8.53527 9.15945 8.53527 10.0821C8.53527 10.5742 8.28922 11.0356 7.88939 11.2816L8.41225 13.127Z" fill="#2782ED"/>
</svg>
