<svg width="20" height="20" viewBox="0 0 20 20" fill="none" xmlns="http://www.w3.org/2000/svg">
<path d="M10 20C15.5228 20 20 15.5228 20 10C20 4.47715 15.5228 0 10 0C4.47715 0 0 4.47715 0 10C0 15.5228 4.47715 20 10 20Z" fill="white"/>
<path d="M10 19.5C15.2467 19.5 19.5 15.2467 19.5 10C19.5 4.75329 15.2467 0.5 10 0.5C4.75329 0.5 0.5 4.75329 0.5 10C0.5 15.2467 4.75329 19.5 10 19.5Z" stroke="#355073" stroke-miterlimit="10"/>
<path d="M10 8.5V5H6.81C6.59984 4.99544 6.39647 5.07453 6.24458 5.21985C6.0927 5.36518 6.00472 5.56484 6 5.775V14.225C6.00472 14.4352 6.0927 14.6348 6.24458 14.7802C6.39647 14.9255 6.59984 15.0046 6.81 15H13.19C13.4002 15.0046 13.6035 14.9255 13.7554 14.7802C13.9073 14.6348 13.9953 14.4352 14 14.225V9H10.5C10.3674 9 10.2402 8.94732 10.1465 8.85355C10.0527 8.75978 10 8.63261 10 8.5ZM7.5 8H8.5C8.63261 8 8.75978 8.05269 8.85355 8.14646C8.94731 8.24023 9 8.3674 9 8.5C9 8.63261 8.94731 8.75978 8.85355 8.85355C8.75978 8.94732 8.63261 9 8.5 9H7.5C7.36739 9 7.24022 8.94732 7.14645 8.85355C7.05269 8.75978 7 8.63261 7 8.5C7 8.3674 7.05269 8.24023 7.14645 8.14646C7.24022 8.05269 7.36739 8 7.5 8ZM12.5 13H7.5C7.36739 13 7.24022 12.9473 7.14645 12.8535C7.05269 12.7598 7 12.6326 7 12.5C7 12.3674 7.05269 12.2402 7.14645 12.1465C7.24022 12.0527 7.36739 12 7.5 12H12.5C12.6326 12 12.7598 12.0527 12.8535 12.1465C12.9473 12.2402 13 12.3674 13 12.5C13 12.6326 12.9473 12.7598 12.8535 12.8535C12.7598 12.9473 12.6326 13 12.5 13ZM13 10.5C13 10.6326 12.9473 10.7598 12.8535 10.8535C12.7598 10.9473 12.6326 11 12.5 11H7.5C7.36739 11 7.24022 10.9473 7.14645 10.8535C7.05269 10.7598 7 10.6326 7 10.5C7 10.3674 7.05269 10.2402 7.14645 10.1465C7.24022 10.0527 7.36739 10 7.5 10H12.5C12.6326 10 12.7598 10.0527 12.8535 10.1465C12.9473 10.2402 13 10.3674 13 10.5Z" fill="#365378" style="fill: #355073;"/>
<path d="M11 5V8H14L11 5Z" fill="#365378" style="fill: #355073;" />
</svg>
