<svg width="16" height="16" viewBox="0 0 16 16" fill="none" xmlns="http://www.w3.org/2000/svg">
<path d="M8.0018 0.617188C3.94026 0.617188 0.617188 3.94026 0.617188 8.0018C0.617188 12.0633 3.94026 15.3864 8.0018 15.3864C12.0633 15.3864 15.3864 12.0633 15.3864 8.0018C15.3864 3.94026 12.0633 0.617188 8.0018 0.617188ZM8.0018 13.5403C4.95565 13.5403 2.46334 11.048 2.46334 8.0018C2.46334 4.95565 4.95565 2.46334 8.0018 2.46334C11.048 2.46334 13.5403 4.95565 13.5403 8.0018C13.5403 11.048 11.048 13.5403 8.0018 13.5403ZM9.04796 8.06334C8.95565 7.97103 8.92488 7.84796 8.92488 7.72488V4.77103C8.92488 4.52488 8.70949 4.30949 8.46334 4.30949H7.54026C7.29411 4.30949 7.07873 4.52488 7.07873 4.77103V8.49411C7.07873 8.61719 7.14026 8.74026 7.2018 8.83257L9.47873 11.1095C9.66334 11.2941 9.94026 11.2941 10.1249 11.1095L10.771 10.4633C10.9556 10.2787 10.9556 10.0018 10.771 9.81719L9.04796 8.06334Z" fill="#666666"/>
</svg>
