<svg width="52" height="52" viewBox="0 0 52 52" fill="none" xmlns="http://www.w3.org/2000/svg">
<path fill-rule="evenodd" clip-rule="evenodd" d="M38.9163 3.85828L41.9163 1.02363C42.4163 0.551183 43.3329 0.866145 43.3329 1.57481V20.4808L43.333 20.5037V29.1123C43.1282 29.1011 42.9218 29.0954 42.7142 29.0954C38.5899 29.0954 34.9889 31.3361 33.0622 34.6666H9.90444C9.22066 34.6666 8.66634 35.221 8.66634 35.9047C8.66634 36.5885 9.22066 37.1428 9.90444 37.1428H32.0069C31.7233 38.1256 31.5714 39.1642 31.5714 40.2382C31.5714 44.4713 33.9318 48.153 37.4083 50.0391L35.5831 51.7637C35.2497 52.0787 34.7497 52.0787 34.4164 51.7637L31.4164 48.929C31.0831 48.6141 30.5831 48.6141 30.2498 48.929L27.2498 51.7637C26.9165 52.0787 26.4165 52.0787 26.0832 51.7637L23.0832 48.929C22.7499 48.6141 22.2499 48.6141 21.9165 48.929L18.9166 51.7637C18.5832 52.0787 18.0832 52.0787 17.7499 51.7637L14.7499 48.929C14.4166 48.6141 13.9166 48.6141 13.5833 48.929L10.5833 51.7637C10.25 52.0787 9.74999 52.0787 9.41666 51.7637L5.58336 48.1416C5.25003 47.8267 4.75004 47.8267 4.41671 48.1416L1.41674 50.9763C0.916742 51.4487 8.40035e-05 51.1338 8.4069e-05 50.4251L8.58183e-05 31.5189L0 31.4962V1.57481C0 0.866145 0.916658 0.551183 1.41665 1.02363L3.5833 3.07088C3.91663 3.38584 4.41662 3.38584 4.74995 3.07088L7.74992 0.236221C8.08325 -0.0787404 8.58325 -0.0787404 8.91658 0.236221L11.9165 3.07088C12.2499 3.38584 12.7499 3.38584 13.0832 3.07088L16.0832 0.236221C16.4165 -0.0787404 16.9165 -0.0787404 17.2498 0.236221L20.2498 3.07088C20.5831 3.38584 21.0831 3.38584 21.4165 3.07088L24.4164 0.236221C24.7498 -0.0787404 25.2498 -0.0787404 25.5831 0.236221L28.5831 3.07088C28.9164 3.38584 29.4164 3.38584 29.7497 3.07088L32.7497 0.236221C33.083 -0.0787404 33.583 -0.0787404 33.9163 0.236221L37.7496 3.85828C38.083 4.17324 38.583 4.17324 38.9163 3.85828ZM8.66634 25.0717C8.66634 24.3879 9.22066 23.8336 9.90444 23.8336H33.4282C34.112 23.8336 34.6663 24.3879 34.6663 25.0717C34.6663 25.7555 34.112 26.3098 33.4282 26.3098H9.90444C9.22066 26.3098 8.66634 25.7555 8.66634 25.0717ZM9.90452 13.0001C9.22074 13.0001 8.66642 13.5544 8.66642 14.2382C8.66642 14.922 9.22074 15.4763 9.90452 15.4763H33.4283C34.112 15.4763 34.6664 14.922 34.6664 14.2382C34.6664 13.5544 34.112 13.0001 33.4283 13.0001H9.90452Z" fill="#CCCCCC"/>
<path fill-rule="evenodd" clip-rule="evenodd" d="M42.7143 49.5239C47.8426 49.5239 52 45.3666 52 40.2383C52 35.1099 47.8426 30.9526 42.7143 30.9526C37.5859 30.9526 33.4286 35.1099 33.4286 40.2383C33.4286 45.3666 37.5859 49.5239 42.7143 49.5239ZM43.3385 35.7235L43.3479 39.4335C43.3473 39.4598 43.352 39.4859 43.3617 39.5103C43.3715 39.5346 43.3861 39.5568 43.4046 39.5753C43.4232 39.5939 43.4454 39.6085 43.4697 39.6183C43.4941 39.628 43.5202 39.6327 43.5464 39.6321L47.2549 39.642C47.2944 39.641 47.3336 39.6479 47.3703 39.6625C47.407 39.6771 47.4403 39.6991 47.4682 39.727C47.4962 39.7549 47.5181 39.7882 47.5327 39.8249C47.5473 39.8616 47.5543 39.9009 47.5532 39.9404L47.5527 40.5375C47.5535 40.577 47.5464 40.6162 47.5316 40.6529C47.5169 40.6895 47.4949 40.7228 47.467 40.7507C47.4391 40.7786 47.4058 40.8006 47.3692 40.8153C47.3325 40.83 47.2933 40.8372 47.2538 40.8363L43.5307 40.8411C43.5044 40.8405 43.4782 40.8452 43.4538 40.855C43.4294 40.8648 43.4072 40.8794 43.3886 40.898C43.37 40.9166 43.3553 40.9388 43.3456 40.9632C43.3358 40.9877 43.331 41.0138 43.3316 41.0401L43.3238 44.7622C43.3246 44.8017 43.3175 44.8409 43.3027 44.8776C43.288 44.9142 43.266 44.9475 43.2381 44.9754C43.2102 45.0033 43.1769 45.0253 43.1403 45.04C43.1036 45.0547 43.0644 45.0619 43.0249 45.061L42.4278 45.0616C42.3883 45.0627 42.349 45.0557 42.3123 45.0411C42.2757 45.0265 42.2423 45.0045 42.2144 44.9766C42.1865 44.9487 42.1646 44.9154 42.15 44.8787C42.1353 44.842 42.1284 44.8027 42.1295 44.7633L42.1379 41.0133C42.1385 40.9871 42.1338 40.961 42.1241 40.9366C42.1143 40.9122 42.0997 40.8901 42.0811 40.8715C42.0626 40.853 42.0404 40.8384 42.0161 40.8286C41.9917 40.8189 41.9656 40.8142 41.9393 40.8148L38.2152 40.8195C38.1757 40.8206 38.1364 40.8137 38.0997 40.7991C38.063 40.7844 38.0297 40.7625 38.0018 40.7346C37.9739 40.7067 37.9519 40.6734 37.9373 40.6367C37.9227 40.6 37.9158 40.5607 37.9168 40.5212L37.9174 39.9241C37.9165 39.8846 37.9237 39.8454 37.9384 39.8087C37.9531 39.7721 37.9751 39.7388 38.003 39.7109C38.0309 39.683 38.0642 39.661 38.1009 39.6463C38.1375 39.6315 38.1767 39.6244 38.2162 39.6252L41.9546 39.6347C41.9809 39.6353 42.007 39.6306 42.0315 39.6208C42.0559 39.611 42.0781 39.5964 42.0967 39.5778C42.1153 39.5591 42.1299 39.537 42.1397 39.5125C42.1495 39.4881 42.1542 39.462 42.1536 39.4356L42.1599 35.7099C42.1591 35.6704 42.1662 35.6312 42.181 35.5945C42.1957 35.5579 42.2177 35.5246 42.2456 35.4967C42.2735 35.4688 42.3068 35.4468 42.3434 35.4321C42.38 35.4174 42.4193 35.4102 42.4588 35.411L43.0402 35.4252C43.0796 35.4241 43.1189 35.4311 43.1556 35.4457C43.1923 35.4603 43.2256 35.4823 43.2535 35.5102C43.2814 35.5381 43.3034 35.5714 43.318 35.6081C43.3326 35.6448 43.3396 35.6841 43.3385 35.7235Z" fill="#CCCCCC"/>
</svg>
