<svg width="16" height="16" viewBox="0 0 16 16" fill="none" xmlns="http://www.w3.org/2000/svg">
<path d="M6.68773 5.58191L7.99532 1.3809L9.28476 5.58558L9.28742 5.59425L9.29029 5.60286C9.48985 6.20157 10.0552 6.41561 10.4683 6.41561H14.7969L11.2561 9.02768L11.2443 9.0364L11.2328 9.04557C10.8176 9.37772 10.6585 9.94076 10.8232 10.4349L10.8278 10.4486L10.8329 10.4621L12.4583 14.778L8.79248 12.0356C8.33179 11.6757 7.74184 11.725 7.31971 12.0064L7.30391 12.0169L7.28866 12.0282L3.56326 14.7941L5.14145 10.4541L5.14491 10.4445L5.14812 10.4349C5.31283 9.94076 5.15368 9.37772 4.7385 9.04557L4.72704 9.0364L4.71522 9.02768L1.17441 6.41561H5.50299C5.67618 6.41561 5.93002 6.39375 6.17452 6.2522C6.44486 6.09569 6.60887 5.84984 6.68773 5.58191Z" stroke="#D9D9D9" stroke-width="1.5"/>
</svg>
