<svg width="14" height="14" viewBox="0 0 14 14" fill="none" xmlns="http://www.w3.org/2000/svg">
<path d="M8.48675 4.98997H6.74271V3.24897C6.74506 3.21022 6.73914 3.17141 6.72534 3.1351C6.71155 3.0988 6.69019 3.06583 6.66269 3.03838C6.63519 3.01092 6.60216 2.98961 6.5658 2.97584C6.52943 2.96207 6.49055 2.95615 6.45173 2.95849H5.28967C5.25084 2.95615 5.21196 2.96207 5.1756 2.97584C5.13923 2.98961 5.10621 3.01092 5.0787 3.03838C5.0512 3.06583 5.02985 3.0988 5.01605 3.1351C5.00226 3.17141 4.99634 3.21022 4.99868 3.24897V4.98997H3.25464C3.21582 4.98763 3.17694 4.99354 3.14058 5.00731C3.10421 5.02108 3.07118 5.0424 3.04368 5.06985C3.01618 5.09731 2.99483 5.13028 2.98103 5.16658C2.96724 5.20288 2.96131 5.24169 2.96366 5.28045V6.44143C2.96145 6.48011 2.96748 6.51882 2.98133 6.555C2.99519 6.59119 3.01657 6.62404 3.04405 6.65139C3.07154 6.67874 3.10452 6.69997 3.14081 6.71369C3.17711 6.7274 3.2159 6.73329 3.25464 6.73097H4.99868V8.47196C4.99634 8.51072 5.00226 8.54953 5.01605 8.58583C5.02985 8.62213 5.0512 8.6551 5.0787 8.68256C5.10621 8.71001 5.13923 8.73133 5.1756 8.7451C5.21196 8.75887 5.25084 8.76478 5.28967 8.76244H6.45267C6.4915 8.76478 6.53038 8.75887 6.56674 8.7451C6.60311 8.73133 6.63613 8.71001 6.66363 8.68256C6.69114 8.6551 6.71249 8.62213 6.72629 8.58583C6.74008 8.54953 6.746 8.51072 6.74366 8.47196V6.73097H8.48675C8.52557 6.7333 8.56445 6.72739 8.60082 6.71362C8.63719 6.69985 8.67021 6.67853 8.69771 6.65108C8.72521 6.62363 8.74657 6.59066 8.76036 6.55436C8.77416 6.51805 8.78008 6.47924 8.77774 6.44048V5.28045C8.78008 5.24169 8.77416 5.20288 8.76036 5.16658C8.74657 5.13028 8.72521 5.09731 8.69771 5.06985C8.67021 5.0424 8.63719 5.02108 8.60082 5.00731C8.56445 4.99354 8.52557 4.98763 8.48675 4.98997ZM13.8936 12.5934L10.5511 9.28493C11.4229 8.10002 11.8144 6.63011 11.647 5.16941C11.4796 3.70872 10.7658 2.36502 9.64836 1.40727C8.53094 0.449526 7.0924 -0.0515975 5.62067 0.00420634C4.14894 0.0600102 2.75263 0.668624 1.71121 1.70823C0.669791 2.74783 0.060115 4.14171 0.00421368 5.61088C-0.0516876 7.08004 0.450311 8.51607 1.40973 9.63154C2.36915 10.747 3.71519 11.4596 5.17844 11.6267C6.64168 11.7938 8.11416 11.403 9.30114 10.5327L12.6437 13.8694C12.6831 13.9107 12.7304 13.9435 12.7829 13.966C12.8353 13.9884 12.8918 14 12.9489 14C13.0059 14 13.0624 13.9884 13.1149 13.966C13.1673 13.9435 13.2147 13.9107 13.254 13.8694L13.8643 13.2602C13.9462 13.1698 13.9939 13.0539 13.9995 12.9322C14.005 12.8105 13.9679 12.6907 13.8946 12.5934H13.8936ZM5.8707 9.92342C5.06572 9.92342 4.27882 9.68513 3.6095 9.23869C2.94019 8.79225 2.41852 8.1577 2.11047 7.41529C1.80241 6.67288 1.72181 5.85596 1.87886 5.06782C2.0359 4.27969 2.42353 3.55574 2.99274 2.98753C3.56195 2.41931 4.28716 2.03235 5.07667 1.87558C5.86618 1.71881 6.68453 1.79927 7.42824 2.10679C8.17194 2.4143 8.80759 2.93506 9.25482 3.60321C9.70204 4.27136 9.94074 5.05689 9.94074 5.86047C9.93775 6.93711 9.50798 7.9688 8.74535 8.73011C7.98271 9.49141 6.94922 9.92043 5.8707 9.92342Z" fill="white"/>
</svg>