<svg width="44" height="44" fill="none" xmlns="http://www.w3.org/2000/svg"><path d="M22 44c12.15 0 22-9.85 22-22S34.15 0 22 0 0 9.85 0 22s9.85 22 22 22z" fill="#0090B9"/><path d="M28.297 30.143a2.146 2.146 0 00-1.216-1.566l-2.739-1.119a1.288 1.288 0 01-.75-1.17v-.4c0-.191.032-.38.094-.561a8.962 8.962 0 001.723-4.419c0-2.65-1.7-4.354-3.786-4.354-2.086 0-3.785 1.7-3.785 4.354a8.961 8.961 0 001.723 4.419c.062.18.094.37.094.561v.4a1.29 1.29 0 01-.75 1.17l-2.739 1.119a2.145 2.145 0 00-1.216 1.566l-.1 1.277a.5.5 0 00.5.539h12.547a.5.5 0 00.5-.539l-.1-1.277z" fill="#fff"/><path d="M24.244 22.823a1.929 1.929 0 00-1.095 1.409l-.127 1.634h.574a1.72 1.72 0 01.09-.542 10.78 10.78 0 001.463-2.872l-.905.371zm-4.145 1.409a1.931 1.931 0 00-1.094-1.409l-.906-.371c.34 1.025.833 1.994 1.463 2.872.059.175.09.358.09.542h.574l-.127-1.634zm-2.587 1.634a10.01 10.01 0 01-1.675-4.961 6.68 6.68 0 011.616-4.486l.03-.071c.194-2.629-1.4-4.348-3.392-4.348-1.88 0-3.405 1.533-3.405 3.918a8.066 8.066 0 001.55 3.977c.056.163.084.333.084.505v.362a1.16 1.16 0 01-.675 1.053l-2.464 1.008a1.929 1.929 0 00-1.094 1.409l-.085 1.1a.5.5 0 00.5.539h9.011v-.005zm17.648-1.634a1.931 1.931 0 00-1.094-1.409l-2.465-1.008a1.156 1.156 0 01-.675-1.053V20.4c0-.172.029-.343.085-.505a8.069 8.069 0 001.55-3.977c0-2.385-1.525-3.918-3.407-3.918-1.992 0-3.585 1.719-3.39 4.348l.03.071a6.685 6.685 0 011.615 4.486 10.009 10.009 0 01-1.676 4.961h9.012a.5.5 0 00.5-.539l-.085-1.095z" fill="#fff"/></svg>