<svg viewBox="0 0 12 12" xmlns="http://www.w3.org/2000/svg">
<path d="M11.675 0H6.9C6.7 0 6.5 0.125 6.5 0.325V1.075C6.5 1.275 6.675 1.5 6.9 1.5H8.875C9.1 1.5 9.225 1.75 9.05 1.9L4.8 6.15C4.65 6.3 4.65 6.525 4.8 6.675L5.325 7.2C5.475 7.35 5.7 7.35 5.85 7.2L10.1 2.95C10.25 2.8 10.5 2.9 10.5 3.125V5.1C10.5 5.3 10.7 5.525 10.9 5.525H11.625C11.825 5.525 12 5.3 12 5.1V0.35C12 0.125 11.875 0 11.675 0ZM8.575 5.875L7.725 6.75C7.575 6.9 7.5 7.075 7.5 7.275V10.125C7.5 10.325 7.325 10.5 7.125 10.5H1.875C1.675 10.5 1.5 10.325 1.5 10.125V4.875C1.5 4.675 1.675 4.5 1.875 4.5H4.75C4.95 4.5 5.15 4.425 5.275 4.275L6.125 3.425C6.275 3.275 6.175 3 5.95 3H1C0.45 3 0 3.45 0 4V11C0 11.55 0.45 12 1 12H8C8.55 12 9 11.55 9 11V6.05C9 5.825 8.725 5.725 8.575 5.875Z"/>
</svg>
