<svg viewBox="0 0 16 16" xmlns="http://www.w3.org/2000/svg">
<path d="M3.38415 5.83984H4.61452C4.79907 5.83984 4.92211 5.74757 4.92211 5.56301V5.53225C4.92211 3.77898 6.42931 2.3333 8.21334 2.45633C9.84358 2.57937 11.0739 3.99429 11.0739 5.65529V5.56301C11.0739 5.74757 11.197 5.83984 11.3815 5.83984H12.6119C12.7965 5.83984 12.9195 5.74757 12.9195 5.56301V5.53225C12.9195 2.73317 10.5818 0.487746 7.75195 0.610783C5.13742 0.73382 3.13808 2.94848 3.07656 5.56301C3.10732 5.71681 3.23035 5.83984 3.38415 5.83984ZM3.07656 5.56301V5.68605V5.56301ZM14.1499 8.30058C14.1499 7.62388 13.5962 7.07021 12.9195 7.07021H3.07656C2.39986 7.07021 1.84619 7.62388 1.84619 8.30058V14.1448C1.84619 14.8215 2.39986 15.3752 3.07656 15.3752H12.9195C13.5962 15.3752 14.1499 14.8215 14.1499 14.1448V8.30058ZM9.41295 13.1298C9.47447 13.3143 9.32067 13.5296 9.10536 13.5296H6.85994C6.64462 13.5296 6.52159 13.3451 6.55235 13.1298L7.10601 11.2842C6.64462 10.9766 6.36779 10.423 6.46007 9.80778C6.5831 9.22335 7.04449 8.76196 7.65968 8.63893C8.64397 8.45437 9.50523 9.16183 9.50523 10.0846C9.50523 10.5768 9.25915 11.0381 8.85928 11.2842L9.41295 13.1298Z" fill="#828282"/>
</svg>
