<svg viewBox="0 0 16 16" xmlns="http://www.w3.org/2000/svg">
<path d="M15.4211 0H14.3352C14.1921 0.00329113 14.0558 0.061608 13.9546 0.162827C13.8534 0.264047 13.795 0.400381 13.7918 0.543489V3.07624C13.7918 3.4021 13.6106 3.5468 13.3577 3.32917C13.2557 3.19094 13.1336 3.06881 12.9953 2.96684C12.0995 2.07263 10.9949 1.4158 9.78142 1.05574C8.56794 0.695679 7.28386 0.643748 6.04527 0.904639C5.14047 1.08645 4.27978 1.44288 3.51134 1.95397C2.44921 2.63853 1.57288 3.57517 0.960418 4.68044C0.347953 5.78571 0.018363 7.0253 0.00100722 8.2888C-0.00926019 9.29322 0.17979 10.2897 0.557216 11.2206C0.934641 12.1514 1.49295 12.9982 2.19982 13.7119C2.90668 14.4255 3.74808 14.9919 4.6753 15.3782C5.60252 15.7645 6.59715 15.963 7.60162 15.9624C9.41646 15.965 11.1734 15.3239 12.5601 14.1531C12.6179 14.1052 12.665 14.0457 12.6985 13.9785C12.7319 13.9114 12.751 13.8379 12.7544 13.7629C12.7579 13.688 12.7456 13.6131 12.7184 13.5431C12.6912 13.4732 12.6497 13.4096 12.5966 13.3567L11.8366 12.5967C11.7408 12.5042 11.6147 12.4494 11.4817 12.4427C11.3487 12.436 11.2177 12.4778 11.1131 12.5603C10.4472 13.1102 9.66083 13.4952 8.81802 13.6839C7.97521 13.8725 7.09976 13.8596 6.2629 13.6461C5.77841 13.5222 5.31498 13.3271 4.88771 13.0673C3.88387 12.4563 3.1028 11.539 2.65953 10.4506C2.21626 9.36228 2.13424 8.16033 2.42553 7.02184C2.54943 6.53735 2.74447 6.07391 3.00432 5.64664C3.46631 4.8129 4.14307 4.11803 4.96432 3.63418C5.78557 3.15032 6.72137 2.89512 7.67456 2.89508C8.38748 2.89538 9.09334 3.03621 9.75179 3.30952C10.4102 3.58283 11.0084 3.98326 11.5119 4.48791C11.6853 4.63004 11.8323 4.80169 11.946 4.99493C12.0542 5.28432 11.8013 5.42901 11.4755 5.42901H8.94153C8.79842 5.4323 8.66208 5.49062 8.56086 5.59184C8.45964 5.69306 8.40133 5.82939 8.39804 5.9725V7.09477C8.39642 7.1618 8.40844 7.22845 8.43335 7.29069C8.45826 7.35294 8.49555 7.40947 8.54295 7.45688C8.59036 7.50429 8.6469 7.54157 8.70914 7.56648C8.77138 7.59139 8.83803 7.60341 8.90506 7.60179H15.5293C15.6534 7.59968 15.7719 7.54942 15.8597 7.46163C15.9475 7.37384 15.9977 7.25538 15.9998 7.13124V0.542313C15.9822 0.398441 15.9145 0.265341 15.8088 0.16623C15.703 0.0671186 15.5658 0.00828793 15.4211 0Z"/>
</svg>
