<svg width="44" height="44" fill="none" xmlns="http://www.w3.org/2000/svg"><path d="M22 44c12.15 0 22-9.85 22-22S34.15 0 22 0 0 9.85 0 22s9.85 22 22 22z" fill="#0090B9"/><path d="M31.931 16.09l-2.637.575a.441.441 0 01-.448-.126l-1.544-1.652a.439.439 0 01-.093-.454l.742-2.571a.757.757 0 00-.395-.939l-1.628-.738a.748.748 0 00-.966.32l-1.449 2.249a.442.442 0 01-.404.23l-2.26-.078a.447.447 0 01-.39-.252l-1.3-2.363a.75.75 0 00-.943-.385l-1.674.63a.75.75 0 00-.457.912l.576 2.636a.442.442 0 01-.127.448l-1.652 1.545a.444.444 0 01-.456.094l-2.57-.741a.75.75 0 00-.939.395l-.74 1.628a.757.757 0 00.321.966l2.25 1.449a.44.44 0 01.228.402l-.075 2.26a.444.444 0 01-.253.389l-2.364 1.302a.757.757 0 00-.379.942l.631 1.673a.75.75 0 00.91.457l2.637-.577a.445.445 0 01.447.127l1.545 1.651a.443.443 0 01.094.456l-.741 2.571a.757.757 0 00.395.939l1.627.74a.75.75 0 00.967-.323l1.447-2.25a.445.445 0 01.404-.228l2.261.076a.445.445 0 01.389.252l1.3 2.364a.757.757 0 00.943.384l1.674-.63a.757.757 0 00.457-.911l-.577-2.636a.45.45 0 01.127-.45l1.652-1.544a.443.443 0 01.455-.093l2.571.742a.75.75 0 00.939-.394l.74-1.628a.75.75 0 00-.321-.966l-2.251-1.448a.444.444 0 01-.229-.404l.076-2.26a.444.444 0 01.253-.389l2.364-1.302a.75.75 0 00.379-.942l-.631-1.673a.757.757 0 00-.907-.457zm-6.463 7.318a4.157 4.157 0 11.106-3.178 4.13 4.13 0 01-.105 3.178h-.001z" fill="#fff"/></svg>