<svg xmlns="http://www.w3.org/2000/svg" viewBox="0 0 14.77 14.77">
  <defs>
    <style>
      .cls-1 {
        fill: #074b69;
      }
    </style>
  </defs>
  <g id="icons_utility_clear" data-name="icons/utility/clear" transform="translate(-0.615 -0.615)">
    <path id="Mask" class="cls-1" d="M8,.615A7.385,7.385,0,1,0,15.385,8,7.367,7.367,0,0,0,8,.615ZM9.508,8.246l2.4,2.4a.3.3,0,0,1,0,.431l-.862.862a.3.3,0,0,1-.431,0l-2.4-2.4a.3.3,0,0,0-.431,0l-2.4,2.4a.3.3,0,0,1-.431,0l-.862-.862a.3.3,0,0,1,0-.431l2.4-2.4a.3.3,0,0,0,0-.431L4.062,5.385a.3.3,0,0,1,0-.431l.862-.862a.3.3,0,0,1,.431,0L7.785,6.523a.3.3,0,0,0,.431,0l2.4-2.4a.3.3,0,0,1,.431,0l.862.862a.3.3,0,0,1,0,.431l-2.4,2.4a.37.37,0,0,0,0,.431Z"/>
  </g>
</svg>
