<svg xmlns="http://www.w3.org/2000/svg" width="16" height="16" viewBox="0 0 16 16"><defs><style>.a{fill:#fff;fill-rule:evenodd;}</style></defs><path class="a" d="M498.168,23.719l5.637-5.665a.626.626,0,0,0,0-.908l-.867-.908a.63.63,0,0,0-.911,0l-5.68,5.665a.42.42,0,0,1-.607,0l-5.68-5.708a.63.63,0,0,0-.911,0l-.911.908a.626.626,0,0,0,0,.908l5.68,5.665a.417.417,0,0,1,0,.605L488.2,29.989a.626.626,0,0,0,0,.908l.911.908a.63.63,0,0,0,.911,0l5.68-5.665a.42.42,0,0,1,.607,0l5.68,5.665a.63.63,0,0,0,.911,0l.911-.908a.626.626,0,0,0,0-.908l-5.637-5.665a.417.417,0,0,1,0-.605" transform="translate(-488 -16)"/></svg>