<svg width="16" height="15" viewBox="0 0 16 15" fill="none" xmlns="http://www.w3.org/2000/svg">
<path fill-rule="evenodd" clip-rule="evenodd" d="M2.9008 9.77693L5.63926 12.5154C5.76233 12.6385 5.94695 12.6385 6.07003 12.5154L12.9008 5.65385C13.0239 5.53077 13.0239 5.34616 12.9008 5.22308L10.1931 2.51539C10.07 2.39231 9.88541 2.39231 9.76233 2.51539L2.9008 9.37693C2.77772 9.5 2.77772 9.68462 2.9008 9.77693V9.77693ZM11.0854 1.25385C10.9623 1.37693 10.9623 1.56154 11.0854 1.68462L13.7931 4.39231C13.9162 4.51539 14.1008 4.51539 14.2239 4.39231L14.9931 3.62308C15.4854 3.16154 15.4854 2.42308 14.9931 1.93077L13.5469 0.484618C13.0546 -0.00768995 12.2854 -0.00768995 11.7931 0.484618L11.0854 1.25385V1.25385ZM0.623873 14.3308C0.562334 14.6385 0.839257 14.9154 1.14695 14.8538L4.5008 14.0538C4.62387 14.0231 4.71618 13.9615 4.77772 13.9L4.83926 13.8385C4.9008 13.7769 4.93156 13.5615 4.80849 13.4385L2.03926 10.6692C1.91618 10.5462 1.7008 10.5769 1.63926 10.6385L1.57772 10.7C1.48541 10.7923 1.45464 10.8846 1.42387 10.9769L0.623873 14.3308V14.3308Z" fill="#2782ED"/>
</svg>
