<svg width="14" height="14" viewBox="0 0 14 14" fill="none" xmlns="http://www.w3.org/2000/svg">
  <path d="M11.848 5.25673H9.32986C8.49048 5.25673 7.81252 4.57877 7.81252 3.77168V1.25354C7.84481 0.995274 7.61882 0.769287 7.32827 0.769287H3.32508C2.4857 0.769287 1.80774 1.44725 1.80774 2.25434V11.7458C1.80774 12.5852 2.4857 13.2308 3.32508 13.2308H10.8472C11.6866 13.2308 12.3645 12.5529 12.3645 11.7458V5.77327C12.3645 5.48272 12.1385 5.25673 11.848 5.25673ZM12.2677 3.15829L9.94325 0.866138C9.87868 0.801571 9.81412 0.769287 9.71727 0.769287C9.52356 0.769287 9.36214 0.930706 9.36214 1.12441V2.77088C9.36214 3.31971 9.81412 3.77168 10.3629 3.77168H12.0094C12.2031 3.77168 12.3645 3.61026 12.3645 3.41656C12.3645 3.31971 12.3323 3.25514 12.2677 3.15829Z" fill="#666666"/>
</svg>
