<svg width="18" height="18" viewBox="0 0 18 18" fill="none" xmlns="http://www.w3.org/2000/svg">
<path fill-rule="evenodd" clip-rule="evenodd" d="M6.10091 12.6779C6.30861 12.8856 6.62015 12.851 6.82784 12.6779L10.2894 9.21636C10.5317 8.97405 10.9471 8.93944 11.2586 9.21636C11.5701 9.49328 11.5355 9.9779 11.2586 10.2548L7.00091 14.4433C6.0663 15.3779 4.50861 15.3779 3.57399 14.4433L3.53938 14.4087C2.60476 13.4741 2.60476 11.9164 3.53938 10.9817L11.0509 3.47021C11.9855 2.53559 13.5432 2.53559 14.4778 3.47021L14.5125 3.50482C15.4471 4.43944 15.4471 5.99713 14.5125 6.93174L14.4778 6.96636C14.3048 7.13944 14.2701 7.38174 14.4086 7.58944C14.6163 7.97021 14.7894 8.38559 14.8932 8.80097C14.9625 9.0779 15.274 9.14713 15.4817 8.97405C15.7586 8.69713 16.0009 8.42021 16.0009 8.42021C17.7663 6.65482 17.7663 3.78174 16.0009 2.01636H15.9317C14.1663 0.250976 11.2932 0.250976 9.52784 2.01636L2.0163 9.49328C0.250915 11.2587 0.250915 14.1317 2.0163 15.8971L2.08553 15.9664C3.85091 17.7317 6.68938 17.7317 8.45476 15.9664L12.7471 11.7087C13.8548 10.601 13.8201 8.80098 12.6778 7.69328C11.5701 6.62021 9.77014 6.68944 8.69707 7.79713L5.30476 11.1894C5.09707 11.3971 5.09707 11.7433 5.30476 11.951L6.10091 12.6779V12.6779Z" fill="#666666"/>
</svg>
