<svg width="12" height="16" viewBox="0 0 12 16" fill="none" xmlns="http://www.w3.org/2000/svg">
<path d="M6 5.60009V0.000298798H1.215C0.899755 -0.00699604 0.594704 0.119535 0.366875 0.352043C0.139045 0.584552 0.00708305 0.904004 0 1.24024V14.7598C0.00708305 15.096 0.139045 15.4154 0.366875 15.648C0.594704 15.8805 0.899755 16.007 1.215 15.9997H10.785C11.1002 16.007 11.4053 15.8805 11.6331 15.648C11.861 15.4154 11.9929 15.096 12 14.7598V6.40006H6.75C6.55109 6.40006 6.36033 6.31577 6.21968 6.16574C6.07903 6.01572 6 5.81225 6 5.60009ZM2.25 4.80012H3.75C3.94891 4.80012 4.13967 4.88441 4.28032 5.03444C4.42097 5.18446 4.5 5.38792 4.5 5.60009C4.5 5.81225 4.42097 6.01572 4.28032 6.16574C4.13967 6.31577 3.94891 6.40006 3.75 6.40006H2.25C2.05109 6.40006 1.86033 6.31577 1.71968 6.16574C1.57903 6.01572 1.5 5.81225 1.5 5.60009C1.5 5.38792 1.57903 5.18446 1.71968 5.03444C1.86033 4.88441 2.05109 4.80012 2.25 4.80012ZM9.75 12.7998H2.25C2.05109 12.7998 1.86033 12.7155 1.71968 12.5655C1.57903 12.4155 1.5 12.212 1.5 11.9999C1.5 11.7877 1.57903 11.5842 1.71968 11.4342C1.86033 11.2842 2.05109 11.1999 2.25 11.1999H9.75C9.94891 11.1999 10.1397 11.2842 10.2803 11.4342C10.421 11.5842 10.5 11.7877 10.5 11.9999C10.5 12.212 10.421 12.4155 10.2803 12.5655C10.1397 12.7155 9.94891 12.7998 9.75 12.7998ZM10.5 8.79997C10.5 9.01214 10.421 9.2156 10.2803 9.36562C10.1397 9.51565 9.94891 9.59994 9.75 9.59994H2.25C2.05109 9.59994 1.86033 9.51565 1.71968 9.36562C1.57903 9.2156 1.5 9.01214 1.5 8.79997C1.5 8.5878 1.57903 8.38434 1.71968 8.23432C1.86033 8.08429 2.05109 8 2.25 8H9.75C9.94891 8 10.1397 8.08429 10.2803 8.23432C10.421 8.38434 10.5 8.5878 10.5 8.79997Z" fill="#DDDDDD"/>
<path d="M7.5 0V4.79982H12L7.5 0Z" fill="#DDDDDD"/>
</svg>
