<svg width="19" height="18" viewBox="0 0 19 18" fill="none" xmlns="http://www.w3.org/2000/svg">
<path fill-rule="evenodd" clip-rule="evenodd" d="M1.45455 0H14.5455C15.3455 0 16 0.654545 16 1.45455V5.67363C15.0907 5.24169 14.0736 5 13 5C11.559 5 10.2197 5.4354 9.10655 6.18182H3.27273C3.05455 6.18182 2.90909 6.32727 2.90909 6.54545V7.27273C2.90909 7.49091 3.05455 7.63636 3.27273 7.63636H7.52621C7.17183 8.08032 6.87032 8.56835 6.63124 9.09091H3.27273C3.05455 9.09091 2.90909 9.23636 2.90909 9.45455V10.1818C2.90909 10.4 3.05455 10.5455 3.27273 10.5455H6.15132C6.05216 11.0147 6 11.5012 6 12H3.27273C3.05455 12 2.90909 12.1455 2.90909 12.3636V13.0909C2.90909 13.3091 3.05455 13.4545 3.27273 13.4545H6.15133C6.34786 14.3845 6.72904 15.2464 7.25469 16H1.45455C0.654545 16 0 15.3455 0 14.5455V1.45455C0 0.654545 0.654545 0 1.45455 0ZM12.7273 4.72727C12.9455 4.72727 13.0909 4.58182 13.0909 4.36364V3.63636C13.0909 3.41818 12.9455 3.27273 12.7273 3.27273H3.27273C3.05455 3.27273 2.90909 3.41818 2.90909 3.63636V4.36364C2.90909 4.58182 3.05455 4.72727 3.27273 4.72727H12.7273Z" fill="white" fill-opacity="0.8"/>
<path fill-rule="evenodd" clip-rule="evenodd" d="M13 18C16.3137 18 19 15.3137 19 12C19 8.68629 16.3137 6 13 6C9.68629 6 7 8.68629 7 12C7 15.3137 9.68629 18 13 18ZM16.55 11L12.85 14.7C12.75 14.8 12.65 14.9 12.55 14.9C12.45 14.9 12.35 14.9 12.25 14.8L10.15 12.6C9.95 12.4 9.95 12.1 10.15 12L10.45 11.7C10.55 11.6 10.65 11.6 10.75 11.6C10.85 11.6 10.95 11.6 11.05 11.7L12.55 13.2L15.65 10.1C15.75 10 15.85 10 15.95 10C16.05 10 16.15 10 16.25 10.1L16.55 10.4C16.75 10.5 16.75 10.8 16.55 11Z" fill="white" fill-opacity="0.8"/>
</svg>
