<svg width="5" height="3" viewBox="0 0 5 3" fill="none" xmlns="http://www.w3.org/2000/svg">
<path d="M4.58286 3L0.157878 3C0.12642 2.9991 0.0959001 2.98909 0.070024 2.97118C0.044148 2.95327 0.0240293 2.92823 0.0121121 2.8991C0.000194561 2.86997 -0.00300931 2.83801 0.00289013 2.8071C0.00878956 2.77619 0.0235377 2.74765 0.0453439 2.72496L2.20786 0.0749307C2.22663 0.0515444 2.25041 0.0326705 2.27745 0.0197017C2.30448 0.00673273 2.33409 -2.10886e-07 2.36407 -2.08264e-07C2.39406 -2.05643e-07 2.42366 0.00673274 2.4507 0.0197018C2.47773 0.0326705 2.50151 0.0515445 2.52028 0.0749307L4.70799 2.72496C4.728 2.74927 4.74079 2.7787 4.7449 2.80991C4.74901 2.84113 4.74428 2.87287 4.73124 2.90152C4.7182 2.93018 4.69738 2.9546 4.67115 2.97201C4.64492 2.98942 4.61433 2.99912 4.58286 3Z" fill="#666666"/>
</svg>
