<svg width="16" height="16" viewBox="0 0 16 16" fill="none" xmlns="http://www.w3.org/2000/svg">
  <path d="M5.53831 11.8462C5.53831 12.0923 5.7537 12.3077 5.99985 12.3077H6.79985C6.76908 12.0923 6.76908 11.9077 6.76908 11.6923C6.76908 11.2615 6.83062 10.8615 6.92293 10.4615H5.99985C5.7537 10.4615 5.53831 10.6769 5.53831 10.9231V11.8462ZM8.76908 4.30769H5.99985C5.7537 4.30769 5.53831 4.52308 5.53831 4.76923V5.69231C5.53831 5.93846 5.7537 6.15385 5.99985 6.15385H8.76908C9.01523 6.15385 9.23062 5.93846 9.23062 5.69231V4.76923C9.23062 4.52308 9.01523 4.30769 8.76908 4.30769ZM1.07677 3.07693H13.6922C13.9383 3.07693 14.1537 2.86154 14.1537 2.61539V1.07693C14.1537 0.830772 13.9383 0.615387 13.6922 0.615387H1.07677C0.830619 0.615387 0.615234 0.830772 0.615234 1.07693V2.61539C0.615234 2.86154 0.830619 3.07693 1.07677 3.07693ZM13.6922 6.15385C13.9383 6.15385 14.1537 5.93846 14.1537 5.69231V4.76923C14.1537 4.52308 13.9383 4.30769 13.6922 4.30769H10.9229C10.6768 4.30769 10.4614 4.52308 10.4614 4.76923V5.69231C10.4614 5.93846 10.6768 6.15385 10.9229 6.15385H13.6922ZM5.53831 8.76923C5.53831 9.01539 5.7537 9.23077 5.99985 9.23077H7.41523C7.81523 8.52308 8.39985 7.93846 9.07677 7.50769C8.98446 7.41539 8.89216 7.38462 8.76908 7.38462H5.99985C5.7537 7.38462 5.53831 7.6 5.53831 7.84616V8.76923ZM3.846 4.30769H1.07677C0.830619 4.30769 0.615234 4.52308 0.615234 4.76923V5.69231C0.615234 5.93846 0.830619 6.15385 1.07677 6.15385H3.846C4.09216 6.15385 4.30754 5.93846 4.30754 5.69231V4.76923C4.30754 4.52308 4.09216 4.30769 3.846 4.30769ZM7.10754 13.5385H5.99985C5.7537 13.5385 5.53831 13.7538 5.53831 14V14.9231C5.53831 15.1692 5.7537 15.3846 5.99985 15.3846H8.43062C7.846 14.8923 7.41523 14.2462 7.10754 13.5385ZM3.846 10.4615H1.07677C0.830619 10.4615 0.615234 10.6769 0.615234 10.9231V11.8462C0.615234 12.0923 0.830619 12.3077 1.07677 12.3077H3.846C4.09216 12.3077 4.30754 12.0923 4.30754 11.8462V10.9231C4.30754 10.6769 4.09216 10.4615 3.846 10.4615ZM3.846 13.5385H1.07677C0.830619 13.5385 0.615234 13.7538 0.615234 14V14.9231C0.615234 15.1692 0.830619 15.3846 1.07677 15.3846H3.846C4.09216 15.3846 4.30754 15.1692 4.30754 14.9231V14C4.30754 13.7538 4.09216 13.5385 3.846 13.5385ZM3.846 7.38462H1.07677C0.830619 7.38462 0.615234 7.6 0.615234 7.84616V8.76923C0.615234 9.01539 0.830619 9.23077 1.07677 9.23077H3.846C4.09216 9.23077 4.30754 9.01539 4.30754 8.76923V7.84616C4.30754 7.6 4.09216 7.38462 3.846 7.38462ZM11.6614 8.03077C9.63062 8.03077 7.96908 9.69231 7.96908 11.7231C7.96908 13.7538 9.63062 15.4154 11.6614 15.4154C13.6922 15.4154 15.3537 13.7538 15.3537 11.7231C15.3537 9.69231 13.6922 8.03077 11.6614 8.03077ZM14.0922 10.6462L11.1383 13.6308C11.0768 13.6923 10.9845 13.6923 10.9229 13.6308L9.19985 11.9077C9.13831 11.8462 9.13831 11.7538 9.19985 11.6923L9.846 11.0462C9.90754 10.9846 9.99985 10.9846 10.0614 11.0462L10.9537 11.9385C10.9845 11.9692 11.0768 11.9692 11.1075 11.9385L13.2306 9.78462C13.2922 9.72308 13.3845 9.72308 13.446 9.78462L14.0922 10.4308C14.1845 10.4923 14.1845 10.5846 14.0922 10.6462Z" fill="#2782ED"/>
</svg>
