<svg width="16" height="16" viewBox="0 0 16 16" fill="none" xmlns="http://www.w3.org/2000/svg">
<path d="M0 2C0 0.895431 0.895431 0 2 0H14C15.1046 0 16 0.895431 16 2V14C16 15.1046 15.1046 16 14 16H2C0.895431 16 0 15.1046 0 14V2Z" fill="#05AE06"/>
<path fill-rule="evenodd" clip-rule="evenodd" d="M3 3V12.991H12.991V3H3ZM6.69738 11.991H11.991V10.0822H6.69738V11.991ZM6.69738 9.08217V6.90885H11.991V9.08217H6.69738ZM5.69738 9.08217H4V6.90885H5.69738V9.08217ZM4 10.0822H5.69738V11.991H4V10.0822ZM6.69738 5.90885H11.991V4H6.69738V5.90885ZM5.69738 4V5.90885H4V4H5.69738Z" fill="white"/>
</svg>
